G04 #@! TF.GenerationSoftware,KiCad,Pcbnew,9.0.4*
G04 #@! TF.CreationDate,2025-09-23T15:48:17-04:00*
G04 #@! TF.ProjectId,ESC Module,45534320-4d6f-4647-956c-652e6b696361,rev?*
G04 #@! TF.SameCoordinates,Original*
G04 #@! TF.FileFunction,Soldermask,Bot*
G04 #@! TF.FilePolarity,Negative*
%FSLAX46Y46*%
G04 Gerber Fmt 4.6, Leading zero omitted, Abs format (unit mm)*
G04 Created by KiCad (PCBNEW 9.0.4) date 2025-09-23 15:48:17*
%MOMM*%
%LPD*%
G01*
G04 APERTURE LIST*
%ADD10C,0.000000*%
%ADD11C,1.000000*%
G04 APERTURE END LIST*
D10*
G36*
X132500000Y-89750000D02*
G01*
X132637439Y-89887439D01*
X132637439Y-92612561D01*
X132133908Y-93116092D01*
X129000000Y-93116092D01*
X129000000Y-92250000D01*
X130500000Y-90750000D01*
X130500000Y-88250000D01*
X131250000Y-88250000D01*
X131250000Y-85750000D01*
X132500000Y-85750000D01*
X132500000Y-89750000D01*
G37*
G36*
X127000000Y-85500000D02*
G01*
X127750000Y-85500000D01*
X127750000Y-86250000D01*
X126750000Y-86250000D01*
X126750000Y-88750000D01*
X124943236Y-90556764D01*
X124943236Y-91250000D01*
X124500000Y-91250000D01*
X123605820Y-90355820D01*
X123605820Y-89394180D01*
X124318298Y-88681702D01*
X124318298Y-86681702D01*
X125000000Y-86000000D01*
X125000000Y-83500000D01*
X127000000Y-83500000D01*
X127000000Y-85500000D01*
G37*
G36*
X126250000Y-100964285D02*
G01*
X124458333Y-102500000D01*
X122000000Y-102500000D01*
X122000000Y-98800000D01*
X123312500Y-97750000D01*
X126250000Y-97750000D01*
X126250000Y-100964285D01*
G37*
G36*
X134750000Y-99000000D02*
G01*
X134750000Y-102500000D01*
X132000000Y-102500000D01*
X130500000Y-100750000D01*
X130500000Y-97750000D01*
X133750000Y-97750000D01*
X134750000Y-99000000D01*
G37*
D11*
G04 #@! TO.C,U7*
X120000000Y-86500000D03*
G04 #@! TD*
G04 #@! TO.C,U14*
X136000000Y-87750000D03*
G04 #@! TD*
G04 #@! TO.C,U105*
X120000000Y-92750000D03*
G04 #@! TD*
G04 #@! TO.C,U108*
X136000000Y-89000000D03*
G04 #@! TD*
G04 #@! TO.C,U121*
X120000000Y-101750000D03*
G04 #@! TD*
G04 #@! TO.C,U18*
X126000000Y-80750000D03*
G04 #@! TD*
G04 #@! TO.C,U111*
X136000000Y-98000000D03*
G04 #@! TD*
G04 #@! TO.C,U110*
X120000000Y-82750000D03*
G04 #@! TD*
G04 #@! TO.C,U16*
X136000000Y-92750000D03*
G04 #@! TD*
G04 #@! TO.C,U5*
X120000000Y-91500000D03*
G04 #@! TD*
G04 #@! TO.C,U15*
X136000000Y-95250000D03*
G04 #@! TD*
G04 #@! TO.C,U202*
X120000000Y-98000000D03*
G04 #@! TD*
G04 #@! TO.C,U22*
X120000000Y-90250000D03*
G04 #@! TD*
G04 #@! TO.C,U116*
X124750000Y-80750000D03*
G04 #@! TD*
G04 #@! TO.C,U118*
X129000000Y-107000000D03*
G04 #@! TD*
G04 #@! TO.C,U122*
X120000000Y-103000000D03*
G04 #@! TD*
G04 #@! TO.C,U114*
X136000000Y-91500000D03*
G04 #@! TD*
G04 #@! TO.C,U103*
X128750000Y-80750000D03*
G04 #@! TD*
G04 #@! TO.C,U12*
X136000000Y-82750000D03*
G04 #@! TD*
G04 #@! TO.C,U9*
X120000000Y-81500000D03*
G04 #@! TD*
G04 #@! TO.C,U106*
X120000000Y-87750000D03*
G04 #@! TD*
G04 #@! TO.C,U19*
X131250000Y-80750000D03*
G04 #@! TD*
G04 #@! TO.C,U13*
X136000000Y-90250000D03*
G04 #@! TD*
G04 #@! TO.C,U20*
X120000000Y-95250000D03*
G04 #@! TD*
G04 #@! TO.C,U3*
X132750000Y-107000000D03*
G04 #@! TD*
G04 #@! TO.C,U113*
X136000000Y-81500000D03*
G04 #@! TD*
G04 #@! TO.C,U10*
X120000000Y-84000000D03*
G04 #@! TD*
G04 #@! TO.C,U115*
X136000000Y-86500000D03*
G04 #@! TD*
G04 #@! TO.C,U101*
X130000000Y-80750000D03*
G04 #@! TD*
G04 #@! TO.C,U8*
X120000000Y-89000000D03*
G04 #@! TD*
G04 #@! TO.C,U201*
X120000000Y-99250000D03*
G04 #@! TD*
G04 #@! TO.C,U119*
X136000000Y-100500000D03*
G04 #@! TD*
G04 #@! TO.C,U117*
X127000000Y-107000000D03*
G04 #@! TD*
G04 #@! TO.C,U304*
X136000000Y-103000000D03*
G04 #@! TD*
G04 #@! TO.C,U11*
X136000000Y-85250000D03*
G04 #@! TD*
G04 #@! TO.C,U102*
X121000000Y-107000000D03*
G04 #@! TD*
G04 #@! TO.C,U107*
X136000000Y-84000000D03*
G04 #@! TD*
G04 #@! TO.C,U104*
X127250000Y-80750000D03*
G04 #@! TD*
G04 #@! TO.C,U21*
X120000000Y-85250000D03*
G04 #@! TD*
G04 #@! TO.C,U4*
X134000000Y-107000000D03*
G04 #@! TD*
G04 #@! TO.C,U120*
X136000000Y-99250000D03*
G04 #@! TD*
G04 #@! TO.C,U109*
X136000000Y-94000000D03*
G04 #@! TD*
G04 #@! TO.C,U303*
X136000000Y-101750000D03*
G04 #@! TD*
G04 #@! TO.C,U112*
X120000000Y-100500000D03*
G04 #@! TD*
G04 #@! TO.C,U6*
X120000000Y-94000000D03*
G04 #@! TD*
M02*
