G04 #@! TF.GenerationSoftware,KiCad,Pcbnew,9.0.4*
G04 #@! TF.CreationDate,2025-09-23T15:48:17-04:00*
G04 #@! TF.ProjectId,ESC Module,45534320-4d6f-4647-956c-652e6b696361,rev?*
G04 #@! TF.SameCoordinates,Original*
G04 #@! TF.FileFunction,Copper,L1,Top*
G04 #@! TF.FilePolarity,Positive*
%FSLAX46Y46*%
G04 Gerber Fmt 4.6, Leading zero omitted, Abs format (unit mm)*
G04 Created by KiCad (PCBNEW 9.0.4) date 2025-09-23 15:48:17*
%MOMM*%
%LPD*%
G01*
G04 APERTURE LIST*
G04 Aperture macros list*
%AMRoundRect*
0 Rectangle with rounded corners*
0 $1 Rounding radius*
0 $2 $3 $4 $5 $6 $7 $8 $9 X,Y pos of 4 corners*
0 Add a 4 corners polygon primitive as box body*
4,1,4,$2,$3,$4,$5,$6,$7,$8,$9,$2,$3,0*
0 Add four circle primitives for the rounded corners*
1,1,$1+$1,$2,$3*
1,1,$1+$1,$4,$5*
1,1,$1+$1,$6,$7*
1,1,$1+$1,$8,$9*
0 Add four rect primitives between the rounded corners*
20,1,$1+$1,$2,$3,$4,$5,0*
20,1,$1+$1,$4,$5,$6,$7,0*
20,1,$1+$1,$6,$7,$8,$9,0*
20,1,$1+$1,$8,$9,$2,$3,0*%
G04 Aperture macros list end*
G04 #@! TA.AperFunction,SMDPad,CuDef*
%ADD10RoundRect,0.135000X-0.135000X-0.185000X0.135000X-0.185000X0.135000X0.185000X-0.135000X0.185000X0*%
G04 #@! TD*
G04 #@! TA.AperFunction,SMDPad,CuDef*
%ADD11RoundRect,0.225000X0.250000X-0.225000X0.250000X0.225000X-0.250000X0.225000X-0.250000X-0.225000X0*%
G04 #@! TD*
G04 #@! TA.AperFunction,SMDPad,CuDef*
%ADD12RoundRect,0.150000X0.200000X-0.150000X0.200000X0.150000X-0.200000X0.150000X-0.200000X-0.150000X0*%
G04 #@! TD*
G04 #@! TA.AperFunction,ComponentPad*
%ADD13C,1.000000*%
G04 #@! TD*
G04 #@! TA.AperFunction,SMDPad,CuDef*
%ADD14RoundRect,0.135000X-0.185000X0.135000X-0.185000X-0.135000X0.185000X-0.135000X0.185000X0.135000X0*%
G04 #@! TD*
G04 #@! TA.AperFunction,SMDPad,CuDef*
%ADD15RoundRect,0.140000X0.170000X-0.140000X0.170000X0.140000X-0.170000X0.140000X-0.170000X-0.140000X0*%
G04 #@! TD*
G04 #@! TA.AperFunction,SMDPad,CuDef*
%ADD16RoundRect,0.062500X-0.062500X0.375000X-0.062500X-0.375000X0.062500X-0.375000X0.062500X0.375000X0*%
G04 #@! TD*
G04 #@! TA.AperFunction,SMDPad,CuDef*
%ADD17RoundRect,0.062500X-0.375000X0.062500X-0.375000X-0.062500X0.375000X-0.062500X0.375000X0.062500X0*%
G04 #@! TD*
G04 #@! TA.AperFunction,HeatsinkPad*
%ADD18R,3.100000X3.100000*%
G04 #@! TD*
G04 #@! TA.AperFunction,SMDPad,CuDef*
%ADD19RoundRect,0.135000X0.185000X-0.135000X0.185000X0.135000X-0.185000X0.135000X-0.185000X-0.135000X0*%
G04 #@! TD*
G04 #@! TA.AperFunction,SMDPad,CuDef*
%ADD20RoundRect,0.225000X-0.250000X0.225000X-0.250000X-0.225000X0.250000X-0.225000X0.250000X0.225000X0*%
G04 #@! TD*
G04 #@! TA.AperFunction,SMDPad,CuDef*
%ADD21RoundRect,0.150000X-0.150000X-0.200000X0.150000X-0.200000X0.150000X0.200000X-0.150000X0.200000X0*%
G04 #@! TD*
G04 #@! TA.AperFunction,SMDPad,CuDef*
%ADD22RoundRect,0.135000X0.135000X0.185000X-0.135000X0.185000X-0.135000X-0.185000X0.135000X-0.185000X0*%
G04 #@! TD*
G04 #@! TA.AperFunction,SMDPad,CuDef*
%ADD23RoundRect,0.150000X-0.200000X0.150000X-0.200000X-0.150000X0.200000X-0.150000X0.200000X0.150000X0*%
G04 #@! TD*
G04 #@! TA.AperFunction,SMDPad,CuDef*
%ADD24RoundRect,0.062500X0.350000X0.062500X-0.350000X0.062500X-0.350000X-0.062500X0.350000X-0.062500X0*%
G04 #@! TD*
G04 #@! TA.AperFunction,SMDPad,CuDef*
%ADD25RoundRect,0.062500X0.062500X0.350000X-0.062500X0.350000X-0.062500X-0.350000X0.062500X-0.350000X0*%
G04 #@! TD*
G04 #@! TA.AperFunction,HeatsinkPad*
%ADD26R,2.600000X2.600000*%
G04 #@! TD*
G04 #@! TA.AperFunction,SMDPad,CuDef*
%ADD27RoundRect,0.062500X-0.350000X-0.062500X0.350000X-0.062500X0.350000X0.062500X-0.350000X0.062500X0*%
G04 #@! TD*
G04 #@! TA.AperFunction,SMDPad,CuDef*
%ADD28RoundRect,0.062500X-0.062500X-0.350000X0.062500X-0.350000X0.062500X0.350000X-0.062500X0.350000X0*%
G04 #@! TD*
G04 #@! TA.AperFunction,SMDPad,CuDef*
%ADD29RoundRect,0.062500X0.062500X-0.375000X0.062500X0.375000X-0.062500X0.375000X-0.062500X-0.375000X0*%
G04 #@! TD*
G04 #@! TA.AperFunction,SMDPad,CuDef*
%ADD30RoundRect,0.062500X0.375000X-0.062500X0.375000X0.062500X-0.375000X0.062500X-0.375000X-0.062500X0*%
G04 #@! TD*
G04 #@! TA.AperFunction,SMDPad,CuDef*
%ADD31RoundRect,0.225000X-0.225000X-0.250000X0.225000X-0.250000X0.225000X0.250000X-0.225000X0.250000X0*%
G04 #@! TD*
G04 #@! TA.AperFunction,SMDPad,CuDef*
%ADD32RoundRect,0.150000X0.150000X0.200000X-0.150000X0.200000X-0.150000X-0.200000X0.150000X-0.200000X0*%
G04 #@! TD*
G04 #@! TA.AperFunction,SMDPad,CuDef*
%ADD33RoundRect,0.140000X-0.170000X0.140000X-0.170000X-0.140000X0.170000X-0.140000X0.170000X0.140000X0*%
G04 #@! TD*
G04 #@! TA.AperFunction,ViaPad*
%ADD34C,0.350000*%
G04 #@! TD*
G04 #@! TA.AperFunction,ViaPad*
%ADD35C,0.600000*%
G04 #@! TD*
G04 #@! TA.AperFunction,Conductor*
%ADD36C,0.300000*%
G04 #@! TD*
G04 #@! TA.AperFunction,Conductor*
%ADD37C,0.500000*%
G04 #@! TD*
G04 #@! TA.AperFunction,Conductor*
%ADD38C,0.152400*%
G04 #@! TD*
G04 #@! TA.AperFunction,Conductor*
%ADD39C,0.200000*%
G04 #@! TD*
G04 APERTURE END LIST*
D10*
G04 #@! TO.P,R109,1*
G04 #@! TO.N,/ESC1/HO2*
X134230278Y-90234123D03*
G04 #@! TO.P,R109,2*
G04 #@! TO.N,Net-(R109-Pad2)*
X135250278Y-90234123D03*
G04 #@! TD*
D11*
G04 #@! TO.P,C8,1*
G04 #@! TO.N,/ESC/VB3*
X121665000Y-84275000D03*
G04 #@! TO.P,C8,2*
G04 #@! TO.N,/ESC/VS3*
X121665000Y-82725000D03*
G04 #@! TD*
D12*
G04 #@! TO.P,D202,1,K*
G04 #@! TO.N,/ESC/VB2*
X121765000Y-89875000D03*
G04 #@! TO.P,D202,2,A*
G04 #@! TO.N,Vdrive*
X121765000Y-91275000D03*
G04 #@! TD*
D13*
G04 #@! TO.P,U7,1,1*
G04 #@! TO.N,Net-(R102-Pad2)*
X120000000Y-86500000D03*
G04 #@! TD*
D14*
G04 #@! TO.P,R21,1*
G04 #@! TO.N,/ESC/SENS_B*
X127454495Y-103959873D03*
G04 #@! TO.P,R21,2*
G04 #@! TO.N,/ESC/VS2*
X127454495Y-104979873D03*
G04 #@! TD*
D13*
G04 #@! TO.P,U14,1,1*
G04 #@! TO.N,Net-(R110-Pad2)*
X136000000Y-87750000D03*
G04 #@! TD*
G04 #@! TO.P,U105,1,1*
G04 #@! TO.N,/ESC/VS1*
X120000000Y-92750000D03*
G04 #@! TD*
D15*
G04 #@! TO.P,C5,1*
G04 #@! TO.N,+3V3*
X132767309Y-95970566D03*
G04 #@! TO.P,C5,2*
G04 #@! TO.N,GND*
X132767309Y-95010566D03*
G04 #@! TD*
D13*
G04 #@! TO.P,U108,1,1*
G04 #@! TO.N,/ESC1/VS2*
X136000000Y-89000000D03*
G04 #@! TD*
G04 #@! TO.P,U121,1,1*
G04 #@! TO.N,/ESC/TELEMETRY_TX*
X120000000Y-101750000D03*
G04 #@! TD*
G04 #@! TO.P,U18,1,1*
G04 #@! TO.N,Vdrive*
X126000000Y-80750000D03*
G04 #@! TD*
D16*
G04 #@! TO.P,U305,1,VDD*
G04 #@! TO.N,+3V3*
X133676995Y-97377373D03*
G04 #@! TO.P,U305,2,PF0*
G04 #@! TO.N,unconnected-(U305-PF0-Pad2)*
X133176995Y-97377373D03*
G04 #@! TO.P,U305,3,PF1*
G04 #@! TO.N,unconnected-(U305-PF1-Pad3)*
X132676995Y-97377373D03*
G04 #@! TO.P,U305,4,NRST*
G04 #@! TO.N,/ESC1/NRST*
X132176995Y-97377373D03*
G04 #@! TO.P,U305,5,VDDA*
G04 #@! TO.N,+3V3*
X131676995Y-97377373D03*
G04 #@! TO.P,U305,6,PA0*
G04 #@! TO.N,/ESC1/SENS_C*
X131176995Y-97377373D03*
G04 #@! TO.P,U305,7,PA1*
G04 #@! TO.N,/ESC1/COMP*
X130676995Y-97377373D03*
G04 #@! TO.P,U305,8,PA2*
G04 #@! TO.N,Net-(U305-PA2)*
X130176995Y-97377373D03*
D17*
G04 #@! TO.P,U305,9,PA3*
G04 #@! TO.N,unconnected-(U305-PA3-Pad9)*
X129489495Y-98064873D03*
G04 #@! TO.P,U305,10,PA4*
G04 #@! TO.N,/ESC1/SENS_B*
X129489495Y-98564873D03*
G04 #@! TO.P,U305,11,PA5*
G04 #@! TO.N,/ESC1/SENS_A*
X129489495Y-99064873D03*
G04 #@! TO.P,U305,12,PA6*
G04 #@! TO.N,unconnected-(U305-PA6-Pad12)*
X129489495Y-99564873D03*
G04 #@! TO.P,U305,13,PA7*
G04 #@! TO.N,/ESC1/GATE_CL*
X129489495Y-100064873D03*
G04 #@! TO.P,U305,14,PB0*
G04 #@! TO.N,/ESC1/GATE_BL*
X129489495Y-100564873D03*
G04 #@! TO.P,U305,15,PB1*
G04 #@! TO.N,/ESC1/GATE_AL*
X129489495Y-101064873D03*
G04 #@! TO.P,U305,16,PB2*
G04 #@! TO.N,unconnected-(U305-PB2-Pad16)*
X129489495Y-101564873D03*
D16*
G04 #@! TO.P,U305,17,VDD*
G04 #@! TO.N,+3V3*
X130176995Y-102252373D03*
G04 #@! TO.P,U305,18,PA8*
G04 #@! TO.N,/ESC1/GATE_CH*
X130676995Y-102252373D03*
G04 #@! TO.P,U305,19,PA9*
G04 #@! TO.N,/ESC1/GATE_BH*
X131176995Y-102252373D03*
G04 #@! TO.P,U305,20,PA10*
G04 #@! TO.N,/ESC1/GATE_AH*
X131676995Y-102252373D03*
G04 #@! TO.P,U305,21,PA11*
G04 #@! TO.N,unconnected-(U305-PA11-Pad21)*
X132176995Y-102252373D03*
G04 #@! TO.P,U305,22,PA12*
G04 #@! TO.N,unconnected-(U305-PA12-Pad22)*
X132676995Y-102252373D03*
G04 #@! TO.P,U305,23,PA13*
G04 #@! TO.N,/ESC1/SWDIO*
X133176995Y-102252373D03*
G04 #@! TO.P,U305,24,PA14*
G04 #@! TO.N,/ESC1/SWCLK*
X133676995Y-102252373D03*
D17*
G04 #@! TO.P,U305,25,PA15*
G04 #@! TO.N,unconnected-(U305-PA15-Pad25)*
X134364495Y-101564873D03*
G04 #@! TO.P,U305,26,PB3*
G04 #@! TO.N,unconnected-(U305-PB3-Pad26)*
X134364495Y-101064873D03*
G04 #@! TO.P,U305,27,PB4*
G04 #@! TO.N,unconnected-(U305-PB4-Pad27)*
X134364495Y-100564873D03*
G04 #@! TO.P,U305,28,PB5*
G04 #@! TO.N,unconnected-(U305-PB5-Pad28)*
X134364495Y-100064873D03*
G04 #@! TO.P,U305,29,PB6*
G04 #@! TO.N,/ESC1/TELEMETRY_TX*
X134364495Y-99564873D03*
G04 #@! TO.P,U305,30,PB7*
G04 #@! TO.N,/ESC1/TELEMETRY_RX*
X134364495Y-99064873D03*
G04 #@! TO.P,U305,31,BOOT0*
G04 #@! TO.N,/ESC1/BOOT0*
X134364495Y-98564873D03*
G04 #@! TO.P,U305,32,PB8*
G04 #@! TO.N,unconnected-(U305-PB8-Pad32)*
X134364495Y-98064873D03*
D18*
G04 #@! TO.P,U305,33,VSS*
G04 #@! TO.N,GND*
X131926995Y-99814873D03*
G04 #@! TD*
D19*
G04 #@! TO.P,R16,1*
G04 #@! TO.N,/ESC/COMP*
X125412828Y-104979873D03*
G04 #@! TO.P,R16,2*
G04 #@! TO.N,/ESC/SENS_C*
X125412828Y-103959873D03*
G04 #@! TD*
G04 #@! TO.P,R202,1*
G04 #@! TO.N,/ESC/PWM*
X132734441Y-105019435D03*
G04 #@! TO.P,R202,2*
G04 #@! TO.N,Net-(U203-PA2)*
X132734441Y-103999435D03*
G04 #@! TD*
D13*
G04 #@! TO.P,U111,1,1*
G04 #@! TO.N,/ESC1/NRST*
X136000000Y-98000000D03*
G04 #@! TD*
D20*
G04 #@! TO.P,C303,1*
G04 #@! TO.N,/ESC1/VB2*
X134858166Y-87276653D03*
G04 #@! TO.P,C303,2*
G04 #@! TO.N,/ESC1/VS2*
X134858166Y-88826653D03*
G04 #@! TD*
D14*
G04 #@! TO.P,R309,1*
G04 #@! TO.N,/ESC1/SENS_A*
X127846412Y-97581304D03*
G04 #@! TO.P,R309,2*
G04 #@! TO.N,/ESC1/VS1*
X127846412Y-98601304D03*
G04 #@! TD*
D21*
G04 #@! TO.P,D304,1,K*
G04 #@! TO.N,/ESC1/VB1*
X130240000Y-85815000D03*
G04 #@! TO.P,D304,2,A*
G04 #@! TO.N,Vdrive*
X128840000Y-85815000D03*
G04 #@! TD*
D19*
G04 #@! TO.P,R311,1*
G04 #@! TO.N,/ESC1/SENS_C*
X131825289Y-96000566D03*
G04 #@! TO.P,R311,2*
G04 #@! TO.N,/ESC1/VS3*
X131825289Y-94980566D03*
G04 #@! TD*
D11*
G04 #@! TO.P,C6,1*
G04 #@! TO.N,/ESC/VB1*
X121825000Y-94265000D03*
G04 #@! TO.P,C6,2*
G04 #@! TO.N,/ESC/VS1*
X121825000Y-92715000D03*
G04 #@! TD*
D13*
G04 #@! TO.P,U110,1,1*
G04 #@! TO.N,/ESC/VS3*
X120000000Y-82750000D03*
G04 #@! TD*
D22*
G04 #@! TO.P,R105,1*
G04 #@! TO.N,/ESC/HO3*
X121984073Y-81470951D03*
G04 #@! TO.P,R105,2*
G04 #@! TO.N,Net-(R105-Pad2)*
X120964073Y-81470951D03*
G04 #@! TD*
D13*
G04 #@! TO.P,U16,1,1*
G04 #@! TO.N,Net-(R112-Pad2)*
X136000000Y-92750000D03*
G04 #@! TD*
D14*
G04 #@! TO.P,R110,1*
G04 #@! TO.N,/ESC1/LO2*
X131221088Y-92608320D03*
G04 #@! TO.P,R110,2*
G04 #@! TO.N,Net-(R110-Pad2)*
X131221088Y-93628320D03*
G04 #@! TD*
D13*
G04 #@! TO.P,U5,1,1*
G04 #@! TO.N,Net-(R103-Pad2)*
X120000000Y-91500000D03*
G04 #@! TD*
D14*
G04 #@! TO.P,R22,1*
G04 #@! TO.N,/ESC/SENS_C*
X124391995Y-103959873D03*
G04 #@! TO.P,R22,2*
G04 #@! TO.N,/ESC/VS3*
X124391995Y-104979873D03*
G04 #@! TD*
G04 #@! TO.P,R108,1*
G04 #@! TO.N,/ESC1/LO1*
X132202388Y-92611712D03*
G04 #@! TO.P,R108,2*
G04 #@! TO.N,Net-(R108-Pad2)*
X132202388Y-93631712D03*
G04 #@! TD*
D22*
G04 #@! TO.P,R102,1*
G04 #@! TO.N,/ESC/HO2*
X122042653Y-85613155D03*
G04 #@! TO.P,R102,2*
G04 #@! TO.N,Net-(R102-Pad2)*
X121022653Y-85613155D03*
G04 #@! TD*
D13*
G04 #@! TO.P,U15,1,1*
G04 #@! TO.N,Net-(R111-Pad2)*
X136000000Y-95250000D03*
G04 #@! TD*
D19*
G04 #@! TO.P,R104,1*
G04 #@! TO.N,/ESC/LO2*
X125746532Y-84305000D03*
G04 #@! TO.P,R104,2*
G04 #@! TO.N,Net-(R104-Pad2)*
X125746532Y-83285000D03*
G04 #@! TD*
D14*
G04 #@! TO.P,R312,1*
G04 #@! TO.N,/ESC1/BOOT0*
X134984524Y-103999434D03*
G04 #@! TO.P,R312,2*
G04 #@! TO.N,GND*
X134984524Y-105019434D03*
G04 #@! TD*
D13*
G04 #@! TO.P,U202,1,1*
G04 #@! TO.N,/ESC/SWDIO*
X120000000Y-98000000D03*
G04 #@! TD*
G04 #@! TO.P,U22,1,1*
G04 #@! TO.N,GND*
X120000000Y-90250000D03*
G04 #@! TD*
G04 #@! TO.P,U116,1,1*
G04 #@! TO.N,GND*
X124750000Y-80750000D03*
G04 #@! TD*
D19*
G04 #@! TO.P,R19,1*
G04 #@! TO.N,GND*
X131537828Y-104979873D03*
G04 #@! TO.P,R19,2*
G04 #@! TO.N,/ESC/SENS_A*
X131537828Y-103959873D03*
G04 #@! TD*
D14*
G04 #@! TO.P,R307,1*
G04 #@! TO.N,GND*
X128725328Y-94980566D03*
G04 #@! TO.P,R307,2*
G04 #@! TO.N,/ESC1/SENS_B*
X128725328Y-96000566D03*
G04 #@! TD*
D13*
G04 #@! TO.P,U118,1,1*
G04 #@! TO.N,GND*
X129000000Y-107000000D03*
G04 #@! TD*
D19*
G04 #@! TO.P,R310,1*
G04 #@! TO.N,/ESC1/SENS_B*
X127704495Y-96000566D03*
G04 #@! TO.P,R310,2*
G04 #@! TO.N,/ESC1/VS2*
X127704495Y-94980566D03*
G04 #@! TD*
D23*
G04 #@! TO.P,D301,1,K*
G04 #@! TO.N,/ESC1/VB2*
X134785000Y-85990000D03*
G04 #@! TO.P,D301,2,A*
G04 #@! TO.N,Vdrive*
X134785000Y-84590000D03*
G04 #@! TD*
D19*
G04 #@! TO.P,R15,1*
G04 #@! TO.N,/ESC/COMP*
X129496162Y-104979873D03*
G04 #@! TO.P,R15,2*
G04 #@! TO.N,/ESC/SENS_B*
X129496162Y-103959873D03*
G04 #@! TD*
D13*
G04 #@! TO.P,U122,1,1*
G04 #@! TO.N,/ESC/TELEMETRY_RX*
X120000000Y-103000000D03*
G04 #@! TD*
G04 #@! TO.P,U114,1,1*
G04 #@! TO.N,GND*
X136000000Y-91500000D03*
G04 #@! TD*
G04 #@! TO.P,U103,1,1*
G04 #@! TO.N,VDD*
X128750000Y-80750000D03*
G04 #@! TD*
D24*
G04 #@! TO.P,U25,1,LIN1*
G04 #@! TO.N,/ESC/GATE_AL*
X127451908Y-88955413D03*
G04 #@! TO.P,U25,2,LIN2*
G04 #@! TO.N,/ESC/GATE_BL*
X127451908Y-88455413D03*
G04 #@! TO.P,U25,3,LIN3*
G04 #@! TO.N,/ESC/GATE_CL*
X127451908Y-87955413D03*
G04 #@! TO.P,U25,4,VCC*
G04 #@! TO.N,VDD*
X127451908Y-87455413D03*
G04 #@! TO.P,U25,5,NC*
G04 #@! TO.N,unconnected-(U25-NC-Pad5)*
X127451908Y-86955413D03*
G04 #@! TO.P,U25,6,COM*
G04 #@! TO.N,GND*
X127451908Y-86455413D03*
D25*
G04 #@! TO.P,U25,7,NC*
G04 #@! TO.N,unconnected-(U25-NC-Pad7)*
X126764408Y-85767913D03*
G04 #@! TO.P,U25,8,NC*
G04 #@! TO.N,unconnected-(U25-NC-Pad8)*
X126264408Y-85767913D03*
G04 #@! TO.P,U25,9,LO3*
G04 #@! TO.N,/ESC/LO3*
X125764408Y-85767913D03*
G04 #@! TO.P,U25,10,LO2*
G04 #@! TO.N,/ESC/LO2*
X125264408Y-85767913D03*
G04 #@! TO.P,U25,11,LO1*
G04 #@! TO.N,/ESC/LO1*
X124764408Y-85767913D03*
G04 #@! TO.P,U25,12,VS3*
G04 #@! TO.N,/ESC/VS3*
X124264408Y-85767913D03*
D24*
G04 #@! TO.P,U25,13,HO3*
G04 #@! TO.N,/ESC/HO3*
X123576908Y-86455413D03*
G04 #@! TO.P,U25,14,VB3*
G04 #@! TO.N,/ESC/VB3*
X123576908Y-86955413D03*
G04 #@! TO.P,U25,15,VS2*
G04 #@! TO.N,/ESC/VS2*
X123576908Y-87455413D03*
G04 #@! TO.P,U25,16,HO2*
G04 #@! TO.N,/ESC/HO2*
X123576908Y-87955413D03*
G04 #@! TO.P,U25,17,VB2*
G04 #@! TO.N,/ESC/VB2*
X123576908Y-88455413D03*
G04 #@! TO.P,U25,18,VS1*
G04 #@! TO.N,/ESC/VS1*
X123576908Y-88955413D03*
D25*
G04 #@! TO.P,U25,19,HO1*
G04 #@! TO.N,/ESC/HO1*
X124264408Y-89642913D03*
G04 #@! TO.P,U25,20,VB1*
G04 #@! TO.N,/ESC/VB1*
X124764408Y-89642913D03*
G04 #@! TO.P,U25,21,NC*
G04 #@! TO.N,unconnected-(U25-NC-Pad21)*
X125264408Y-89642913D03*
G04 #@! TO.P,U25,22,HIN1*
G04 #@! TO.N,/ESC/GATE_AH*
X125764408Y-89642913D03*
G04 #@! TO.P,U25,23,HIN2*
G04 #@! TO.N,/ESC/GATE_BH*
X126264408Y-89642913D03*
G04 #@! TO.P,U25,24,HIN3*
G04 #@! TO.N,/ESC/GATE_CH*
X126764408Y-89642913D03*
D26*
G04 #@! TO.P,U25,25,EP*
G04 #@! TO.N,GND*
X125514408Y-87705413D03*
G04 #@! TD*
D13*
G04 #@! TO.P,U12,1,1*
G04 #@! TO.N,Net-(R108-Pad2)*
X136000000Y-82750000D03*
G04 #@! TD*
D19*
G04 #@! TO.P,R14,1*
G04 #@! TO.N,/ESC/COMP*
X130516995Y-104979873D03*
G04 #@! TO.P,R14,2*
G04 #@! TO.N,/ESC/SENS_A*
X130516995Y-103959873D03*
G04 #@! TD*
D13*
G04 #@! TO.P,U9,1,1*
G04 #@! TO.N,Net-(R105-Pad2)*
X120000000Y-81500000D03*
G04 #@! TD*
D11*
G04 #@! TO.P,C304,1*
G04 #@! TO.N,/ESC1/VB3*
X134703835Y-92960584D03*
G04 #@! TO.P,C304,2*
G04 #@! TO.N,/ESC1/VS3*
X134703835Y-91410584D03*
G04 #@! TD*
D13*
G04 #@! TO.P,U106,1,1*
G04 #@! TO.N,/ESC/VS2*
X120000000Y-87750000D03*
G04 #@! TD*
D14*
G04 #@! TO.P,R306,1*
G04 #@! TO.N,GND*
X129906995Y-94980566D03*
G04 #@! TO.P,R306,2*
G04 #@! TO.N,/ESC1/SENS_C*
X129906995Y-96000566D03*
G04 #@! TD*
D13*
G04 #@! TO.P,U19,1,1*
G04 #@! TO.N,GND*
X131250000Y-80750000D03*
G04 #@! TD*
D10*
G04 #@! TO.P,R107,1*
G04 #@! TO.N,/ESC1/HO1*
X132604719Y-84569715D03*
G04 #@! TO.P,R107,2*
G04 #@! TO.N,Net-(R107-Pad2)*
X133624719Y-84569715D03*
G04 #@! TD*
D13*
G04 #@! TO.P,U13,1,1*
G04 #@! TO.N,Net-(R109-Pad2)*
X136000000Y-90250000D03*
G04 #@! TD*
G04 #@! TO.P,U20,1,1*
G04 #@! TO.N,GND*
X120000000Y-95250000D03*
G04 #@! TD*
D19*
G04 #@! TO.P,R101,1*
G04 #@! TO.N,/ESC/LO1*
X124745000Y-84305000D03*
G04 #@! TO.P,R101,2*
G04 #@! TO.N,Net-(R101-Pad2)*
X124745000Y-83285000D03*
G04 #@! TD*
D14*
G04 #@! TO.P,R111,1*
G04 #@! TO.N,/ESC1/HO3*
X133501098Y-92399202D03*
G04 #@! TO.P,R111,2*
G04 #@! TO.N,Net-(R111-Pad2)*
X133501098Y-93419202D03*
G04 #@! TD*
D13*
G04 #@! TO.P,U3,1,1*
G04 #@! TO.N,/ESC/PWM*
X132750000Y-107000000D03*
G04 #@! TD*
G04 #@! TO.P,U113,1,1*
G04 #@! TO.N,GND*
X136000000Y-81500000D03*
G04 #@! TD*
G04 #@! TO.P,U10,1,1*
G04 #@! TO.N,Net-(R106-Pad2)*
X120000000Y-84000000D03*
G04 #@! TD*
G04 #@! TO.P,U115,1,1*
G04 #@! TO.N,GND*
X136000000Y-86500000D03*
G04 #@! TD*
G04 #@! TO.P,U101,1,1*
G04 #@! TO.N,Vdrive*
X130000000Y-80750000D03*
G04 #@! TD*
D14*
G04 #@! TO.P,R112,1*
G04 #@! TO.N,/ESC1/LO3*
X130221339Y-92610016D03*
G04 #@! TO.P,R112,2*
G04 #@! TO.N,Net-(R112-Pad2)*
X130221339Y-93630016D03*
G04 #@! TD*
G04 #@! TO.P,R308,1*
G04 #@! TO.N,GND*
X124662828Y-94959873D03*
G04 #@! TO.P,R308,2*
G04 #@! TO.N,/ESC1/SENS_A*
X124662828Y-95979873D03*
G04 #@! TD*
D27*
G04 #@! TO.P,U302,1,LIN1*
G04 #@! TO.N,/ESC1/GATE_AL*
X128937500Y-88255000D03*
G04 #@! TO.P,U302,2,LIN2*
G04 #@! TO.N,/ESC1/GATE_BL*
X128937500Y-88755000D03*
G04 #@! TO.P,U302,3,LIN3*
G04 #@! TO.N,/ESC1/GATE_CL*
X128937500Y-89255000D03*
G04 #@! TO.P,U302,4,VCC*
G04 #@! TO.N,VDD*
X128937500Y-89755000D03*
G04 #@! TO.P,U302,5,NC*
G04 #@! TO.N,unconnected-(U302-NC-Pad5)*
X128937500Y-90255000D03*
G04 #@! TO.P,U302,6,COM*
G04 #@! TO.N,GND*
X128937500Y-90755000D03*
D28*
G04 #@! TO.P,U302,7,NC*
G04 #@! TO.N,unconnected-(U302-NC-Pad7)*
X129625000Y-91442500D03*
G04 #@! TO.P,U302,8,NC*
G04 #@! TO.N,unconnected-(U302-NC-Pad8)*
X130125000Y-91442500D03*
G04 #@! TO.P,U302,9,LO3*
G04 #@! TO.N,/ESC1/LO3*
X130625000Y-91442500D03*
G04 #@! TO.P,U302,10,LO2*
G04 #@! TO.N,/ESC1/LO2*
X131125000Y-91442500D03*
G04 #@! TO.P,U302,11,LO1*
G04 #@! TO.N,/ESC1/LO1*
X131625000Y-91442500D03*
G04 #@! TO.P,U302,12,VS3*
G04 #@! TO.N,/ESC1/VS3*
X132125000Y-91442500D03*
D27*
G04 #@! TO.P,U302,13,HO3*
G04 #@! TO.N,/ESC1/HO3*
X132812500Y-90755000D03*
G04 #@! TO.P,U302,14,VB3*
G04 #@! TO.N,/ESC1/VB3*
X132812500Y-90255000D03*
G04 #@! TO.P,U302,15,VS2*
G04 #@! TO.N,/ESC1/VS2*
X132812500Y-89755000D03*
G04 #@! TO.P,U302,16,HO2*
G04 #@! TO.N,/ESC1/HO2*
X132812500Y-89255000D03*
G04 #@! TO.P,U302,17,VB2*
G04 #@! TO.N,/ESC1/VB2*
X132812500Y-88755000D03*
G04 #@! TO.P,U302,18,VS1*
G04 #@! TO.N,/ESC1/VS1*
X132812500Y-88255000D03*
D28*
G04 #@! TO.P,U302,19,HO1*
G04 #@! TO.N,/ESC1/HO1*
X132125000Y-87567500D03*
G04 #@! TO.P,U302,20,VB1*
G04 #@! TO.N,/ESC1/VB1*
X131625000Y-87567500D03*
G04 #@! TO.P,U302,21,NC*
G04 #@! TO.N,unconnected-(U302-NC-Pad21)*
X131125000Y-87567500D03*
G04 #@! TO.P,U302,22,HIN1*
G04 #@! TO.N,/ESC1/GATE_AH*
X130625000Y-87567500D03*
G04 #@! TO.P,U302,23,HIN2*
G04 #@! TO.N,/ESC1/GATE_BH*
X130125000Y-87567500D03*
G04 #@! TO.P,U302,24,HIN3*
G04 #@! TO.N,/ESC1/GATE_CH*
X129625000Y-87567500D03*
D26*
G04 #@! TO.P,U302,25,EP*
G04 #@! TO.N,GND*
X130875000Y-89505000D03*
G04 #@! TD*
D13*
G04 #@! TO.P,U8,1,1*
G04 #@! TO.N,Net-(R104-Pad2)*
X120000000Y-89000000D03*
G04 #@! TD*
D14*
G04 #@! TO.P,R305,1*
G04 #@! TO.N,/ESC1/COMP*
X130856995Y-94980566D03*
G04 #@! TO.P,R305,2*
G04 #@! TO.N,/ESC1/SENS_C*
X130856995Y-96000566D03*
G04 #@! TD*
D13*
G04 #@! TO.P,U201,1,1*
G04 #@! TO.N,/ESC/SWCLK*
X120000000Y-99250000D03*
G04 #@! TD*
D14*
G04 #@! TO.P,R304,1*
G04 #@! TO.N,/ESC1/COMP*
X126641995Y-94980566D03*
G04 #@! TO.P,R304,2*
G04 #@! TO.N,/ESC1/SENS_B*
X126641995Y-96000566D03*
G04 #@! TD*
D13*
G04 #@! TO.P,U119,1,1*
G04 #@! TO.N,/ESC1/TELEMETRY_TX*
X136000000Y-100500000D03*
G04 #@! TD*
D14*
G04 #@! TO.P,R103,1*
G04 #@! TO.N,/ESC/HO1*
X123561330Y-90775406D03*
G04 #@! TO.P,R103,2*
G04 #@! TO.N,Net-(R103-Pad2)*
X123561330Y-91795406D03*
G04 #@! TD*
D13*
G04 #@! TO.P,U117,1,1*
G04 #@! TO.N,GND*
X127000000Y-107000000D03*
G04 #@! TD*
D19*
G04 #@! TO.P,R313,1*
G04 #@! TO.N,/ESC1/PWM*
X133844159Y-105019434D03*
G04 #@! TO.P,R313,2*
G04 #@! TO.N,Net-(U305-PA2)*
X133844159Y-103999434D03*
G04 #@! TD*
D13*
G04 #@! TO.P,U304,1,1*
G04 #@! TO.N,/ESC1/SWDIO*
X136000000Y-103000000D03*
G04 #@! TD*
G04 #@! TO.P,U11,1,1*
G04 #@! TO.N,Net-(R107-Pad2)*
X136000000Y-85250000D03*
G04 #@! TD*
D29*
G04 #@! TO.P,U203,1,VDD*
G04 #@! TO.N,+3V3*
X122296995Y-102312373D03*
G04 #@! TO.P,U203,2,PF0*
G04 #@! TO.N,unconnected-(U203-PF0-Pad2)*
X122796995Y-102312373D03*
G04 #@! TO.P,U203,3,PF1*
G04 #@! TO.N,unconnected-(U203-PF1-Pad3)*
X123296995Y-102312373D03*
G04 #@! TO.P,U203,4,NRST*
G04 #@! TO.N,/ESC/NRST*
X123796995Y-102312373D03*
G04 #@! TO.P,U203,5,VDDA*
G04 #@! TO.N,+3V3*
X124296995Y-102312373D03*
G04 #@! TO.P,U203,6,PA0*
G04 #@! TO.N,/ESC/SENS_C*
X124796995Y-102312373D03*
G04 #@! TO.P,U203,7,PA1*
G04 #@! TO.N,/ESC/COMP*
X125296995Y-102312373D03*
G04 #@! TO.P,U203,8,PA2*
G04 #@! TO.N,Net-(U203-PA2)*
X125796995Y-102312373D03*
D30*
G04 #@! TO.P,U203,9,PA3*
G04 #@! TO.N,unconnected-(U203-PA3-Pad9)*
X126484495Y-101624873D03*
G04 #@! TO.P,U203,10,PA4*
G04 #@! TO.N,/ESC/SENS_B*
X126484495Y-101124873D03*
G04 #@! TO.P,U203,11,PA5*
G04 #@! TO.N,/ESC/SENS_A*
X126484495Y-100624873D03*
G04 #@! TO.P,U203,12,PA6*
G04 #@! TO.N,unconnected-(U203-PA6-Pad12)*
X126484495Y-100124873D03*
G04 #@! TO.P,U203,13,PA7*
G04 #@! TO.N,/ESC/GATE_CL*
X126484495Y-99624873D03*
G04 #@! TO.P,U203,14,PB0*
G04 #@! TO.N,/ESC/GATE_BL*
X126484495Y-99124873D03*
G04 #@! TO.P,U203,15,PB1*
G04 #@! TO.N,/ESC/GATE_AL*
X126484495Y-98624873D03*
G04 #@! TO.P,U203,16,PB2*
G04 #@! TO.N,unconnected-(U203-PB2-Pad16)*
X126484495Y-98124873D03*
D29*
G04 #@! TO.P,U203,17,VDD*
G04 #@! TO.N,+3V3*
X125796995Y-97437373D03*
G04 #@! TO.P,U203,18,PA8*
G04 #@! TO.N,/ESC/GATE_CH*
X125296995Y-97437373D03*
G04 #@! TO.P,U203,19,PA9*
G04 #@! TO.N,/ESC/GATE_BH*
X124796995Y-97437373D03*
G04 #@! TO.P,U203,20,PA10*
G04 #@! TO.N,/ESC/GATE_AH*
X124296995Y-97437373D03*
G04 #@! TO.P,U203,21,PA11*
G04 #@! TO.N,unconnected-(U203-PA11-Pad21)*
X123796995Y-97437373D03*
G04 #@! TO.P,U203,22,PA12*
G04 #@! TO.N,unconnected-(U203-PA12-Pad22)*
X123296995Y-97437373D03*
G04 #@! TO.P,U203,23,PA13*
G04 #@! TO.N,/ESC/SWDIO*
X122796995Y-97437373D03*
G04 #@! TO.P,U203,24,PA14*
G04 #@! TO.N,/ESC/SWCLK*
X122296995Y-97437373D03*
D30*
G04 #@! TO.P,U203,25,PA15*
G04 #@! TO.N,unconnected-(U203-PA15-Pad25)*
X121609495Y-98124873D03*
G04 #@! TO.P,U203,26,PB3*
G04 #@! TO.N,unconnected-(U203-PB3-Pad26)*
X121609495Y-98624873D03*
G04 #@! TO.P,U203,27,PB4*
G04 #@! TO.N,unconnected-(U203-PB4-Pad27)*
X121609495Y-99124873D03*
G04 #@! TO.P,U203,28,PB5*
G04 #@! TO.N,unconnected-(U203-PB5-Pad28)*
X121609495Y-99624873D03*
G04 #@! TO.P,U203,29,PB6*
G04 #@! TO.N,/ESC/TELEMETRY_TX*
X121609495Y-100124873D03*
G04 #@! TO.P,U203,30,PB7*
G04 #@! TO.N,/ESC/TELEMETRY_RX*
X121609495Y-100624873D03*
G04 #@! TO.P,U203,31,BOOT0*
G04 #@! TO.N,/ESC/BOOT0*
X121609495Y-101124873D03*
G04 #@! TO.P,U203,32,PB8*
G04 #@! TO.N,unconnected-(U203-PB8-Pad32)*
X121609495Y-101624873D03*
D18*
G04 #@! TO.P,U203,33,VSS*
G04 #@! TO.N,GND*
X124046995Y-99874873D03*
G04 #@! TD*
D31*
G04 #@! TO.P,C302,1*
G04 #@! TO.N,/ESC1/VB1*
X131776654Y-85834836D03*
G04 #@! TO.P,C302,2*
G04 #@! TO.N,/ESC1/VS1*
X133326654Y-85834836D03*
G04 #@! TD*
D13*
G04 #@! TO.P,U102,1,1*
G04 #@! TO.N,+3V3*
X121000000Y-107000000D03*
G04 #@! TD*
G04 #@! TO.P,U107,1,1*
G04 #@! TO.N,/ESC1/VS1*
X136000000Y-84000000D03*
G04 #@! TD*
D19*
G04 #@! TO.P,R17,1*
G04 #@! TO.N,GND*
X126433662Y-104979873D03*
G04 #@! TO.P,R17,2*
G04 #@! TO.N,/ESC/SENS_C*
X126433662Y-103959873D03*
G04 #@! TD*
G04 #@! TO.P,R18,1*
G04 #@! TO.N,GND*
X128475328Y-104979873D03*
G04 #@! TO.P,R18,2*
G04 #@! TO.N,/ESC/SENS_B*
X128475328Y-103959873D03*
G04 #@! TD*
D13*
G04 #@! TO.P,U104,1,1*
G04 #@! TO.N,VDD*
X127250000Y-80750000D03*
G04 #@! TD*
G04 #@! TO.P,U21,1,1*
G04 #@! TO.N,GND*
X120000000Y-85250000D03*
G04 #@! TD*
G04 #@! TO.P,U4,1,1*
G04 #@! TO.N,/ESC1/PWM*
X134000000Y-107000000D03*
G04 #@! TD*
G04 #@! TO.P,U120,1,1*
G04 #@! TO.N,/ESC1/TELEMETRY_RX*
X136000000Y-99250000D03*
G04 #@! TD*
D32*
G04 #@! TO.P,D201,1,K*
G04 #@! TO.N,/ESC/VB1*
X123200000Y-92960000D03*
G04 #@! TO.P,D201,2,A*
G04 #@! TO.N,Vdrive*
X124600000Y-92960000D03*
G04 #@! TD*
D14*
G04 #@! TO.P,R201,1*
G04 #@! TO.N,/ESC/BOOT0*
X120833005Y-103885127D03*
G04 #@! TO.P,R201,2*
G04 #@! TO.N,GND*
X120833005Y-104905127D03*
G04 #@! TD*
D23*
G04 #@! TO.P,D203,1,K*
G04 #@! TO.N,/ESC/VB3*
X123194914Y-84544686D03*
G04 #@! TO.P,D203,2,A*
G04 #@! TO.N,Vdrive*
X123194914Y-83144686D03*
G04 #@! TD*
D11*
G04 #@! TO.P,C7,1*
G04 #@! TO.N,/ESC/VB2*
X121825000Y-88625000D03*
G04 #@! TO.P,C7,2*
G04 #@! TO.N,/ESC/VS2*
X121825000Y-87075000D03*
G04 #@! TD*
D13*
G04 #@! TO.P,U109,1,1*
G04 #@! TO.N,/ESC1/VS3*
X136000000Y-94000000D03*
G04 #@! TD*
G04 #@! TO.P,U303,1,1*
G04 #@! TO.N,/ESC1/SWCLK*
X136000000Y-101750000D03*
G04 #@! TD*
D33*
G04 #@! TO.P,C301,1*
G04 #@! TO.N,+3V3*
X123389574Y-103963684D03*
G04 #@! TO.P,C301,2*
G04 #@! TO.N,GND*
X123389574Y-104923684D03*
G04 #@! TD*
D19*
G04 #@! TO.P,R106,1*
G04 #@! TO.N,/ESC/LO3*
X126705000Y-84305000D03*
G04 #@! TO.P,R106,2*
G04 #@! TO.N,Net-(R106-Pad2)*
X126705000Y-83285000D03*
G04 #@! TD*
D14*
G04 #@! TO.P,R303,1*
G04 #@! TO.N,/ESC1/COMP*
X125683662Y-94959873D03*
G04 #@! TO.P,R303,2*
G04 #@! TO.N,/ESC1/SENS_A*
X125683662Y-95979873D03*
G04 #@! TD*
D12*
G04 #@! TO.P,D302,1,K*
G04 #@! TO.N,/ESC1/VB3*
X134764496Y-94334026D03*
G04 #@! TO.P,D302,2,A*
G04 #@! TO.N,Vdrive*
X134764496Y-95734026D03*
G04 #@! TD*
D13*
G04 #@! TO.P,U112,1,1*
G04 #@! TO.N,/ESC/NRST*
X120000000Y-100500000D03*
G04 #@! TD*
G04 #@! TO.P,U6,1,1*
G04 #@! TO.N,Net-(R101-Pad2)*
X120000000Y-94000000D03*
G04 #@! TD*
D19*
G04 #@! TO.P,R20,1*
G04 #@! TO.N,/ESC/SENS_A*
X127837232Y-101388898D03*
G04 #@! TO.P,R20,2*
G04 #@! TO.N,/ESC/VS1*
X127837232Y-100368898D03*
G04 #@! TD*
D34*
G04 #@! TO.N,GND*
X131750000Y-88750000D03*
X131750000Y-89500000D03*
X131750000Y-90250000D03*
X124500000Y-88250000D03*
X124500000Y-87500000D03*
X124500000Y-86750000D03*
X125000000Y-86750000D03*
X125000000Y-87500000D03*
X125000000Y-88250000D03*
X126500000Y-88250000D03*
X125500000Y-88250000D03*
X126000000Y-88250000D03*
X126500000Y-87500000D03*
X126000000Y-87500000D03*
X126500000Y-86750000D03*
X126000000Y-86750000D03*
X121500000Y-103250000D03*
X128500000Y-106250000D03*
X126500000Y-106500000D03*
X129250000Y-106250000D03*
X130750000Y-100750000D03*
X131500000Y-98750000D03*
X128580123Y-102397267D03*
X132250000Y-99750000D03*
D35*
X127500000Y-85925000D03*
D34*
X130750000Y-106250000D03*
X124250000Y-106500000D03*
X123750000Y-98750000D03*
D35*
X129278600Y-93000000D03*
D34*
X132250000Y-100750000D03*
X125250000Y-100750000D03*
X130750000Y-88750000D03*
X131250000Y-90250000D03*
X131500000Y-100750000D03*
X130750000Y-98750000D03*
X129547673Y-96952945D03*
X123750000Y-100750000D03*
X124000000Y-94500000D03*
X125250000Y-99750000D03*
X126250000Y-103000000D03*
X124500000Y-100750000D03*
X130750000Y-90250000D03*
X125500000Y-86750000D03*
X131250000Y-88750000D03*
X120500000Y-106000000D03*
X133000000Y-99750000D03*
X123000000Y-100750000D03*
X129906995Y-94980566D03*
X131250000Y-89500000D03*
X131500000Y-99750000D03*
X135000000Y-106250000D03*
X121000000Y-105750000D03*
X123000000Y-99750000D03*
X124500000Y-99750000D03*
X125500000Y-87500000D03*
X131500000Y-106250000D03*
X130000000Y-105750000D03*
X123750000Y-99750000D03*
X125000000Y-106500000D03*
X124500000Y-98750000D03*
X123500000Y-95000000D03*
X135000000Y-105750000D03*
X132250000Y-98750000D03*
X123000000Y-98750000D03*
X130750000Y-99750000D03*
X133000000Y-100750000D03*
X123500000Y-96500000D03*
X130750000Y-89500000D03*
X126500000Y-105500000D03*
X122750000Y-106500000D03*
X135500000Y-96750000D03*
X125250000Y-98750000D03*
X130000000Y-106250000D03*
X131500000Y-105750000D03*
X130750000Y-105750000D03*
X129250000Y-105750000D03*
X125750000Y-106500000D03*
X133500000Y-95500000D03*
X123500000Y-106500000D03*
X128500000Y-105750000D03*
X133000000Y-98750000D03*
G04 #@! TO.N,+3V3*
X134500000Y-97500000D03*
X124141995Y-103219873D03*
X126250000Y-97250000D03*
X129250000Y-102750000D03*
X122250000Y-104000000D03*
G04 #@! TO.N,/ESC/VS1*
X127485027Y-100139912D03*
X123000000Y-96250000D03*
G04 #@! TO.N,/ESC/VS2*
X127500000Y-105625000D03*
G04 #@! TO.N,/ESC/VS3*
X124500000Y-105500000D03*
D35*
G04 #@! TO.N,/ESC1/VS1*
X133500462Y-85750462D03*
D34*
X133000000Y-87500000D03*
X128250000Y-99250000D03*
G04 #@! TO.N,/ESC1/VS2*
X129352387Y-93750000D03*
D35*
G04 #@! TO.N,/ESC1/VS3*
X133491320Y-94365123D03*
X134352400Y-91006523D03*
G04 #@! TO.N,Vdrive*
X129487600Y-85750000D03*
D34*
X134750000Y-84500000D03*
D35*
X122250000Y-90675000D03*
X124000000Y-93750000D03*
X135000000Y-96250000D03*
X123000000Y-82175000D03*
D34*
G04 #@! TO.N,/ESC/COMP*
X125391995Y-103219873D03*
X125500000Y-105500000D03*
G04 #@! TO.N,/ESC1/BOOT0*
X134750000Y-103250000D03*
X134986995Y-98564873D03*
D35*
G04 #@! TO.N,/ESC/HO2*
X122028600Y-86000000D03*
X122471155Y-87850001D03*
G04 #@! TO.N,/ESC/HO3*
X123503663Y-85287256D03*
X122738680Y-81469436D03*
G04 #@! TO.N,/ESC1/HO2*
X133893181Y-88991138D03*
X134230278Y-90234123D03*
D34*
G04 #@! TO.N,/ESC/GATE_CH*
X126125000Y-91875000D03*
X125296995Y-96719873D03*
G04 #@! TO.N,/ESC/GATE_AH*
X125500000Y-90750000D03*
X124257184Y-96616911D03*
G04 #@! TO.N,/ESC/GATE_AL*
X127141995Y-98599870D03*
X126250000Y-92500000D03*
G04 #@! TO.N,/ESC/GATE_BH*
X126000000Y-91000000D03*
X124771992Y-96719873D03*
G04 #@! TO.N,/ESC/GATE_BL*
X128103558Y-88455413D03*
X127141995Y-99124873D03*
G04 #@! TO.N,/ESC/GATE_CL*
X127191084Y-99704912D03*
X128250000Y-87875000D03*
G04 #@! TO.N,/ESC/NRST*
X122641995Y-103219873D03*
G04 #@! TO.N,VDD*
X128000000Y-90500000D03*
G04 #@! TO.N,/ESC1/NRST*
X133500000Y-96469873D03*
G04 #@! TO.N,/ESC1/GATE_AL*
X128717995Y-87477531D03*
X128500000Y-101750000D03*
G04 #@! TO.N,/ESC1/GATE_AH*
X132250000Y-103250000D03*
X130780186Y-86774008D03*
G04 #@! TO.N,/ESC1/SWDIO*
X133355527Y-103035534D03*
G04 #@! TO.N,/ESC1/GATE_BH*
X130267442Y-86661220D03*
X131166998Y-102969873D03*
G04 #@! TO.N,/ESC1/GATE_BL*
X128500000Y-100750000D03*
X127666166Y-89440004D03*
G04 #@! TO.N,/ESC1/GATE_CH*
X129750000Y-86750000D03*
X130250000Y-103140447D03*
G04 #@! TO.N,/ESC1/SWCLK*
X133891995Y-102969873D03*
G04 #@! TO.N,/ESC1/GATE_CL*
X127554896Y-89953080D03*
X128927200Y-100029668D03*
G04 #@! TO.N,Net-(U203-PA2)*
X132750000Y-103500000D03*
X126391995Y-102469873D03*
G04 #@! TO.N,Net-(U305-PA2)*
X129750000Y-97500000D03*
X134250000Y-103500000D03*
D35*
G04 #@! TO.N,Net-(R101-Pad2)*
X124750000Y-82750000D03*
G04 #@! TO.N,Net-(R103-Pad2)*
X123500000Y-92000000D03*
G04 #@! TO.N,Net-(R104-Pad2)*
X125698341Y-82774468D03*
G04 #@! TO.N,Net-(R106-Pad2)*
X126378328Y-82452400D03*
G04 #@! TO.N,Net-(R108-Pad2)*
X132240800Y-93749493D03*
G04 #@! TO.N,Net-(R110-Pad2)*
X131221088Y-93628320D03*
G04 #@! TO.N,Net-(R112-Pad2)*
X130221339Y-93630016D03*
D34*
G04 #@! TO.N,/ESC/TELEMETRY_TX*
X120750000Y-100000000D03*
G04 #@! TO.N,/ESC/TELEMETRY_RX*
X120750000Y-101000000D03*
G04 #@! TD*
D36*
G04 #@! TO.N,/ESC/HO3*
X123503663Y-86003663D02*
X123576908Y-86076908D01*
X123503663Y-85287256D02*
X123503663Y-86003663D01*
X123576908Y-86076908D02*
X123576908Y-86455413D01*
D37*
G04 #@! TO.N,GND*
X128937500Y-92658900D02*
X128937500Y-90783400D01*
X129278600Y-93000000D02*
X128937500Y-92658900D01*
D36*
X127500000Y-86407321D02*
X127451908Y-86455413D01*
X127500000Y-85925000D02*
X127500000Y-86407321D01*
D38*
G04 #@! TO.N,+3V3*
X129747627Y-102252373D02*
X129250000Y-102750000D01*
X122250000Y-103750000D02*
X122250000Y-104000000D01*
X122408984Y-103591016D02*
X122250000Y-103750000D01*
X122171996Y-103354027D02*
X122171996Y-102437372D01*
X122781653Y-103963684D02*
X122408984Y-103591016D01*
X134377373Y-97377373D02*
X134500000Y-97500000D01*
X131676995Y-96988223D02*
X131676995Y-97377373D01*
X122408984Y-103591016D02*
X122171996Y-103354027D01*
X124296995Y-103064873D02*
X124141995Y-103219873D01*
X126062627Y-97437373D02*
X126250000Y-97250000D01*
X124296995Y-102312373D02*
X124296995Y-103064873D01*
X133604846Y-95970566D02*
X132767309Y-95970566D01*
X132694653Y-95970566D02*
X131676995Y-96988223D01*
X122171996Y-102437372D02*
X122296995Y-102312373D01*
X125796995Y-97437373D02*
X126062627Y-97437373D01*
X130176995Y-102252373D02*
X129747627Y-102252373D01*
X133676995Y-97377373D02*
X133927200Y-97127168D01*
X133927200Y-97127168D02*
X133927200Y-96292920D01*
X123389574Y-103963684D02*
X122781653Y-103963684D01*
X133927200Y-96292920D02*
X133604846Y-95970566D01*
X133676995Y-97377373D02*
X134377373Y-97377373D01*
D36*
G04 #@! TO.N,/ESC/VB1*
X124764408Y-89642913D02*
X124764408Y-91735592D01*
X123830000Y-92670000D02*
X123420000Y-92670000D01*
X124764408Y-91735592D02*
X123830000Y-92670000D01*
X123420000Y-92670000D02*
X121825000Y-94265000D01*
G04 #@! TO.N,/ESC/VS1*
X121825000Y-92715000D02*
X122750000Y-91790000D01*
D38*
X127492034Y-100139912D02*
X127696995Y-100344873D01*
D36*
X122750000Y-89807320D02*
X123576907Y-88980413D01*
X121825000Y-92715000D02*
X120035000Y-92715000D01*
X122853400Y-90425063D02*
X122750000Y-90321663D01*
X122750000Y-90321663D02*
X122750000Y-89807320D01*
D38*
X123000000Y-96250000D02*
X122000000Y-96250000D01*
X121120400Y-93419600D02*
X121825000Y-92715000D01*
X121750000Y-96000000D02*
X121750000Y-95920850D01*
D36*
X122750000Y-91790000D02*
X122750000Y-91028337D01*
X122750000Y-91028337D02*
X122853400Y-90924937D01*
D38*
X127485027Y-100139912D02*
X127492034Y-100139912D01*
X122000000Y-96250000D02*
X121750000Y-96000000D01*
X121120400Y-95291250D02*
X121120400Y-93419600D01*
D36*
X122853400Y-90924937D02*
X122853400Y-90425063D01*
D38*
X121750000Y-95920850D02*
X121120400Y-95291250D01*
D36*
G04 #@! TO.N,/ESC/VS2*
X122549491Y-87075000D02*
X121825000Y-87075000D01*
D38*
X127454495Y-105579495D02*
X127500000Y-105625000D01*
D36*
X123576908Y-87455413D02*
X122929904Y-87455413D01*
X120000000Y-87750000D02*
X121150000Y-87750000D01*
X121150000Y-87750000D02*
X121825000Y-87075000D01*
X122929904Y-87455413D02*
X122549491Y-87075000D01*
D38*
X127454495Y-104979873D02*
X127454495Y-105579495D01*
D36*
G04 #@! TO.N,/ESC/VB2*
X121922987Y-88527013D02*
X123505308Y-88527013D01*
X121825000Y-88625000D02*
X121825000Y-89815000D01*
X123505308Y-88527013D02*
X123576908Y-88455413D01*
G04 #@! TO.N,/ESC/VS3*
X124121600Y-85625105D02*
X124121600Y-84371600D01*
X124121600Y-84371600D02*
X123500000Y-83750000D01*
X123500000Y-83750000D02*
X122690000Y-83750000D01*
X124264408Y-85767913D02*
X124121600Y-85625105D01*
X121665000Y-82725000D02*
X120376000Y-82725000D01*
X120376000Y-82725000D02*
X120351000Y-82750000D01*
X122690000Y-83750000D02*
X121665000Y-82725000D01*
D38*
X124500000Y-105500000D02*
X124500000Y-105087878D01*
D36*
G04 #@! TO.N,/ESC/VB3*
X122750000Y-86560197D02*
X122750000Y-85360000D01*
X123194914Y-84544686D02*
X121934686Y-84544686D01*
X122750000Y-85360000D02*
X121665000Y-84275000D01*
X123145216Y-86955413D02*
X122750000Y-86560197D01*
X123576908Y-86955413D02*
X123145216Y-86955413D01*
G04 #@! TO.N,/ESC1/VB1*
X131625000Y-87567500D02*
X131625000Y-85986490D01*
X131776654Y-85834836D02*
X130259836Y-85834836D01*
G04 #@! TO.N,/ESC1/VS1*
X133000000Y-86161490D02*
X133000000Y-86184645D01*
D38*
X127846412Y-98601304D02*
X127846412Y-98846412D01*
D36*
X133327654Y-87012173D02*
X133000000Y-87339827D01*
X133000000Y-87500000D02*
X133000000Y-88192500D01*
D38*
X127846412Y-98846412D02*
X128250000Y-99250000D01*
D36*
X133327654Y-86512299D02*
X133327654Y-87012173D01*
X133000000Y-86184645D02*
X133327654Y-86512299D01*
G04 #@! TO.N,/ESC1/VB2*
X133528400Y-88470792D02*
X133528400Y-88039208D01*
X133275304Y-88683400D02*
X133315792Y-88683400D01*
X133528346Y-88039154D02*
X134290847Y-87276653D01*
X132874695Y-88708399D02*
X133250305Y-88708399D01*
X134858166Y-87276653D02*
X134858166Y-86063166D01*
X132812500Y-88755000D02*
X132866898Y-88700602D01*
X133528400Y-88039208D02*
X133528346Y-88039154D01*
X133315792Y-88683400D02*
X133528400Y-88470792D01*
X134290847Y-87276653D02*
X134858166Y-87276653D01*
X133250305Y-88708399D02*
X133275304Y-88683400D01*
X132866898Y-88700602D02*
X132874695Y-88708399D01*
G04 #@! TO.N,/ESC1/VS2*
X134858166Y-88826653D02*
X135475653Y-88826653D01*
X133589538Y-89755000D02*
X132812500Y-89755000D01*
D38*
X127704495Y-94980566D02*
X128935062Y-93750000D01*
D36*
X133750000Y-89594538D02*
X133589538Y-89755000D01*
X134258800Y-89594538D02*
X133750000Y-89594538D01*
D38*
X129352387Y-93750000D02*
X128935062Y-93750000D01*
D36*
X135475653Y-88826653D02*
X135649000Y-89000000D01*
X134858166Y-88995171D02*
X134258800Y-89594538D01*
G04 #@! TO.N,/ESC1/VB3*
X133750000Y-91697594D02*
X133750000Y-90697579D01*
X134703835Y-92960584D02*
X134703835Y-94273365D01*
X134703835Y-92960584D02*
X134703835Y-92651429D01*
X133307421Y-90255000D02*
X132812500Y-90255000D01*
X133750000Y-90697579D02*
X133307421Y-90255000D01*
X134703835Y-92651429D02*
X133750000Y-91697594D01*
G04 #@! TO.N,/ESC1/VS3*
X132998909Y-93923659D02*
X132936409Y-93923659D01*
X132826169Y-91893669D02*
X132375000Y-91442500D01*
X133440373Y-94365123D02*
X132998909Y-93923659D01*
X132375000Y-91442500D02*
X132125000Y-91442500D01*
X132844200Y-93499556D02*
X132826169Y-93481525D01*
D38*
X132936409Y-94047228D02*
X132936409Y-93923659D01*
D36*
X133491320Y-94365123D02*
X133440373Y-94365123D01*
X132844200Y-93831450D02*
X132844200Y-93499556D01*
X134352400Y-91006523D02*
X134706373Y-91360496D01*
D38*
X132458458Y-94525179D02*
X132936409Y-94047228D01*
X131825289Y-94980566D02*
X132280676Y-94525179D01*
D36*
X132936409Y-93923659D02*
X132844200Y-93831450D01*
X132826169Y-93481525D02*
X132826169Y-91893669D01*
D38*
X132280676Y-94525179D02*
X132458458Y-94525179D01*
D36*
G04 #@! TO.N,Vdrive*
X135000000Y-96250000D02*
X135000000Y-95645000D01*
X124600000Y-93150000D02*
X124000000Y-93750000D01*
X123194914Y-83144686D02*
X123194914Y-82369914D01*
X121765000Y-91160000D02*
X122250000Y-90675000D01*
X123194914Y-82369914D02*
X123000000Y-82175000D01*
X129422600Y-85815000D02*
X129487600Y-85750000D01*
X128840000Y-85815000D02*
X129422600Y-85815000D01*
D38*
G04 #@! TO.N,/ESC/PWM*
X132734441Y-105019435D02*
X132734441Y-106707241D01*
G04 #@! TO.N,/ESC/BOOT0*
X121609495Y-101124873D02*
X121257171Y-101124873D01*
X121257171Y-101124873D02*
X120833005Y-101549039D01*
X120833005Y-101549039D02*
X120833005Y-103885127D01*
G04 #@! TO.N,/ESC/COMP*
X129496162Y-104979873D02*
X130516995Y-104979873D01*
X125912428Y-104480273D02*
X128996562Y-104480273D01*
X125412828Y-105412828D02*
X125500000Y-105500000D01*
X125296995Y-102312373D02*
X125296995Y-103124873D01*
X125412828Y-104979873D02*
X125912428Y-104480273D01*
X125296995Y-103124873D02*
X125391995Y-103219873D01*
X128996562Y-104480273D02*
X129496162Y-104979873D01*
X125412828Y-104979873D02*
X125412828Y-105412828D01*
G04 #@! TO.N,/ESC/SENS_A*
X127837232Y-101388898D02*
X127837232Y-102337232D01*
X126484495Y-100624873D02*
X127073207Y-100624873D01*
X127073207Y-100624873D02*
X127837232Y-101388898D01*
X128750000Y-103250000D02*
X129698334Y-103250000D01*
X127837232Y-102337232D02*
X128750000Y-103250000D01*
X129698334Y-103250000D02*
X130408207Y-103959873D01*
X130516995Y-103959873D02*
X131537828Y-103959873D01*
G04 #@! TO.N,/ESC/SENS_B*
X126921994Y-101124873D02*
X127283990Y-101486869D01*
X126484495Y-101124873D02*
X126921994Y-101124873D01*
X129496162Y-103959873D02*
X127454495Y-103959873D01*
X127283990Y-102768535D02*
X128475328Y-103959873D01*
X127283990Y-101486869D02*
X127283990Y-102768535D01*
G04 #@! TO.N,/ESC/SENS_C*
X126433662Y-103959873D02*
X124391995Y-103959873D01*
X125412828Y-103959873D02*
X124796995Y-103344040D01*
X124796995Y-103344040D02*
X124796995Y-102312373D01*
G04 #@! TO.N,/ESC1/PWM*
X133844159Y-106566959D02*
X134000000Y-106722800D01*
X133844159Y-105019434D02*
X133844159Y-106566959D01*
G04 #@! TO.N,/ESC1/BOOT0*
X134750000Y-103764910D02*
X134984524Y-103999434D01*
X134750000Y-103250000D02*
X134750000Y-103764910D01*
X134364495Y-98564873D02*
X134986995Y-98564873D01*
G04 #@! TO.N,/ESC1/SENS_A*
X126203789Y-96500000D02*
X125683662Y-95979873D01*
X127846412Y-97581304D02*
X126765108Y-96500000D01*
X128396012Y-98473890D02*
X128396012Y-98130904D01*
X128986995Y-99064873D02*
X128396012Y-98473890D01*
X128396012Y-98130904D02*
X127846412Y-97581304D01*
X125683662Y-95979873D02*
X124662828Y-95979873D01*
X129489495Y-99064873D02*
X128986995Y-99064873D01*
X126765108Y-96500000D02*
X126203789Y-96500000D01*
G04 #@! TO.N,/ESC1/COMP*
X129250000Y-95500000D02*
X129274928Y-95524928D01*
X130447867Y-96525745D02*
X130676995Y-96754873D01*
X129274928Y-96274928D02*
X129525745Y-96525745D01*
X130676995Y-97377373D02*
X130676995Y-96754873D01*
X126641995Y-94980566D02*
X127161429Y-95500000D01*
X127161429Y-95500000D02*
X129250000Y-95500000D01*
X129250000Y-95500000D02*
X130337561Y-95500000D01*
X129525745Y-96525745D02*
X130447867Y-96525745D01*
X129274928Y-95524928D02*
X129274928Y-96274928D01*
X126641995Y-94980566D02*
X125704355Y-94980566D01*
X130337561Y-95500000D02*
X130856995Y-94980566D01*
G04 #@! TO.N,/ESC1/SENS_B*
X127704495Y-96000566D02*
X128725328Y-96000566D01*
X128725328Y-98238205D02*
X128725328Y-96000566D01*
X126641995Y-96000566D02*
X127704495Y-96000566D01*
X129051996Y-98564873D02*
X128725328Y-98238205D01*
X129489495Y-98564873D02*
X129051996Y-98564873D01*
G04 #@! TO.N,/ESC1/SENS_C*
X130856995Y-96000566D02*
X129906995Y-96000566D01*
X131606995Y-95994873D02*
X130666995Y-95994873D01*
X131176995Y-96430566D02*
X131176995Y-97377373D01*
X131606995Y-96000566D02*
X131176995Y-96430566D01*
D36*
G04 #@! TO.N,/ESC/HO1*
X124264408Y-89642913D02*
X124264408Y-90072328D01*
X124264408Y-90072328D02*
X123561330Y-90775406D01*
G04 #@! TO.N,/ESC/LO1*
X124745000Y-84305000D02*
X124745000Y-85748505D01*
X124745000Y-85748505D02*
X124764408Y-85767913D01*
G04 #@! TO.N,/ESC/HO2*
X122675001Y-87850001D02*
X122780413Y-87955413D01*
X122042653Y-85613155D02*
X122042653Y-85985947D01*
X122780413Y-87955413D02*
X123576908Y-87955413D01*
X122471155Y-87850001D02*
X122675001Y-87850001D01*
X122042653Y-85985947D02*
X122028600Y-86000000D01*
G04 #@! TO.N,/ESC/LO2*
X125264408Y-85767913D02*
X125264408Y-84787124D01*
X125264408Y-84787124D02*
X125746532Y-84305000D01*
G04 #@! TO.N,/ESC/HO3*
X122737165Y-81470951D02*
X122738680Y-81469436D01*
X121984073Y-81470951D02*
X122737165Y-81470951D01*
G04 #@! TO.N,/ESC/LO3*
X125764408Y-85767913D02*
X125764408Y-85245592D01*
X125764408Y-85245592D02*
X126705000Y-84305000D01*
G04 #@! TO.N,/ESC1/HO1*
X132125000Y-87567500D02*
X132530054Y-87162446D01*
X132530054Y-87162446D02*
X132530054Y-84644380D01*
G04 #@! TO.N,/ESC1/LO1*
X132202388Y-92611712D02*
X131625000Y-92034324D01*
X131625000Y-92034324D02*
X131625000Y-91442500D01*
G04 #@! TO.N,/ESC1/HO2*
X133712196Y-88991138D02*
X133893181Y-88991138D01*
X133448334Y-89255000D02*
X133712196Y-88991138D01*
X132812500Y-89255000D02*
X133448334Y-89255000D01*
G04 #@! TO.N,/ESC1/LO2*
X131125000Y-91442500D02*
X131125000Y-92512232D01*
G04 #@! TO.N,/ESC1/HO3*
X133296600Y-92133397D02*
X133296600Y-90989100D01*
X133296600Y-90989100D02*
X133062500Y-90755000D01*
X133508395Y-92345192D02*
X133296600Y-92133397D01*
G04 #@! TO.N,/ESC1/LO3*
X130625000Y-92206355D02*
X130221339Y-92610016D01*
X130625000Y-91442500D02*
X130625000Y-92206355D01*
D38*
G04 #@! TO.N,/ESC/GATE_CH*
X126764408Y-90803126D02*
X126764408Y-89642913D01*
X125296995Y-96719873D02*
X125296995Y-97437373D01*
X126582600Y-91417400D02*
X126582600Y-90984934D01*
X126125000Y-91875000D02*
X126582600Y-91417400D01*
X126582600Y-90984934D02*
X126764408Y-90803126D01*
G04 #@! TO.N,/ESC/GATE_AH*
X124296995Y-96624873D02*
X124296995Y-97437373D01*
X124257184Y-96616911D02*
X124289033Y-96616911D01*
X125764408Y-90485592D02*
X125500000Y-90750000D01*
X124289033Y-96616911D02*
X124296995Y-96624873D01*
X125764408Y-89642913D02*
X125764408Y-90485592D01*
G04 #@! TO.N,/ESC/GATE_AL*
X126500000Y-92500000D02*
X127000000Y-92000000D01*
X126250000Y-92500000D02*
X126500000Y-92500000D01*
X127000000Y-91000001D02*
X127070208Y-90929792D01*
X127119008Y-90115637D02*
X127119008Y-89288313D01*
X127000000Y-92000000D02*
X127000000Y-91000001D01*
X127116992Y-98624873D02*
X127141995Y-98599870D01*
X127070208Y-90929792D02*
X127070208Y-90164437D01*
X126484495Y-98624873D02*
X127116992Y-98624873D01*
X127070208Y-90164437D02*
X127119008Y-90115637D01*
X127119008Y-89288313D02*
X127451908Y-88955413D01*
G04 #@! TO.N,/ESC/GATE_BH*
X124796995Y-96744876D02*
X124796995Y-97437373D01*
X126264408Y-90735592D02*
X126000000Y-91000000D01*
X126264408Y-89642913D02*
X126264408Y-90735592D01*
X124771992Y-96719873D02*
X124796995Y-96744876D01*
G04 #@! TO.N,/ESC/SWCLK*
X122296995Y-97437373D02*
X121062627Y-97437373D01*
X120729600Y-97770400D02*
X120729600Y-98797600D01*
X121062627Y-97437373D02*
X120729600Y-97770400D01*
X120729600Y-98797600D02*
X120277200Y-99250000D01*
G04 #@! TO.N,/ESC/SWDIO*
X122796995Y-97085049D02*
X122482219Y-96770273D01*
X122482219Y-96770273D02*
X120729727Y-96770273D01*
X120729727Y-96770273D02*
X120277200Y-97222800D01*
X120277200Y-97222800D02*
X120277200Y-98000000D01*
G04 #@! TO.N,/ESC/GATE_BL*
X128103558Y-88455413D02*
X127451908Y-88455413D01*
X127141995Y-99124873D02*
X126484495Y-99124873D01*
G04 #@! TO.N,/ESC/GATE_CL*
X127215042Y-99680954D02*
X127215042Y-99647073D01*
X127215042Y-99647073D02*
X127192842Y-99624873D01*
X127192842Y-99624873D02*
X126484495Y-99624873D01*
X128125000Y-87875000D02*
X128044587Y-87955413D01*
X128044587Y-87955413D02*
X127451908Y-87955413D01*
X127191084Y-99704912D02*
X127215042Y-99680954D01*
X128250000Y-87875000D02*
X128125000Y-87875000D01*
G04 #@! TO.N,/ESC/NRST*
X123796995Y-102749872D02*
X123326994Y-103219873D01*
X123796995Y-102312373D02*
X123796995Y-102749872D01*
X123326994Y-103219873D02*
X122641995Y-103219873D01*
D39*
G04 #@! TO.N,VDD*
X127451908Y-87455413D02*
X127812890Y-87455413D01*
D36*
X128505808Y-89755000D02*
X128937500Y-89755000D01*
X127883600Y-87455413D02*
X128250000Y-87089013D01*
D39*
X127812890Y-87455413D02*
X128117808Y-87150495D01*
D38*
X128937500Y-89755000D02*
X128525001Y-89755000D01*
D36*
X128000000Y-90500000D02*
X128000000Y-90260808D01*
X127451908Y-87455413D02*
X127883600Y-87455413D01*
X128250000Y-87089013D02*
X128250000Y-86750000D01*
D39*
X127500000Y-81250000D02*
X127500000Y-81051000D01*
D36*
X128000000Y-90260808D02*
X128505808Y-89755000D01*
D38*
G04 #@! TO.N,/ESC1/NRST*
X133500000Y-96469873D02*
X133141995Y-96469873D01*
X133014495Y-96597373D02*
X132519496Y-96597373D01*
X133141995Y-96469873D02*
X133014495Y-96597373D01*
X132519496Y-96597373D02*
X132176995Y-96939874D01*
X132176995Y-96939874D02*
X132176995Y-97377373D01*
G04 #@! TO.N,/ESC1/GATE_AL*
X128852531Y-87477531D02*
X129187500Y-87812500D01*
X128717995Y-87477531D02*
X128852531Y-87477531D01*
X128500000Y-101506874D02*
X128942001Y-101064873D01*
X128500000Y-101750000D02*
X128500000Y-101506874D01*
X129187500Y-87812500D02*
X129187500Y-88255000D01*
X128942001Y-101064873D02*
X129489495Y-101064873D01*
G04 #@! TO.N,/ESC1/GATE_AH*
X130625000Y-86929194D02*
X130625000Y-87567500D01*
X130780186Y-86774008D02*
X130625000Y-86929194D01*
X132250000Y-103250000D02*
X131972128Y-103250000D01*
X131972128Y-103250000D02*
X131676995Y-102954867D01*
X131676995Y-102954867D02*
X131676995Y-102252373D01*
G04 #@! TO.N,/ESC1/SWDIO*
X133176995Y-102857002D02*
X133355527Y-103035534D01*
X133176995Y-102252373D02*
X133176995Y-102857002D01*
G04 #@! TO.N,/ESC1/GATE_BH*
X130267442Y-87086711D02*
X130125000Y-87229153D01*
X130267442Y-86661220D02*
X130267442Y-87086711D01*
X131176995Y-102252373D02*
X131176995Y-102959876D01*
X130125000Y-87229153D02*
X130125000Y-87567500D01*
X131176995Y-102959876D02*
X131166998Y-102969873D01*
G04 #@! TO.N,/ESC1/GATE_BL*
X128731871Y-100750000D02*
X128916998Y-100564873D01*
X128500000Y-100750000D02*
X128731871Y-100750000D01*
X127809996Y-89440004D02*
X128250000Y-89000000D01*
X128599153Y-88755000D02*
X128937500Y-88755000D01*
X127666166Y-89440004D02*
X127809996Y-89440004D01*
X128250000Y-89000000D02*
X128354153Y-89000000D01*
X128354153Y-89000000D02*
X128599153Y-88755000D01*
X128916998Y-100564873D02*
X129489495Y-100564873D01*
G04 #@! TO.N,/ESC1/GATE_CH*
X129750000Y-86750000D02*
X129750000Y-87000000D01*
X130320947Y-103211394D02*
X130400474Y-103211394D01*
X130676995Y-102934873D02*
X130676995Y-102252373D01*
X130250000Y-103140447D02*
X130320947Y-103211394D01*
X129750000Y-87000000D02*
X129625000Y-87125000D01*
X130400474Y-103211394D02*
X130676995Y-102934873D01*
X129625000Y-87125000D02*
X129625000Y-87567500D01*
G04 #@! TO.N,/ESC1/SWCLK*
X133676995Y-102754873D02*
X133891995Y-102969873D01*
X133676995Y-102252373D02*
X133676995Y-102754873D01*
G04 #@! TO.N,/ESC1/GATE_CL*
X128404523Y-89305800D02*
X127757243Y-89953080D01*
X127757243Y-89953080D02*
X127554896Y-89953080D01*
X128886700Y-89305800D02*
X128404523Y-89305800D01*
X128927200Y-100029668D02*
X128962405Y-100064873D01*
X128937500Y-89255000D02*
X128886700Y-89305800D01*
X128962405Y-100064873D02*
X129489495Y-100064873D01*
G04 #@! TO.N,Net-(U203-PA2)*
X132734441Y-103515559D02*
X132750000Y-103500000D01*
X125796995Y-102312373D02*
X126234495Y-102312373D01*
X132734441Y-103999435D02*
X132734441Y-103515559D01*
X126234495Y-102312373D02*
X126391995Y-102469873D01*
G04 #@! TO.N,Net-(U305-PA2)*
X129929056Y-97320944D02*
X130120566Y-97320944D01*
X130120566Y-97320944D02*
X130176995Y-97377373D01*
X133844159Y-103905841D02*
X134250000Y-103500000D01*
X129750000Y-97500000D02*
X129929056Y-97320944D01*
D36*
G04 #@! TO.N,Net-(R101-Pad2)*
X124745000Y-83285000D02*
X124745000Y-82755000D01*
X124745000Y-82755000D02*
X124750000Y-82750000D01*
G04 #@! TO.N,Net-(R102-Pad2)*
X121022653Y-85613155D02*
X121022653Y-85933154D01*
X121022653Y-85933154D02*
X120455807Y-86500000D01*
X120455807Y-86500000D02*
X120351000Y-86500000D01*
G04 #@! TO.N,Net-(R103-Pad2)*
X123561330Y-91938670D02*
X123500000Y-92000000D01*
X123561330Y-91795406D02*
X123561330Y-91938670D01*
G04 #@! TO.N,Net-(R104-Pad2)*
X125746532Y-83285000D02*
X125746532Y-82822659D01*
X125746532Y-82822659D02*
X125698341Y-82774468D01*
D37*
G04 #@! TO.N,Net-(R105-Pad2)*
X120964073Y-81470951D02*
X120480049Y-81470951D01*
X120480049Y-81470951D02*
X120451000Y-81500000D01*
D36*
G04 #@! TO.N,Net-(R106-Pad2)*
X126705000Y-83285000D02*
X126705000Y-82779072D01*
X126705000Y-82779072D02*
X126378328Y-82452400D01*
G04 #@! TO.N,Net-(R107-Pad2)*
X134305004Y-85250000D02*
X135649000Y-85250000D01*
X133624719Y-84569715D02*
X134305004Y-85250000D01*
G04 #@! TO.N,Net-(R111-Pad2)*
X134111600Y-94000000D02*
X134111600Y-94500000D01*
X134380626Y-95130626D02*
X135529626Y-95130626D01*
X134111600Y-94861600D02*
X134380626Y-95130626D01*
X134111600Y-94500000D02*
X134111600Y-94861600D01*
X134111600Y-94611600D02*
X134111600Y-94500000D01*
X133508395Y-93396795D02*
X134111600Y-94000000D01*
D38*
G04 #@! TO.N,/ESC/TELEMETRY_TX*
X121609495Y-100124873D02*
X120874873Y-100124873D01*
X120874873Y-100124873D02*
X120750000Y-100000000D01*
G04 #@! TO.N,/ESC/TELEMETRY_RX*
X121609495Y-100624873D02*
X121125127Y-100624873D01*
X121125127Y-100624873D02*
X120750000Y-101000000D01*
G04 #@! TO.N,/ESC1/TELEMETRY_TX*
X135722800Y-100222800D02*
X135722800Y-100500000D01*
X134364495Y-99564873D02*
X135064873Y-99564873D01*
X135064873Y-99564873D02*
X135722800Y-100222800D01*
G04 #@! TO.N,/ESC1/TELEMETRY_RX*
X135537673Y-99064873D02*
X135722800Y-99250000D01*
X134364495Y-99064873D02*
X135537673Y-99064873D01*
G04 #@! TD*
G04 #@! TA.AperFunction,Conductor*
G04 #@! TO.N,VDD*
G36*
X129383069Y-89536045D02*
G01*
X129416986Y-89574719D01*
X129422100Y-89601976D01*
X129422100Y-89908022D01*
X129404507Y-89956360D01*
X129359958Y-89982080D01*
X129332229Y-89981777D01*
X129308716Y-89977100D01*
X128566284Y-89977100D01*
X128566283Y-89977101D01*
X128503455Y-89989598D01*
X128432204Y-90037205D01*
X128384598Y-90108454D01*
X128384597Y-90108456D01*
X128372100Y-90171284D01*
X128372100Y-90338715D01*
X128372101Y-90338716D01*
X128384598Y-90401546D01*
X128425808Y-90463222D01*
X128438034Y-90513187D01*
X128425808Y-90546778D01*
X128384598Y-90608454D01*
X128384597Y-90608456D01*
X128372100Y-90671284D01*
X128372100Y-90674800D01*
X128354507Y-90723138D01*
X128309958Y-90748858D01*
X128296900Y-90750000D01*
X127374508Y-90750000D01*
X127326170Y-90732407D01*
X127300450Y-90687858D01*
X127299308Y-90674800D01*
X127299308Y-90340488D01*
X127316901Y-90292150D01*
X127361450Y-90266430D01*
X127412106Y-90275362D01*
X127419608Y-90279694D01*
X127508752Y-90303580D01*
X127508755Y-90303580D01*
X127601037Y-90303580D01*
X127601040Y-90303580D01*
X127690184Y-90279694D01*
X127770108Y-90233549D01*
X127824098Y-90179557D01*
X127848491Y-90163259D01*
X127887018Y-90147302D01*
X128477394Y-89556926D01*
X128524014Y-89535186D01*
X128530568Y-89534900D01*
X128932271Y-89534900D01*
X128935060Y-89534345D01*
X128949736Y-89532899D01*
X129308712Y-89532899D01*
X129308714Y-89532899D01*
X129332230Y-89528221D01*
X129383069Y-89536045D01*
G37*
G04 #@! TD.AperFunction*
G04 #@! TA.AperFunction,Conductor*
G36*
X129330922Y-80952251D02*
G01*
X129335924Y-80951143D01*
X129354629Y-80960880D01*
X129374447Y-80968093D01*
X129378127Y-80973112D01*
X129381552Y-80974895D01*
X129395584Y-80996921D01*
X129421408Y-81059264D01*
X129421409Y-81059265D01*
X129421409Y-81059266D01*
X129487326Y-81157917D01*
X129500000Y-81199696D01*
X129500000Y-81674800D01*
X129482407Y-81723138D01*
X129437858Y-81748858D01*
X129424800Y-81750000D01*
X129250000Y-81750000D01*
X129250000Y-85283279D01*
X129232407Y-85331617D01*
X129187858Y-85357337D01*
X129144426Y-85352072D01*
X129060550Y-85315038D01*
X129060541Y-85315037D01*
X129035226Y-85312100D01*
X128644774Y-85312100D01*
X128639510Y-85312710D01*
X128619451Y-85315037D01*
X128515854Y-85360780D01*
X128515851Y-85360782D01*
X128435782Y-85440851D01*
X128435780Y-85440854D01*
X128390037Y-85544451D01*
X128387100Y-85569776D01*
X128387100Y-86060223D01*
X128390037Y-86085548D01*
X128435780Y-86189145D01*
X128435782Y-86189148D01*
X128515851Y-86269217D01*
X128515854Y-86269219D01*
X128515855Y-86269220D01*
X128619450Y-86314962D01*
X128644774Y-86317900D01*
X128644776Y-86317900D01*
X129035224Y-86317900D01*
X129035226Y-86317900D01*
X129060550Y-86314962D01*
X129164145Y-86269220D01*
X129241503Y-86191861D01*
X129288122Y-86170122D01*
X129314137Y-86172397D01*
X129427975Y-86202900D01*
X129427978Y-86202900D01*
X129547222Y-86202900D01*
X129547225Y-86202900D01*
X129655339Y-86173931D01*
X129658763Y-86174230D01*
X129661742Y-86172511D01*
X129684035Y-86176442D01*
X129706581Y-86178415D01*
X129709012Y-86180846D01*
X129712400Y-86181444D01*
X129726950Y-86198784D01*
X129742954Y-86214788D01*
X129743878Y-86218958D01*
X129745465Y-86220849D01*
X129750000Y-86246569D01*
X129750000Y-86329433D01*
X129732407Y-86377771D01*
X129694264Y-86402070D01*
X129659432Y-86411403D01*
X129614713Y-86423385D01*
X129534783Y-86469534D01*
X129469534Y-86534783D01*
X129423385Y-86614713D01*
X129410278Y-86663633D01*
X129399500Y-86703856D01*
X129399500Y-86796144D01*
X129413831Y-86849630D01*
X129423386Y-86885290D01*
X129437481Y-86909702D01*
X129441554Y-86932807D01*
X129447095Y-86955617D01*
X129446071Y-86958422D01*
X129446413Y-86960361D01*
X129439743Y-86980678D01*
X129434264Y-86991738D01*
X129430778Y-86995225D01*
X129422754Y-87014598D01*
X129421792Y-87016918D01*
X129421791Y-87016922D01*
X129399065Y-87071785D01*
X129392118Y-87084782D01*
X129359598Y-87133455D01*
X129347100Y-87196284D01*
X129347100Y-87466554D01*
X129329507Y-87514892D01*
X129284958Y-87540612D01*
X129234300Y-87531679D01*
X129218726Y-87519728D01*
X129056213Y-87357215D01*
X129044262Y-87341642D01*
X129025134Y-87308512D01*
X128998464Y-87262319D01*
X128998461Y-87262316D01*
X128998460Y-87262314D01*
X128933211Y-87197065D01*
X128933208Y-87197063D01*
X128933207Y-87197062D01*
X128853283Y-87150917D01*
X128853282Y-87150916D01*
X128853281Y-87150916D01*
X128820651Y-87142173D01*
X128764139Y-87127031D01*
X128671851Y-87127031D01*
X128625197Y-87139531D01*
X128582708Y-87150916D01*
X128502778Y-87197065D01*
X128437529Y-87262314D01*
X128391380Y-87342244D01*
X128387369Y-87357215D01*
X128367495Y-87431387D01*
X128367495Y-87431389D01*
X128367495Y-87449300D01*
X128349902Y-87497638D01*
X128305353Y-87523358D01*
X128292295Y-87524500D01*
X128203856Y-87524500D01*
X128157202Y-87537000D01*
X128114713Y-87548385D01*
X128034786Y-87594532D01*
X127969528Y-87659791D01*
X127966804Y-87663341D01*
X127923416Y-87690974D01*
X127892479Y-87691309D01*
X127823125Y-87677513D01*
X127325200Y-87677513D01*
X127276862Y-87659920D01*
X127251142Y-87615371D01*
X127250000Y-87602313D01*
X127250000Y-87308512D01*
X127267593Y-87260174D01*
X127312142Y-87234454D01*
X127325192Y-87233312D01*
X127823122Y-87233312D01*
X127823124Y-87233312D01*
X127823124Y-87233311D01*
X127885953Y-87220815D01*
X127957203Y-87173208D01*
X128004810Y-87101958D01*
X128017308Y-87039128D01*
X128017307Y-86871699D01*
X128004810Y-86808868D01*
X127963598Y-86747190D01*
X127951373Y-86697225D01*
X127963596Y-86663638D01*
X128004810Y-86601958D01*
X128017308Y-86539128D01*
X128017307Y-86371699D01*
X128004810Y-86308868D01*
X127957203Y-86237618D01*
X127957201Y-86237617D01*
X127957201Y-86237616D01*
X127932974Y-86221428D01*
X127902557Y-86179945D01*
X127905922Y-86128615D01*
X127909620Y-86121317D01*
X127922036Y-86099813D01*
X127952900Y-85984625D01*
X127952900Y-85865375D01*
X127922036Y-85750187D01*
X127922035Y-85750185D01*
X127862410Y-85646912D01*
X127778087Y-85562589D01*
X127674813Y-85502964D01*
X127655335Y-85497745D01*
X127559625Y-85472100D01*
X127440375Y-85472100D01*
X127415888Y-85478661D01*
X127344662Y-85497745D01*
X127293418Y-85493261D01*
X127257045Y-85456887D01*
X127250000Y-85425107D01*
X127250000Y-81750000D01*
X126825200Y-81750000D01*
X126776862Y-81732407D01*
X126751142Y-81687858D01*
X126750000Y-81674800D01*
X126750000Y-81025700D01*
X126767593Y-80977362D01*
X126812142Y-80951642D01*
X126825200Y-80950500D01*
X129326109Y-80950500D01*
X129330922Y-80952251D01*
G37*
G04 #@! TD.AperFunction*
G04 #@! TD*
G04 #@! TA.AperFunction,Conductor*
G04 #@! TO.N,GND*
G36*
X135079962Y-99903959D02*
G01*
X135369865Y-100193862D01*
X135391605Y-100240482D01*
X135386167Y-100275813D01*
X135372192Y-100309551D01*
X135372191Y-100309554D01*
X135347100Y-100435693D01*
X135347100Y-100564306D01*
X135364046Y-100649500D01*
X135372191Y-100690444D01*
X135380879Y-100711418D01*
X135421009Y-100808302D01*
X135421408Y-100809264D01*
X135492860Y-100916199D01*
X135492862Y-100916201D01*
X135492864Y-100916204D01*
X135583795Y-101007135D01*
X135583804Y-101007143D01*
X135666613Y-101062474D01*
X135697030Y-101103957D01*
X135693665Y-101155287D01*
X135666613Y-101187526D01*
X135583804Y-101242856D01*
X135583795Y-101242864D01*
X135492864Y-101333795D01*
X135492862Y-101333798D01*
X135421407Y-101440737D01*
X135372191Y-101559556D01*
X135372190Y-101559559D01*
X135347100Y-101685693D01*
X135347100Y-101814306D01*
X135365123Y-101904914D01*
X135372191Y-101940444D01*
X135382452Y-101965215D01*
X135410857Y-102033793D01*
X135421408Y-102059264D01*
X135492860Y-102166199D01*
X135492862Y-102166201D01*
X135492864Y-102166204D01*
X135583795Y-102257135D01*
X135583804Y-102257143D01*
X135666613Y-102312474D01*
X135697030Y-102353957D01*
X135693665Y-102405287D01*
X135666613Y-102437526D01*
X135583804Y-102492856D01*
X135583795Y-102492864D01*
X135492864Y-102583795D01*
X135492862Y-102583798D01*
X135421407Y-102690737D01*
X135372191Y-102809556D01*
X135372190Y-102809559D01*
X135347100Y-102935693D01*
X135347100Y-103064306D01*
X135370889Y-103183902D01*
X135372191Y-103190444D01*
X135386352Y-103224632D01*
X135416115Y-103296487D01*
X135421408Y-103309264D01*
X135492860Y-103416199D01*
X135492862Y-103416201D01*
X135492864Y-103416204D01*
X135583795Y-103507135D01*
X135583798Y-103507137D01*
X135583801Y-103507140D01*
X135690736Y-103578592D01*
X135690737Y-103578592D01*
X135690738Y-103578593D01*
X135701969Y-103583245D01*
X135743627Y-103600500D01*
X135753077Y-103604414D01*
X135791003Y-103639166D01*
X135799500Y-103673890D01*
X135799500Y-106724300D01*
X135781907Y-106772638D01*
X135737358Y-106798358D01*
X135724300Y-106799500D01*
X134673891Y-106799500D01*
X134625553Y-106781907D01*
X134604415Y-106753078D01*
X134578592Y-106690736D01*
X134507140Y-106583801D01*
X134507137Y-106583798D01*
X134507135Y-106583795D01*
X134416204Y-106492864D01*
X134416201Y-106492862D01*
X134416199Y-106492860D01*
X134309264Y-106421408D01*
X134309259Y-106421406D01*
X134274461Y-106406992D01*
X134190444Y-106372191D01*
X134133787Y-106360921D01*
X134089811Y-106334235D01*
X134073259Y-106287166D01*
X134073259Y-105498677D01*
X134090852Y-105450339D01*
X134118082Y-105429886D01*
X134194680Y-105396065D01*
X134270790Y-105319955D01*
X134314266Y-105221491D01*
X134317059Y-105197418D01*
X134317059Y-104841450D01*
X134314266Y-104817377D01*
X134270790Y-104718913D01*
X134270788Y-104718911D01*
X134270786Y-104718908D01*
X134194684Y-104642806D01*
X134194681Y-104642804D01*
X134194680Y-104642803D01*
X134113259Y-104606852D01*
X134096214Y-104599326D01*
X134077727Y-104597181D01*
X134072143Y-104596534D01*
X133616175Y-104596534D01*
X133611171Y-104597114D01*
X133592103Y-104599326D01*
X133493636Y-104642804D01*
X133493633Y-104642806D01*
X133417531Y-104718908D01*
X133417529Y-104718911D01*
X133374051Y-104817378D01*
X133371259Y-104841452D01*
X133371259Y-105197415D01*
X133374051Y-105221489D01*
X133381577Y-105238534D01*
X133417528Y-105319955D01*
X133417529Y-105319956D01*
X133417531Y-105319959D01*
X133493633Y-105396061D01*
X133493635Y-105396062D01*
X133493638Y-105396065D01*
X133570234Y-105429885D01*
X133607346Y-105465503D01*
X133615059Y-105498677D01*
X133615059Y-106431778D01*
X133597466Y-106480116D01*
X133586327Y-106490107D01*
X133586661Y-106490513D01*
X133583803Y-106492858D01*
X133492859Y-106583801D01*
X133492856Y-106583804D01*
X133437526Y-106666613D01*
X133396043Y-106697030D01*
X133344713Y-106693665D01*
X133312474Y-106666613D01*
X133257143Y-106583804D01*
X133257135Y-106583795D01*
X133166204Y-106492864D01*
X133166201Y-106492862D01*
X133166199Y-106492860D01*
X133059264Y-106421408D01*
X133059262Y-106421407D01*
X133059259Y-106421405D01*
X133009962Y-106400985D01*
X132972037Y-106366232D01*
X132963541Y-106331510D01*
X132963541Y-105498678D01*
X132981134Y-105450340D01*
X133008364Y-105429887D01*
X133084962Y-105396066D01*
X133161072Y-105319956D01*
X133204548Y-105221492D01*
X133207341Y-105197419D01*
X133207341Y-104841451D01*
X133204548Y-104817378D01*
X133161072Y-104718914D01*
X133161069Y-104718911D01*
X133161068Y-104718909D01*
X133084966Y-104642807D01*
X133084963Y-104642805D01*
X133084962Y-104642804D01*
X132995365Y-104603243D01*
X132986496Y-104599327D01*
X132968009Y-104597182D01*
X132962425Y-104596535D01*
X132506457Y-104596535D01*
X132501453Y-104597115D01*
X132482385Y-104599327D01*
X132400963Y-104635278D01*
X132383923Y-104642803D01*
X132383918Y-104642805D01*
X132383915Y-104642807D01*
X132307813Y-104718909D01*
X132307811Y-104718912D01*
X132264333Y-104817379D01*
X132261541Y-104841453D01*
X132261541Y-105197416D01*
X132264333Y-105221490D01*
X132264334Y-105221492D01*
X132307810Y-105319956D01*
X132307811Y-105319957D01*
X132307813Y-105319960D01*
X132383915Y-105396062D01*
X132383917Y-105396063D01*
X132383920Y-105396066D01*
X132460516Y-105429886D01*
X132497628Y-105465504D01*
X132505341Y-105498678D01*
X132505341Y-106344400D01*
X132487748Y-106392738D01*
X132458921Y-106413875D01*
X132440738Y-106421406D01*
X132333798Y-106492862D01*
X132333795Y-106492864D01*
X132242864Y-106583795D01*
X132242862Y-106583798D01*
X132171407Y-106690737D01*
X132145585Y-106753078D01*
X132110832Y-106791003D01*
X132076109Y-106799500D01*
X121673891Y-106799500D01*
X121625553Y-106781907D01*
X121604415Y-106753078D01*
X121578592Y-106690736D01*
X121507140Y-106583801D01*
X121507137Y-106583798D01*
X121507135Y-106583795D01*
X121416204Y-106492864D01*
X121416201Y-106492862D01*
X121416199Y-106492860D01*
X121309264Y-106421408D01*
X121309259Y-106421406D01*
X121274461Y-106406992D01*
X121190444Y-106372191D01*
X121190441Y-106372190D01*
X121190440Y-106372190D01*
X121064307Y-106347100D01*
X121064305Y-106347100D01*
X120935695Y-106347100D01*
X120935693Y-106347100D01*
X120809559Y-106372190D01*
X120809556Y-106372191D01*
X120690737Y-106421407D01*
X120583798Y-106492862D01*
X120583795Y-106492864D01*
X120492864Y-106583795D01*
X120492862Y-106583798D01*
X120421407Y-106690737D01*
X120395585Y-106753078D01*
X120392123Y-106756855D01*
X120391234Y-106761900D01*
X120375078Y-106775456D01*
X120360832Y-106791003D01*
X120354788Y-106792481D01*
X120351829Y-106794965D01*
X120326109Y-106799500D01*
X120275700Y-106799500D01*
X120227362Y-106781907D01*
X120201642Y-106737358D01*
X120200500Y-106724300D01*
X120200500Y-103673890D01*
X120218093Y-103625552D01*
X120246918Y-103604415D01*
X120260177Y-103598923D01*
X120311565Y-103596679D01*
X120352376Y-103627992D01*
X120363337Y-103677426D01*
X120363550Y-103677451D01*
X120363478Y-103678063D01*
X120363512Y-103678212D01*
X120363391Y-103678813D01*
X120360105Y-103707145D01*
X120360105Y-104063108D01*
X120362897Y-104087182D01*
X120362898Y-104087184D01*
X120406374Y-104185648D01*
X120406375Y-104185649D01*
X120406377Y-104185652D01*
X120482479Y-104261754D01*
X120482482Y-104261756D01*
X120482484Y-104261758D01*
X120580948Y-104305234D01*
X120605021Y-104308027D01*
X120605023Y-104308027D01*
X121060987Y-104308027D01*
X121060989Y-104308027D01*
X121085062Y-104305234D01*
X121183526Y-104261758D01*
X121259636Y-104185648D01*
X121303112Y-104087184D01*
X121305905Y-104063111D01*
X121305905Y-103707143D01*
X121303112Y-103683070D01*
X121259636Y-103584606D01*
X121259634Y-103584604D01*
X121259632Y-103584601D01*
X121183530Y-103508499D01*
X121183523Y-103508494D01*
X121106930Y-103474675D01*
X121069817Y-103439056D01*
X121062105Y-103405883D01*
X121062105Y-101964333D01*
X121079698Y-101915995D01*
X121124247Y-101890275D01*
X121151973Y-101890577D01*
X121213280Y-101902773D01*
X121943895Y-101902772D01*
X121992233Y-101920365D01*
X122017953Y-101964914D01*
X122019095Y-101977972D01*
X122019095Y-102235126D01*
X122007678Y-102274961D01*
X122003134Y-102282235D01*
X121977774Y-102307597D01*
X121961412Y-102347100D01*
X121959025Y-102352861D01*
X121959024Y-102352864D01*
X121942896Y-102391802D01*
X121942896Y-103399598D01*
X121951847Y-103421208D01*
X121977774Y-103483801D01*
X122037358Y-103543386D01*
X122039522Y-103548028D01*
X122043842Y-103550780D01*
X122050184Y-103570892D01*
X122059097Y-103590006D01*
X122058150Y-103596155D01*
X122059312Y-103599838D01*
X122053660Y-103625336D01*
X122034292Y-103672098D01*
X122034291Y-103672099D01*
X122020900Y-103704428D01*
X122019455Y-103711694D01*
X122017604Y-103711325D01*
X122003307Y-103750608D01*
X121998874Y-103755444D01*
X121969534Y-103784783D01*
X121923385Y-103864713D01*
X121909594Y-103916180D01*
X121899500Y-103953856D01*
X121899500Y-104046144D01*
X121923386Y-104135288D01*
X121969531Y-104215212D01*
X121969532Y-104215213D01*
X121969534Y-104215216D01*
X122034783Y-104280465D01*
X122034785Y-104280466D01*
X122034788Y-104280469D01*
X122114712Y-104326614D01*
X122203856Y-104350500D01*
X122203859Y-104350500D01*
X122296141Y-104350500D01*
X122296144Y-104350500D01*
X122385288Y-104326614D01*
X122465212Y-104280469D01*
X122530469Y-104215212D01*
X122547998Y-104184850D01*
X122587402Y-104151787D01*
X122638842Y-104151787D01*
X122642967Y-104153428D01*
X122650778Y-104156805D01*
X122651879Y-104157906D01*
X122685676Y-104171905D01*
X122736082Y-104192784D01*
X122736083Y-104192784D01*
X122827224Y-104192784D01*
X122889733Y-104192784D01*
X122938071Y-104210377D01*
X122958525Y-104237609D01*
X122969188Y-104261758D01*
X122973746Y-104272080D01*
X122973747Y-104272081D01*
X122973749Y-104272084D01*
X123051173Y-104349508D01*
X123051175Y-104349509D01*
X123051178Y-104349512D01*
X123151353Y-104393743D01*
X123175840Y-104396584D01*
X123175842Y-104396584D01*
X123603306Y-104396584D01*
X123603308Y-104396584D01*
X123627795Y-104393743D01*
X123727970Y-104349512D01*
X123805402Y-104272080D01*
X123819171Y-104240894D01*
X123854786Y-104203785D01*
X123905927Y-104198248D01*
X123948662Y-104226880D01*
X123956754Y-104240895D01*
X123965363Y-104260392D01*
X123965367Y-104260398D01*
X124041469Y-104336500D01*
X124041472Y-104336502D01*
X124041474Y-104336504D01*
X124139938Y-104379980D01*
X124164011Y-104382773D01*
X124164013Y-104382773D01*
X124619977Y-104382773D01*
X124619979Y-104382773D01*
X124644052Y-104379980D01*
X124742516Y-104336504D01*
X124818626Y-104260394D01*
X124824068Y-104248067D01*
X124830370Y-104233798D01*
X124833301Y-104230743D01*
X124834037Y-104226573D01*
X124850819Y-104212490D01*
X124865989Y-104196685D01*
X124871061Y-104195505D01*
X124873442Y-104193508D01*
X124899162Y-104188973D01*
X124905661Y-104188973D01*
X124953999Y-104206566D01*
X124974453Y-104233798D01*
X124986195Y-104260390D01*
X124986197Y-104260394D01*
X124986198Y-104260395D01*
X124986200Y-104260398D01*
X125062302Y-104336500D01*
X125062305Y-104336502D01*
X125062307Y-104336504D01*
X125160771Y-104379980D01*
X125184844Y-104382773D01*
X125184846Y-104382773D01*
X125504382Y-104382773D01*
X125525654Y-104390515D01*
X125547515Y-104396373D01*
X125549487Y-104399189D01*
X125552720Y-104400366D01*
X125564039Y-104419971D01*
X125577020Y-104438510D01*
X125576720Y-104441936D01*
X125578440Y-104444915D01*
X125574508Y-104467208D01*
X125572536Y-104489754D01*
X125569858Y-104493577D01*
X125569507Y-104495573D01*
X125557556Y-104511147D01*
X125533756Y-104534947D01*
X125487136Y-104556687D01*
X125480582Y-104556973D01*
X125184844Y-104556973D01*
X125179840Y-104557553D01*
X125160772Y-104559765D01*
X125079350Y-104595716D01*
X125071172Y-104599328D01*
X125062305Y-104603243D01*
X125062302Y-104603245D01*
X124986200Y-104679347D01*
X124986196Y-104679353D01*
X124971203Y-104713309D01*
X124935584Y-104750421D01*
X124884442Y-104755955D01*
X124841709Y-104727321D01*
X124833619Y-104713309D01*
X124818626Y-104679352D01*
X124818623Y-104679349D01*
X124818622Y-104679347D01*
X124742520Y-104603245D01*
X124742517Y-104603243D01*
X124742516Y-104603242D01*
X124644052Y-104559766D01*
X124644050Y-104559765D01*
X124625563Y-104557620D01*
X124619979Y-104556973D01*
X124164011Y-104556973D01*
X124159007Y-104557553D01*
X124139939Y-104559765D01*
X124058517Y-104595716D01*
X124050339Y-104599328D01*
X124041472Y-104603243D01*
X124041469Y-104603245D01*
X123965367Y-104679347D01*
X123965365Y-104679350D01*
X123921887Y-104777817D01*
X123919095Y-104801891D01*
X123919095Y-105157854D01*
X123921887Y-105181928D01*
X123921888Y-105181930D01*
X123965364Y-105280394D01*
X123965365Y-105280395D01*
X123965367Y-105280398D01*
X124041469Y-105356500D01*
X124041472Y-105356502D01*
X124041474Y-105356504D01*
X124104676Y-105384410D01*
X124141787Y-105420028D01*
X124149500Y-105453202D01*
X124149500Y-105453856D01*
X124149500Y-105546144D01*
X124173386Y-105635288D01*
X124219531Y-105715212D01*
X124219532Y-105715213D01*
X124219534Y-105715216D01*
X124284783Y-105780465D01*
X124284785Y-105780466D01*
X124284788Y-105780469D01*
X124364712Y-105826614D01*
X124453856Y-105850500D01*
X124453859Y-105850500D01*
X124546141Y-105850500D01*
X124546144Y-105850500D01*
X124635288Y-105826614D01*
X124715212Y-105780469D01*
X124780469Y-105715212D01*
X124826614Y-105635288D01*
X124850500Y-105546144D01*
X124850500Y-105453856D01*
X124826614Y-105364712D01*
X124820076Y-105353389D01*
X124816272Y-105331816D01*
X124810168Y-105310774D01*
X124811562Y-105305109D01*
X124811143Y-105302733D01*
X124816409Y-105285414D01*
X124818627Y-105280392D01*
X124833619Y-105246437D01*
X124869238Y-105209325D01*
X124920379Y-105203791D01*
X124963113Y-105232425D01*
X124971203Y-105246437D01*
X124986196Y-105280392D01*
X124986200Y-105280398D01*
X125062302Y-105356500D01*
X125062305Y-105356502D01*
X125062307Y-105356504D01*
X125062308Y-105356504D01*
X125062309Y-105356505D01*
X125105287Y-105375482D01*
X125142400Y-105411101D01*
X125148622Y-105448927D01*
X125149500Y-105448927D01*
X125149500Y-105453856D01*
X125149500Y-105546144D01*
X125173386Y-105635288D01*
X125219531Y-105715212D01*
X125219532Y-105715213D01*
X125219534Y-105715216D01*
X125284783Y-105780465D01*
X125284785Y-105780466D01*
X125284788Y-105780469D01*
X125364712Y-105826614D01*
X125453856Y-105850500D01*
X125453859Y-105850500D01*
X125546141Y-105850500D01*
X125546144Y-105850500D01*
X125635288Y-105826614D01*
X125715212Y-105780469D01*
X125780469Y-105715212D01*
X125826614Y-105635288D01*
X125850500Y-105546144D01*
X125850500Y-105453856D01*
X125826614Y-105364712D01*
X125826610Y-105364705D01*
X125824909Y-105360597D01*
X125822664Y-105309206D01*
X125836327Y-105286692D01*
X125835522Y-105286141D01*
X125839458Y-105280395D01*
X125839458Y-105280394D01*
X125839459Y-105280394D01*
X125882935Y-105181930D01*
X125885728Y-105157857D01*
X125885728Y-104862118D01*
X125891343Y-104846690D01*
X125892774Y-104830337D01*
X125902188Y-104816892D01*
X125903321Y-104813780D01*
X125907754Y-104808944D01*
X125985299Y-104731399D01*
X126031919Y-104709659D01*
X126038473Y-104709373D01*
X126907900Y-104709373D01*
X126956238Y-104726966D01*
X126981958Y-104771515D01*
X126982598Y-104793236D01*
X126981595Y-104801889D01*
X126981595Y-104801893D01*
X126981595Y-105157854D01*
X126984387Y-105181928D01*
X126984388Y-105181930D01*
X127027864Y-105280394D01*
X127027865Y-105280395D01*
X127027867Y-105280398D01*
X127103969Y-105356500D01*
X127103971Y-105356501D01*
X127103974Y-105356504D01*
X127143932Y-105374147D01*
X127181044Y-105409765D01*
X127186579Y-105460906D01*
X127178682Y-105480538D01*
X127173388Y-105489706D01*
X127173387Y-105489710D01*
X127173386Y-105489712D01*
X127149500Y-105578856D01*
X127149500Y-105671144D01*
X127173386Y-105760288D01*
X127219531Y-105840212D01*
X127219532Y-105840213D01*
X127219534Y-105840216D01*
X127284783Y-105905465D01*
X127284785Y-105905466D01*
X127284788Y-105905469D01*
X127364712Y-105951614D01*
X127453856Y-105975500D01*
X127453859Y-105975500D01*
X127546141Y-105975500D01*
X127546144Y-105975500D01*
X127635288Y-105951614D01*
X127715212Y-105905469D01*
X127780469Y-105840212D01*
X127826614Y-105760288D01*
X127850500Y-105671144D01*
X127850500Y-105578856D01*
X127826614Y-105489712D01*
X127798802Y-105441541D01*
X127789869Y-105390883D01*
X127810751Y-105350768D01*
X127881126Y-105280394D01*
X127924602Y-105181930D01*
X127927395Y-105157857D01*
X127927395Y-104801889D01*
X127926391Y-104793239D01*
X127938296Y-104743197D01*
X127979583Y-104712514D01*
X128001090Y-104709373D01*
X128870517Y-104709373D01*
X128885944Y-104714988D01*
X128902298Y-104716419D01*
X128915742Y-104725833D01*
X128918855Y-104726966D01*
X128923691Y-104731399D01*
X129001236Y-104808944D01*
X129022976Y-104855564D01*
X129023262Y-104862118D01*
X129023262Y-105157854D01*
X129026054Y-105181928D01*
X129026055Y-105181930D01*
X129069531Y-105280394D01*
X129069532Y-105280395D01*
X129069534Y-105280398D01*
X129145636Y-105356500D01*
X129145639Y-105356502D01*
X129145641Y-105356504D01*
X129244105Y-105399980D01*
X129268178Y-105402773D01*
X129268180Y-105402773D01*
X129724144Y-105402773D01*
X129724146Y-105402773D01*
X129748219Y-105399980D01*
X129846683Y-105356504D01*
X129922793Y-105280394D01*
X129928235Y-105268067D01*
X129934537Y-105253798D01*
X129937468Y-105250743D01*
X129938204Y-105246573D01*
X129954986Y-105232490D01*
X129970156Y-105216685D01*
X129975228Y-105215505D01*
X129977609Y-105213508D01*
X130003329Y-105208973D01*
X130009828Y-105208973D01*
X130058166Y-105226566D01*
X130078620Y-105253798D01*
X130090362Y-105280390D01*
X130090364Y-105280394D01*
X130090365Y-105280395D01*
X130090367Y-105280398D01*
X130166469Y-105356500D01*
X130166472Y-105356502D01*
X130166474Y-105356504D01*
X130264938Y-105399980D01*
X130289011Y-105402773D01*
X130289013Y-105402773D01*
X130744977Y-105402773D01*
X130744979Y-105402773D01*
X130769052Y-105399980D01*
X130867516Y-105356504D01*
X130943626Y-105280394D01*
X130987102Y-105181930D01*
X130989895Y-105157857D01*
X130989895Y-104801889D01*
X130987102Y-104777816D01*
X130943626Y-104679352D01*
X130943624Y-104679350D01*
X130943622Y-104679347D01*
X130867520Y-104603245D01*
X130867517Y-104603243D01*
X130867516Y-104603242D01*
X130769052Y-104559766D01*
X130769050Y-104559765D01*
X130750563Y-104557620D01*
X130744979Y-104556973D01*
X130289011Y-104556973D01*
X130284007Y-104557553D01*
X130264939Y-104559765D01*
X130183517Y-104595716D01*
X130175339Y-104599328D01*
X130166472Y-104603243D01*
X130166469Y-104603245D01*
X130090367Y-104679347D01*
X130090362Y-104679355D01*
X130078620Y-104705948D01*
X130075688Y-104709002D01*
X130074953Y-104713173D01*
X130058170Y-104727255D01*
X130043001Y-104743061D01*
X130037928Y-104744240D01*
X130035548Y-104746238D01*
X130009828Y-104750773D01*
X130003329Y-104750773D01*
X129954991Y-104733180D01*
X129934537Y-104705948D01*
X129922794Y-104679355D01*
X129922793Y-104679353D01*
X129922793Y-104679352D01*
X129922790Y-104679349D01*
X129922789Y-104679347D01*
X129846687Y-104603245D01*
X129846684Y-104603243D01*
X129846683Y-104603242D01*
X129748219Y-104559766D01*
X129748217Y-104559765D01*
X129729730Y-104557620D01*
X129724146Y-104556973D01*
X129724144Y-104556973D01*
X129428407Y-104556973D01*
X129412979Y-104551357D01*
X129396626Y-104549927D01*
X129383181Y-104540512D01*
X129380069Y-104539380D01*
X129375233Y-104534947D01*
X129351433Y-104511147D01*
X129329693Y-104464527D01*
X129343007Y-104414840D01*
X129385144Y-104385335D01*
X129404607Y-104382773D01*
X129724144Y-104382773D01*
X129724146Y-104382773D01*
X129748219Y-104379980D01*
X129846683Y-104336504D01*
X129922793Y-104260394D01*
X129937786Y-104226436D01*
X129973403Y-104189325D01*
X130024544Y-104183790D01*
X130067279Y-104212422D01*
X130075370Y-104226437D01*
X130090362Y-104260390D01*
X130090364Y-104260394D01*
X130090365Y-104260395D01*
X130090367Y-104260398D01*
X130166469Y-104336500D01*
X130166472Y-104336502D01*
X130166474Y-104336504D01*
X130264938Y-104379980D01*
X130289011Y-104382773D01*
X130289013Y-104382773D01*
X130744977Y-104382773D01*
X130744979Y-104382773D01*
X130769052Y-104379980D01*
X130867516Y-104336504D01*
X130943626Y-104260394D01*
X130949068Y-104248067D01*
X130955370Y-104233798D01*
X130958301Y-104230743D01*
X130959037Y-104226573D01*
X130975819Y-104212490D01*
X130990989Y-104196685D01*
X130996061Y-104195505D01*
X130998442Y-104193508D01*
X131024162Y-104188973D01*
X131030661Y-104188973D01*
X131078999Y-104206566D01*
X131099453Y-104233798D01*
X131111195Y-104260390D01*
X131111197Y-104260394D01*
X131111198Y-104260395D01*
X131111200Y-104260398D01*
X131187302Y-104336500D01*
X131187305Y-104336502D01*
X131187307Y-104336504D01*
X131285771Y-104379980D01*
X131309844Y-104382773D01*
X131309846Y-104382773D01*
X131765810Y-104382773D01*
X131765812Y-104382773D01*
X131789885Y-104379980D01*
X131888349Y-104336504D01*
X131964459Y-104260394D01*
X132007935Y-104161930D01*
X132010728Y-104137857D01*
X132010728Y-103781889D01*
X132007935Y-103757816D01*
X131964459Y-103659352D01*
X131964457Y-103659350D01*
X131960520Y-103653602D01*
X131962641Y-103652148D01*
X131945607Y-103615619D01*
X131958921Y-103565932D01*
X132001058Y-103536427D01*
X132052302Y-103540911D01*
X132058101Y-103543929D01*
X132114712Y-103576614D01*
X132203856Y-103600500D01*
X132203859Y-103600500D01*
X132235856Y-103600500D01*
X132284194Y-103618093D01*
X132309914Y-103662642D01*
X132304648Y-103706075D01*
X132264334Y-103797375D01*
X132264334Y-103797377D01*
X132264334Y-103797378D01*
X132262605Y-103812285D01*
X132261541Y-103821453D01*
X132261541Y-104177416D01*
X132264333Y-104201490D01*
X132264334Y-104201492D01*
X132307810Y-104299956D01*
X132307811Y-104299957D01*
X132307813Y-104299960D01*
X132383915Y-104376062D01*
X132383918Y-104376064D01*
X132383920Y-104376066D01*
X132482384Y-104419542D01*
X132506457Y-104422335D01*
X132506459Y-104422335D01*
X132962423Y-104422335D01*
X132962425Y-104422335D01*
X132986498Y-104419542D01*
X133084962Y-104376066D01*
X133161072Y-104299956D01*
X133204548Y-104201492D01*
X133207341Y-104177419D01*
X133207341Y-103821451D01*
X133204548Y-103797378D01*
X133161072Y-103698914D01*
X133111715Y-103649557D01*
X133089976Y-103602939D01*
X133092252Y-103576922D01*
X133100500Y-103546144D01*
X133100500Y-103453856D01*
X133096503Y-103438939D01*
X133100987Y-103387698D01*
X133137360Y-103351325D01*
X133188604Y-103346841D01*
X133206737Y-103354352D01*
X133220239Y-103362148D01*
X133309383Y-103386034D01*
X133309386Y-103386034D01*
X133401668Y-103386034D01*
X133401671Y-103386034D01*
X133490815Y-103362148D01*
X133570739Y-103316003D01*
X133610379Y-103276362D01*
X133656998Y-103254623D01*
X133701151Y-103264411D01*
X133756707Y-103296487D01*
X133845851Y-103320373D01*
X133845861Y-103320373D01*
X133847199Y-103320550D01*
X133847925Y-103320928D01*
X133850612Y-103321648D01*
X133850452Y-103322243D01*
X133864497Y-103329553D01*
X133883103Y-103335398D01*
X133886775Y-103341148D01*
X133892828Y-103344299D01*
X133900291Y-103362315D01*
X133910788Y-103378752D01*
X133910607Y-103387216D01*
X133912516Y-103391822D01*
X133911955Y-103404842D01*
X133911310Y-103409778D01*
X133899500Y-103453856D01*
X133899500Y-103500241D01*
X133898867Y-103505090D01*
X133889134Y-103523835D01*
X133881907Y-103543693D01*
X133877474Y-103548529D01*
X133871495Y-103554508D01*
X133824875Y-103576248D01*
X133818321Y-103576534D01*
X133616175Y-103576534D01*
X133612857Y-103576919D01*
X133592103Y-103579326D01*
X133493636Y-103622804D01*
X133493633Y-103622806D01*
X133417531Y-103698908D01*
X133417529Y-103698911D01*
X133417528Y-103698912D01*
X133417528Y-103698913D01*
X133414477Y-103705822D01*
X133374051Y-103797378D01*
X133371259Y-103821452D01*
X133371259Y-104177415D01*
X133374051Y-104201489D01*
X133380110Y-104215212D01*
X133417528Y-104299955D01*
X133417529Y-104299956D01*
X133417531Y-104299959D01*
X133493633Y-104376061D01*
X133493636Y-104376063D01*
X133493638Y-104376065D01*
X133592102Y-104419541D01*
X133616175Y-104422334D01*
X133616177Y-104422334D01*
X134072141Y-104422334D01*
X134072143Y-104422334D01*
X134096216Y-104419541D01*
X134194680Y-104376065D01*
X134270790Y-104299955D01*
X134314266Y-104201491D01*
X134317059Y-104177418D01*
X134317059Y-103902598D01*
X134318714Y-103898049D01*
X134317632Y-103893330D01*
X134327350Y-103874322D01*
X134334652Y-103854260D01*
X134339401Y-103850750D01*
X134341049Y-103847529D01*
X134351858Y-103841547D01*
X134362972Y-103833336D01*
X134367766Y-103831308D01*
X134385288Y-103826614D01*
X134402854Y-103816471D01*
X134407137Y-103814661D01*
X134428454Y-103813572D01*
X134449480Y-103809865D01*
X134453673Y-103812285D01*
X134458510Y-103812039D01*
X134475542Y-103824910D01*
X134494029Y-103835583D01*
X134495685Y-103840133D01*
X134499549Y-103843053D01*
X134504322Y-103863861D01*
X134511624Y-103883920D01*
X134511624Y-104177415D01*
X134514416Y-104201489D01*
X134520475Y-104215212D01*
X134557893Y-104299955D01*
X134557894Y-104299956D01*
X134557896Y-104299959D01*
X134633998Y-104376061D01*
X134634001Y-104376063D01*
X134634003Y-104376065D01*
X134732467Y-104419541D01*
X134756540Y-104422334D01*
X134756542Y-104422334D01*
X135212506Y-104422334D01*
X135212508Y-104422334D01*
X135236581Y-104419541D01*
X135335045Y-104376065D01*
X135411155Y-104299955D01*
X135454631Y-104201491D01*
X135457424Y-104177418D01*
X135457424Y-103821450D01*
X135454631Y-103797377D01*
X135411155Y-103698913D01*
X135411153Y-103698911D01*
X135411151Y-103698908D01*
X135335049Y-103622806D01*
X135335046Y-103622804D01*
X135335045Y-103622803D01*
X135248526Y-103584601D01*
X135236579Y-103579326D01*
X135215826Y-103576919D01*
X135212508Y-103576534D01*
X135212506Y-103576534D01*
X135096447Y-103576534D01*
X135048109Y-103558941D01*
X135022389Y-103514392D01*
X135031322Y-103463734D01*
X135076614Y-103385288D01*
X135100500Y-103296144D01*
X135100500Y-103203856D01*
X135076614Y-103114712D01*
X135030469Y-103034788D01*
X135030466Y-103034785D01*
X135030465Y-103034783D01*
X134965216Y-102969534D01*
X134965213Y-102969532D01*
X134965212Y-102969531D01*
X134885288Y-102923386D01*
X134885287Y-102923385D01*
X134885286Y-102923385D01*
X134847437Y-102913244D01*
X134796144Y-102899500D01*
X134703856Y-102899500D01*
X134657202Y-102912000D01*
X134614713Y-102923385D01*
X134534783Y-102969534D01*
X134469534Y-103034783D01*
X134423381Y-103114720D01*
X134422934Y-103115801D01*
X134422458Y-103116319D01*
X134420922Y-103118981D01*
X134420331Y-103118639D01*
X134413308Y-103126300D01*
X134407500Y-103139306D01*
X134396464Y-103144672D01*
X134388172Y-103153718D01*
X134374049Y-103155573D01*
X134361240Y-103161803D01*
X134339657Y-103160092D01*
X134337171Y-103160419D01*
X134335189Y-103159951D01*
X134334554Y-103159792D01*
X134296144Y-103149500D01*
X134293475Y-103149500D01*
X134286330Y-103147710D01*
X134268380Y-103135572D01*
X134249159Y-103125565D01*
X134247439Y-103121413D01*
X134243718Y-103118897D01*
X134237768Y-103098061D01*
X134229477Y-103078039D01*
X134230191Y-103071521D01*
X134229595Y-103069434D01*
X134230687Y-103066986D01*
X134231967Y-103055306D01*
X134242495Y-103016017D01*
X134242495Y-102923729D01*
X134218609Y-102834585D01*
X134172464Y-102754661D01*
X134172461Y-102754658D01*
X134172460Y-102754656D01*
X134107211Y-102689407D01*
X134107208Y-102689405D01*
X134107207Y-102689404D01*
X134027283Y-102643259D01*
X134027280Y-102643258D01*
X134027279Y-102643257D01*
X134010627Y-102638795D01*
X133968492Y-102609288D01*
X133954894Y-102566158D01*
X133954894Y-101917972D01*
X133972487Y-101869634D01*
X134017036Y-101843914D01*
X134030083Y-101842772D01*
X134760709Y-101842772D01*
X134760711Y-101842772D01*
X134760711Y-101842771D01*
X134823540Y-101830275D01*
X134894790Y-101782668D01*
X134942397Y-101711418D01*
X134954895Y-101648588D01*
X134954894Y-101481159D01*
X134942397Y-101418328D01*
X134901185Y-101356650D01*
X134888960Y-101306685D01*
X134901183Y-101273098D01*
X134942397Y-101211418D01*
X134954895Y-101148588D01*
X134954894Y-100981159D01*
X134942397Y-100918328D01*
X134901185Y-100856650D01*
X134888960Y-100806685D01*
X134901183Y-100773098D01*
X134942397Y-100711418D01*
X134954895Y-100648588D01*
X134954894Y-100481159D01*
X134942397Y-100418328D01*
X134901185Y-100356650D01*
X134888960Y-100306685D01*
X134901183Y-100273098D01*
X134942397Y-100211418D01*
X134954895Y-100148588D01*
X134954894Y-99981159D01*
X134953033Y-99971804D01*
X134960857Y-99920964D01*
X134999531Y-99887047D01*
X135050959Y-99885923D01*
X135079962Y-99903959D01*
G37*
G04 #@! TD.AperFunction*
G04 #@! TA.AperFunction,Conductor*
G36*
X127033953Y-101904499D02*
G01*
X127054723Y-101951559D01*
X127054890Y-101956562D01*
X127054890Y-102814106D01*
X127057487Y-102820373D01*
X127061588Y-102830274D01*
X127061589Y-102830278D01*
X127089768Y-102898311D01*
X127600057Y-103408599D01*
X127621797Y-103455219D01*
X127608483Y-103504906D01*
X127566346Y-103534411D01*
X127546883Y-103536973D01*
X127226511Y-103536973D01*
X127221507Y-103537553D01*
X127202439Y-103539765D01*
X127103972Y-103583243D01*
X127103969Y-103583245D01*
X127027867Y-103659347D01*
X127027863Y-103659353D01*
X127012870Y-103693309D01*
X126977251Y-103730421D01*
X126926109Y-103735955D01*
X126883376Y-103707321D01*
X126875286Y-103693309D01*
X126860293Y-103659352D01*
X126860290Y-103659349D01*
X126860289Y-103659347D01*
X126784187Y-103583245D01*
X126784184Y-103583243D01*
X126784183Y-103583242D01*
X126685719Y-103539766D01*
X126685717Y-103539765D01*
X126667230Y-103537620D01*
X126661646Y-103536973D01*
X126205678Y-103536973D01*
X126200674Y-103537553D01*
X126181606Y-103539765D01*
X126083139Y-103583243D01*
X126083136Y-103583245D01*
X126007034Y-103659347D01*
X126007029Y-103659355D01*
X125995287Y-103685948D01*
X125992355Y-103689002D01*
X125991620Y-103693173D01*
X125974837Y-103707255D01*
X125959668Y-103723061D01*
X125954595Y-103724240D01*
X125952215Y-103726238D01*
X125926495Y-103730773D01*
X125919995Y-103730773D01*
X125871657Y-103713180D01*
X125851203Y-103685948D01*
X125842605Y-103666478D01*
X125839459Y-103659352D01*
X125839456Y-103659349D01*
X125839455Y-103659347D01*
X125763353Y-103583245D01*
X125763350Y-103583243D01*
X125763349Y-103583242D01*
X125697947Y-103554364D01*
X125660837Y-103518747D01*
X125655302Y-103467606D01*
X125670843Y-103440057D01*
X125669462Y-103438998D01*
X125672459Y-103435090D01*
X125672460Y-103435089D01*
X125672464Y-103435085D01*
X125718609Y-103355161D01*
X125742495Y-103266017D01*
X125742495Y-103173729D01*
X125718609Y-103084585D01*
X125678762Y-103015570D01*
X125669830Y-102964915D01*
X125695550Y-102920366D01*
X125743884Y-102902772D01*
X125880709Y-102902772D01*
X125880711Y-102902772D01*
X125880711Y-102902771D01*
X125943540Y-102890275D01*
X126014790Y-102842668D01*
X126062397Y-102771418D01*
X126062397Y-102771416D01*
X126065868Y-102766222D01*
X126107351Y-102735805D01*
X126158680Y-102739168D01*
X126174173Y-102748339D01*
X126176779Y-102750338D01*
X126176783Y-102750342D01*
X126256707Y-102796487D01*
X126345851Y-102820373D01*
X126345854Y-102820373D01*
X126438136Y-102820373D01*
X126438139Y-102820373D01*
X126527283Y-102796487D01*
X126607207Y-102750342D01*
X126672464Y-102685085D01*
X126718609Y-102605161D01*
X126742495Y-102516017D01*
X126742495Y-102423729D01*
X126718609Y-102334585D01*
X126672464Y-102254661D01*
X126672461Y-102254658D01*
X126672460Y-102254656D01*
X126607211Y-102189407D01*
X126607208Y-102189405D01*
X126607207Y-102189404D01*
X126527283Y-102143259D01*
X126527282Y-102143258D01*
X126527281Y-102143258D01*
X126494651Y-102134515D01*
X126438139Y-102119373D01*
X126438136Y-102119373D01*
X126382177Y-102119373D01*
X126353403Y-102113649D01*
X126304728Y-102093488D01*
X126304727Y-102093487D01*
X126280068Y-102083273D01*
X126280066Y-102083273D01*
X126150094Y-102083273D01*
X126131734Y-102076590D01*
X126112494Y-102073198D01*
X126108133Y-102068001D01*
X126101756Y-102065680D01*
X126091986Y-102048757D01*
X126079429Y-102033793D01*
X126077706Y-102024024D01*
X126076036Y-102021131D01*
X126074894Y-102008073D01*
X126074894Y-101977972D01*
X126092487Y-101929634D01*
X126137036Y-101903914D01*
X126150083Y-101902772D01*
X126880709Y-101902772D01*
X126880711Y-101902772D01*
X126880711Y-101902771D01*
X126943540Y-101890275D01*
X126943542Y-101890273D01*
X126950386Y-101887440D01*
X126951723Y-101890669D01*
X126987792Y-101881800D01*
X127033953Y-101904499D01*
G37*
G04 #@! TD.AperFunction*
G04 #@! TA.AperFunction,Conductor*
G36*
X128928839Y-101771397D02*
G01*
X128933418Y-101770896D01*
X128957323Y-101781414D01*
X128959200Y-101782668D01*
X129030450Y-101830275D01*
X129093280Y-101842773D01*
X129823895Y-101842772D01*
X129842254Y-101849454D01*
X129861495Y-101852847D01*
X129865855Y-101858043D01*
X129872233Y-101860365D01*
X129882002Y-101877287D01*
X129894560Y-101892252D01*
X129896282Y-101902020D01*
X129897953Y-101904914D01*
X129899095Y-101917972D01*
X129899095Y-101948073D01*
X129881502Y-101996411D01*
X129836953Y-102022131D01*
X129823895Y-102023273D01*
X129702056Y-102023273D01*
X129684684Y-102030469D01*
X129617852Y-102058151D01*
X129298528Y-102377475D01*
X129251908Y-102399214D01*
X129245354Y-102399500D01*
X129203856Y-102399500D01*
X129157202Y-102412000D01*
X129114713Y-102423385D01*
X129034783Y-102469534D01*
X128969534Y-102534783D01*
X128923385Y-102614713D01*
X128914187Y-102649044D01*
X128899500Y-102703856D01*
X128899500Y-102796144D01*
X128923386Y-102885288D01*
X128924878Y-102887873D01*
X128930255Y-102897185D01*
X128939188Y-102947843D01*
X128913468Y-102992391D01*
X128865130Y-103009985D01*
X128816793Y-102992392D01*
X128811956Y-102987959D01*
X128088358Y-102264361D01*
X128066618Y-102217741D01*
X128066332Y-102211187D01*
X128066332Y-101980513D01*
X128083925Y-101932175D01*
X128128474Y-101906455D01*
X128179132Y-101915388D01*
X128206655Y-101942911D01*
X128219359Y-101964914D01*
X128219533Y-101965215D01*
X128284783Y-102030465D01*
X128284785Y-102030466D01*
X128284788Y-102030469D01*
X128364712Y-102076614D01*
X128453856Y-102100500D01*
X128453859Y-102100500D01*
X128546141Y-102100500D01*
X128546144Y-102100500D01*
X128635288Y-102076614D01*
X128715212Y-102030469D01*
X128780469Y-101965212D01*
X128826614Y-101885288D01*
X128842908Y-101824477D01*
X128846323Y-101819599D01*
X128846713Y-101813655D01*
X128860759Y-101798981D01*
X128872411Y-101782341D01*
X128878165Y-101780798D01*
X128882284Y-101776497D01*
X128902473Y-101774285D01*
X128922098Y-101769027D01*
X128928839Y-101771397D01*
G37*
G04 #@! TD.AperFunction*
G04 #@! TA.AperFunction,Conductor*
G36*
X125561029Y-97963966D02*
G01*
X125564868Y-97963546D01*
X125588771Y-97974063D01*
X125650450Y-98015275D01*
X125713280Y-98027773D01*
X125818895Y-98027772D01*
X125867232Y-98045365D01*
X125892952Y-98089913D01*
X125894095Y-98102971D01*
X125894095Y-98208588D01*
X125894096Y-98208589D01*
X125906593Y-98271419D01*
X125947803Y-98333095D01*
X125960029Y-98383060D01*
X125947803Y-98416651D01*
X125906593Y-98478327D01*
X125906592Y-98478329D01*
X125894095Y-98541157D01*
X125894095Y-98708588D01*
X125894096Y-98708589D01*
X125906593Y-98771419D01*
X125947803Y-98833095D01*
X125960029Y-98883060D01*
X125947803Y-98916651D01*
X125906593Y-98978327D01*
X125906592Y-98978329D01*
X125894095Y-99041157D01*
X125894095Y-99208588D01*
X125894096Y-99208589D01*
X125906593Y-99271419D01*
X125947803Y-99333095D01*
X125960029Y-99383060D01*
X125947803Y-99416651D01*
X125906593Y-99478327D01*
X125906592Y-99478329D01*
X125894095Y-99541157D01*
X125894095Y-99708588D01*
X125894096Y-99708589D01*
X125906593Y-99771419D01*
X125947803Y-99833095D01*
X125960029Y-99883060D01*
X125947803Y-99916651D01*
X125906593Y-99978327D01*
X125906592Y-99978329D01*
X125894095Y-100041157D01*
X125894095Y-100208588D01*
X125894096Y-100208589D01*
X125906593Y-100271419D01*
X125947803Y-100333095D01*
X125960029Y-100383060D01*
X125947803Y-100416651D01*
X125906593Y-100478327D01*
X125906592Y-100478329D01*
X125894095Y-100541157D01*
X125894095Y-100708588D01*
X125894096Y-100708589D01*
X125906593Y-100771419D01*
X125947803Y-100833095D01*
X125960029Y-100883060D01*
X125947803Y-100916651D01*
X125906593Y-100978327D01*
X125906592Y-100978329D01*
X125894095Y-101041157D01*
X125894095Y-101208588D01*
X125894096Y-101208589D01*
X125906593Y-101271419D01*
X125947803Y-101333095D01*
X125960029Y-101383060D01*
X125947803Y-101416651D01*
X125906593Y-101478327D01*
X125906592Y-101478329D01*
X125894095Y-101541157D01*
X125894095Y-101646773D01*
X125876502Y-101695111D01*
X125831953Y-101720831D01*
X125818896Y-101721973D01*
X125713279Y-101721973D01*
X125713278Y-101721974D01*
X125650448Y-101734471D01*
X125588772Y-101775681D01*
X125538806Y-101787907D01*
X125505216Y-101775681D01*
X125498804Y-101771397D01*
X125443540Y-101734471D01*
X125443538Y-101734470D01*
X125380710Y-101721973D01*
X125213279Y-101721973D01*
X125213278Y-101721974D01*
X125150448Y-101734471D01*
X125088772Y-101775681D01*
X125038806Y-101787907D01*
X125005216Y-101775681D01*
X124998804Y-101771397D01*
X124943540Y-101734471D01*
X124943538Y-101734470D01*
X124880710Y-101721973D01*
X124713279Y-101721973D01*
X124713278Y-101721974D01*
X124650448Y-101734471D01*
X124588772Y-101775681D01*
X124538806Y-101787907D01*
X124505216Y-101775681D01*
X124498804Y-101771397D01*
X124443540Y-101734471D01*
X124443538Y-101734470D01*
X124380710Y-101721973D01*
X124213279Y-101721973D01*
X124213278Y-101721974D01*
X124150448Y-101734471D01*
X124088772Y-101775681D01*
X124038806Y-101787907D01*
X124005216Y-101775681D01*
X123998804Y-101771397D01*
X123943540Y-101734471D01*
X123943538Y-101734470D01*
X123880710Y-101721973D01*
X123713279Y-101721973D01*
X123713278Y-101721974D01*
X123650448Y-101734471D01*
X123588772Y-101775681D01*
X123538806Y-101787907D01*
X123505216Y-101775681D01*
X123498804Y-101771397D01*
X123443540Y-101734471D01*
X123443538Y-101734470D01*
X123380710Y-101721973D01*
X123213279Y-101721973D01*
X123213278Y-101721974D01*
X123150448Y-101734471D01*
X123088772Y-101775681D01*
X123038806Y-101787907D01*
X123005216Y-101775681D01*
X122998804Y-101771397D01*
X122943540Y-101734471D01*
X122943538Y-101734470D01*
X122880710Y-101721973D01*
X122713279Y-101721973D01*
X122713278Y-101721974D01*
X122650448Y-101734471D01*
X122588772Y-101775681D01*
X122538806Y-101787907D01*
X122505216Y-101775681D01*
X122498804Y-101771397D01*
X122443540Y-101734471D01*
X122443538Y-101734470D01*
X122380711Y-101721973D01*
X122275094Y-101721973D01*
X122226756Y-101704380D01*
X122201036Y-101659831D01*
X122199894Y-101646780D01*
X122199894Y-101541159D01*
X122187397Y-101478328D01*
X122146185Y-101416650D01*
X122133960Y-101366685D01*
X122146183Y-101333098D01*
X122187397Y-101271418D01*
X122199895Y-101208588D01*
X122199894Y-101041159D01*
X122187397Y-100978328D01*
X122146185Y-100916650D01*
X122133960Y-100866685D01*
X122146183Y-100833098D01*
X122187397Y-100771418D01*
X122199895Y-100708588D01*
X122199894Y-100541159D01*
X122187397Y-100478328D01*
X122146185Y-100416650D01*
X122133960Y-100366685D01*
X122146183Y-100333098D01*
X122187397Y-100271418D01*
X122199895Y-100208588D01*
X122199894Y-100041159D01*
X122187397Y-99978328D01*
X122146185Y-99916650D01*
X122133960Y-99866685D01*
X122146183Y-99833098D01*
X122187397Y-99771418D01*
X122199895Y-99708588D01*
X122199894Y-99541159D01*
X122187397Y-99478328D01*
X122146185Y-99416650D01*
X122133960Y-99366685D01*
X122146183Y-99333098D01*
X122187397Y-99271418D01*
X122199895Y-99208588D01*
X122199894Y-99041159D01*
X122187397Y-98978328D01*
X122146185Y-98916650D01*
X122133960Y-98866685D01*
X122146183Y-98833098D01*
X122187397Y-98771418D01*
X122199895Y-98708588D01*
X122199894Y-98541159D01*
X122187397Y-98478328D01*
X122146185Y-98416650D01*
X122133960Y-98366685D01*
X122146183Y-98333098D01*
X122187397Y-98271418D01*
X122199895Y-98208588D01*
X122199894Y-98102971D01*
X122217487Y-98054635D01*
X122262035Y-98028915D01*
X122275086Y-98027772D01*
X122380709Y-98027772D01*
X122380711Y-98027772D01*
X122380711Y-98027771D01*
X122443540Y-98015275D01*
X122505216Y-97974064D01*
X122555182Y-97961838D01*
X122588771Y-97974063D01*
X122650450Y-98015275D01*
X122713280Y-98027773D01*
X122880709Y-98027772D01*
X122880710Y-98027772D01*
X122880710Y-98027771D01*
X122943540Y-98015275D01*
X123005216Y-97974064D01*
X123055182Y-97961838D01*
X123088771Y-97974063D01*
X123150450Y-98015275D01*
X123213280Y-98027773D01*
X123380709Y-98027772D01*
X123380710Y-98027772D01*
X123380710Y-98027771D01*
X123443540Y-98015275D01*
X123505216Y-97974064D01*
X123555182Y-97961838D01*
X123588771Y-97974063D01*
X123650450Y-98015275D01*
X123713280Y-98027773D01*
X123880709Y-98027772D01*
X123880710Y-98027772D01*
X123880710Y-98027771D01*
X123943540Y-98015275D01*
X124005216Y-97974064D01*
X124055182Y-97961838D01*
X124088771Y-97974063D01*
X124150450Y-98015275D01*
X124213280Y-98027773D01*
X124380709Y-98027772D01*
X124380710Y-98027772D01*
X124380710Y-98027771D01*
X124443540Y-98015275D01*
X124505216Y-97974064D01*
X124555182Y-97961838D01*
X124588771Y-97974063D01*
X124650450Y-98015275D01*
X124713280Y-98027773D01*
X124880709Y-98027772D01*
X124880710Y-98027772D01*
X124880710Y-98027771D01*
X124943540Y-98015275D01*
X125005216Y-97974064D01*
X125055182Y-97961838D01*
X125088771Y-97974063D01*
X125150450Y-98015275D01*
X125213280Y-98027773D01*
X125380709Y-98027772D01*
X125380710Y-98027772D01*
X125380710Y-98027771D01*
X125443540Y-98015275D01*
X125505216Y-97974064D01*
X125510190Y-97972847D01*
X125513734Y-97969146D01*
X125534701Y-97966849D01*
X125555182Y-97961838D01*
X125561029Y-97963966D01*
G37*
G04 #@! TD.AperFunction*
G04 #@! TA.AperFunction,Conductor*
G36*
X133468771Y-97914063D02*
G01*
X133530450Y-97955275D01*
X133593280Y-97967773D01*
X133698895Y-97967772D01*
X133747232Y-97985365D01*
X133772952Y-98029913D01*
X133774095Y-98042971D01*
X133774095Y-98148588D01*
X133774096Y-98148589D01*
X133786593Y-98211419D01*
X133827803Y-98273095D01*
X133840029Y-98323060D01*
X133827803Y-98356651D01*
X133786593Y-98418327D01*
X133786592Y-98418329D01*
X133774095Y-98481157D01*
X133774095Y-98648588D01*
X133774096Y-98648589D01*
X133786593Y-98711419D01*
X133827803Y-98773095D01*
X133840029Y-98823060D01*
X133827803Y-98856651D01*
X133786593Y-98918327D01*
X133786592Y-98918329D01*
X133774095Y-98981157D01*
X133774095Y-99148588D01*
X133774096Y-99148589D01*
X133786593Y-99211419D01*
X133827803Y-99273095D01*
X133840029Y-99323060D01*
X133827803Y-99356651D01*
X133786593Y-99418327D01*
X133786592Y-99418329D01*
X133774095Y-99481157D01*
X133774095Y-99648588D01*
X133774096Y-99648589D01*
X133786593Y-99711419D01*
X133827803Y-99773095D01*
X133840029Y-99823060D01*
X133827803Y-99856651D01*
X133786593Y-99918327D01*
X133786592Y-99918329D01*
X133774095Y-99981157D01*
X133774095Y-100148588D01*
X133774096Y-100148589D01*
X133786593Y-100211419D01*
X133827803Y-100273095D01*
X133840029Y-100323060D01*
X133827803Y-100356651D01*
X133786593Y-100418327D01*
X133786592Y-100418329D01*
X133774095Y-100481157D01*
X133774095Y-100648588D01*
X133774096Y-100648589D01*
X133786593Y-100711419D01*
X133827803Y-100773095D01*
X133840029Y-100823060D01*
X133827803Y-100856651D01*
X133786593Y-100918327D01*
X133786592Y-100918329D01*
X133774095Y-100981157D01*
X133774095Y-101148588D01*
X133774096Y-101148589D01*
X133786593Y-101211419D01*
X133827803Y-101273095D01*
X133840029Y-101323060D01*
X133827803Y-101356651D01*
X133786593Y-101418327D01*
X133786592Y-101418329D01*
X133774095Y-101481157D01*
X133774095Y-101586773D01*
X133756502Y-101635111D01*
X133711953Y-101660831D01*
X133698896Y-101661973D01*
X133593279Y-101661973D01*
X133593278Y-101661974D01*
X133530448Y-101674471D01*
X133468772Y-101715681D01*
X133418806Y-101727907D01*
X133385216Y-101715681D01*
X133323540Y-101674471D01*
X133323538Y-101674470D01*
X133260710Y-101661973D01*
X133093279Y-101661973D01*
X133093278Y-101661974D01*
X133030448Y-101674471D01*
X132968772Y-101715681D01*
X132918806Y-101727907D01*
X132885216Y-101715681D01*
X132823540Y-101674471D01*
X132823538Y-101674470D01*
X132760710Y-101661973D01*
X132593279Y-101661973D01*
X132593278Y-101661974D01*
X132530448Y-101674471D01*
X132468772Y-101715681D01*
X132418806Y-101727907D01*
X132385216Y-101715681D01*
X132323540Y-101674471D01*
X132323538Y-101674470D01*
X132260710Y-101661973D01*
X132093279Y-101661973D01*
X132093278Y-101661974D01*
X132030448Y-101674471D01*
X131968772Y-101715681D01*
X131918806Y-101727907D01*
X131885216Y-101715681D01*
X131823540Y-101674471D01*
X131823538Y-101674470D01*
X131760710Y-101661973D01*
X131593279Y-101661973D01*
X131593278Y-101661974D01*
X131530448Y-101674471D01*
X131468772Y-101715681D01*
X131418806Y-101727907D01*
X131385216Y-101715681D01*
X131323540Y-101674471D01*
X131323538Y-101674470D01*
X131260710Y-101661973D01*
X131093279Y-101661973D01*
X131093278Y-101661974D01*
X131030448Y-101674471D01*
X130968772Y-101715681D01*
X130918806Y-101727907D01*
X130885216Y-101715681D01*
X130823540Y-101674471D01*
X130823538Y-101674470D01*
X130760710Y-101661973D01*
X130593279Y-101661973D01*
X130593278Y-101661974D01*
X130530448Y-101674471D01*
X130468772Y-101715681D01*
X130418806Y-101727907D01*
X130385216Y-101715681D01*
X130323540Y-101674471D01*
X130323538Y-101674470D01*
X130260711Y-101661973D01*
X130155094Y-101661973D01*
X130106756Y-101644380D01*
X130081036Y-101599831D01*
X130079894Y-101586780D01*
X130079894Y-101481159D01*
X130067397Y-101418328D01*
X130026185Y-101356650D01*
X130013960Y-101306685D01*
X130026183Y-101273098D01*
X130067397Y-101211418D01*
X130079895Y-101148588D01*
X130079894Y-100981159D01*
X130067397Y-100918328D01*
X130026185Y-100856650D01*
X130013960Y-100806685D01*
X130026183Y-100773098D01*
X130067397Y-100711418D01*
X130079895Y-100648588D01*
X130079894Y-100481159D01*
X130067397Y-100418328D01*
X130026185Y-100356650D01*
X130013960Y-100306685D01*
X130026183Y-100273098D01*
X130067397Y-100211418D01*
X130079895Y-100148588D01*
X130079894Y-99981159D01*
X130067397Y-99918328D01*
X130026185Y-99856650D01*
X130013960Y-99806685D01*
X130026183Y-99773098D01*
X130067397Y-99711418D01*
X130079895Y-99648588D01*
X130079894Y-99481159D01*
X130067397Y-99418328D01*
X130026185Y-99356650D01*
X130013960Y-99306685D01*
X130026183Y-99273098D01*
X130067397Y-99211418D01*
X130079895Y-99148588D01*
X130079894Y-98981159D01*
X130067397Y-98918328D01*
X130026185Y-98856650D01*
X130013960Y-98806685D01*
X130026183Y-98773098D01*
X130067397Y-98711418D01*
X130079895Y-98648588D01*
X130079894Y-98481159D01*
X130067397Y-98418328D01*
X130026185Y-98356650D01*
X130013960Y-98306685D01*
X130026183Y-98273098D01*
X130067397Y-98211418D01*
X130079895Y-98148588D01*
X130079894Y-98042971D01*
X130097487Y-97994635D01*
X130142035Y-97968915D01*
X130155086Y-97967772D01*
X130260709Y-97967772D01*
X130260711Y-97967772D01*
X130260711Y-97967771D01*
X130323540Y-97955275D01*
X130385216Y-97914064D01*
X130435182Y-97901838D01*
X130468771Y-97914063D01*
X130530450Y-97955275D01*
X130593280Y-97967773D01*
X130760709Y-97967772D01*
X130760710Y-97967772D01*
X130760710Y-97967771D01*
X130823540Y-97955275D01*
X130885216Y-97914064D01*
X130935182Y-97901838D01*
X130968771Y-97914063D01*
X131030450Y-97955275D01*
X131093280Y-97967773D01*
X131260709Y-97967772D01*
X131260710Y-97967772D01*
X131260710Y-97967771D01*
X131323540Y-97955275D01*
X131385216Y-97914064D01*
X131435182Y-97901838D01*
X131468771Y-97914063D01*
X131530450Y-97955275D01*
X131593280Y-97967773D01*
X131760709Y-97967772D01*
X131760710Y-97967772D01*
X131760710Y-97967771D01*
X131823540Y-97955275D01*
X131885216Y-97914064D01*
X131935182Y-97901838D01*
X131968771Y-97914063D01*
X132030450Y-97955275D01*
X132093280Y-97967773D01*
X132260709Y-97967772D01*
X132260710Y-97967772D01*
X132260710Y-97967771D01*
X132323540Y-97955275D01*
X132385216Y-97914064D01*
X132435182Y-97901838D01*
X132468771Y-97914063D01*
X132530450Y-97955275D01*
X132593280Y-97967773D01*
X132760709Y-97967772D01*
X132760710Y-97967772D01*
X132760710Y-97967771D01*
X132823540Y-97955275D01*
X132885216Y-97914064D01*
X132935182Y-97901838D01*
X132968771Y-97914063D01*
X133030450Y-97955275D01*
X133093280Y-97967773D01*
X133260709Y-97967772D01*
X133260710Y-97967772D01*
X133260710Y-97967771D01*
X133323540Y-97955275D01*
X133385216Y-97914064D01*
X133435182Y-97901838D01*
X133468771Y-97914063D01*
G37*
G04 #@! TD.AperFunction*
G04 #@! TA.AperFunction,Conductor*
G36*
X134474179Y-96218917D02*
G01*
X134521960Y-96237966D01*
X134546319Y-96283273D01*
X134547100Y-96294082D01*
X134547100Y-96309625D01*
X134571771Y-96401699D01*
X134577964Y-96424813D01*
X134577964Y-96424814D01*
X134637589Y-96528087D01*
X134721912Y-96612410D01*
X134781538Y-96646834D01*
X134825187Y-96672036D01*
X134940375Y-96702900D01*
X134940378Y-96702900D01*
X135059622Y-96702900D01*
X135059625Y-96702900D01*
X135174813Y-96672036D01*
X135278087Y-96612410D01*
X135362410Y-96528087D01*
X135368469Y-96517593D01*
X135374051Y-96507925D01*
X135413456Y-96474860D01*
X135464895Y-96474860D01*
X135492350Y-96492351D01*
X135499999Y-96500000D01*
X135500000Y-96500000D01*
X135724300Y-96500000D01*
X135772638Y-96517593D01*
X135798358Y-96562142D01*
X135799500Y-96575200D01*
X135799500Y-97326108D01*
X135781907Y-97374446D01*
X135753079Y-97395583D01*
X135690739Y-97421405D01*
X135583798Y-97492862D01*
X135583795Y-97492864D01*
X135492864Y-97583795D01*
X135492862Y-97583798D01*
X135421407Y-97690737D01*
X135372191Y-97809556D01*
X135372190Y-97809559D01*
X135347100Y-97935693D01*
X135347100Y-98064306D01*
X135370351Y-98181197D01*
X135372191Y-98190444D01*
X135421408Y-98309264D01*
X135492860Y-98416199D01*
X135492862Y-98416201D01*
X135492864Y-98416204D01*
X135583795Y-98507135D01*
X135583804Y-98507143D01*
X135666613Y-98562474D01*
X135697030Y-98603957D01*
X135693665Y-98655287D01*
X135666613Y-98687526D01*
X135583804Y-98742856D01*
X135583795Y-98742864D01*
X135512913Y-98813747D01*
X135498036Y-98820684D01*
X135485459Y-98831238D01*
X135469291Y-98834088D01*
X135466293Y-98835487D01*
X135459739Y-98835773D01*
X135365563Y-98835773D01*
X135317225Y-98818180D01*
X135291505Y-98773631D01*
X135300438Y-98722973D01*
X135313609Y-98700161D01*
X135337495Y-98611017D01*
X135337495Y-98518729D01*
X135313609Y-98429585D01*
X135267464Y-98349661D01*
X135267461Y-98349658D01*
X135267460Y-98349656D01*
X135202211Y-98284407D01*
X135202208Y-98284405D01*
X135202207Y-98284404D01*
X135122283Y-98238259D01*
X135122282Y-98238258D01*
X135122281Y-98238258D01*
X135089651Y-98229515D01*
X135033139Y-98214373D01*
X135030095Y-98214373D01*
X135028368Y-98213744D01*
X135028250Y-98213729D01*
X135028253Y-98213702D01*
X134981757Y-98196780D01*
X134956037Y-98152231D01*
X134954895Y-98139173D01*
X134954894Y-97981157D01*
X134954893Y-97981156D01*
X134942397Y-97918328D01*
X134894790Y-97847078D01*
X134894634Y-97846974D01*
X134840456Y-97810774D01*
X134823540Y-97799471D01*
X134823538Y-97799470D01*
X134817382Y-97795357D01*
X134819096Y-97792791D01*
X134790809Y-97766856D01*
X134784109Y-97715855D01*
X134792394Y-97694557D01*
X134826614Y-97635288D01*
X134850500Y-97546144D01*
X134850500Y-97453856D01*
X134826614Y-97364712D01*
X134780469Y-97284788D01*
X134780466Y-97284785D01*
X134780465Y-97284783D01*
X134715216Y-97219534D01*
X134715213Y-97219532D01*
X134715212Y-97219531D01*
X134635288Y-97173386D01*
X134635287Y-97173385D01*
X134635286Y-97173385D01*
X134602656Y-97164642D01*
X134546144Y-97149500D01*
X134453856Y-97149500D01*
X134453848Y-97149500D01*
X134451262Y-97149840D01*
X134426793Y-97149038D01*
X134422946Y-97148273D01*
X134422944Y-97148273D01*
X134231500Y-97148273D01*
X134183162Y-97130680D01*
X134157442Y-97086131D01*
X134156300Y-97073073D01*
X134156300Y-96286798D01*
X134173893Y-96238460D01*
X134218442Y-96212740D01*
X134233769Y-96211632D01*
X134474179Y-96218917D01*
G37*
G04 #@! TD.AperFunction*
G04 #@! TA.AperFunction,Conductor*
G36*
X129096561Y-96420558D02*
G01*
X129395970Y-96719967D01*
X129411178Y-96726265D01*
X129445292Y-96740395D01*
X129445294Y-96740397D01*
X129445295Y-96740397D01*
X129460719Y-96746786D01*
X129480174Y-96754845D01*
X129480175Y-96754845D01*
X129571315Y-96754845D01*
X129880139Y-96754845D01*
X129928477Y-96772438D01*
X129954197Y-96816987D01*
X129945264Y-96867645D01*
X129942666Y-96871823D01*
X129911593Y-96918327D01*
X129911592Y-96918329D01*
X129899095Y-96981157D01*
X129899095Y-97035131D01*
X129898269Y-97037399D01*
X129898955Y-97039714D01*
X129889563Y-97061320D01*
X129881502Y-97083469D01*
X129879118Y-97085347D01*
X129878449Y-97086889D01*
X129868425Y-97093778D01*
X129857456Y-97102427D01*
X129855103Y-97103600D01*
X129828278Y-97114712D01*
X129799281Y-97126723D01*
X129789871Y-97136132D01*
X129778916Y-97141596D01*
X129764791Y-97143206D01*
X129751909Y-97149214D01*
X129745355Y-97149500D01*
X129703856Y-97149500D01*
X129660206Y-97161196D01*
X129614713Y-97173385D01*
X129534783Y-97219534D01*
X129469534Y-97284783D01*
X129469531Y-97284787D01*
X129469531Y-97284788D01*
X129460456Y-97300506D01*
X129423385Y-97364713D01*
X129411151Y-97410374D01*
X129399500Y-97453856D01*
X129399500Y-97546144D01*
X129409590Y-97583801D01*
X129423252Y-97634791D01*
X129423386Y-97635288D01*
X129445837Y-97674174D01*
X129454770Y-97724831D01*
X129429050Y-97769379D01*
X129380713Y-97786973D01*
X129093279Y-97786973D01*
X129093276Y-97786974D01*
X129044297Y-97796716D01*
X128993456Y-97788890D01*
X128959541Y-97750215D01*
X128954428Y-97722961D01*
X128954428Y-96479809D01*
X128955875Y-96475831D01*
X128954864Y-96471722D01*
X128964526Y-96452062D01*
X128972021Y-96431471D01*
X128976184Y-96428343D01*
X128977554Y-96425557D01*
X128999248Y-96411019D01*
X129013012Y-96404941D01*
X129064334Y-96401509D01*
X129096561Y-96420558D01*
G37*
G04 #@! TD.AperFunction*
G04 #@! TA.AperFunction,Conductor*
G36*
X127977854Y-94267593D02*
G01*
X128003574Y-94312142D01*
X127994641Y-94362800D01*
X127982692Y-94378372D01*
X127899717Y-94461347D01*
X127825423Y-94535641D01*
X127778803Y-94557380D01*
X127772249Y-94557666D01*
X127476511Y-94557666D01*
X127471507Y-94558246D01*
X127452439Y-94560458D01*
X127353972Y-94603936D01*
X127353969Y-94603938D01*
X127277867Y-94680040D01*
X127277862Y-94680047D01*
X127242037Y-94761184D01*
X127206418Y-94798297D01*
X127155277Y-94803831D01*
X127112543Y-94775197D01*
X127104453Y-94761184D01*
X127068627Y-94680047D01*
X127068622Y-94680040D01*
X126992520Y-94603938D01*
X126992517Y-94603936D01*
X126992516Y-94603935D01*
X126894052Y-94560459D01*
X126894050Y-94560458D01*
X126875563Y-94558313D01*
X126869979Y-94557666D01*
X126414011Y-94557666D01*
X126409007Y-94558246D01*
X126389939Y-94560458D01*
X126291472Y-94603936D01*
X126225455Y-94669953D01*
X126178835Y-94691692D01*
X126129148Y-94678378D01*
X126112471Y-94661529D01*
X126034187Y-94583245D01*
X126034184Y-94583243D01*
X126034183Y-94583242D01*
X125935719Y-94539766D01*
X125935717Y-94539765D01*
X125917230Y-94537620D01*
X125911646Y-94536973D01*
X125455678Y-94536973D01*
X125450674Y-94537553D01*
X125431606Y-94539765D01*
X125333139Y-94583243D01*
X125333136Y-94583245D01*
X125257034Y-94659347D01*
X125257032Y-94659350D01*
X125213554Y-94757817D01*
X125210762Y-94781891D01*
X125210762Y-95137854D01*
X125213554Y-95161928D01*
X125213555Y-95161930D01*
X125257031Y-95260394D01*
X125257032Y-95260395D01*
X125257034Y-95260398D01*
X125333136Y-95336500D01*
X125333139Y-95336502D01*
X125333141Y-95336504D01*
X125431605Y-95379980D01*
X125455678Y-95382773D01*
X125455680Y-95382773D01*
X125911644Y-95382773D01*
X125911646Y-95382773D01*
X125935719Y-95379980D01*
X126034183Y-95336504D01*
X126100201Y-95270485D01*
X126146820Y-95248746D01*
X126196508Y-95262059D01*
X126213281Y-95279005D01*
X126291469Y-95357193D01*
X126291472Y-95357195D01*
X126291474Y-95357197D01*
X126389938Y-95400673D01*
X126414011Y-95403466D01*
X126709751Y-95403466D01*
X126725178Y-95409081D01*
X126741532Y-95410512D01*
X126754976Y-95419926D01*
X126758089Y-95421059D01*
X126762925Y-95425492D01*
X126786725Y-95449292D01*
X126808465Y-95495912D01*
X126795151Y-95545599D01*
X126753014Y-95575104D01*
X126733551Y-95577666D01*
X126414011Y-95577666D01*
X126409007Y-95578246D01*
X126389939Y-95580458D01*
X126291472Y-95623936D01*
X126225455Y-95689953D01*
X126178835Y-95711692D01*
X126129148Y-95698378D01*
X126112471Y-95681529D01*
X126034187Y-95603245D01*
X126034184Y-95603243D01*
X126034183Y-95603242D01*
X125939078Y-95561249D01*
X125935717Y-95559765D01*
X125917230Y-95557620D01*
X125911646Y-95556973D01*
X125455678Y-95556973D01*
X125450674Y-95557553D01*
X125431606Y-95559765D01*
X125333139Y-95603243D01*
X125333136Y-95603245D01*
X125257034Y-95679347D01*
X125257029Y-95679355D01*
X125245287Y-95705948D01*
X125242355Y-95709002D01*
X125241620Y-95713173D01*
X125224837Y-95727255D01*
X125209668Y-95743061D01*
X125204595Y-95744240D01*
X125202215Y-95746238D01*
X125176495Y-95750773D01*
X125169995Y-95750773D01*
X125121657Y-95733180D01*
X125101203Y-95705948D01*
X125089460Y-95679355D01*
X125089459Y-95679352D01*
X125089456Y-95679349D01*
X125089455Y-95679347D01*
X125013353Y-95603245D01*
X125013350Y-95603243D01*
X125013349Y-95603242D01*
X124918244Y-95561249D01*
X124914883Y-95559765D01*
X124896396Y-95557620D01*
X124890812Y-95556973D01*
X124434844Y-95556973D01*
X124429840Y-95557553D01*
X124410772Y-95559765D01*
X124312305Y-95603243D01*
X124312302Y-95603245D01*
X124236200Y-95679347D01*
X124236198Y-95679350D01*
X124192720Y-95777817D01*
X124189928Y-95801891D01*
X124189928Y-96157854D01*
X124192721Y-96181930D01*
X124194206Y-96187388D01*
X124192972Y-96187723D01*
X124195990Y-96232896D01*
X124165624Y-96274417D01*
X124143233Y-96284579D01*
X124121900Y-96290295D01*
X124121898Y-96290296D01*
X124121896Y-96290296D01*
X124121896Y-96290297D01*
X124041972Y-96336442D01*
X124041967Y-96336445D01*
X123976718Y-96401694D01*
X123930569Y-96481624D01*
X123921473Y-96515574D01*
X123906684Y-96570767D01*
X123906684Y-96663055D01*
X123930570Y-96752199D01*
X123930600Y-96752310D01*
X123926116Y-96803554D01*
X123889743Y-96839928D01*
X123857963Y-96846973D01*
X123713279Y-96846973D01*
X123713278Y-96846974D01*
X123650448Y-96859471D01*
X123588772Y-96900681D01*
X123538806Y-96912907D01*
X123505216Y-96900681D01*
X123503448Y-96899500D01*
X123443540Y-96859471D01*
X123443538Y-96859470D01*
X123380710Y-96846973D01*
X123213279Y-96846973D01*
X123213278Y-96846974D01*
X123150448Y-96859471D01*
X123088772Y-96900681D01*
X123038806Y-96912907D01*
X123014792Y-96906110D01*
X123009803Y-96903745D01*
X122943540Y-96859471D01*
X122896713Y-96850156D01*
X122888304Y-96846171D01*
X122880831Y-96838605D01*
X122867331Y-96831389D01*
X122643417Y-96607474D01*
X122621678Y-96560854D01*
X122634992Y-96511167D01*
X122677129Y-96481662D01*
X122696592Y-96479100D01*
X122702271Y-96479100D01*
X122750609Y-96496693D01*
X122755434Y-96501115D01*
X122784788Y-96530469D01*
X122864712Y-96576614D01*
X122953856Y-96600500D01*
X122953859Y-96600500D01*
X123046141Y-96600500D01*
X123046144Y-96600500D01*
X123135288Y-96576614D01*
X123215212Y-96530469D01*
X123280469Y-96465212D01*
X123326614Y-96385288D01*
X123350500Y-96296144D01*
X123350500Y-96203856D01*
X123326614Y-96114712D01*
X123280469Y-96034788D01*
X123280466Y-96034785D01*
X123280465Y-96034783D01*
X123215216Y-95969534D01*
X123215213Y-95969532D01*
X123215212Y-95969531D01*
X123135288Y-95923386D01*
X123135287Y-95923385D01*
X123135286Y-95923385D01*
X123102656Y-95914642D01*
X123046144Y-95899500D01*
X122953856Y-95899500D01*
X122907202Y-95912000D01*
X122864713Y-95923385D01*
X122784786Y-95969532D01*
X122770116Y-95984203D01*
X122755444Y-95998874D01*
X122708826Y-96020614D01*
X122702271Y-96020900D01*
X122126045Y-96020900D01*
X122110617Y-96015284D01*
X122094264Y-96013854D01*
X122080818Y-96004439D01*
X122077707Y-96003307D01*
X122072870Y-95998874D01*
X122001125Y-95927128D01*
X121979386Y-95880508D01*
X121979174Y-95875652D01*
X121979100Y-95875282D01*
X121979100Y-95875279D01*
X121964815Y-95840792D01*
X121957272Y-95822582D01*
X121944222Y-95791075D01*
X121864806Y-95711659D01*
X121781520Y-95628373D01*
X121759781Y-95581754D01*
X121773095Y-95532067D01*
X121815232Y-95502562D01*
X121834695Y-95500000D01*
X123250000Y-95500000D01*
X123250000Y-94325200D01*
X123267593Y-94276862D01*
X123312142Y-94251142D01*
X123325200Y-94250000D01*
X127929516Y-94250000D01*
X127977854Y-94267593D01*
G37*
G04 #@! TD.AperFunction*
G04 #@! TA.AperFunction,Conductor*
G36*
X133279265Y-94776724D02*
G01*
X133311786Y-94785669D01*
X133311951Y-94785272D01*
X133315135Y-94786591D01*
X133315876Y-94786794D01*
X133316507Y-94787159D01*
X133431695Y-94818023D01*
X133431698Y-94818023D01*
X133550943Y-94818023D01*
X133550945Y-94818023D01*
X133666133Y-94787159D01*
X133666135Y-94787157D01*
X133667978Y-94786664D01*
X133668323Y-94786383D01*
X133670121Y-94786090D01*
X133670895Y-94785883D01*
X133670915Y-94785960D01*
X133694097Y-94782187D01*
X133731338Y-94782678D01*
X133779437Y-94800904D01*
X133804569Y-94845787D01*
X133805529Y-94856288D01*
X133823260Y-95698939D01*
X133806688Y-95747636D01*
X133762690Y-95774287D01*
X133719301Y-95769997D01*
X133672228Y-95750500D01*
X133650418Y-95741466D01*
X133650417Y-95741466D01*
X133267150Y-95741466D01*
X133218812Y-95723873D01*
X133198358Y-95696641D01*
X133183138Y-95662173D01*
X133183137Y-95662170D01*
X133183134Y-95662167D01*
X133183133Y-95662165D01*
X133105709Y-95584741D01*
X133105706Y-95584739D01*
X133105705Y-95584738D01*
X133005530Y-95540507D01*
X133005528Y-95540506D01*
X132986723Y-95538324D01*
X132981043Y-95537666D01*
X132553575Y-95537666D01*
X132548485Y-95538256D01*
X132529089Y-95540506D01*
X132529088Y-95540507D01*
X132428913Y-95584738D01*
X132428908Y-95584741D01*
X132351484Y-95662165D01*
X132347544Y-95667918D01*
X132345009Y-95666181D01*
X132318050Y-95694224D01*
X132266904Y-95699716D01*
X132231759Y-95679883D01*
X132175814Y-95623938D01*
X132175811Y-95623936D01*
X132175810Y-95623935D01*
X132077346Y-95580459D01*
X132077344Y-95580458D01*
X132058857Y-95578313D01*
X132053273Y-95577666D01*
X131597305Y-95577666D01*
X131592301Y-95578246D01*
X131573233Y-95580458D01*
X131474766Y-95623936D01*
X131474763Y-95623938D01*
X131394316Y-95704386D01*
X131347696Y-95726126D01*
X131298009Y-95712812D01*
X131287968Y-95704386D01*
X131207520Y-95623938D01*
X131207517Y-95623936D01*
X131207516Y-95623935D01*
X131109052Y-95580459D01*
X131109050Y-95580458D01*
X131090563Y-95578313D01*
X131084979Y-95577666D01*
X130765441Y-95577666D01*
X130744168Y-95569923D01*
X130722308Y-95564066D01*
X130720335Y-95561249D01*
X130717103Y-95560073D01*
X130705783Y-95540467D01*
X130692803Y-95521929D01*
X130693102Y-95518502D01*
X130691383Y-95515524D01*
X130695314Y-95493230D01*
X130697287Y-95470685D01*
X130699964Y-95466861D01*
X130700316Y-95464866D01*
X130712267Y-95449292D01*
X130736067Y-95425492D01*
X130782687Y-95403752D01*
X130789241Y-95403466D01*
X131084977Y-95403466D01*
X131084979Y-95403466D01*
X131109052Y-95400673D01*
X131207516Y-95357197D01*
X131228213Y-95336500D01*
X131287968Y-95276746D01*
X131334588Y-95255006D01*
X131384275Y-95268320D01*
X131394316Y-95276746D01*
X131474763Y-95357193D01*
X131474766Y-95357195D01*
X131474768Y-95357197D01*
X131573232Y-95400673D01*
X131597305Y-95403466D01*
X131597307Y-95403466D01*
X132053271Y-95403466D01*
X132053273Y-95403466D01*
X132077346Y-95400673D01*
X132175810Y-95357197D01*
X132251920Y-95281087D01*
X132295396Y-95182623D01*
X132298189Y-95158550D01*
X132298189Y-94862810D01*
X132303803Y-94847382D01*
X132305234Y-94831031D01*
X132314649Y-94817582D01*
X132315782Y-94814472D01*
X132320202Y-94809648D01*
X132342729Y-94787121D01*
X132389346Y-94765382D01*
X132396871Y-94765103D01*
X133279265Y-94776724D01*
G37*
G04 #@! TD.AperFunction*
G04 #@! TA.AperFunction,Conductor*
G36*
X130518945Y-94262630D02*
G01*
X130754844Y-94419896D01*
X130785305Y-94461347D01*
X130781994Y-94512681D01*
X130746462Y-94549876D01*
X130713131Y-94557666D01*
X130629011Y-94557666D01*
X130624007Y-94558246D01*
X130604939Y-94560458D01*
X130506472Y-94603936D01*
X130506469Y-94603938D01*
X130430367Y-94680040D01*
X130430365Y-94680043D01*
X130386887Y-94778510D01*
X130384095Y-94802584D01*
X130384095Y-95098321D01*
X130378479Y-95113748D01*
X130377049Y-95130102D01*
X130367634Y-95143546D01*
X130366502Y-95146659D01*
X130362069Y-95151495D01*
X130264690Y-95248874D01*
X130218070Y-95270614D01*
X130211516Y-95270900D01*
X128248789Y-95270900D01*
X128200451Y-95253307D01*
X128174731Y-95208758D01*
X128174090Y-95187033D01*
X128174602Y-95182621D01*
X128177395Y-95158550D01*
X128177395Y-94862810D01*
X128194988Y-94814473D01*
X128199421Y-94809637D01*
X128737033Y-94272026D01*
X128783653Y-94250286D01*
X128790207Y-94250000D01*
X130477232Y-94250000D01*
X130518945Y-94262630D01*
G37*
G04 #@! TD.AperFunction*
G04 #@! TD*
M02*
