G04 #@! TF.GenerationSoftware,KiCad,Pcbnew,9.0.4*
G04 #@! TF.CreationDate,2025-09-23T15:48:17-04:00*
G04 #@! TF.ProjectId,ESC Module,45534320-4d6f-4647-956c-652e6b696361,rev?*
G04 #@! TF.SameCoordinates,Original*
G04 #@! TF.FileFunction,Copper,L4,Bot*
G04 #@! TF.FilePolarity,Positive*
%FSLAX46Y46*%
G04 Gerber Fmt 4.6, Leading zero omitted, Abs format (unit mm)*
G04 Created by KiCad (PCBNEW 9.0.4) date 2025-09-23 15:48:17*
%MOMM*%
%LPD*%
G01*
G04 APERTURE LIST*
G04 #@! TA.AperFunction,Conductor*
%ADD10C,0.000000*%
G04 #@! TD*
G04 #@! TA.AperFunction,ComponentPad*
%ADD11C,1.000000*%
G04 #@! TD*
G04 #@! TA.AperFunction,ViaPad*
%ADD12C,0.350000*%
G04 #@! TD*
G04 #@! TA.AperFunction,ViaPad*
%ADD13C,0.600000*%
G04 #@! TD*
G04 #@! TA.AperFunction,Conductor*
%ADD14C,0.152400*%
G04 #@! TD*
G04 #@! TA.AperFunction,Conductor*
%ADD15C,0.300000*%
G04 #@! TD*
G04 APERTURE END LIST*
D10*
G04 #@! TA.AperFunction,Conductor*
G04 #@! TO.N,GND*
G36*
X132500000Y-89750000D02*
G01*
X132637439Y-89887439D01*
X132637439Y-92612561D01*
X132133908Y-93116092D01*
X129000000Y-93116092D01*
X129000000Y-92250000D01*
X130500000Y-90750000D01*
X130500000Y-88250000D01*
X131250000Y-88250000D01*
X131250000Y-85750000D01*
X132500000Y-85750000D01*
X132500000Y-89750000D01*
G37*
G04 #@! TD.AperFunction*
G04 #@! TA.AperFunction,Conductor*
G36*
X127000000Y-85500000D02*
G01*
X127750000Y-85500000D01*
X127750000Y-86250000D01*
X126750000Y-86250000D01*
X126750000Y-88750000D01*
X124943236Y-90556764D01*
X124943236Y-91250000D01*
X124500000Y-91250000D01*
X123605820Y-90355820D01*
X123605820Y-89394180D01*
X124318298Y-88681702D01*
X124318298Y-86681702D01*
X125000000Y-86000000D01*
X125000000Y-83500000D01*
X127000000Y-83500000D01*
X127000000Y-85500000D01*
G37*
G04 #@! TD.AperFunction*
G04 #@! TA.AperFunction,Conductor*
G36*
X126250000Y-100964285D02*
G01*
X124458333Y-102500000D01*
X122000000Y-102500000D01*
X122000000Y-98800000D01*
X123312500Y-97750000D01*
X126250000Y-97750000D01*
X126250000Y-100964285D01*
G37*
G04 #@! TD.AperFunction*
G04 #@! TA.AperFunction,Conductor*
G36*
X134750000Y-99000000D02*
G01*
X134750000Y-102500000D01*
X132000000Y-102500000D01*
X130500000Y-100750000D01*
X130500000Y-97750000D01*
X133750000Y-97750000D01*
X134750000Y-99000000D01*
G37*
G04 #@! TD.AperFunction*
G04 #@! TD*
D11*
G04 #@! TO.P,U7,1,1*
G04 #@! TO.N,Net-(R102-Pad2)*
X120000000Y-86500000D03*
G04 #@! TD*
G04 #@! TO.P,U14,1,1*
G04 #@! TO.N,Net-(R110-Pad2)*
X136000000Y-87750000D03*
G04 #@! TD*
G04 #@! TO.P,U105,1,1*
G04 #@! TO.N,/ESC/VS1*
X120000000Y-92750000D03*
G04 #@! TD*
G04 #@! TO.P,U108,1,1*
G04 #@! TO.N,/ESC1/VS2*
X136000000Y-89000000D03*
G04 #@! TD*
G04 #@! TO.P,U121,1,1*
G04 #@! TO.N,/ESC/TELEMETRY_TX*
X120000000Y-101750000D03*
G04 #@! TD*
G04 #@! TO.P,U18,1,1*
G04 #@! TO.N,Vdrive*
X126000000Y-80750000D03*
G04 #@! TD*
G04 #@! TO.P,U111,1,1*
G04 #@! TO.N,/ESC1/NRST*
X136000000Y-98000000D03*
G04 #@! TD*
G04 #@! TO.P,U110,1,1*
G04 #@! TO.N,/ESC/VS3*
X120000000Y-82750000D03*
G04 #@! TD*
G04 #@! TO.P,U16,1,1*
G04 #@! TO.N,Net-(R112-Pad2)*
X136000000Y-92750000D03*
G04 #@! TD*
G04 #@! TO.P,U5,1,1*
G04 #@! TO.N,Net-(R103-Pad2)*
X120000000Y-91500000D03*
G04 #@! TD*
G04 #@! TO.P,U15,1,1*
G04 #@! TO.N,Net-(R111-Pad2)*
X136000000Y-95250000D03*
G04 #@! TD*
G04 #@! TO.P,U202,1,1*
G04 #@! TO.N,/ESC/SWDIO*
X120000000Y-98000000D03*
G04 #@! TD*
G04 #@! TO.P,U22,1,1*
G04 #@! TO.N,GND*
X120000000Y-90250000D03*
G04 #@! TD*
G04 #@! TO.P,U116,1,1*
G04 #@! TO.N,GND*
X124750000Y-80750000D03*
G04 #@! TD*
G04 #@! TO.P,U118,1,1*
G04 #@! TO.N,GND*
X129000000Y-107000000D03*
G04 #@! TD*
G04 #@! TO.P,U122,1,1*
G04 #@! TO.N,/ESC/TELEMETRY_RX*
X120000000Y-103000000D03*
G04 #@! TD*
G04 #@! TO.P,U114,1,1*
G04 #@! TO.N,GND*
X136000000Y-91500000D03*
G04 #@! TD*
G04 #@! TO.P,U103,1,1*
G04 #@! TO.N,VDD*
X128750000Y-80750000D03*
G04 #@! TD*
G04 #@! TO.P,U12,1,1*
G04 #@! TO.N,Net-(R108-Pad2)*
X136000000Y-82750000D03*
G04 #@! TD*
G04 #@! TO.P,U9,1,1*
G04 #@! TO.N,Net-(R105-Pad2)*
X120000000Y-81500000D03*
G04 #@! TD*
G04 #@! TO.P,U106,1,1*
G04 #@! TO.N,/ESC/VS2*
X120000000Y-87750000D03*
G04 #@! TD*
G04 #@! TO.P,U19,1,1*
G04 #@! TO.N,GND*
X131250000Y-80750000D03*
G04 #@! TD*
G04 #@! TO.P,U13,1,1*
G04 #@! TO.N,Net-(R109-Pad2)*
X136000000Y-90250000D03*
G04 #@! TD*
G04 #@! TO.P,U20,1,1*
G04 #@! TO.N,GND*
X120000000Y-95250000D03*
G04 #@! TD*
G04 #@! TO.P,U3,1,1*
G04 #@! TO.N,/ESC/PWM*
X132750000Y-107000000D03*
G04 #@! TD*
G04 #@! TO.P,U113,1,1*
G04 #@! TO.N,GND*
X136000000Y-81500000D03*
G04 #@! TD*
G04 #@! TO.P,U10,1,1*
G04 #@! TO.N,Net-(R106-Pad2)*
X120000000Y-84000000D03*
G04 #@! TD*
G04 #@! TO.P,U115,1,1*
G04 #@! TO.N,GND*
X136000000Y-86500000D03*
G04 #@! TD*
G04 #@! TO.P,U101,1,1*
G04 #@! TO.N,Vdrive*
X130000000Y-80750000D03*
G04 #@! TD*
G04 #@! TO.P,U8,1,1*
G04 #@! TO.N,Net-(R104-Pad2)*
X120000000Y-89000000D03*
G04 #@! TD*
G04 #@! TO.P,U201,1,1*
G04 #@! TO.N,/ESC/SWCLK*
X120000000Y-99250000D03*
G04 #@! TD*
G04 #@! TO.P,U119,1,1*
G04 #@! TO.N,/ESC1/TELEMETRY_TX*
X136000000Y-100500000D03*
G04 #@! TD*
G04 #@! TO.P,U117,1,1*
G04 #@! TO.N,GND*
X127000000Y-107000000D03*
G04 #@! TD*
G04 #@! TO.P,U304,1,1*
G04 #@! TO.N,/ESC1/SWDIO*
X136000000Y-103000000D03*
G04 #@! TD*
G04 #@! TO.P,U11,1,1*
G04 #@! TO.N,Net-(R107-Pad2)*
X136000000Y-85250000D03*
G04 #@! TD*
G04 #@! TO.P,U102,1,1*
G04 #@! TO.N,+3V3*
X121000000Y-107000000D03*
G04 #@! TD*
G04 #@! TO.P,U107,1,1*
G04 #@! TO.N,/ESC1/VS1*
X136000000Y-84000000D03*
G04 #@! TD*
G04 #@! TO.P,U104,1,1*
G04 #@! TO.N,VDD*
X127250000Y-80750000D03*
G04 #@! TD*
G04 #@! TO.P,U21,1,1*
G04 #@! TO.N,GND*
X120000000Y-85250000D03*
G04 #@! TD*
G04 #@! TO.P,U4,1,1*
G04 #@! TO.N,/ESC1/PWM*
X134000000Y-107000000D03*
G04 #@! TD*
G04 #@! TO.P,U120,1,1*
G04 #@! TO.N,/ESC1/TELEMETRY_RX*
X136000000Y-99250000D03*
G04 #@! TD*
G04 #@! TO.P,U109,1,1*
G04 #@! TO.N,/ESC1/VS3*
X136000000Y-94000000D03*
G04 #@! TD*
G04 #@! TO.P,U303,1,1*
G04 #@! TO.N,/ESC1/SWCLK*
X136000000Y-101750000D03*
G04 #@! TD*
G04 #@! TO.P,U112,1,1*
G04 #@! TO.N,/ESC/NRST*
X120000000Y-100500000D03*
G04 #@! TD*
G04 #@! TO.P,U6,1,1*
G04 #@! TO.N,Net-(R101-Pad2)*
X120000000Y-94000000D03*
G04 #@! TD*
D12*
G04 #@! TO.N,GND*
X131750000Y-88750000D03*
X131750000Y-89500000D03*
X131750000Y-90250000D03*
X124500000Y-88250000D03*
X124500000Y-87500000D03*
X124500000Y-86750000D03*
X125000000Y-86750000D03*
X125000000Y-87500000D03*
X125000000Y-88250000D03*
X126500000Y-88250000D03*
X125500000Y-88250000D03*
X126000000Y-88250000D03*
X126500000Y-87500000D03*
X126000000Y-87500000D03*
X126500000Y-86750000D03*
X126000000Y-86750000D03*
X121500000Y-103250000D03*
X128500000Y-106250000D03*
X126500000Y-106500000D03*
X129250000Y-106250000D03*
X130750000Y-100750000D03*
X131500000Y-98750000D03*
X128580123Y-102397267D03*
X132250000Y-99750000D03*
D13*
X127500000Y-85925000D03*
D12*
X130750000Y-106250000D03*
X124250000Y-106500000D03*
X123750000Y-98750000D03*
D13*
X129278600Y-93000000D03*
D12*
X132250000Y-100750000D03*
X125250000Y-100750000D03*
X130750000Y-88750000D03*
X131250000Y-90250000D03*
X131500000Y-100750000D03*
X130750000Y-98750000D03*
X129547673Y-96952945D03*
X123750000Y-100750000D03*
X124000000Y-94500000D03*
X125250000Y-99750000D03*
X126250000Y-103000000D03*
X124500000Y-100750000D03*
X130750000Y-90250000D03*
X125500000Y-86750000D03*
X131250000Y-88750000D03*
X120500000Y-106000000D03*
X133000000Y-99750000D03*
X123000000Y-100750000D03*
X129906995Y-94980566D03*
X131250000Y-89500000D03*
X131500000Y-99750000D03*
X135000000Y-106250000D03*
X121000000Y-105750000D03*
X123000000Y-99750000D03*
X124500000Y-99750000D03*
X125500000Y-87500000D03*
X131500000Y-106250000D03*
X130000000Y-105750000D03*
X123750000Y-99750000D03*
X125000000Y-106500000D03*
X124500000Y-98750000D03*
X123500000Y-95000000D03*
X135000000Y-105750000D03*
X132250000Y-98750000D03*
X123000000Y-98750000D03*
X130750000Y-99750000D03*
X133000000Y-100750000D03*
X123500000Y-96500000D03*
X130750000Y-89500000D03*
X126500000Y-105500000D03*
X122750000Y-106500000D03*
X135500000Y-96750000D03*
X125250000Y-98750000D03*
X130000000Y-106250000D03*
X131500000Y-105750000D03*
X130750000Y-105750000D03*
X129250000Y-105750000D03*
X125750000Y-106500000D03*
X133500000Y-95500000D03*
X123500000Y-106500000D03*
X128500000Y-105750000D03*
X133000000Y-98750000D03*
G04 #@! TO.N,+3V3*
X134500000Y-97500000D03*
X124141995Y-103219873D03*
X126250000Y-97250000D03*
X129250000Y-102750000D03*
X122250000Y-104000000D03*
G04 #@! TO.N,/ESC/VS1*
X127485027Y-100139912D03*
X123000000Y-96250000D03*
G04 #@! TO.N,/ESC/VS2*
X127500000Y-105625000D03*
G04 #@! TO.N,/ESC/VS3*
X124500000Y-105500000D03*
D13*
G04 #@! TO.N,/ESC1/VS1*
X133500462Y-85750462D03*
D12*
X133000000Y-87500000D03*
X128250000Y-99250000D03*
G04 #@! TO.N,/ESC1/VS2*
X129352387Y-93750000D03*
D13*
G04 #@! TO.N,/ESC1/VS3*
X133491320Y-94365123D03*
X134352400Y-91006523D03*
G04 #@! TO.N,Vdrive*
X129487600Y-85750000D03*
D12*
X134750000Y-84500000D03*
D13*
X122250000Y-90675000D03*
X124000000Y-93750000D03*
X135000000Y-96250000D03*
X123000000Y-82175000D03*
D12*
G04 #@! TO.N,/ESC/COMP*
X125391995Y-103219873D03*
X125500000Y-105500000D03*
G04 #@! TO.N,/ESC1/BOOT0*
X134750000Y-103250000D03*
X134986995Y-98564873D03*
D13*
G04 #@! TO.N,/ESC/HO2*
X122028600Y-86000000D03*
X122471155Y-87850001D03*
G04 #@! TO.N,/ESC/HO3*
X123503663Y-85287256D03*
X122738680Y-81469436D03*
G04 #@! TO.N,/ESC1/HO2*
X133893181Y-88991138D03*
X134230278Y-90234123D03*
D12*
G04 #@! TO.N,/ESC/GATE_CH*
X126125000Y-91875000D03*
X125296995Y-96719873D03*
G04 #@! TO.N,/ESC/GATE_AH*
X125500000Y-90750000D03*
X124257184Y-96616911D03*
G04 #@! TO.N,/ESC/GATE_AL*
X127141995Y-98599870D03*
X126250000Y-92500000D03*
G04 #@! TO.N,/ESC/GATE_BH*
X126000000Y-91000000D03*
X124771992Y-96719873D03*
G04 #@! TO.N,/ESC/GATE_BL*
X128103558Y-88455413D03*
X127141995Y-99124873D03*
G04 #@! TO.N,/ESC/GATE_CL*
X127191084Y-99704912D03*
X128250000Y-87875000D03*
G04 #@! TO.N,/ESC/NRST*
X122641995Y-103219873D03*
G04 #@! TO.N,VDD*
X128000000Y-90500000D03*
G04 #@! TO.N,/ESC1/NRST*
X133500000Y-96469873D03*
G04 #@! TO.N,/ESC1/GATE_AL*
X128717995Y-87477531D03*
X128500000Y-101750000D03*
G04 #@! TO.N,/ESC1/GATE_AH*
X132250000Y-103250000D03*
X130780186Y-86774008D03*
G04 #@! TO.N,/ESC1/SWDIO*
X133355527Y-103035534D03*
G04 #@! TO.N,/ESC1/GATE_BH*
X130267442Y-86661220D03*
X131166998Y-102969873D03*
G04 #@! TO.N,/ESC1/GATE_BL*
X128500000Y-100750000D03*
X127666166Y-89440004D03*
G04 #@! TO.N,/ESC1/GATE_CH*
X129750000Y-86750000D03*
X130250000Y-103140447D03*
G04 #@! TO.N,/ESC1/SWCLK*
X133891995Y-102969873D03*
G04 #@! TO.N,/ESC1/GATE_CL*
X127554896Y-89953080D03*
X128927200Y-100029668D03*
G04 #@! TO.N,Net-(U203-PA2)*
X132750000Y-103500000D03*
X126391995Y-102469873D03*
G04 #@! TO.N,Net-(U305-PA2)*
X129750000Y-97500000D03*
X134250000Y-103500000D03*
D13*
G04 #@! TO.N,Net-(R101-Pad2)*
X124750000Y-82750000D03*
G04 #@! TO.N,Net-(R103-Pad2)*
X123500000Y-92000000D03*
G04 #@! TO.N,Net-(R104-Pad2)*
X125698341Y-82774468D03*
G04 #@! TO.N,Net-(R106-Pad2)*
X126378328Y-82452400D03*
G04 #@! TO.N,Net-(R108-Pad2)*
X132240800Y-93749493D03*
G04 #@! TO.N,Net-(R110-Pad2)*
X131221088Y-93628320D03*
G04 #@! TO.N,Net-(R112-Pad2)*
X130221339Y-93630016D03*
D12*
G04 #@! TO.N,/ESC/TELEMETRY_TX*
X120750000Y-100000000D03*
G04 #@! TO.N,/ESC/TELEMETRY_RX*
X120750000Y-101000000D03*
G04 #@! TD*
D14*
G04 #@! TO.N,GND*
X130750000Y-91528600D02*
X129278600Y-93000000D01*
X130750000Y-90250000D02*
X130750000Y-91528600D01*
X126675000Y-86750000D02*
X127500000Y-85925000D01*
X126500000Y-86750000D02*
X126675000Y-86750000D01*
D15*
G04 #@! TO.N,Net-(R108-Pad2)*
X132897062Y-86000399D02*
X132897062Y-85501938D01*
X133198332Y-86301668D02*
X132897062Y-86000399D01*
X133608796Y-86712133D02*
X133198332Y-86301668D01*
X132836382Y-89600001D02*
X132836382Y-88522414D01*
X132986381Y-89750000D02*
X132836382Y-89600001D01*
X132897062Y-85501938D02*
X135649000Y-82750000D01*
X132836382Y-88522414D02*
X133608796Y-87750000D01*
X132986381Y-92750000D02*
X132986381Y-89750000D01*
X132240800Y-93495581D02*
X132986381Y-92750000D01*
X132240800Y-93749493D02*
X132240800Y-93495581D01*
X133608796Y-87750000D02*
X133608796Y-86712133D01*
G04 #@! TO.N,Net-(R110-Pad2)*
X131221088Y-93971088D02*
X131221088Y-93628320D01*
X131848979Y-94598979D02*
X131221088Y-93971088D01*
X132489027Y-94598979D02*
X131848979Y-94598979D01*
X132923200Y-94164806D02*
X132489027Y-94598979D01*
X132923200Y-93456362D02*
X132923200Y-94164806D01*
X133439781Y-89500000D02*
X133439781Y-92939781D01*
X133289781Y-89350000D02*
X133439781Y-89500000D01*
X133289781Y-88710219D02*
X133289781Y-89350000D01*
X134250000Y-87750000D02*
X133289781Y-88710219D01*
X133439781Y-92939781D02*
X132923200Y-93456362D01*
X135649000Y-87750000D02*
X134250000Y-87750000D01*
G04 #@! TO.N,Net-(R101-Pad2)*
X124250000Y-92250000D02*
X122500000Y-94000000D01*
X124250000Y-91500000D02*
X124250000Y-92250000D01*
X123250000Y-90500000D02*
X124250000Y-91500000D01*
X123250000Y-89250000D02*
X123250000Y-90500000D01*
X122500000Y-94000000D02*
X121528337Y-94000000D01*
X123953400Y-88546600D02*
X123250000Y-89250000D01*
X123953400Y-86437804D02*
X123953400Y-88546600D01*
X124599999Y-85791205D02*
X123953400Y-86437804D01*
X124600000Y-82900000D02*
X124599999Y-85791205D01*
X124750000Y-82750000D02*
X124600000Y-82900000D01*
G04 #@! TO.N,Net-(R104-Pad2)*
X124146600Y-82500063D02*
X124500063Y-82146600D01*
X125070473Y-82146600D02*
X125698341Y-82774468D01*
X123500000Y-86250000D02*
X124146600Y-85603400D01*
X123500000Y-88175000D02*
X123500000Y-86250000D01*
X122675000Y-89000000D02*
X123500000Y-88175000D01*
X120000000Y-89000000D02*
X122675000Y-89000000D01*
X124146600Y-85603400D02*
X124146600Y-82500063D01*
X124500063Y-82146600D02*
X125070473Y-82146600D01*
G04 #@! TO.N,/ESC/HO3*
X122396600Y-81811516D02*
X122738680Y-81469436D01*
X122396600Y-84896600D02*
X122396600Y-81811516D01*
X123503663Y-85287256D02*
X122787256Y-85287256D01*
X122787256Y-85287256D02*
X122396600Y-84896600D01*
G04 #@! TO.N,/ESC1/VS1*
X133500462Y-85750462D02*
X134249538Y-85750462D01*
X135649000Y-84351000D02*
X135649000Y-84000000D01*
X134249538Y-85750462D02*
X135649000Y-84351000D01*
D14*
G04 #@! TO.N,/ESC1/VS2*
X135000000Y-93605411D02*
X135000000Y-90000000D01*
X130509161Y-94978579D02*
X133626832Y-94978579D01*
X129352387Y-93821805D02*
X130509161Y-94978579D01*
X133626832Y-94978579D02*
X135000000Y-93605411D01*
X129352387Y-93750000D02*
X129352387Y-93821805D01*
X135000000Y-90000000D02*
X135722800Y-89277200D01*
D15*
G04 #@! TO.N,/ESC1/VS3*
X133578027Y-94365123D02*
X133491320Y-94365123D01*
X134000000Y-92250000D02*
X134000000Y-93943150D01*
X134000000Y-93943150D02*
X133578027Y-94365123D01*
X134352400Y-91006523D02*
X134453400Y-91107523D01*
X134453400Y-91107523D02*
X134453400Y-91796600D01*
X134453400Y-91796600D02*
X134000000Y-92250000D01*
D14*
G04 #@! TO.N,/ESC/COMP*
X125500000Y-105500000D02*
X125500000Y-103327878D01*
X125500000Y-103327878D02*
X125391995Y-103219873D01*
D15*
G04 #@! TO.N,/ESC/HO2*
X122028600Y-87407446D02*
X122471155Y-87850001D01*
X122028600Y-86000000D02*
X122028600Y-87407446D01*
G04 #@! TO.N,/ESC1/HO2*
X133893181Y-89897026D02*
X134230278Y-90234123D01*
X133893181Y-88991138D02*
X133893181Y-89897026D01*
D14*
G04 #@! TO.N,/ESC/NRST*
X121250000Y-100500000D02*
X120277200Y-100500000D01*
X122287842Y-103219873D02*
X121658984Y-102591016D01*
X121658984Y-100908984D02*
X121250000Y-100500000D01*
X122641995Y-103219873D02*
X122287842Y-103219873D01*
X121658984Y-102591016D02*
X121658984Y-100908984D01*
G04 #@! TO.N,/ESC1/NRST*
X134469873Y-96469873D02*
X135722800Y-97722800D01*
X133500000Y-96469873D02*
X134469873Y-96469873D01*
G04 #@! TO.N,/ESC1/GATE_AL*
X126750000Y-89466125D02*
X127079600Y-89136525D01*
X127250000Y-95017000D02*
X127250000Y-97750000D01*
X128717995Y-87477531D02*
X128563264Y-87322800D01*
X126750000Y-89466125D02*
X126750000Y-94517000D01*
X127750000Y-101750000D02*
X128500000Y-101750000D01*
X126714795Y-98285205D02*
X126714795Y-100714795D01*
X128563264Y-87322800D02*
X128073047Y-87322800D01*
X126714795Y-100714795D02*
X127750000Y-101750000D01*
X127079600Y-88316247D02*
X127079600Y-89136525D01*
X128073047Y-87322800D02*
X127079600Y-88316247D01*
X127250000Y-97750000D02*
X126714795Y-98285205D01*
X126750000Y-94517000D02*
X127250000Y-95017000D01*
G04 #@! TO.N,/ESC1/GATE_AH*
X129000000Y-97385068D02*
X129000000Y-94604666D01*
X130250000Y-90361600D02*
X130250000Y-88175296D01*
X130611600Y-87813696D02*
X130611600Y-86921215D01*
X130758807Y-86774008D02*
X130780186Y-86774008D01*
X129000000Y-94604666D02*
X128611600Y-94216266D01*
X130055800Y-98440868D02*
X129000000Y-97385068D01*
X130611600Y-86921215D02*
X130758807Y-86774008D01*
X130250000Y-88175296D02*
X130611600Y-87813696D01*
X128611600Y-94216266D02*
X128611600Y-92000000D01*
X132250000Y-103250000D02*
X130055800Y-101055800D01*
X128611600Y-92000000D02*
X130250000Y-90361600D01*
X130055800Y-101055800D02*
X130055800Y-98440868D01*
G04 #@! TO.N,/ESC1/GATE_BH*
X130305800Y-86873334D02*
X130305800Y-87687030D01*
X129716233Y-100466233D02*
X129750000Y-100500000D01*
X130267442Y-86834975D02*
X130305800Y-86873334D01*
X130305800Y-87687030D02*
X129944200Y-88048630D01*
X130267442Y-86661220D02*
X130267442Y-86834975D01*
X129750000Y-101552875D02*
X131166998Y-102969873D01*
X128305800Y-94342933D02*
X128694200Y-94731333D01*
X129716233Y-98533767D02*
X129716233Y-100466233D01*
X128694200Y-94731333D02*
X128694200Y-97511735D01*
X129750000Y-100500000D02*
X129750000Y-101552875D01*
X128305800Y-91873335D02*
X128305800Y-94342933D01*
X129944200Y-90234934D02*
X128305800Y-91873335D01*
X128694200Y-97511735D02*
X129716233Y-98533767D01*
X129944200Y-88048630D02*
X129944200Y-90234934D01*
G04 #@! TO.N,/ESC1/GATE_BL*
X127201911Y-89701911D02*
X127463819Y-89440004D01*
X127555800Y-98250000D02*
X127694200Y-98388400D01*
X128500000Y-100277031D02*
X128500000Y-100750000D01*
X127055800Y-89848023D02*
X127055800Y-94390334D01*
X127201911Y-89701911D02*
X127055800Y-89848023D01*
X127463819Y-89440004D02*
X127666166Y-89440004D01*
X127555800Y-94890333D02*
X127555800Y-98250000D01*
X127694200Y-98388400D02*
X127694200Y-99471231D01*
X127055800Y-94390334D02*
X127555800Y-94890333D01*
X127694200Y-99471231D02*
X128500000Y-100277031D01*
X127127696Y-89776127D02*
X127201911Y-89701911D01*
G04 #@! TO.N,/ESC1/GATE_CH*
X130000000Y-87560364D02*
X129638400Y-87921964D01*
X129404155Y-98654156D02*
X129404155Y-102294602D01*
X128388400Y-94857999D02*
X128388400Y-97638401D01*
X129404155Y-102294602D02*
X130250000Y-103140447D01*
X128388400Y-97638401D02*
X129404155Y-98654156D01*
X128000000Y-91746669D02*
X128000000Y-94469600D01*
X128000000Y-94469600D02*
X128388400Y-94857999D01*
X129638400Y-87921964D02*
X129638400Y-90108268D01*
X129638400Y-90108268D02*
X128000000Y-91746669D01*
X130000000Y-87000000D02*
X130000000Y-87560364D01*
X129750000Y-86750000D02*
X130000000Y-87000000D01*
G04 #@! TO.N,/ESC1/SWCLK*
X133891995Y-102969873D02*
X133822800Y-103039068D01*
G04 #@! TO.N,/ESC1/GATE_CL*
X127546920Y-89953080D02*
X127361600Y-90138400D01*
X127861600Y-97977320D02*
X128927200Y-99042920D01*
X127554896Y-89953080D02*
X127546920Y-89953080D01*
X128927200Y-99042920D02*
X128927200Y-100029668D01*
X127361600Y-90138400D02*
X127361600Y-94263668D01*
X127861600Y-94763666D02*
X127861600Y-97977320D01*
X127361600Y-94263668D02*
X127861600Y-94763666D01*
G04 #@! TO.N,Net-(U203-PA2)*
X132750000Y-103500000D02*
X132250000Y-104000000D01*
X132250000Y-104000000D02*
X127922122Y-104000000D01*
X127922122Y-104000000D02*
X126391995Y-102469873D01*
D15*
G04 #@! TO.N,Net-(R101-Pad2)*
X121528337Y-94075000D02*
X120000000Y-94075000D01*
G04 #@! TO.N,Net-(R103-Pad2)*
X123000000Y-91500000D02*
X120351000Y-91500000D01*
X123500000Y-92000000D02*
X123000000Y-91500000D01*
G04 #@! TD*
G04 #@! TA.AperFunction,Conductor*
G04 #@! TO.N,VDD*
G36*
X129374447Y-80968093D02*
G01*
X129395584Y-80996921D01*
X129421408Y-81059264D01*
X129421409Y-81059265D01*
X129421409Y-81059266D01*
X129487326Y-81157917D01*
X129500000Y-81199696D01*
X129500000Y-81674800D01*
X129482407Y-81723138D01*
X129437858Y-81748858D01*
X129424800Y-81750000D01*
X129250000Y-81750000D01*
X129250000Y-85320798D01*
X129232407Y-85369136D01*
X129212403Y-85385921D01*
X129209515Y-85387588D01*
X129125188Y-85471914D01*
X129065564Y-85575185D01*
X129065564Y-85575186D01*
X129065564Y-85575187D01*
X129034700Y-85690375D01*
X129034700Y-85809625D01*
X129065564Y-85924813D01*
X129065564Y-85924814D01*
X129125189Y-86028087D01*
X129209512Y-86112410D01*
X129265000Y-86144446D01*
X129312787Y-86172036D01*
X129427975Y-86202900D01*
X129427978Y-86202900D01*
X129547222Y-86202900D01*
X129547225Y-86202900D01*
X129655339Y-86173931D01*
X129658763Y-86174230D01*
X129661742Y-86172511D01*
X129684035Y-86176442D01*
X129706581Y-86178415D01*
X129709012Y-86180846D01*
X129712400Y-86181444D01*
X129726950Y-86198784D01*
X129742954Y-86214788D01*
X129743878Y-86218958D01*
X129745465Y-86220849D01*
X129750000Y-86246569D01*
X129750000Y-86329433D01*
X129732407Y-86377771D01*
X129694264Y-86402070D01*
X129659432Y-86411403D01*
X129614713Y-86423385D01*
X129534783Y-86469534D01*
X129469534Y-86534783D01*
X129423385Y-86614713D01*
X129409594Y-86666180D01*
X129399500Y-86703856D01*
X129399500Y-86796144D01*
X129423386Y-86885288D01*
X129469531Y-86965212D01*
X129469532Y-86965213D01*
X129469534Y-86965216D01*
X129534783Y-87030465D01*
X129534785Y-87030466D01*
X129534788Y-87030469D01*
X129614712Y-87076614D01*
X129694265Y-87097930D01*
X129736400Y-87127432D01*
X129750000Y-87170566D01*
X129750000Y-87455218D01*
X129732407Y-87503556D01*
X129727974Y-87508392D01*
X129444178Y-87792187D01*
X129444177Y-87792188D01*
X129427758Y-87831830D01*
X129409300Y-87876392D01*
X129409300Y-89982223D01*
X129391707Y-90030561D01*
X129387274Y-90035397D01*
X128694697Y-90727974D01*
X128648077Y-90749714D01*
X128641523Y-90750000D01*
X127665900Y-90750000D01*
X127617562Y-90732407D01*
X127591842Y-90687858D01*
X127590700Y-90674800D01*
X127590700Y-90364053D01*
X127608293Y-90315715D01*
X127646436Y-90291416D01*
X127690184Y-90279694D01*
X127770108Y-90233549D01*
X127835365Y-90168292D01*
X127881510Y-90088368D01*
X127905396Y-89999224D01*
X127905396Y-89906936D01*
X127881510Y-89817792D01*
X127874692Y-89805984D01*
X127865758Y-89755328D01*
X127886640Y-89715210D01*
X127946635Y-89655216D01*
X127992780Y-89575292D01*
X128016666Y-89486148D01*
X128016666Y-89393860D01*
X127992780Y-89304716D01*
X127946635Y-89224792D01*
X127946632Y-89224789D01*
X127946631Y-89224787D01*
X127881382Y-89159538D01*
X127881379Y-89159536D01*
X127881378Y-89159535D01*
X127801454Y-89113390D01*
X127801453Y-89113389D01*
X127801452Y-89113389D01*
X127768822Y-89104646D01*
X127712310Y-89089504D01*
X127620022Y-89089504D01*
X127573368Y-89102004D01*
X127530879Y-89113389D01*
X127450951Y-89159537D01*
X127437073Y-89173415D01*
X127390452Y-89195153D01*
X127340765Y-89181838D01*
X127311262Y-89139700D01*
X127308700Y-89120239D01*
X127308700Y-88442291D01*
X127326293Y-88393953D01*
X127330715Y-88389128D01*
X127786099Y-87933743D01*
X127793517Y-87930284D01*
X127798461Y-87923756D01*
X127816213Y-87919700D01*
X127832717Y-87912005D01*
X127840626Y-87914124D01*
X127848609Y-87912301D01*
X127864814Y-87920605D01*
X127882404Y-87925319D01*
X127888332Y-87932657D01*
X127894388Y-87935761D01*
X127902077Y-87949671D01*
X127908561Y-87957697D01*
X127910572Y-87962465D01*
X127923386Y-88010288D01*
X127950667Y-88057540D01*
X127952489Y-88061859D01*
X127953555Y-88083145D01*
X127957257Y-88104139D01*
X127954818Y-88108363D01*
X127955062Y-88113235D01*
X127942194Y-88130228D01*
X127931537Y-88148687D01*
X127924469Y-88153636D01*
X127924009Y-88154244D01*
X127923404Y-88154382D01*
X127920801Y-88156205D01*
X127888343Y-88174945D01*
X127888343Y-88174946D01*
X127823092Y-88240196D01*
X127776943Y-88320126D01*
X127763152Y-88371593D01*
X127753058Y-88409269D01*
X127753058Y-88501557D01*
X127776944Y-88590701D01*
X127823089Y-88670625D01*
X127823090Y-88670626D01*
X127823092Y-88670629D01*
X127888341Y-88735878D01*
X127888343Y-88735879D01*
X127888346Y-88735882D01*
X127968270Y-88782027D01*
X128057414Y-88805913D01*
X128057417Y-88805913D01*
X128149699Y-88805913D01*
X128149702Y-88805913D01*
X128238846Y-88782027D01*
X128318770Y-88735882D01*
X128384027Y-88670625D01*
X128430172Y-88590701D01*
X128454058Y-88501557D01*
X128454058Y-88409269D01*
X128430172Y-88320125D01*
X128405232Y-88276929D01*
X128396300Y-88226274D01*
X128422020Y-88181725D01*
X128432752Y-88174209D01*
X128465212Y-88155469D01*
X128530469Y-88090212D01*
X128576614Y-88010288D01*
X128600500Y-87921144D01*
X128600500Y-87903231D01*
X128618093Y-87854893D01*
X128662642Y-87829173D01*
X128675700Y-87828031D01*
X128764136Y-87828031D01*
X128764139Y-87828031D01*
X128853283Y-87804145D01*
X128933207Y-87758000D01*
X128998464Y-87692743D01*
X129044609Y-87612819D01*
X129068495Y-87523675D01*
X129068495Y-87431387D01*
X129044609Y-87342243D01*
X128998464Y-87262319D01*
X128998461Y-87262316D01*
X128998460Y-87262314D01*
X128933211Y-87197065D01*
X128933208Y-87197063D01*
X128933207Y-87197062D01*
X128853283Y-87150917D01*
X128853282Y-87150916D01*
X128853281Y-87150916D01*
X128820651Y-87142173D01*
X128764139Y-87127031D01*
X128764136Y-87127031D01*
X128704262Y-87127031D01*
X128702111Y-87126603D01*
X128700983Y-87126959D01*
X128675485Y-87121307D01*
X128625251Y-87100500D01*
X128625249Y-87100499D01*
X128608836Y-87093700D01*
X128608835Y-87093700D01*
X128027476Y-87093700D01*
X128027475Y-87093700D01*
X128011062Y-87100499D01*
X128011060Y-87100500D01*
X127943270Y-87128578D01*
X127378374Y-87693475D01*
X127331754Y-87715215D01*
X127282067Y-87701901D01*
X127252562Y-87659764D01*
X127250000Y-87640301D01*
X127250000Y-86530145D01*
X127255615Y-86514717D01*
X127257046Y-86498364D01*
X127266460Y-86484919D01*
X127267593Y-86481807D01*
X127272026Y-86476971D01*
X127319071Y-86429926D01*
X127365691Y-86408186D01*
X127372245Y-86407900D01*
X127749997Y-86407900D01*
X127750000Y-86407900D01*
X127828950Y-86386745D01*
X127886745Y-86328950D01*
X127907900Y-86250000D01*
X127907900Y-86144446D01*
X127917976Y-86106843D01*
X127922036Y-86099813D01*
X127952900Y-85984625D01*
X127952900Y-85865375D01*
X127922036Y-85750187D01*
X127917973Y-85743151D01*
X127907900Y-85705553D01*
X127907900Y-85500002D01*
X127907900Y-85500000D01*
X127886745Y-85421050D01*
X127886743Y-85421048D01*
X127886742Y-85421046D01*
X127828953Y-85363257D01*
X127828951Y-85363256D01*
X127828950Y-85363255D01*
X127750000Y-85342100D01*
X127749997Y-85342100D01*
X127325200Y-85342100D01*
X127276862Y-85324507D01*
X127251142Y-85279958D01*
X127250000Y-85266900D01*
X127250000Y-81750000D01*
X126825200Y-81750000D01*
X126776862Y-81732407D01*
X126751142Y-81687858D01*
X126750000Y-81674800D01*
X126750000Y-81025700D01*
X126767593Y-80977362D01*
X126812142Y-80951642D01*
X126825200Y-80950500D01*
X129326109Y-80950500D01*
X129374447Y-80968093D01*
G37*
G04 #@! TD.AperFunction*
G04 #@! TD*
G04 #@! TA.AperFunction,Conductor*
G04 #@! TO.N,GND*
G36*
X126494038Y-94267593D02*
G01*
X126519758Y-94312142D01*
X126520900Y-94325200D01*
X126520900Y-94562571D01*
X126527536Y-94578592D01*
X126555778Y-94646775D01*
X126998874Y-95089870D01*
X127020614Y-95136490D01*
X127020900Y-95143044D01*
X127020900Y-97623954D01*
X127003307Y-97672292D01*
X126998874Y-97677128D01*
X126520573Y-98155428D01*
X126504523Y-98194178D01*
X126485695Y-98239632D01*
X126485695Y-100760365D01*
X126520573Y-100844571D01*
X127620223Y-101944221D01*
X127620225Y-101944222D01*
X127670899Y-101965211D01*
X127670900Y-101965212D01*
X127684788Y-101970964D01*
X127704429Y-101979100D01*
X127704430Y-101979100D01*
X127795570Y-101979100D01*
X128202271Y-101979100D01*
X128250609Y-101996693D01*
X128255434Y-102001115D01*
X128284788Y-102030469D01*
X128364712Y-102076614D01*
X128453856Y-102100500D01*
X128453859Y-102100500D01*
X128546141Y-102100500D01*
X128546144Y-102100500D01*
X128635288Y-102076614D01*
X128715212Y-102030469D01*
X128780469Y-101965212D01*
X128826614Y-101885288D01*
X128850500Y-101796144D01*
X128850500Y-101703856D01*
X128826614Y-101614712D01*
X128780469Y-101534788D01*
X128780466Y-101534785D01*
X128780465Y-101534783D01*
X128715216Y-101469534D01*
X128715213Y-101469532D01*
X128715212Y-101469531D01*
X128635288Y-101423386D01*
X128635287Y-101423385D01*
X128635286Y-101423385D01*
X128602656Y-101414642D01*
X128546144Y-101399500D01*
X128453856Y-101399500D01*
X128407202Y-101412000D01*
X128364713Y-101423385D01*
X128284786Y-101469532D01*
X128270116Y-101484203D01*
X128255444Y-101498874D01*
X128208826Y-101520614D01*
X128202271Y-101520900D01*
X127876045Y-101520900D01*
X127827707Y-101503307D01*
X127822871Y-101498874D01*
X126965921Y-100641924D01*
X126944181Y-100595304D01*
X126943895Y-100588750D01*
X126943895Y-100097169D01*
X126961488Y-100048831D01*
X127006037Y-100023111D01*
X127042468Y-100025693D01*
X127049905Y-100028125D01*
X127055796Y-100031526D01*
X127080767Y-100038217D01*
X127082700Y-100038849D01*
X127101433Y-100053542D01*
X127120927Y-100067192D01*
X127121613Y-100069370D01*
X127123175Y-100070595D01*
X127125537Y-100081815D01*
X127134527Y-100110325D01*
X127134527Y-100186056D01*
X127149669Y-100242568D01*
X127157260Y-100270900D01*
X127158413Y-100275200D01*
X127204558Y-100355124D01*
X127204559Y-100355125D01*
X127204561Y-100355128D01*
X127269810Y-100420377D01*
X127269812Y-100420378D01*
X127269815Y-100420381D01*
X127349739Y-100466526D01*
X127438883Y-100490412D01*
X127438886Y-100490412D01*
X127531168Y-100490412D01*
X127531171Y-100490412D01*
X127620315Y-100466526D01*
X127700239Y-100420381D01*
X127765496Y-100355124D01*
X127811641Y-100275200D01*
X127835527Y-100186056D01*
X127835527Y-100118103D01*
X127853120Y-100069765D01*
X127897669Y-100044045D01*
X127948327Y-100052978D01*
X127963901Y-100064929D01*
X128248874Y-100349902D01*
X128255811Y-100364778D01*
X128266365Y-100377356D01*
X128269215Y-100393523D01*
X128270614Y-100396522D01*
X128270900Y-100403076D01*
X128270900Y-100452270D01*
X128253307Y-100500608D01*
X128248874Y-100505444D01*
X128219534Y-100534783D01*
X128173385Y-100614713D01*
X128159594Y-100666180D01*
X128149500Y-100703856D01*
X128149500Y-100796144D01*
X128162476Y-100844570D01*
X128167524Y-100863413D01*
X128173386Y-100885288D01*
X128219531Y-100965212D01*
X128219532Y-100965213D01*
X128219534Y-100965216D01*
X128284783Y-101030465D01*
X128284785Y-101030466D01*
X128284788Y-101030469D01*
X128364712Y-101076614D01*
X128453856Y-101100500D01*
X128453859Y-101100500D01*
X128546141Y-101100500D01*
X128546144Y-101100500D01*
X128635288Y-101076614D01*
X128715212Y-101030469D01*
X128780469Y-100965212D01*
X128826614Y-100885288D01*
X128850500Y-100796144D01*
X128850500Y-100703856D01*
X128826614Y-100614712D01*
X128780469Y-100534788D01*
X128780466Y-100534785D01*
X128780465Y-100534783D01*
X128751126Y-100505444D01*
X128744188Y-100490567D01*
X128733635Y-100477990D01*
X128730784Y-100461822D01*
X128729386Y-100458824D01*
X128729100Y-100452270D01*
X128729100Y-100437453D01*
X128746693Y-100389115D01*
X128791242Y-100363395D01*
X128823760Y-100364815D01*
X128881056Y-100380168D01*
X128973341Y-100380168D01*
X128973344Y-100380168D01*
X129062488Y-100356282D01*
X129062496Y-100356277D01*
X129067040Y-100354396D01*
X129067494Y-100355493D01*
X129112908Y-100347483D01*
X129157458Y-100373199D01*
X129175055Y-100421536D01*
X129175055Y-102347579D01*
X129172001Y-102347579D01*
X129166146Y-102385592D01*
X129127468Y-102419505D01*
X129119691Y-102422051D01*
X129114716Y-102423384D01*
X129114714Y-102423385D01*
X129114712Y-102423385D01*
X129114712Y-102423386D01*
X129090220Y-102437527D01*
X129034783Y-102469534D01*
X128969534Y-102534783D01*
X128969531Y-102534787D01*
X128969531Y-102534788D01*
X128959785Y-102551668D01*
X128923385Y-102614713D01*
X128915737Y-102643258D01*
X128899500Y-102703856D01*
X128899500Y-102796144D01*
X128910706Y-102837966D01*
X128919121Y-102869373D01*
X128923386Y-102885288D01*
X128969531Y-102965212D01*
X128969532Y-102965213D01*
X128969534Y-102965216D01*
X129034783Y-103030465D01*
X129034785Y-103030466D01*
X129034788Y-103030469D01*
X129114712Y-103076614D01*
X129203856Y-103100500D01*
X129203859Y-103100500D01*
X129296141Y-103100500D01*
X129296144Y-103100500D01*
X129385288Y-103076614D01*
X129465212Y-103030469D01*
X129530469Y-102965212D01*
X129562105Y-102910416D01*
X129601508Y-102877354D01*
X129652948Y-102877354D01*
X129680402Y-102894845D01*
X129877474Y-103091917D01*
X129899214Y-103138537D01*
X129899500Y-103145091D01*
X129899500Y-103186591D01*
X129909389Y-103223496D01*
X129915978Y-103248090D01*
X129923386Y-103275735D01*
X129969531Y-103355659D01*
X129969532Y-103355660D01*
X129969534Y-103355663D01*
X130034783Y-103420912D01*
X130034785Y-103420913D01*
X130034788Y-103420916D01*
X130114712Y-103467061D01*
X130203856Y-103490947D01*
X130203859Y-103490947D01*
X130296141Y-103490947D01*
X130296144Y-103490947D01*
X130385288Y-103467061D01*
X130465212Y-103420916D01*
X130530469Y-103355659D01*
X130576614Y-103275735D01*
X130600500Y-103186591D01*
X130600500Y-103094303D01*
X130576614Y-103005159D01*
X130530469Y-102925235D01*
X130530466Y-102925232D01*
X130530465Y-102925230D01*
X130465216Y-102859981D01*
X130465213Y-102859979D01*
X130465212Y-102859978D01*
X130385288Y-102813833D01*
X130385287Y-102813832D01*
X130385286Y-102813832D01*
X130352656Y-102805089D01*
X130296144Y-102789947D01*
X130296141Y-102789947D01*
X130254644Y-102789947D01*
X130206306Y-102772354D01*
X130201470Y-102767921D01*
X129655281Y-102221731D01*
X129633541Y-102175111D01*
X129633255Y-102168557D01*
X129633255Y-101941674D01*
X129650848Y-101893336D01*
X129695397Y-101867616D01*
X129746055Y-101876549D01*
X129761629Y-101888500D01*
X130794472Y-102921343D01*
X130816212Y-102967963D01*
X130816498Y-102974517D01*
X130816498Y-103016017D01*
X130829437Y-103064305D01*
X130838481Y-103098061D01*
X130840384Y-103105161D01*
X130886529Y-103185085D01*
X130886530Y-103185086D01*
X130886532Y-103185089D01*
X130951781Y-103250338D01*
X130951783Y-103250339D01*
X130951786Y-103250342D01*
X131031710Y-103296487D01*
X131120854Y-103320373D01*
X131120857Y-103320373D01*
X131213139Y-103320373D01*
X131213142Y-103320373D01*
X131302286Y-103296487D01*
X131382210Y-103250342D01*
X131447467Y-103185085D01*
X131493612Y-103105161D01*
X131517498Y-103016017D01*
X131517498Y-103016013D01*
X131517499Y-103016010D01*
X131517898Y-103012981D01*
X131518748Y-103011347D01*
X131518773Y-103011256D01*
X131518793Y-103011261D01*
X131541651Y-102967354D01*
X131589176Y-102947670D01*
X131638234Y-102963139D01*
X131645628Y-102969624D01*
X131877474Y-103201470D01*
X131899214Y-103248090D01*
X131899500Y-103254644D01*
X131899500Y-103296144D01*
X131912403Y-103344299D01*
X131915313Y-103355161D01*
X131923386Y-103385288D01*
X131969531Y-103465212D01*
X131969532Y-103465213D01*
X131969534Y-103465216D01*
X132034783Y-103530465D01*
X132034785Y-103530466D01*
X132034788Y-103530469D01*
X132114712Y-103576614D01*
X132173984Y-103592495D01*
X132184844Y-103600100D01*
X132197652Y-103603532D01*
X132205257Y-103614394D01*
X132216120Y-103622000D01*
X132219552Y-103634808D01*
X132227157Y-103645669D01*
X132226001Y-103658877D01*
X132229434Y-103671687D01*
X132223830Y-103683704D01*
X132222675Y-103696913D01*
X132207695Y-103718307D01*
X132177129Y-103748874D01*
X132130509Y-103770614D01*
X132123954Y-103770900D01*
X128048166Y-103770900D01*
X127999828Y-103753307D01*
X127994992Y-103748874D01*
X126764521Y-102518402D01*
X126742781Y-102471782D01*
X126742495Y-102465228D01*
X126742495Y-102423731D01*
X126742495Y-102423729D01*
X126718609Y-102334585D01*
X126672464Y-102254661D01*
X126672461Y-102254658D01*
X126672460Y-102254656D01*
X126607211Y-102189407D01*
X126607208Y-102189405D01*
X126607207Y-102189404D01*
X126527283Y-102143259D01*
X126527282Y-102143258D01*
X126527281Y-102143258D01*
X126494651Y-102134515D01*
X126438139Y-102119373D01*
X126345851Y-102119373D01*
X126299197Y-102131873D01*
X126256708Y-102143258D01*
X126176778Y-102189407D01*
X126111529Y-102254656D01*
X126111526Y-102254660D01*
X126111526Y-102254661D01*
X126110095Y-102257140D01*
X126065380Y-102334586D01*
X126051714Y-102385592D01*
X126041495Y-102423729D01*
X126041495Y-102516017D01*
X126056637Y-102572529D01*
X126059657Y-102583801D01*
X126065381Y-102605161D01*
X126111526Y-102685085D01*
X126111527Y-102685086D01*
X126111529Y-102685089D01*
X126176778Y-102750338D01*
X126176780Y-102750339D01*
X126176783Y-102750342D01*
X126256707Y-102796487D01*
X126345851Y-102820373D01*
X126387350Y-102820373D01*
X126435688Y-102837966D01*
X126440524Y-102842399D01*
X127727901Y-104129775D01*
X127792347Y-104194221D01*
X127876551Y-104229100D01*
X127876552Y-104229100D01*
X132295570Y-104229100D01*
X132295571Y-104229100D01*
X132329099Y-104215212D01*
X132379775Y-104194222D01*
X132701470Y-103872525D01*
X132748091Y-103850786D01*
X132754645Y-103850500D01*
X132796141Y-103850500D01*
X132796144Y-103850500D01*
X132885288Y-103826614D01*
X132965212Y-103780469D01*
X133030469Y-103715212D01*
X133076614Y-103635288D01*
X133100500Y-103546144D01*
X133100500Y-103453856D01*
X133096503Y-103438939D01*
X133100987Y-103387698D01*
X133137360Y-103351325D01*
X133188604Y-103346841D01*
X133206737Y-103354352D01*
X133220239Y-103362148D01*
X133309383Y-103386034D01*
X133309386Y-103386034D01*
X133401668Y-103386034D01*
X133401671Y-103386034D01*
X133490815Y-103362148D01*
X133570739Y-103316003D01*
X133610379Y-103276362D01*
X133656998Y-103254623D01*
X133701151Y-103264411D01*
X133756707Y-103296487D01*
X133845851Y-103320373D01*
X133845861Y-103320373D01*
X133847199Y-103320550D01*
X133847925Y-103320928D01*
X133850612Y-103321648D01*
X133850452Y-103322243D01*
X133892828Y-103344299D01*
X133912516Y-103391822D01*
X133910026Y-103414568D01*
X133900808Y-103448973D01*
X133899500Y-103453856D01*
X133899500Y-103546144D01*
X133908195Y-103578593D01*
X133923100Y-103634223D01*
X133923386Y-103635288D01*
X133969531Y-103715212D01*
X133969532Y-103715213D01*
X133969534Y-103715216D01*
X134034783Y-103780465D01*
X134034785Y-103780466D01*
X134034788Y-103780469D01*
X134114712Y-103826614D01*
X134203856Y-103850500D01*
X134203859Y-103850500D01*
X134296141Y-103850500D01*
X134296144Y-103850500D01*
X134385288Y-103826614D01*
X134465212Y-103780469D01*
X134530469Y-103715212D01*
X134576614Y-103635288D01*
X134576616Y-103635277D01*
X134577054Y-103634223D01*
X134577524Y-103633708D01*
X134579078Y-103631019D01*
X134579674Y-103631363D01*
X134611802Y-103596294D01*
X134662801Y-103589574D01*
X134665975Y-103590350D01*
X134703856Y-103600500D01*
X134703859Y-103600500D01*
X134796141Y-103600500D01*
X134796144Y-103600500D01*
X134885288Y-103576614D01*
X134965212Y-103530469D01*
X135030469Y-103465212D01*
X135076614Y-103385288D01*
X135100500Y-103296144D01*
X135100500Y-103203856D01*
X135076614Y-103114712D01*
X135030469Y-103034788D01*
X135030466Y-103034785D01*
X135030465Y-103034783D01*
X134965216Y-102969534D01*
X134965213Y-102969532D01*
X134965212Y-102969531D01*
X134885288Y-102923386D01*
X134885287Y-102923385D01*
X134885286Y-102923385D01*
X134836894Y-102910419D01*
X134796144Y-102899500D01*
X134703856Y-102899500D01*
X134663106Y-102910419D01*
X134614713Y-102923385D01*
X134557964Y-102956150D01*
X134542264Y-102965215D01*
X134534783Y-102969534D01*
X134469534Y-103034783D01*
X134423381Y-103114720D01*
X134422934Y-103115801D01*
X134422458Y-103116319D01*
X134420922Y-103118981D01*
X134420331Y-103118639D01*
X134413308Y-103126300D01*
X134407500Y-103139306D01*
X134396464Y-103144672D01*
X134388172Y-103153718D01*
X134374049Y-103155573D01*
X134361240Y-103161803D01*
X134339657Y-103160092D01*
X134337171Y-103160419D01*
X134335189Y-103159951D01*
X134334554Y-103159792D01*
X134296144Y-103149500D01*
X134293475Y-103149500D01*
X134286330Y-103147710D01*
X134268380Y-103135572D01*
X134249159Y-103125565D01*
X134247439Y-103121413D01*
X134243718Y-103118897D01*
X134237768Y-103098061D01*
X134229477Y-103078039D01*
X134230191Y-103071521D01*
X134229595Y-103069434D01*
X134230687Y-103066986D01*
X134231967Y-103055306D01*
X134242495Y-103016017D01*
X134242495Y-102923729D01*
X134218609Y-102834585D01*
X134172464Y-102754661D01*
X134172461Y-102754658D01*
X134172460Y-102754656D01*
X134107211Y-102689407D01*
X134107208Y-102689405D01*
X134107207Y-102689404D01*
X134027283Y-102643259D01*
X134027282Y-102643258D01*
X134027281Y-102643258D01*
X133994651Y-102634515D01*
X133938139Y-102619373D01*
X133845851Y-102619373D01*
X133799197Y-102631873D01*
X133756708Y-102643258D01*
X133676780Y-102689406D01*
X133637142Y-102729044D01*
X133590521Y-102750783D01*
X133546368Y-102740994D01*
X133490815Y-102708920D01*
X133471923Y-102703858D01*
X133401671Y-102685034D01*
X133309383Y-102685034D01*
X133262729Y-102697534D01*
X133220240Y-102708919D01*
X133199678Y-102720791D01*
X133141024Y-102754656D01*
X133140310Y-102755068D01*
X133075061Y-102820317D01*
X133028912Y-102900247D01*
X133017843Y-102941561D01*
X133005027Y-102989390D01*
X133005027Y-102989392D01*
X133005027Y-103081677D01*
X133009023Y-103096593D01*
X133004538Y-103147837D01*
X132968164Y-103184209D01*
X132916920Y-103188691D01*
X132898789Y-103181181D01*
X132885288Y-103173386D01*
X132885287Y-103173385D01*
X132885286Y-103173385D01*
X132852656Y-103164642D01*
X132796144Y-103149500D01*
X132703856Y-103149500D01*
X132665994Y-103159644D01*
X132614750Y-103155159D01*
X132578378Y-103118785D01*
X132577056Y-103115780D01*
X132576615Y-103114717D01*
X132576614Y-103114712D01*
X132530469Y-103034788D01*
X132530466Y-103034785D01*
X132530465Y-103034783D01*
X132465216Y-102969534D01*
X132465213Y-102969532D01*
X132465212Y-102969531D01*
X132385288Y-102923386D01*
X132385287Y-102923385D01*
X132385286Y-102923385D01*
X132336894Y-102910419D01*
X132296144Y-102899500D01*
X132296141Y-102899500D01*
X132254644Y-102899500D01*
X132206306Y-102881907D01*
X132201470Y-102877474D01*
X130306926Y-100982929D01*
X130285186Y-100936309D01*
X130284900Y-100929755D01*
X130284900Y-98518729D01*
X134636495Y-98518729D01*
X134636495Y-98611017D01*
X134645880Y-98646043D01*
X134656995Y-98687527D01*
X134660381Y-98700161D01*
X134706526Y-98780085D01*
X134706527Y-98780086D01*
X134706529Y-98780089D01*
X134771778Y-98845338D01*
X134771780Y-98845339D01*
X134771783Y-98845342D01*
X134851707Y-98891487D01*
X134940851Y-98915373D01*
X134940854Y-98915373D01*
X135033136Y-98915373D01*
X135033139Y-98915373D01*
X135122283Y-98891487D01*
X135202207Y-98845342D01*
X135267464Y-98780085D01*
X135313609Y-98700161D01*
X135337495Y-98611017D01*
X135337495Y-98518729D01*
X135313609Y-98429585D01*
X135267464Y-98349661D01*
X135267461Y-98349658D01*
X135267460Y-98349656D01*
X135202211Y-98284407D01*
X135202208Y-98284405D01*
X135202207Y-98284404D01*
X135122283Y-98238259D01*
X135122282Y-98238258D01*
X135122281Y-98238258D01*
X135089651Y-98229515D01*
X135033139Y-98214373D01*
X134940851Y-98214373D01*
X134894197Y-98226873D01*
X134851708Y-98238258D01*
X134771778Y-98284407D01*
X134706529Y-98349656D01*
X134660380Y-98429586D01*
X134649416Y-98470507D01*
X134636495Y-98518729D01*
X130284900Y-98518729D01*
X130284900Y-98395298D01*
X130258174Y-98330775D01*
X130258174Y-98330774D01*
X130250022Y-98311093D01*
X129878670Y-97939741D01*
X129856930Y-97893121D01*
X129870244Y-97843434D01*
X129894240Y-97821445D01*
X129965212Y-97780469D01*
X130030469Y-97715212D01*
X130076614Y-97635288D01*
X130100500Y-97546144D01*
X130100500Y-97453856D01*
X130076614Y-97364712D01*
X130030469Y-97284788D01*
X130030466Y-97284785D01*
X130030465Y-97284783D01*
X129965216Y-97219534D01*
X129965213Y-97219532D01*
X129965212Y-97219531D01*
X129885288Y-97173386D01*
X129885287Y-97173385D01*
X129885286Y-97173385D01*
X129852656Y-97164642D01*
X129796144Y-97149500D01*
X129703856Y-97149500D01*
X129657202Y-97162000D01*
X129614713Y-97173385D01*
X129534783Y-97219534D01*
X129469534Y-97284783D01*
X129469531Y-97284787D01*
X129469531Y-97284788D01*
X129445675Y-97326108D01*
X129428557Y-97355756D01*
X129425921Y-97357967D01*
X129425032Y-97361288D01*
X129406490Y-97374270D01*
X129389151Y-97388820D01*
X129385713Y-97388820D01*
X129382895Y-97390793D01*
X129360347Y-97388820D01*
X129337711Y-97388820D01*
X129334107Y-97386523D01*
X129331651Y-97386309D01*
X129310258Y-97371329D01*
X129251126Y-97312197D01*
X129229386Y-97265577D01*
X129229100Y-97259023D01*
X129229100Y-94559096D01*
X129201626Y-94492768D01*
X129201626Y-94492767D01*
X129201625Y-94492766D01*
X129194222Y-94474892D01*
X129194220Y-94474890D01*
X129194218Y-94474887D01*
X129097705Y-94378374D01*
X129075965Y-94331754D01*
X129089279Y-94282067D01*
X129131416Y-94252562D01*
X129150879Y-94250000D01*
X129425437Y-94250000D01*
X129473775Y-94267593D01*
X129478611Y-94272026D01*
X129911080Y-94704494D01*
X130314940Y-95108354D01*
X130379386Y-95172800D01*
X130463590Y-95207679D01*
X130463591Y-95207679D01*
X133672402Y-95207679D01*
X133672403Y-95207679D01*
X133697065Y-95197463D01*
X133710063Y-95192078D01*
X133761453Y-95189835D01*
X133802263Y-95221150D01*
X133814023Y-95259973D01*
X133832227Y-96125140D01*
X133815655Y-96173837D01*
X133771657Y-96200488D01*
X133720822Y-96192624D01*
X133719444Y-96191847D01*
X133635288Y-96143259D01*
X133635284Y-96143258D01*
X133546144Y-96119373D01*
X133453856Y-96119373D01*
X133407202Y-96131873D01*
X133364713Y-96143258D01*
X133284783Y-96189407D01*
X133219534Y-96254656D01*
X133173385Y-96334586D01*
X133159801Y-96385286D01*
X133149500Y-96423729D01*
X133149500Y-96516017D01*
X133173386Y-96605161D01*
X133219531Y-96685085D01*
X133219532Y-96685086D01*
X133219534Y-96685089D01*
X133284783Y-96750338D01*
X133284785Y-96750339D01*
X133284788Y-96750342D01*
X133364712Y-96796487D01*
X133453856Y-96820373D01*
X133453859Y-96820373D01*
X133546141Y-96820373D01*
X133546144Y-96820373D01*
X133635288Y-96796487D01*
X133715212Y-96750342D01*
X133744555Y-96720998D01*
X133791174Y-96699259D01*
X133797729Y-96698973D01*
X134343828Y-96698973D01*
X134392166Y-96716566D01*
X134397002Y-96720999D01*
X134737959Y-97061956D01*
X134759699Y-97108576D01*
X134746385Y-97158263D01*
X134704248Y-97187768D01*
X134653004Y-97183284D01*
X134647185Y-97180255D01*
X134635288Y-97173386D01*
X134635284Y-97173385D01*
X134546144Y-97149500D01*
X134453856Y-97149500D01*
X134407202Y-97162000D01*
X134364713Y-97173385D01*
X134284783Y-97219534D01*
X134219534Y-97284783D01*
X134219531Y-97284787D01*
X134219531Y-97284788D01*
X134209785Y-97301668D01*
X134173385Y-97364713D01*
X134165114Y-97395583D01*
X134149500Y-97453856D01*
X134149500Y-97546144D01*
X134173386Y-97635288D01*
X134219531Y-97715212D01*
X134219532Y-97715213D01*
X134219534Y-97715216D01*
X134284783Y-97780465D01*
X134284785Y-97780466D01*
X134284788Y-97780469D01*
X134364712Y-97826614D01*
X134453856Y-97850500D01*
X134453859Y-97850500D01*
X134546141Y-97850500D01*
X134546144Y-97850500D01*
X134635288Y-97826614D01*
X134715212Y-97780469D01*
X134780469Y-97715212D01*
X134826614Y-97635288D01*
X134850500Y-97546144D01*
X134850500Y-97453856D01*
X134826614Y-97364712D01*
X134819744Y-97352813D01*
X134810811Y-97302155D01*
X134836531Y-97257606D01*
X134884869Y-97240013D01*
X134933207Y-97257607D01*
X134938043Y-97262039D01*
X135369865Y-97693861D01*
X135391605Y-97740481D01*
X135386168Y-97775810D01*
X135372192Y-97809553D01*
X135372190Y-97809559D01*
X135347100Y-97935693D01*
X135347100Y-97935695D01*
X135347100Y-98064305D01*
X135372191Y-98190444D01*
X135421408Y-98309264D01*
X135492860Y-98416199D01*
X135492862Y-98416201D01*
X135492864Y-98416204D01*
X135583795Y-98507135D01*
X135583804Y-98507143D01*
X135666613Y-98562474D01*
X135697030Y-98603957D01*
X135693665Y-98655287D01*
X135666613Y-98687526D01*
X135583804Y-98742856D01*
X135583795Y-98742864D01*
X135492864Y-98833795D01*
X135492862Y-98833798D01*
X135421407Y-98940737D01*
X135372191Y-99059556D01*
X135372190Y-99059559D01*
X135347100Y-99185693D01*
X135347100Y-99314306D01*
X135361219Y-99385288D01*
X135372191Y-99440444D01*
X135421408Y-99559264D01*
X135492860Y-99666199D01*
X135492862Y-99666201D01*
X135492864Y-99666204D01*
X135583795Y-99757135D01*
X135583804Y-99757143D01*
X135666613Y-99812474D01*
X135697030Y-99853957D01*
X135693665Y-99905287D01*
X135666613Y-99937526D01*
X135583804Y-99992856D01*
X135583795Y-99992864D01*
X135492864Y-100083795D01*
X135492862Y-100083798D01*
X135421407Y-100190737D01*
X135372191Y-100309556D01*
X135372190Y-100309559D01*
X135347100Y-100435693D01*
X135347100Y-100564306D01*
X135362539Y-100641924D01*
X135372191Y-100690444D01*
X135400012Y-100757609D01*
X135415973Y-100796144D01*
X135421408Y-100809264D01*
X135492860Y-100916199D01*
X135492862Y-100916201D01*
X135492864Y-100916204D01*
X135583795Y-101007135D01*
X135583804Y-101007143D01*
X135666613Y-101062474D01*
X135697030Y-101103957D01*
X135693665Y-101155287D01*
X135666613Y-101187526D01*
X135583804Y-101242856D01*
X135583795Y-101242864D01*
X135492864Y-101333795D01*
X135492862Y-101333798D01*
X135421407Y-101440737D01*
X135372191Y-101559556D01*
X135372190Y-101559559D01*
X135347100Y-101685693D01*
X135347100Y-101814306D01*
X135361858Y-101888500D01*
X135372191Y-101940444D01*
X135421408Y-102059264D01*
X135492860Y-102166199D01*
X135492862Y-102166201D01*
X135492864Y-102166204D01*
X135583795Y-102257135D01*
X135583804Y-102257143D01*
X135666613Y-102312474D01*
X135697030Y-102353957D01*
X135693665Y-102405287D01*
X135666613Y-102437526D01*
X135583804Y-102492856D01*
X135583795Y-102492864D01*
X135492864Y-102583795D01*
X135492862Y-102583798D01*
X135421407Y-102690737D01*
X135372191Y-102809556D01*
X135372190Y-102809559D01*
X135347100Y-102935693D01*
X135347100Y-103064306D01*
X135371424Y-103186591D01*
X135372191Y-103190444D01*
X135385882Y-103223496D01*
X135416115Y-103296487D01*
X135421408Y-103309264D01*
X135492860Y-103416199D01*
X135492862Y-103416201D01*
X135492864Y-103416204D01*
X135583795Y-103507135D01*
X135583798Y-103507137D01*
X135583801Y-103507140D01*
X135690736Y-103578592D01*
X135750947Y-103603532D01*
X135753077Y-103604414D01*
X135791003Y-103639166D01*
X135799500Y-103673890D01*
X135799500Y-106724300D01*
X135781907Y-106772638D01*
X135737358Y-106798358D01*
X135724300Y-106799500D01*
X134673891Y-106799500D01*
X134625553Y-106781907D01*
X134604415Y-106753078D01*
X134578592Y-106690736D01*
X134507140Y-106583801D01*
X134507137Y-106583798D01*
X134507135Y-106583795D01*
X134416204Y-106492864D01*
X134416201Y-106492862D01*
X134416199Y-106492860D01*
X134309264Y-106421408D01*
X134190444Y-106372191D01*
X134190441Y-106372190D01*
X134190440Y-106372190D01*
X134064307Y-106347100D01*
X134064305Y-106347100D01*
X133935695Y-106347100D01*
X133935693Y-106347100D01*
X133809559Y-106372190D01*
X133809556Y-106372191D01*
X133690737Y-106421407D01*
X133583798Y-106492862D01*
X133583795Y-106492864D01*
X133492864Y-106583795D01*
X133492856Y-106583804D01*
X133437526Y-106666613D01*
X133396043Y-106697030D01*
X133344713Y-106693665D01*
X133312474Y-106666613D01*
X133257143Y-106583804D01*
X133257135Y-106583795D01*
X133166204Y-106492864D01*
X133166201Y-106492862D01*
X133166199Y-106492860D01*
X133059264Y-106421408D01*
X132940444Y-106372191D01*
X132940441Y-106372190D01*
X132940440Y-106372190D01*
X132814307Y-106347100D01*
X132814305Y-106347100D01*
X132685695Y-106347100D01*
X132685693Y-106347100D01*
X132559559Y-106372190D01*
X132559556Y-106372191D01*
X132440737Y-106421407D01*
X132333798Y-106492862D01*
X132333795Y-106492864D01*
X132242864Y-106583795D01*
X132242862Y-106583798D01*
X132171407Y-106690737D01*
X132145585Y-106753078D01*
X132110832Y-106791003D01*
X132076109Y-106799500D01*
X121673891Y-106799500D01*
X121625553Y-106781907D01*
X121604415Y-106753078D01*
X121578592Y-106690736D01*
X121507140Y-106583801D01*
X121507137Y-106583798D01*
X121507135Y-106583795D01*
X121416204Y-106492864D01*
X121416201Y-106492862D01*
X121416199Y-106492860D01*
X121309264Y-106421408D01*
X121190444Y-106372191D01*
X121190441Y-106372190D01*
X121190440Y-106372190D01*
X121064307Y-106347100D01*
X121064305Y-106347100D01*
X120935695Y-106347100D01*
X120935693Y-106347100D01*
X120809559Y-106372190D01*
X120809556Y-106372191D01*
X120690737Y-106421407D01*
X120583798Y-106492862D01*
X120583795Y-106492864D01*
X120492864Y-106583795D01*
X120492862Y-106583798D01*
X120421407Y-106690737D01*
X120395585Y-106753078D01*
X120392123Y-106756855D01*
X120391234Y-106761900D01*
X120375078Y-106775456D01*
X120360832Y-106791003D01*
X120354788Y-106792481D01*
X120351829Y-106794965D01*
X120326109Y-106799500D01*
X120275700Y-106799500D01*
X120227362Y-106781907D01*
X120201642Y-106737358D01*
X120200500Y-106724300D01*
X120200500Y-105453856D01*
X124149500Y-105453856D01*
X124149500Y-105546144D01*
X124173386Y-105635288D01*
X124219531Y-105715212D01*
X124219532Y-105715213D01*
X124219534Y-105715216D01*
X124284783Y-105780465D01*
X124284785Y-105780466D01*
X124284788Y-105780469D01*
X124364712Y-105826614D01*
X124453856Y-105850500D01*
X124453859Y-105850500D01*
X124546141Y-105850500D01*
X124546144Y-105850500D01*
X124635288Y-105826614D01*
X124715212Y-105780469D01*
X124780469Y-105715212D01*
X124826614Y-105635288D01*
X124850500Y-105546144D01*
X124850500Y-105453856D01*
X124826614Y-105364712D01*
X124780469Y-105284788D01*
X124780466Y-105284785D01*
X124780465Y-105284783D01*
X124715216Y-105219534D01*
X124715213Y-105219532D01*
X124715212Y-105219531D01*
X124635288Y-105173386D01*
X124635287Y-105173385D01*
X124635286Y-105173385D01*
X124602656Y-105164642D01*
X124546144Y-105149500D01*
X124453856Y-105149500D01*
X124407202Y-105162000D01*
X124364713Y-105173385D01*
X124284783Y-105219534D01*
X124219534Y-105284783D01*
X124173385Y-105364713D01*
X124161309Y-105409783D01*
X124149500Y-105453856D01*
X120200500Y-105453856D01*
X120200500Y-103953856D01*
X121899500Y-103953856D01*
X121899500Y-104046144D01*
X121914642Y-104102656D01*
X121921908Y-104129775D01*
X121923386Y-104135288D01*
X121969531Y-104215212D01*
X121969532Y-104215213D01*
X121969534Y-104215216D01*
X122034783Y-104280465D01*
X122034785Y-104280466D01*
X122034788Y-104280469D01*
X122114712Y-104326614D01*
X122203856Y-104350500D01*
X122203859Y-104350500D01*
X122296141Y-104350500D01*
X122296144Y-104350500D01*
X122385288Y-104326614D01*
X122465212Y-104280469D01*
X122530469Y-104215212D01*
X122576614Y-104135288D01*
X122600500Y-104046144D01*
X122600500Y-103953856D01*
X122576614Y-103864712D01*
X122530469Y-103784788D01*
X122530466Y-103784785D01*
X122530465Y-103784783D01*
X122465216Y-103719534D01*
X122465213Y-103719532D01*
X122465212Y-103719531D01*
X122385288Y-103673386D01*
X122385287Y-103673385D01*
X122385286Y-103673385D01*
X122352656Y-103664642D01*
X122296144Y-103649500D01*
X122203856Y-103649500D01*
X122157202Y-103662000D01*
X122114713Y-103673385D01*
X122034783Y-103719534D01*
X121969534Y-103784783D01*
X121923385Y-103864713D01*
X121921292Y-103872526D01*
X121899500Y-103953856D01*
X120200500Y-103953856D01*
X120200500Y-103673890D01*
X120218093Y-103625552D01*
X120246923Y-103604414D01*
X120309264Y-103578592D01*
X120416199Y-103507140D01*
X120507140Y-103416199D01*
X120578592Y-103309264D01*
X120627809Y-103190444D01*
X120649444Y-103081678D01*
X120652900Y-103064306D01*
X120652900Y-102935693D01*
X120641295Y-102877354D01*
X120627809Y-102809556D01*
X120578592Y-102690736D01*
X120507140Y-102583801D01*
X120507137Y-102583798D01*
X120507135Y-102583795D01*
X120416202Y-102492862D01*
X120415868Y-102492639D01*
X120333384Y-102437524D01*
X120302969Y-102396043D01*
X120306333Y-102344714D01*
X120333383Y-102312475D01*
X120416199Y-102257140D01*
X120507140Y-102166199D01*
X120578592Y-102059264D01*
X120627809Y-101940444D01*
X120652900Y-101814305D01*
X120652900Y-101685695D01*
X120627809Y-101559556D01*
X120579264Y-101442360D01*
X120577021Y-101390971D01*
X120608336Y-101350161D01*
X120658557Y-101339027D01*
X120668199Y-101340945D01*
X120703856Y-101350500D01*
X120796141Y-101350500D01*
X120796144Y-101350500D01*
X120885288Y-101326614D01*
X120965212Y-101280469D01*
X121030469Y-101215212D01*
X121076614Y-101135288D01*
X121100500Y-101046144D01*
X121100500Y-100953856D01*
X121076614Y-100864712D01*
X121069744Y-100852814D01*
X121060814Y-100802157D01*
X121086534Y-100757609D01*
X121134872Y-100740016D01*
X121183209Y-100757610D01*
X121188045Y-100762042D01*
X121407858Y-100981855D01*
X121429598Y-101028475D01*
X121429884Y-101035029D01*
X121429884Y-102636586D01*
X121464761Y-102720790D01*
X121464762Y-102720791D01*
X122158068Y-103414095D01*
X122174532Y-103420914D01*
X122174535Y-103420917D01*
X122174536Y-103420916D01*
X122242271Y-103448973D01*
X122242272Y-103448973D01*
X122333413Y-103448973D01*
X122344266Y-103448973D01*
X122392604Y-103466566D01*
X122397429Y-103470988D01*
X122426783Y-103500342D01*
X122506707Y-103546487D01*
X122595851Y-103570373D01*
X122595854Y-103570373D01*
X122688136Y-103570373D01*
X122688139Y-103570373D01*
X122777283Y-103546487D01*
X122857207Y-103500342D01*
X122922464Y-103435085D01*
X122968609Y-103355161D01*
X122992495Y-103266017D01*
X122992495Y-103173729D01*
X123791495Y-103173729D01*
X123791495Y-103266017D01*
X123803083Y-103309264D01*
X123813151Y-103346841D01*
X123815381Y-103355161D01*
X123861526Y-103435085D01*
X123861527Y-103435086D01*
X123861529Y-103435089D01*
X123926778Y-103500338D01*
X123926780Y-103500339D01*
X123926783Y-103500342D01*
X124006707Y-103546487D01*
X124095851Y-103570373D01*
X124095854Y-103570373D01*
X124188136Y-103570373D01*
X124188139Y-103570373D01*
X124277283Y-103546487D01*
X124357207Y-103500342D01*
X124422464Y-103435085D01*
X124468609Y-103355161D01*
X124492495Y-103266017D01*
X124492495Y-103173729D01*
X125041495Y-103173729D01*
X125041495Y-103266017D01*
X125053083Y-103309264D01*
X125063151Y-103346841D01*
X125065381Y-103355161D01*
X125111526Y-103435085D01*
X125111527Y-103435086D01*
X125111529Y-103435089D01*
X125176779Y-103500339D01*
X125176781Y-103500340D01*
X125176783Y-103500342D01*
X125233301Y-103532973D01*
X125266365Y-103572377D01*
X125270900Y-103598097D01*
X125270900Y-105202270D01*
X125253307Y-105250608D01*
X125248874Y-105255444D01*
X125219534Y-105284783D01*
X125173385Y-105364713D01*
X125161309Y-105409783D01*
X125149500Y-105453856D01*
X125149500Y-105546144D01*
X125173386Y-105635288D01*
X125219531Y-105715212D01*
X125219532Y-105715213D01*
X125219534Y-105715216D01*
X125284783Y-105780465D01*
X125284785Y-105780466D01*
X125284788Y-105780469D01*
X125364712Y-105826614D01*
X125453856Y-105850500D01*
X125453859Y-105850500D01*
X125546141Y-105850500D01*
X125546144Y-105850500D01*
X125635288Y-105826614D01*
X125715212Y-105780469D01*
X125780469Y-105715212D01*
X125826614Y-105635288D01*
X125841735Y-105578856D01*
X127149500Y-105578856D01*
X127149500Y-105671144D01*
X127173386Y-105760288D01*
X127219531Y-105840212D01*
X127219532Y-105840213D01*
X127219534Y-105840216D01*
X127284783Y-105905465D01*
X127284785Y-105905466D01*
X127284788Y-105905469D01*
X127364712Y-105951614D01*
X127453856Y-105975500D01*
X127453859Y-105975500D01*
X127546141Y-105975500D01*
X127546144Y-105975500D01*
X127635288Y-105951614D01*
X127715212Y-105905469D01*
X127780469Y-105840212D01*
X127826614Y-105760288D01*
X127850500Y-105671144D01*
X127850500Y-105578856D01*
X127826614Y-105489712D01*
X127780469Y-105409788D01*
X127780466Y-105409785D01*
X127780465Y-105409783D01*
X127715216Y-105344534D01*
X127715213Y-105344532D01*
X127715212Y-105344531D01*
X127635288Y-105298386D01*
X127635287Y-105298385D01*
X127635286Y-105298385D01*
X127602656Y-105289642D01*
X127546144Y-105274500D01*
X127453856Y-105274500D01*
X127415461Y-105284788D01*
X127364713Y-105298385D01*
X127284783Y-105344534D01*
X127219534Y-105409783D01*
X127173385Y-105489713D01*
X127159594Y-105541180D01*
X127149500Y-105578856D01*
X125841735Y-105578856D01*
X125850500Y-105546144D01*
X125850500Y-105453856D01*
X125826614Y-105364712D01*
X125780469Y-105284788D01*
X125780466Y-105284785D01*
X125780465Y-105284783D01*
X125751126Y-105255444D01*
X125729386Y-105208824D01*
X125729100Y-105202270D01*
X125729100Y-103325908D01*
X125731662Y-103306445D01*
X125737465Y-103284788D01*
X125742495Y-103266017D01*
X125742495Y-103173729D01*
X125718609Y-103084585D01*
X125672464Y-103004661D01*
X125672461Y-103004658D01*
X125672460Y-103004656D01*
X125607211Y-102939407D01*
X125607208Y-102939405D01*
X125607207Y-102939404D01*
X125527283Y-102893259D01*
X125527282Y-102893258D01*
X125527281Y-102893258D01*
X125494651Y-102884515D01*
X125438139Y-102869373D01*
X125345851Y-102869373D01*
X125299197Y-102881873D01*
X125256708Y-102893258D01*
X125176778Y-102939407D01*
X125111529Y-103004656D01*
X125111526Y-103004660D01*
X125111526Y-103004661D01*
X125101780Y-103021541D01*
X125065380Y-103084586D01*
X125051719Y-103135572D01*
X125041495Y-103173729D01*
X124492495Y-103173729D01*
X124468609Y-103084585D01*
X124422464Y-103004661D01*
X124422461Y-103004658D01*
X124422460Y-103004656D01*
X124357211Y-102939407D01*
X124357208Y-102939405D01*
X124357207Y-102939404D01*
X124277283Y-102893259D01*
X124277282Y-102893258D01*
X124277281Y-102893258D01*
X124244651Y-102884515D01*
X124188139Y-102869373D01*
X124095851Y-102869373D01*
X124049197Y-102881873D01*
X124006708Y-102893258D01*
X123926778Y-102939407D01*
X123861529Y-103004656D01*
X123861526Y-103004660D01*
X123861526Y-103004661D01*
X123851780Y-103021541D01*
X123815380Y-103084586D01*
X123801719Y-103135572D01*
X123791495Y-103173729D01*
X122992495Y-103173729D01*
X122968609Y-103084585D01*
X122922464Y-103004661D01*
X122922461Y-103004658D01*
X122922460Y-103004656D01*
X122857211Y-102939407D01*
X122857208Y-102939405D01*
X122857207Y-102939404D01*
X122777283Y-102893259D01*
X122777282Y-102893258D01*
X122777281Y-102893258D01*
X122744651Y-102884515D01*
X122688139Y-102869373D01*
X122595851Y-102869373D01*
X122506707Y-102893259D01*
X122506705Y-102893259D01*
X122426777Y-102939406D01*
X122425107Y-102940688D01*
X122423897Y-102941069D01*
X122422514Y-102941868D01*
X122422336Y-102941561D01*
X122376046Y-102956150D01*
X122328524Y-102936459D01*
X122326162Y-102934196D01*
X121910110Y-102518144D01*
X121888370Y-102471524D01*
X121888084Y-102464970D01*
X121888084Y-100863414D01*
X121888083Y-100863411D01*
X121872877Y-100826699D01*
X121872877Y-100826698D01*
X121853207Y-100779211D01*
X121853204Y-100779207D01*
X121379776Y-100305778D01*
X121318672Y-100280469D01*
X121318672Y-100280468D01*
X121318670Y-100280468D01*
X121295571Y-100270900D01*
X121128568Y-100270900D01*
X121080230Y-100253307D01*
X121054510Y-100208758D01*
X121063443Y-100158100D01*
X121076614Y-100135288D01*
X121100500Y-100046144D01*
X121100500Y-99953856D01*
X121076614Y-99864712D01*
X121030469Y-99784788D01*
X121030466Y-99784785D01*
X121030465Y-99784783D01*
X120965216Y-99719534D01*
X120965213Y-99719532D01*
X120965212Y-99719531D01*
X120885288Y-99673386D01*
X120885287Y-99673385D01*
X120885286Y-99673385D01*
X120852656Y-99664642D01*
X120796144Y-99649500D01*
X120703856Y-99649500D01*
X120684938Y-99654569D01*
X120668203Y-99659053D01*
X120616959Y-99654569D01*
X120580586Y-99618195D01*
X120576104Y-99566951D01*
X120579260Y-99557649D01*
X120627809Y-99440444D01*
X120652900Y-99314305D01*
X120652900Y-99185695D01*
X120627809Y-99059556D01*
X120578592Y-98940736D01*
X120507140Y-98833801D01*
X120507137Y-98833798D01*
X120507135Y-98833795D01*
X120416202Y-98742862D01*
X120413767Y-98741235D01*
X120333384Y-98687524D01*
X120302969Y-98646043D01*
X120306333Y-98594714D01*
X120333383Y-98562475D01*
X120416199Y-98507140D01*
X120507140Y-98416199D01*
X120578592Y-98309264D01*
X120627809Y-98190444D01*
X120652900Y-98064305D01*
X120652900Y-97935695D01*
X120646684Y-97904448D01*
X120630173Y-97821442D01*
X120627809Y-97809556D01*
X120578592Y-97690736D01*
X120507140Y-97583801D01*
X120507137Y-97583798D01*
X120507135Y-97583795D01*
X120416204Y-97492864D01*
X120416201Y-97492862D01*
X120416199Y-97492860D01*
X120309264Y-97421408D01*
X120309265Y-97421408D01*
X120309260Y-97421405D01*
X120246921Y-97395583D01*
X120243144Y-97392122D01*
X120238100Y-97391233D01*
X120224543Y-97375077D01*
X120208996Y-97360830D01*
X120207517Y-97354786D01*
X120205035Y-97351828D01*
X120200500Y-97326108D01*
X120200500Y-97203856D01*
X125899500Y-97203856D01*
X125899500Y-97296144D01*
X125907529Y-97326108D01*
X125920992Y-97376356D01*
X125923386Y-97385288D01*
X125969531Y-97465212D01*
X125969532Y-97465213D01*
X125969534Y-97465216D01*
X126034783Y-97530465D01*
X126034785Y-97530466D01*
X126034788Y-97530469D01*
X126114712Y-97576614D01*
X126203856Y-97600500D01*
X126203859Y-97600500D01*
X126296141Y-97600500D01*
X126296144Y-97600500D01*
X126385288Y-97576614D01*
X126465212Y-97530469D01*
X126530469Y-97465212D01*
X126576614Y-97385288D01*
X126600500Y-97296144D01*
X126600500Y-97203856D01*
X126576614Y-97114712D01*
X126530469Y-97034788D01*
X126530466Y-97034785D01*
X126530465Y-97034783D01*
X126465216Y-96969534D01*
X126465213Y-96969532D01*
X126465212Y-96969531D01*
X126385288Y-96923386D01*
X126385287Y-96923385D01*
X126385286Y-96923385D01*
X126352656Y-96914642D01*
X126296144Y-96899500D01*
X126203856Y-96899500D01*
X126157202Y-96912000D01*
X126114713Y-96923385D01*
X126034783Y-96969534D01*
X125969534Y-97034783D01*
X125923385Y-97114713D01*
X125909594Y-97166180D01*
X125899500Y-97203856D01*
X120200500Y-97203856D01*
X120200500Y-96325200D01*
X120218093Y-96276862D01*
X120262642Y-96251142D01*
X120275700Y-96250000D01*
X121500000Y-96250000D01*
X121500000Y-96203856D01*
X122649500Y-96203856D01*
X122649500Y-96296144D01*
X122660298Y-96336442D01*
X122669121Y-96369373D01*
X122673386Y-96385288D01*
X122719531Y-96465212D01*
X122719532Y-96465213D01*
X122719534Y-96465216D01*
X122784783Y-96530465D01*
X122784785Y-96530466D01*
X122784788Y-96530469D01*
X122864712Y-96576614D01*
X122953856Y-96600500D01*
X122953859Y-96600500D01*
X123046141Y-96600500D01*
X123046144Y-96600500D01*
X123135288Y-96576614D01*
X123145415Y-96570767D01*
X123906684Y-96570767D01*
X123906684Y-96663055D01*
X123918087Y-96705610D01*
X123930071Y-96750340D01*
X123930570Y-96752199D01*
X123976715Y-96832123D01*
X123976716Y-96832124D01*
X123976718Y-96832127D01*
X124041967Y-96897376D01*
X124041969Y-96897377D01*
X124041972Y-96897380D01*
X124121896Y-96943525D01*
X124211040Y-96967411D01*
X124211043Y-96967411D01*
X124303325Y-96967411D01*
X124303328Y-96967411D01*
X124392472Y-96943525D01*
X124410645Y-96933032D01*
X124461299Y-96924098D01*
X124501419Y-96944982D01*
X124556775Y-97000338D01*
X124556777Y-97000339D01*
X124556780Y-97000342D01*
X124636704Y-97046487D01*
X124725848Y-97070373D01*
X124725851Y-97070373D01*
X124818133Y-97070373D01*
X124818136Y-97070373D01*
X124907280Y-97046487D01*
X124987204Y-97000342D01*
X124987210Y-97000335D01*
X124988707Y-96999188D01*
X124989796Y-96998844D01*
X124991472Y-96997877D01*
X124991686Y-96998248D01*
X125037764Y-96983713D01*
X125077370Y-96998127D01*
X125077515Y-96997877D01*
X125078934Y-96998696D01*
X125080274Y-96999184D01*
X125081778Y-97000338D01*
X125081780Y-97000339D01*
X125081783Y-97000342D01*
X125161707Y-97046487D01*
X125250851Y-97070373D01*
X125250854Y-97070373D01*
X125343136Y-97070373D01*
X125343139Y-97070373D01*
X125432283Y-97046487D01*
X125512207Y-97000342D01*
X125577464Y-96935085D01*
X125623609Y-96855161D01*
X125647495Y-96766017D01*
X125647495Y-96673729D01*
X125623609Y-96584585D01*
X125577464Y-96504661D01*
X125577461Y-96504658D01*
X125577460Y-96504656D01*
X125512211Y-96439407D01*
X125512208Y-96439405D01*
X125512207Y-96439404D01*
X125432283Y-96393259D01*
X125432282Y-96393258D01*
X125432281Y-96393258D01*
X125399651Y-96384515D01*
X125343139Y-96369373D01*
X125250851Y-96369373D01*
X125161707Y-96393259D01*
X125161705Y-96393259D01*
X125081781Y-96439404D01*
X125080267Y-96440566D01*
X125079170Y-96440911D01*
X125077514Y-96441868D01*
X125077301Y-96441500D01*
X125031207Y-96456030D01*
X124991615Y-96441620D01*
X124991472Y-96441869D01*
X124990064Y-96441056D01*
X124988720Y-96440567D01*
X124987208Y-96439407D01*
X124987205Y-96439405D01*
X124987204Y-96439404D01*
X124907280Y-96393259D01*
X124907279Y-96393258D01*
X124907278Y-96393258D01*
X124874648Y-96384515D01*
X124818136Y-96369373D01*
X124725848Y-96369373D01*
X124644009Y-96391301D01*
X124636700Y-96393260D01*
X124618527Y-96403752D01*
X124567868Y-96412683D01*
X124527755Y-96391800D01*
X124472400Y-96336445D01*
X124472397Y-96336443D01*
X124472396Y-96336442D01*
X124392472Y-96290297D01*
X124392471Y-96290296D01*
X124392470Y-96290296D01*
X124359840Y-96281553D01*
X124303328Y-96266411D01*
X124211040Y-96266411D01*
X124164386Y-96278911D01*
X124121897Y-96290296D01*
X124061443Y-96325200D01*
X124045189Y-96334585D01*
X124041967Y-96336445D01*
X123976718Y-96401694D01*
X123930569Y-96481624D01*
X123921355Y-96516014D01*
X123906684Y-96570767D01*
X123145415Y-96570767D01*
X123215212Y-96530469D01*
X123217594Y-96528087D01*
X123233018Y-96512664D01*
X123280465Y-96465216D01*
X123280469Y-96465212D01*
X123326614Y-96385288D01*
X123350500Y-96296144D01*
X123350500Y-96203856D01*
X123326614Y-96114712D01*
X123280469Y-96034788D01*
X123280466Y-96034785D01*
X123280465Y-96034783D01*
X123215216Y-95969534D01*
X123215213Y-95969532D01*
X123215212Y-95969531D01*
X123135288Y-95923386D01*
X123135287Y-95923385D01*
X123135286Y-95923385D01*
X123102656Y-95914642D01*
X123046144Y-95899500D01*
X122953856Y-95899500D01*
X122907202Y-95912000D01*
X122864713Y-95923385D01*
X122784783Y-95969534D01*
X122719534Y-96034783D01*
X122673385Y-96114713D01*
X122665737Y-96143258D01*
X122649500Y-96203856D01*
X121500000Y-96203856D01*
X121500000Y-95575200D01*
X121517593Y-95526862D01*
X121562142Y-95501142D01*
X121575200Y-95500000D01*
X123250000Y-95500000D01*
X123250000Y-94325200D01*
X123267593Y-94276862D01*
X123312142Y-94251142D01*
X123325200Y-94250000D01*
X126445700Y-94250000D01*
X126494038Y-94267593D01*
G37*
G04 #@! TD.AperFunction*
G04 #@! TA.AperFunction,Conductor*
G36*
X135442261Y-96474860D02*
G01*
X135464895Y-96474860D01*
X135468498Y-96477155D01*
X135470957Y-96477371D01*
X135492350Y-96492351D01*
X135499999Y-96500000D01*
X135500000Y-96500000D01*
X135724300Y-96500000D01*
X135772638Y-96517593D01*
X135798358Y-96562142D01*
X135799500Y-96575200D01*
X135799500Y-97293955D01*
X135781907Y-97342293D01*
X135737358Y-97368013D01*
X135686700Y-97359080D01*
X135671126Y-97347129D01*
X135125914Y-96801917D01*
X135104174Y-96755297D01*
X135117488Y-96705610D01*
X135159623Y-96676105D01*
X135174813Y-96672036D01*
X135278087Y-96612410D01*
X135362410Y-96528087D01*
X135369379Y-96516017D01*
X135374051Y-96507925D01*
X135376685Y-96505714D01*
X135377576Y-96502392D01*
X135396116Y-96489409D01*
X135413456Y-96474860D01*
X135416895Y-96474860D01*
X135419713Y-96472887D01*
X135442261Y-96474860D01*
G37*
G04 #@! TD.AperFunction*
G04 #@! TD*
M02*
