G04 #@! TF.GenerationSoftware,KiCad,Pcbnew,9.0.4*
G04 #@! TF.CreationDate,2025-09-23T15:48:17-04:00*
G04 #@! TF.ProjectId,ESC Module,45534320-4d6f-4647-956c-652e6b696361,rev?*
G04 #@! TF.SameCoordinates,Original*
G04 #@! TF.FileFunction,Copper,L3,Inr*
G04 #@! TF.FilePolarity,Positive*
%FSLAX46Y46*%
G04 Gerber Fmt 4.6, Leading zero omitted, Abs format (unit mm)*
G04 Created by KiCad (PCBNEW 9.0.4) date 2025-09-23 15:48:17*
%MOMM*%
%LPD*%
G01*
G04 APERTURE LIST*
G04 #@! TA.AperFunction,ComponentPad*
%ADD10C,1.000000*%
G04 #@! TD*
G04 #@! TA.AperFunction,ViaPad*
%ADD11C,0.350000*%
G04 #@! TD*
G04 #@! TA.AperFunction,ViaPad*
%ADD12C,0.600000*%
G04 #@! TD*
G04 #@! TA.AperFunction,Conductor*
%ADD13C,0.500000*%
G04 #@! TD*
G04 #@! TA.AperFunction,Conductor*
%ADD14C,0.152400*%
G04 #@! TD*
G04 #@! TA.AperFunction,Conductor*
%ADD15C,0.300000*%
G04 #@! TD*
G04 APERTURE END LIST*
D10*
G04 #@! TO.N,Net-(R102-Pad2)*
G04 #@! TO.C,U7*
X120000000Y-86500000D03*
G04 #@! TD*
G04 #@! TO.N,Net-(R110-Pad2)*
G04 #@! TO.C,U14*
X136000000Y-87750000D03*
G04 #@! TD*
G04 #@! TO.N,/ESC/VS1*
G04 #@! TO.C,U105*
X120000000Y-92750000D03*
G04 #@! TD*
G04 #@! TO.N,/ESC1/VS2*
G04 #@! TO.C,U108*
X136000000Y-89000000D03*
G04 #@! TD*
G04 #@! TO.N,/ESC/TELEMETRY_TX*
G04 #@! TO.C,U121*
X120000000Y-101750000D03*
G04 #@! TD*
G04 #@! TO.N,Vdrive*
G04 #@! TO.C,U18*
X126000000Y-80750000D03*
G04 #@! TD*
G04 #@! TO.N,/ESC1/NRST*
G04 #@! TO.C,U111*
X136000000Y-98000000D03*
G04 #@! TD*
G04 #@! TO.N,/ESC/VS3*
G04 #@! TO.C,U110*
X120000000Y-82750000D03*
G04 #@! TD*
G04 #@! TO.N,Net-(R112-Pad2)*
G04 #@! TO.C,U16*
X136000000Y-92750000D03*
G04 #@! TD*
G04 #@! TO.N,Net-(R103-Pad2)*
G04 #@! TO.C,U5*
X120000000Y-91500000D03*
G04 #@! TD*
G04 #@! TO.N,Net-(R111-Pad2)*
G04 #@! TO.C,U15*
X136000000Y-95250000D03*
G04 #@! TD*
G04 #@! TO.N,/ESC/SWDIO*
G04 #@! TO.C,U202*
X120000000Y-98000000D03*
G04 #@! TD*
G04 #@! TO.N,GND*
G04 #@! TO.C,U22*
X120000000Y-90250000D03*
G04 #@! TD*
G04 #@! TO.N,GND*
G04 #@! TO.C,U116*
X124750000Y-80750000D03*
G04 #@! TD*
G04 #@! TO.N,GND*
G04 #@! TO.C,U118*
X129000000Y-107000000D03*
G04 #@! TD*
G04 #@! TO.N,/ESC/TELEMETRY_RX*
G04 #@! TO.C,U122*
X120000000Y-103000000D03*
G04 #@! TD*
G04 #@! TO.N,GND*
G04 #@! TO.C,U114*
X136000000Y-91500000D03*
G04 #@! TD*
G04 #@! TO.N,VDD*
G04 #@! TO.C,U103*
X128750000Y-80750000D03*
G04 #@! TD*
G04 #@! TO.N,Net-(R108-Pad2)*
G04 #@! TO.C,U12*
X136000000Y-82750000D03*
G04 #@! TD*
G04 #@! TO.N,Net-(R105-Pad2)*
G04 #@! TO.C,U9*
X120000000Y-81500000D03*
G04 #@! TD*
G04 #@! TO.N,/ESC/VS2*
G04 #@! TO.C,U106*
X120000000Y-87750000D03*
G04 #@! TD*
G04 #@! TO.N,GND*
G04 #@! TO.C,U19*
X131250000Y-80750000D03*
G04 #@! TD*
G04 #@! TO.N,Net-(R109-Pad2)*
G04 #@! TO.C,U13*
X136000000Y-90250000D03*
G04 #@! TD*
G04 #@! TO.N,GND*
G04 #@! TO.C,U20*
X120000000Y-95250000D03*
G04 #@! TD*
G04 #@! TO.N,/ESC/PWM*
G04 #@! TO.C,U3*
X132750000Y-107000000D03*
G04 #@! TD*
G04 #@! TO.N,GND*
G04 #@! TO.C,U113*
X136000000Y-81500000D03*
G04 #@! TD*
G04 #@! TO.N,Net-(R106-Pad2)*
G04 #@! TO.C,U10*
X120000000Y-84000000D03*
G04 #@! TD*
G04 #@! TO.N,GND*
G04 #@! TO.C,U115*
X136000000Y-86500000D03*
G04 #@! TD*
G04 #@! TO.N,Vdrive*
G04 #@! TO.C,U101*
X130000000Y-80750000D03*
G04 #@! TD*
G04 #@! TO.N,Net-(R104-Pad2)*
G04 #@! TO.C,U8*
X120000000Y-89000000D03*
G04 #@! TD*
G04 #@! TO.N,/ESC/SWCLK*
G04 #@! TO.C,U201*
X120000000Y-99250000D03*
G04 #@! TD*
G04 #@! TO.N,/ESC1/TELEMETRY_TX*
G04 #@! TO.C,U119*
X136000000Y-100500000D03*
G04 #@! TD*
G04 #@! TO.N,GND*
G04 #@! TO.C,U117*
X127000000Y-107000000D03*
G04 #@! TD*
G04 #@! TO.N,/ESC1/SWDIO*
G04 #@! TO.C,U304*
X136000000Y-103000000D03*
G04 #@! TD*
G04 #@! TO.N,Net-(R107-Pad2)*
G04 #@! TO.C,U11*
X136000000Y-85250000D03*
G04 #@! TD*
G04 #@! TO.N,+3V3*
G04 #@! TO.C,U102*
X121000000Y-107000000D03*
G04 #@! TD*
G04 #@! TO.N,/ESC1/VS1*
G04 #@! TO.C,U107*
X136000000Y-84000000D03*
G04 #@! TD*
G04 #@! TO.N,VDD*
G04 #@! TO.C,U104*
X127250000Y-80750000D03*
G04 #@! TD*
G04 #@! TO.N,GND*
G04 #@! TO.C,U21*
X120000000Y-85250000D03*
G04 #@! TD*
G04 #@! TO.N,/ESC1/PWM*
G04 #@! TO.C,U4*
X134000000Y-107000000D03*
G04 #@! TD*
G04 #@! TO.N,/ESC1/TELEMETRY_RX*
G04 #@! TO.C,U120*
X136000000Y-99250000D03*
G04 #@! TD*
G04 #@! TO.N,/ESC1/VS3*
G04 #@! TO.C,U109*
X136000000Y-94000000D03*
G04 #@! TD*
G04 #@! TO.N,/ESC1/SWCLK*
G04 #@! TO.C,U303*
X136000000Y-101750000D03*
G04 #@! TD*
G04 #@! TO.N,/ESC/NRST*
G04 #@! TO.C,U112*
X120000000Y-100500000D03*
G04 #@! TD*
G04 #@! TO.N,Net-(R101-Pad2)*
G04 #@! TO.C,U6*
X120000000Y-94000000D03*
G04 #@! TD*
D11*
G04 #@! TO.N,GND*
X131750000Y-88750000D03*
X131750000Y-89500000D03*
X131750000Y-90250000D03*
X124500000Y-88250000D03*
X124500000Y-87500000D03*
X124500000Y-86750000D03*
X125000000Y-86750000D03*
X125000000Y-87500000D03*
X125000000Y-88250000D03*
X126500000Y-88250000D03*
X125500000Y-88250000D03*
X126000000Y-88250000D03*
X126500000Y-87500000D03*
X126000000Y-87500000D03*
X126500000Y-86750000D03*
X126000000Y-86750000D03*
X121500000Y-103250000D03*
X128500000Y-106250000D03*
X126500000Y-106500000D03*
X129250000Y-106250000D03*
X130750000Y-100750000D03*
X131500000Y-98750000D03*
X128580123Y-102397267D03*
X132250000Y-99750000D03*
D12*
X127500000Y-85925000D03*
D11*
X130750000Y-106250000D03*
X124250000Y-106500000D03*
X123750000Y-98750000D03*
D12*
X129278600Y-93000000D03*
D11*
X132250000Y-100750000D03*
X125250000Y-100750000D03*
X130750000Y-88750000D03*
X131250000Y-90250000D03*
X131500000Y-100750000D03*
X130750000Y-98750000D03*
X129547673Y-96952945D03*
X123750000Y-100750000D03*
X124000000Y-94500000D03*
X125250000Y-99750000D03*
X126250000Y-103000000D03*
X124500000Y-100750000D03*
X130750000Y-90250000D03*
X125500000Y-86750000D03*
X131250000Y-88750000D03*
X120500000Y-106000000D03*
X133000000Y-99750000D03*
X123000000Y-100750000D03*
X129906995Y-94980566D03*
X131250000Y-89500000D03*
X131500000Y-99750000D03*
X135000000Y-106250000D03*
X121000000Y-105750000D03*
X123000000Y-99750000D03*
X124500000Y-99750000D03*
X125500000Y-87500000D03*
X131500000Y-106250000D03*
X130000000Y-105750000D03*
X123750000Y-99750000D03*
X125000000Y-106500000D03*
X124500000Y-98750000D03*
X123500000Y-95000000D03*
X135000000Y-105750000D03*
X132250000Y-98750000D03*
X123000000Y-98750000D03*
X130750000Y-99750000D03*
X133000000Y-100750000D03*
X123500000Y-96500000D03*
X130750000Y-89500000D03*
X126500000Y-105500000D03*
X122750000Y-106500000D03*
X135500000Y-96750000D03*
X125250000Y-98750000D03*
X130000000Y-106250000D03*
X131500000Y-105750000D03*
X130750000Y-105750000D03*
X129250000Y-105750000D03*
X125750000Y-106500000D03*
X133500000Y-95500000D03*
X123500000Y-106500000D03*
X128500000Y-105750000D03*
X133000000Y-98750000D03*
G04 #@! TO.N,+3V3*
X134500000Y-97500000D03*
X124141995Y-103219873D03*
X126250000Y-97250000D03*
X129250000Y-102750000D03*
X122250000Y-104000000D03*
G04 #@! TO.N,/ESC/VS1*
X127485027Y-100139912D03*
X123000000Y-96250000D03*
G04 #@! TO.N,/ESC/VS2*
X127500000Y-105625000D03*
G04 #@! TO.N,/ESC/VS3*
X124500000Y-105500000D03*
D12*
G04 #@! TO.N,/ESC1/VS1*
X133500462Y-85750462D03*
D11*
X133000000Y-87500000D03*
X128250000Y-99250000D03*
G04 #@! TO.N,/ESC1/VS2*
X129352387Y-93750000D03*
D12*
G04 #@! TO.N,/ESC1/VS3*
X133491320Y-94365123D03*
X134352400Y-91006523D03*
G04 #@! TO.N,Vdrive*
X129487600Y-85750000D03*
D11*
X134750000Y-84500000D03*
D12*
X122250000Y-90675000D03*
X124000000Y-93750000D03*
X135000000Y-96250000D03*
X123000000Y-82175000D03*
D11*
G04 #@! TO.N,/ESC/COMP*
X125391995Y-103219873D03*
X125500000Y-105500000D03*
G04 #@! TO.N,/ESC1/BOOT0*
X134750000Y-103250000D03*
X134986995Y-98564873D03*
D12*
G04 #@! TO.N,/ESC/HO2*
X122028600Y-86000000D03*
X122471155Y-87850001D03*
G04 #@! TO.N,/ESC/HO3*
X123503663Y-85287256D03*
X122738680Y-81469436D03*
G04 #@! TO.N,/ESC1/HO2*
X133893181Y-88991138D03*
X134230278Y-90234123D03*
D11*
G04 #@! TO.N,/ESC/GATE_CH*
X126125000Y-91875000D03*
X125296995Y-96719873D03*
G04 #@! TO.N,/ESC/GATE_AH*
X125500000Y-90750000D03*
X124257184Y-96616911D03*
G04 #@! TO.N,/ESC/GATE_AL*
X127141995Y-98599870D03*
X126250000Y-92500000D03*
G04 #@! TO.N,/ESC/GATE_BH*
X126000000Y-91000000D03*
X124771992Y-96719873D03*
G04 #@! TO.N,/ESC/GATE_BL*
X128103558Y-88455413D03*
X127141995Y-99124873D03*
G04 #@! TO.N,/ESC/GATE_CL*
X127191084Y-99704912D03*
X128250000Y-87875000D03*
G04 #@! TO.N,/ESC/NRST*
X122641995Y-103219873D03*
G04 #@! TO.N,VDD*
X128000000Y-90500000D03*
G04 #@! TO.N,/ESC1/NRST*
X133500000Y-96469873D03*
G04 #@! TO.N,/ESC1/GATE_AL*
X128717995Y-87477531D03*
X128500000Y-101750000D03*
G04 #@! TO.N,/ESC1/GATE_AH*
X132250000Y-103250000D03*
X130780186Y-86774008D03*
G04 #@! TO.N,/ESC1/SWDIO*
X133355527Y-103035534D03*
G04 #@! TO.N,/ESC1/GATE_BH*
X130267442Y-86661220D03*
X131166998Y-102969873D03*
G04 #@! TO.N,/ESC1/GATE_BL*
X128500000Y-100750000D03*
X127666166Y-89440004D03*
G04 #@! TO.N,/ESC1/GATE_CH*
X129750000Y-86750000D03*
X130250000Y-103140447D03*
G04 #@! TO.N,/ESC1/SWCLK*
X133891995Y-102969873D03*
G04 #@! TO.N,/ESC1/GATE_CL*
X127554896Y-89953080D03*
X128927200Y-100029668D03*
G04 #@! TO.N,Net-(U203-PA2)*
X132750000Y-103500000D03*
X126391995Y-102469873D03*
G04 #@! TO.N,Net-(U305-PA2)*
X129750000Y-97500000D03*
X134250000Y-103500000D03*
D12*
G04 #@! TO.N,Net-(R101-Pad2)*
X124750000Y-82750000D03*
G04 #@! TO.N,Net-(R103-Pad2)*
X123500000Y-92000000D03*
G04 #@! TO.N,Net-(R104-Pad2)*
X125698341Y-82774468D03*
G04 #@! TO.N,Net-(R106-Pad2)*
X126378328Y-82452400D03*
G04 #@! TO.N,Net-(R108-Pad2)*
X132240800Y-93749493D03*
G04 #@! TO.N,Net-(R110-Pad2)*
X131221088Y-93628320D03*
G04 #@! TO.N,Net-(R112-Pad2)*
X130221339Y-93630016D03*
D11*
G04 #@! TO.N,/ESC/TELEMETRY_TX*
X120750000Y-100000000D03*
G04 #@! TO.N,/ESC/TELEMETRY_RX*
X120750000Y-101000000D03*
G04 #@! TD*
D13*
G04 #@! TO.N,GND*
X131774528Y-86900443D02*
X131949500Y-86900443D01*
X130250000Y-88424971D02*
X131774528Y-86900443D01*
X130250000Y-92500000D02*
X130250000Y-88424971D01*
X130000000Y-92750000D02*
X130250000Y-92500000D01*
X129640200Y-92750000D02*
X130000000Y-92750000D01*
X123000000Y-88750000D02*
X121951000Y-88750000D01*
X123750000Y-88000000D02*
X123000000Y-88750000D01*
X124000000Y-86000000D02*
X123750000Y-86250000D01*
X124750000Y-86000000D02*
X124000000Y-86000000D01*
X123750000Y-86250000D02*
X123750000Y-88000000D01*
X124825000Y-85925000D02*
X124750000Y-86000000D01*
X121951000Y-88750000D02*
X120451000Y-90250000D01*
X127500000Y-85925000D02*
X124825000Y-85925000D01*
X125825000Y-84250000D02*
X121201000Y-84250000D01*
X127500000Y-85925000D02*
X125825000Y-84250000D01*
X121201000Y-84250000D02*
X120451000Y-85000000D01*
X132750000Y-88500000D02*
X133250000Y-88500000D01*
X121250000Y-94750000D02*
X120750000Y-95250000D01*
X135250000Y-86500000D02*
X135549000Y-86500000D01*
X135549000Y-91750000D02*
X135549000Y-91500000D01*
X129890200Y-92500000D02*
X130000000Y-92500000D01*
X131250000Y-81957106D02*
X128753400Y-84453706D01*
X127500000Y-86500000D02*
X127295600Y-86704400D01*
X127500000Y-85925000D02*
X127500000Y-86500000D01*
X132375000Y-90125000D02*
X132375000Y-88875000D01*
X127295600Y-86704400D02*
X127295600Y-88954400D01*
X133904099Y-91750000D02*
X135549000Y-91750000D01*
X131250000Y-81250000D02*
X131250000Y-81957106D01*
X124750000Y-81250000D02*
X125222399Y-81250000D01*
X129640200Y-92750000D02*
X132904099Y-92750000D01*
X132375000Y-88875000D02*
X132750000Y-88500000D01*
X120750000Y-95250000D02*
X120451000Y-95250000D01*
X131949500Y-85099500D02*
X135549000Y-81500000D01*
X129640200Y-92390200D02*
X129640200Y-92750000D01*
X129318995Y-87568995D02*
X129479600Y-87729600D01*
X124703400Y-92046600D02*
X122000000Y-94750000D01*
X129640200Y-92390200D02*
X129640200Y-92638400D01*
X122000000Y-94750000D02*
X121250000Y-94750000D01*
X129640200Y-92750000D02*
X129890200Y-92500000D01*
X129479600Y-87729600D02*
X129479600Y-92229600D01*
X125222399Y-81250000D02*
X125625799Y-81653400D01*
X131949500Y-85199500D02*
X131949500Y-86900443D01*
X128966938Y-86876531D02*
X129318995Y-87228588D01*
X133250000Y-88500000D02*
X135250000Y-86500000D01*
X124703400Y-90546600D02*
X124703400Y-92046600D01*
X129640200Y-92638400D02*
X129278600Y-93000000D01*
X126500000Y-89750000D02*
X125500000Y-89750000D01*
X125500000Y-89750000D02*
X124703400Y-90546600D01*
X126653400Y-81653400D02*
X127500000Y-82500000D01*
X131949500Y-86900443D02*
X131949500Y-85099500D01*
X132904099Y-92750000D02*
X133904099Y-91750000D01*
X128753400Y-84453706D02*
X128753400Y-86876531D01*
X129318995Y-87228588D02*
X129318995Y-87568995D01*
X129479600Y-92229600D02*
X129640200Y-92390200D01*
X127295600Y-88954400D02*
X126500000Y-89750000D01*
X128753400Y-86876531D02*
X128966938Y-86876531D01*
X130000000Y-92500000D02*
X132375000Y-90125000D01*
X127500000Y-82500000D02*
X127500000Y-85925000D01*
X125625799Y-81653400D02*
X126653400Y-81653400D01*
G04 #@! TO.N,+3V3*
X122751057Y-95649000D02*
X121399000Y-97001057D01*
X129250000Y-102750000D02*
X129750000Y-102250000D01*
X121451000Y-106549000D02*
X121000000Y-106549000D01*
X129750000Y-102250000D02*
X129750000Y-98500000D01*
X129750000Y-98500000D02*
X130750000Y-97500000D01*
X123125000Y-104875000D02*
X121451000Y-106549000D01*
X121399000Y-100476878D02*
X124141995Y-103219873D01*
X122250000Y-104000000D02*
X123125000Y-104875000D01*
X126250000Y-97250000D02*
X126250000Y-96822935D01*
X130750000Y-97500000D02*
X134500000Y-97500000D01*
X124141995Y-103219873D02*
X124141995Y-103858005D01*
X124742995Y-103820873D02*
X128179127Y-103820873D01*
X124141995Y-103219873D02*
X124742995Y-103820873D01*
X128179127Y-103820873D02*
X129250000Y-102750000D01*
X126250000Y-96822935D02*
X125076065Y-95649000D01*
X121399000Y-97001057D02*
X121399000Y-100476878D01*
X124141995Y-103858005D02*
X123125000Y-104875000D01*
X125076065Y-95649000D02*
X122751057Y-95649000D01*
D14*
G04 #@! TO.N,/ESC/VS1*
X124000000Y-97250000D02*
X125000000Y-97250000D01*
X127485027Y-100137383D02*
X127485027Y-100139912D01*
X127479756Y-100132112D02*
X127485027Y-100137383D01*
X123000000Y-96250000D02*
X123072924Y-96322924D01*
X123072800Y-96323047D02*
X123072800Y-96676953D01*
X126250000Y-99367981D02*
X127014131Y-100132112D01*
X123677077Y-96927077D02*
X124000000Y-97250000D01*
X126250000Y-98500000D02*
X126250000Y-99367981D01*
X127014131Y-100132112D02*
X127479756Y-100132112D01*
X123676953Y-96927200D02*
X123677077Y-96927077D01*
X123072800Y-96676953D02*
X123323047Y-96927200D01*
X123072924Y-96322924D02*
X123072800Y-96323047D01*
X125000000Y-97250000D02*
X126250000Y-98500000D01*
X123323047Y-96927200D02*
X123676953Y-96927200D01*
D13*
G04 #@! TO.N,/ESC1/VS3*
X133943150Y-94000000D02*
X135549000Y-94000000D01*
X133491320Y-94365123D02*
X133578027Y-94365123D01*
X133578027Y-94365123D02*
X133943150Y-94000000D01*
D14*
G04 #@! TO.N,/ESC/GATE_AL*
X127500000Y-94750000D02*
X127500000Y-98241865D01*
X127500000Y-98241865D02*
X127141995Y-98599870D01*
X126361600Y-93611600D02*
X127500000Y-94750000D01*
X126361600Y-92611600D02*
X126361600Y-93611600D01*
X126250000Y-92500000D02*
X126361600Y-92611600D01*
G04 #@! TO.N,/ESC/GATE_BL*
X128000000Y-98346018D02*
X127221145Y-99124873D01*
X128205413Y-88455413D02*
X128677200Y-88927200D01*
X127221145Y-99124873D02*
X127141995Y-99124873D01*
X128103558Y-88455413D02*
X128205413Y-88455413D01*
X128677200Y-88927200D02*
X128677200Y-90822800D01*
X128000000Y-91500000D02*
X128000000Y-98346018D01*
X128677200Y-90822800D02*
X128000000Y-91500000D01*
G04 #@! TO.N,/ESC/GATE_CL*
X128305800Y-91626666D02*
X128305800Y-98590196D01*
X128750000Y-88567534D02*
X128983000Y-88800534D01*
X128750000Y-88250000D02*
X128750000Y-88567534D01*
X128305800Y-98590196D02*
X127191084Y-99704912D01*
X128375000Y-87875000D02*
X128750000Y-88250000D01*
X128250000Y-87875000D02*
X128375000Y-87875000D01*
X128983000Y-90949467D02*
X128305800Y-91626666D01*
X128983000Y-88800534D02*
X128983000Y-90949467D01*
G04 #@! TO.N,/ESC1/SWDIO*
X133355527Y-103035534D02*
X133355527Y-103209680D01*
X134073047Y-103927200D02*
X134795600Y-103927200D01*
X133355527Y-103209680D02*
X134073047Y-103927200D01*
X134795600Y-103927200D02*
X135722800Y-103000000D01*
G04 #@! TO.N,/ESC1/SWCLK*
X135111868Y-101750000D02*
X135722800Y-101750000D01*
X133891995Y-102969873D02*
X135111868Y-101750000D01*
D15*
G04 #@! TO.N,Net-(R106-Pad2)*
X126378328Y-82452400D02*
X126378328Y-82947818D01*
X120973132Y-83377868D02*
X120351000Y-84000000D01*
X125948278Y-83377868D02*
X120973132Y-83377868D01*
X126378328Y-82947818D02*
X125948278Y-83377868D01*
G04 #@! TO.N,Net-(R112-Pad2)*
X132647107Y-94352893D02*
X134250000Y-92750000D01*
X130221339Y-93630016D02*
X130944216Y-94352893D01*
X134250000Y-92750000D02*
X135649000Y-92750000D01*
X130944216Y-94352893D02*
X132647107Y-94352893D01*
D14*
G04 #@! TO.N,/ESC/TELEMETRY_RX*
X120750000Y-101000000D02*
X120750000Y-102527200D01*
X120750000Y-102527200D02*
X120277200Y-103000000D01*
G04 #@! TD*
G04 #@! TA.AperFunction,Conductor*
G04 #@! TO.N,GND*
G36*
X121223660Y-100871324D02*
G01*
X123717069Y-103364733D01*
X123738809Y-103411353D01*
X123739095Y-103417907D01*
X123739095Y-103659971D01*
X123721502Y-103708309D01*
X123717069Y-103713145D01*
X123178174Y-104252039D01*
X123131554Y-104273779D01*
X123081867Y-104260465D01*
X123071826Y-104252039D01*
X122513320Y-103693533D01*
X122491580Y-103646913D01*
X122504894Y-103597226D01*
X122547031Y-103567721D01*
X122585957Y-103567721D01*
X122595851Y-103570373D01*
X122688136Y-103570373D01*
X122688139Y-103570373D01*
X122777283Y-103546487D01*
X122857207Y-103500342D01*
X122922464Y-103435085D01*
X122968609Y-103355161D01*
X122992495Y-103266017D01*
X122992495Y-103173729D01*
X122968609Y-103084585D01*
X122922464Y-103004661D01*
X122922461Y-103004658D01*
X122922460Y-103004656D01*
X122857211Y-102939407D01*
X122857208Y-102939405D01*
X122857207Y-102939404D01*
X122777283Y-102893259D01*
X122777282Y-102893258D01*
X122777281Y-102893258D01*
X122744651Y-102884515D01*
X122688139Y-102869373D01*
X122595851Y-102869373D01*
X122549197Y-102881873D01*
X122506708Y-102893258D01*
X122426778Y-102939407D01*
X122361529Y-103004656D01*
X122361526Y-103004660D01*
X122361526Y-103004661D01*
X122352351Y-103020553D01*
X122315380Y-103084586D01*
X122301719Y-103135572D01*
X122291495Y-103173729D01*
X122291495Y-103266017D01*
X122303083Y-103309264D01*
X122311172Y-103339455D01*
X122315381Y-103355161D01*
X122361526Y-103435085D01*
X122361527Y-103435086D01*
X122361529Y-103435089D01*
X122405797Y-103479357D01*
X122427537Y-103525977D01*
X122414223Y-103575664D01*
X122372086Y-103605169D01*
X122333160Y-103605169D01*
X122325212Y-103603039D01*
X122303043Y-103597099D01*
X122196957Y-103597099D01*
X122196956Y-103597099D01*
X122094494Y-103624554D01*
X122094485Y-103624558D01*
X122002613Y-103677599D01*
X121927599Y-103752613D01*
X121874558Y-103844485D01*
X121874554Y-103844494D01*
X121847099Y-103946956D01*
X121847099Y-104053043D01*
X121874554Y-104155505D01*
X121874556Y-104155509D01*
X121874557Y-104155513D01*
X121888928Y-104180405D01*
X121927599Y-104247386D01*
X122502038Y-104821825D01*
X122523778Y-104868445D01*
X122510464Y-104918132D01*
X122502038Y-104928173D01*
X121306140Y-106124074D01*
X121259520Y-106145814D01*
X121252966Y-106146100D01*
X120946957Y-106146100D01*
X120895721Y-106159828D01*
X120844483Y-106173557D01*
X120752614Y-106226598D01*
X120752608Y-106226602D01*
X120677602Y-106301608D01*
X120677598Y-106301614D01*
X120624556Y-106393485D01*
X120608164Y-106454660D01*
X120585690Y-106489526D01*
X120586413Y-106490249D01*
X120583803Y-106492858D01*
X120583801Y-106492860D01*
X120492866Y-106583795D01*
X120492861Y-106583800D01*
X120421407Y-106690737D01*
X120395585Y-106753078D01*
X120392123Y-106756855D01*
X120391234Y-106761900D01*
X120375078Y-106775456D01*
X120360832Y-106791003D01*
X120354788Y-106792481D01*
X120351829Y-106794965D01*
X120326109Y-106799500D01*
X120275700Y-106799500D01*
X120227362Y-106781907D01*
X120201642Y-106737358D01*
X120200500Y-106724300D01*
X120200500Y-103673890D01*
X120218093Y-103625552D01*
X120246923Y-103604414D01*
X120309264Y-103578592D01*
X120416199Y-103507140D01*
X120507140Y-103416199D01*
X120578592Y-103309264D01*
X120627809Y-103190444D01*
X120649444Y-103081678D01*
X120652900Y-103064306D01*
X120652900Y-102979445D01*
X120670493Y-102931107D01*
X120674915Y-102926281D01*
X120944222Y-102656975D01*
X120979100Y-102572770D01*
X120979100Y-102481630D01*
X120979100Y-101297729D01*
X120996693Y-101249391D01*
X121001115Y-101244565D01*
X121030469Y-101215212D01*
X121076614Y-101135288D01*
X121100500Y-101046144D01*
X121100500Y-100953856D01*
X121097848Y-100943959D01*
X121102332Y-100892717D01*
X121138705Y-100856344D01*
X121189949Y-100851860D01*
X121223660Y-100871324D01*
G37*
G04 #@! TD.AperFunction*
G04 #@! TA.AperFunction,Conductor*
G36*
X130430148Y-94267593D02*
G01*
X130434984Y-94272026D01*
X130699198Y-94536240D01*
X130699219Y-94536263D01*
X130758226Y-94595270D01*
X130758229Y-94595272D01*
X130758231Y-94595274D01*
X130788076Y-94612505D01*
X130827298Y-94635150D01*
X130827300Y-94635150D01*
X130827301Y-94635151D01*
X130904338Y-94655793D01*
X131085921Y-94655793D01*
X131127634Y-94668423D01*
X131250000Y-94750000D01*
X133279265Y-94776724D01*
X133311786Y-94785669D01*
X133311951Y-94785272D01*
X133315135Y-94786591D01*
X133315876Y-94786794D01*
X133316507Y-94787159D01*
X133431695Y-94818023D01*
X133431698Y-94818023D01*
X133550943Y-94818023D01*
X133550945Y-94818023D01*
X133666133Y-94787159D01*
X133666135Y-94787157D01*
X133667978Y-94786664D01*
X133668323Y-94786383D01*
X133670121Y-94786090D01*
X133670895Y-94785883D01*
X133670915Y-94785960D01*
X133694097Y-94782187D01*
X133731338Y-94782678D01*
X133779437Y-94800904D01*
X133804569Y-94845787D01*
X133805529Y-94856288D01*
X133832227Y-96125140D01*
X133815655Y-96173837D01*
X133771657Y-96200488D01*
X133720822Y-96192624D01*
X133719444Y-96191847D01*
X133635288Y-96143259D01*
X133635284Y-96143258D01*
X133546144Y-96119373D01*
X133453856Y-96119373D01*
X133407202Y-96131873D01*
X133364713Y-96143258D01*
X133284783Y-96189407D01*
X133219534Y-96254656D01*
X133173385Y-96334586D01*
X133159800Y-96385287D01*
X133149500Y-96423729D01*
X133149500Y-96516017D01*
X133156669Y-96542772D01*
X133173096Y-96604081D01*
X133173386Y-96605161D01*
X133219531Y-96685085D01*
X133219532Y-96685086D01*
X133219534Y-96685089D01*
X133284783Y-96750338D01*
X133284785Y-96750339D01*
X133284788Y-96750342D01*
X133364712Y-96796487D01*
X133453856Y-96820373D01*
X133453859Y-96820373D01*
X133546141Y-96820373D01*
X133546144Y-96820373D01*
X133635288Y-96796487D01*
X133715212Y-96750342D01*
X133780469Y-96685085D01*
X133826614Y-96605161D01*
X133850500Y-96516017D01*
X133850500Y-96423729D01*
X133826614Y-96334585D01*
X133814577Y-96313737D01*
X133805644Y-96263082D01*
X133831363Y-96218533D01*
X133879700Y-96200938D01*
X133881908Y-96200970D01*
X134474180Y-96218917D01*
X134521960Y-96237966D01*
X134546319Y-96283273D01*
X134547100Y-96294082D01*
X134547100Y-96309625D01*
X134573799Y-96409268D01*
X134577964Y-96424813D01*
X134577964Y-96424814D01*
X134637589Y-96528087D01*
X134721912Y-96612410D01*
X134781538Y-96646834D01*
X134825187Y-96672036D01*
X134940375Y-96702900D01*
X134940378Y-96702900D01*
X135059622Y-96702900D01*
X135059625Y-96702900D01*
X135174813Y-96672036D01*
X135278087Y-96612410D01*
X135362410Y-96528087D01*
X135369379Y-96516017D01*
X135374051Y-96507925D01*
X135413456Y-96474860D01*
X135464895Y-96474860D01*
X135492350Y-96492351D01*
X135499999Y-96500000D01*
X135500000Y-96500000D01*
X135724300Y-96500000D01*
X135772638Y-96517593D01*
X135798358Y-96562142D01*
X135799500Y-96575200D01*
X135799500Y-97326108D01*
X135781907Y-97374446D01*
X135753079Y-97395583D01*
X135690739Y-97421405D01*
X135583798Y-97492862D01*
X135583795Y-97492864D01*
X135492864Y-97583795D01*
X135492862Y-97583798D01*
X135421407Y-97690737D01*
X135372191Y-97809556D01*
X135372190Y-97809559D01*
X135349242Y-97924926D01*
X135347100Y-97935695D01*
X135347100Y-98064305D01*
X135372191Y-98190444D01*
X135421408Y-98309264D01*
X135492860Y-98416199D01*
X135492862Y-98416201D01*
X135492864Y-98416204D01*
X135583795Y-98507135D01*
X135583804Y-98507143D01*
X135666613Y-98562474D01*
X135697030Y-98603957D01*
X135693665Y-98655287D01*
X135666613Y-98687526D01*
X135583804Y-98742856D01*
X135583795Y-98742864D01*
X135492864Y-98833795D01*
X135492862Y-98833798D01*
X135421407Y-98940737D01*
X135372191Y-99059556D01*
X135372190Y-99059559D01*
X135347100Y-99185693D01*
X135347100Y-99314306D01*
X135370198Y-99430428D01*
X135372191Y-99440444D01*
X135421408Y-99559264D01*
X135492860Y-99666199D01*
X135492862Y-99666201D01*
X135492864Y-99666204D01*
X135583795Y-99757135D01*
X135583804Y-99757143D01*
X135666613Y-99812474D01*
X135697030Y-99853957D01*
X135693665Y-99905287D01*
X135666613Y-99937526D01*
X135583804Y-99992856D01*
X135583795Y-99992864D01*
X135492864Y-100083795D01*
X135492862Y-100083798D01*
X135421407Y-100190737D01*
X135372191Y-100309556D01*
X135372190Y-100309559D01*
X135347100Y-100435693D01*
X135347100Y-100564306D01*
X135371621Y-100687582D01*
X135372191Y-100690444D01*
X135386200Y-100724265D01*
X135415973Y-100796144D01*
X135421408Y-100809264D01*
X135492860Y-100916199D01*
X135492862Y-100916201D01*
X135492864Y-100916204D01*
X135583795Y-101007135D01*
X135583804Y-101007143D01*
X135666613Y-101062474D01*
X135697030Y-101103957D01*
X135693665Y-101155287D01*
X135666613Y-101187526D01*
X135583804Y-101242856D01*
X135583795Y-101242864D01*
X135492864Y-101333795D01*
X135492862Y-101333798D01*
X135421407Y-101440737D01*
X135412994Y-101461049D01*
X135409480Y-101469534D01*
X135407432Y-101474478D01*
X135372680Y-101512403D01*
X135337956Y-101520900D01*
X135066297Y-101520900D01*
X135041634Y-101531115D01*
X134999530Y-101548555D01*
X134982090Y-101555779D01*
X133940524Y-102597347D01*
X133893904Y-102619087D01*
X133887350Y-102619373D01*
X133845851Y-102619373D01*
X133799197Y-102631873D01*
X133756708Y-102643258D01*
X133676780Y-102689406D01*
X133637142Y-102729044D01*
X133590521Y-102750783D01*
X133546368Y-102740994D01*
X133490815Y-102708920D01*
X133490811Y-102708919D01*
X133401671Y-102685034D01*
X133309383Y-102685034D01*
X133262729Y-102697534D01*
X133220240Y-102708919D01*
X133185384Y-102729044D01*
X133141024Y-102754656D01*
X133140310Y-102755068D01*
X133075061Y-102820317D01*
X133028912Y-102900247D01*
X133018420Y-102939407D01*
X133005027Y-102989390D01*
X133005027Y-102989392D01*
X133005027Y-103081677D01*
X133009023Y-103096593D01*
X133004538Y-103147837D01*
X132968164Y-103184209D01*
X132916920Y-103188691D01*
X132898789Y-103181181D01*
X132885288Y-103173386D01*
X132885287Y-103173385D01*
X132885286Y-103173385D01*
X132852656Y-103164642D01*
X132796144Y-103149500D01*
X132703856Y-103149500D01*
X132665994Y-103159644D01*
X132614750Y-103155159D01*
X132578378Y-103118785D01*
X132577056Y-103115780D01*
X132576615Y-103114717D01*
X132576614Y-103114712D01*
X132530469Y-103034788D01*
X132530466Y-103034785D01*
X132530465Y-103034783D01*
X132465216Y-102969534D01*
X132465213Y-102969532D01*
X132465212Y-102969531D01*
X132385288Y-102923386D01*
X132385287Y-102923385D01*
X132385286Y-102923385D01*
X132352656Y-102914642D01*
X132296144Y-102899500D01*
X132203856Y-102899500D01*
X132157202Y-102912000D01*
X132114713Y-102923385D01*
X132034783Y-102969534D01*
X131969534Y-103034783D01*
X131923385Y-103114713D01*
X131911264Y-103159951D01*
X131899500Y-103203856D01*
X131899500Y-103296144D01*
X131911105Y-103339455D01*
X131915313Y-103355161D01*
X131923386Y-103385288D01*
X131969531Y-103465212D01*
X131969532Y-103465213D01*
X131969534Y-103465216D01*
X132034783Y-103530465D01*
X132034785Y-103530466D01*
X132034788Y-103530469D01*
X132114712Y-103576614D01*
X132203856Y-103600500D01*
X132203859Y-103600500D01*
X132296141Y-103600500D01*
X132296144Y-103600500D01*
X132334005Y-103590355D01*
X132385247Y-103594839D01*
X132421620Y-103631212D01*
X132422941Y-103634213D01*
X132423385Y-103635285D01*
X132423386Y-103635288D01*
X132469531Y-103715212D01*
X132469532Y-103715213D01*
X132469534Y-103715216D01*
X132534783Y-103780465D01*
X132534785Y-103780466D01*
X132534788Y-103780469D01*
X132614712Y-103826614D01*
X132703856Y-103850500D01*
X132703859Y-103850500D01*
X132796141Y-103850500D01*
X132796144Y-103850500D01*
X132885288Y-103826614D01*
X132965212Y-103780469D01*
X133030469Y-103715212D01*
X133076614Y-103635288D01*
X133100500Y-103546144D01*
X133100500Y-103460198D01*
X133118093Y-103411860D01*
X133162642Y-103386140D01*
X133213300Y-103395073D01*
X133228874Y-103407024D01*
X133943270Y-104121420D01*
X133943271Y-104121420D01*
X133943273Y-104121422D01*
X133976749Y-104135288D01*
X134027476Y-104156300D01*
X134027477Y-104156300D01*
X134841170Y-104156300D01*
X134841171Y-104156300D01*
X134872618Y-104143274D01*
X134925375Y-104121422D01*
X135513699Y-103533095D01*
X135560318Y-103511357D01*
X135608650Y-103523743D01*
X135690736Y-103578592D01*
X135743627Y-103600500D01*
X135753077Y-103604414D01*
X135791003Y-103639166D01*
X135799500Y-103673890D01*
X135799500Y-106724300D01*
X135781907Y-106772638D01*
X135737358Y-106798358D01*
X135724300Y-106799500D01*
X134673891Y-106799500D01*
X134625553Y-106781907D01*
X134604415Y-106753078D01*
X134578592Y-106690736D01*
X134507140Y-106583801D01*
X134507137Y-106583798D01*
X134507135Y-106583795D01*
X134416204Y-106492864D01*
X134416201Y-106492862D01*
X134416199Y-106492860D01*
X134309264Y-106421408D01*
X134190444Y-106372191D01*
X134190441Y-106372190D01*
X134190440Y-106372190D01*
X134064307Y-106347100D01*
X134064305Y-106347100D01*
X133935695Y-106347100D01*
X133935693Y-106347100D01*
X133809559Y-106372190D01*
X133809556Y-106372191D01*
X133690737Y-106421407D01*
X133583798Y-106492862D01*
X133583795Y-106492864D01*
X133492864Y-106583795D01*
X133492856Y-106583804D01*
X133437526Y-106666613D01*
X133396043Y-106697030D01*
X133344713Y-106693665D01*
X133312474Y-106666613D01*
X133257143Y-106583804D01*
X133257135Y-106583795D01*
X133166204Y-106492864D01*
X133166201Y-106492862D01*
X133166199Y-106492860D01*
X133059264Y-106421408D01*
X132940444Y-106372191D01*
X132940441Y-106372190D01*
X132940440Y-106372190D01*
X132814307Y-106347100D01*
X132814305Y-106347100D01*
X132685695Y-106347100D01*
X132685693Y-106347100D01*
X132559559Y-106372190D01*
X132559556Y-106372191D01*
X132440737Y-106421407D01*
X132333798Y-106492862D01*
X132333795Y-106492864D01*
X132242864Y-106583795D01*
X132242862Y-106583798D01*
X132171407Y-106690737D01*
X132145585Y-106753078D01*
X132110832Y-106791003D01*
X132076109Y-106799500D01*
X121951833Y-106799500D01*
X121903495Y-106781907D01*
X121877775Y-106737358D01*
X121886708Y-106686700D01*
X121898659Y-106671126D01*
X122176300Y-106393485D01*
X123115930Y-105453856D01*
X124149500Y-105453856D01*
X124149500Y-105546144D01*
X124173386Y-105635288D01*
X124219531Y-105715212D01*
X124219532Y-105715213D01*
X124219534Y-105715216D01*
X124284783Y-105780465D01*
X124284785Y-105780466D01*
X124284788Y-105780469D01*
X124364712Y-105826614D01*
X124453856Y-105850500D01*
X124453859Y-105850500D01*
X124546141Y-105850500D01*
X124546144Y-105850500D01*
X124635288Y-105826614D01*
X124715212Y-105780469D01*
X124780469Y-105715212D01*
X124826614Y-105635288D01*
X124850500Y-105546144D01*
X124850500Y-105453856D01*
X125149500Y-105453856D01*
X125149500Y-105546144D01*
X125173386Y-105635288D01*
X125219531Y-105715212D01*
X125219532Y-105715213D01*
X125219534Y-105715216D01*
X125284783Y-105780465D01*
X125284785Y-105780466D01*
X125284788Y-105780469D01*
X125364712Y-105826614D01*
X125453856Y-105850500D01*
X125453859Y-105850500D01*
X125546141Y-105850500D01*
X125546144Y-105850500D01*
X125635288Y-105826614D01*
X125715212Y-105780469D01*
X125780469Y-105715212D01*
X125826614Y-105635288D01*
X125841735Y-105578856D01*
X127149500Y-105578856D01*
X127149500Y-105671144D01*
X127173386Y-105760288D01*
X127219531Y-105840212D01*
X127219532Y-105840213D01*
X127219534Y-105840216D01*
X127284783Y-105905465D01*
X127284785Y-105905466D01*
X127284788Y-105905469D01*
X127364712Y-105951614D01*
X127453856Y-105975500D01*
X127453859Y-105975500D01*
X127546141Y-105975500D01*
X127546144Y-105975500D01*
X127635288Y-105951614D01*
X127715212Y-105905469D01*
X127780469Y-105840212D01*
X127826614Y-105760288D01*
X127850500Y-105671144D01*
X127850500Y-105578856D01*
X127826614Y-105489712D01*
X127780469Y-105409788D01*
X127780466Y-105409785D01*
X127780465Y-105409783D01*
X127715216Y-105344534D01*
X127715213Y-105344532D01*
X127715212Y-105344531D01*
X127635288Y-105298386D01*
X127635287Y-105298385D01*
X127635286Y-105298385D01*
X127602656Y-105289642D01*
X127546144Y-105274500D01*
X127453856Y-105274500D01*
X127415461Y-105284788D01*
X127364713Y-105298385D01*
X127284783Y-105344534D01*
X127219534Y-105409783D01*
X127173385Y-105489713D01*
X127159594Y-105541180D01*
X127149500Y-105578856D01*
X125841735Y-105578856D01*
X125850500Y-105546144D01*
X125850500Y-105453856D01*
X125826614Y-105364712D01*
X125780469Y-105284788D01*
X125780466Y-105284785D01*
X125780465Y-105284783D01*
X125715216Y-105219534D01*
X125715213Y-105219532D01*
X125715212Y-105219531D01*
X125635288Y-105173386D01*
X125635287Y-105173385D01*
X125635286Y-105173385D01*
X125602656Y-105164642D01*
X125546144Y-105149500D01*
X125453856Y-105149500D01*
X125407202Y-105162000D01*
X125364713Y-105173385D01*
X125284783Y-105219534D01*
X125219534Y-105284783D01*
X125173385Y-105364713D01*
X125165068Y-105395756D01*
X125149500Y-105453856D01*
X124850500Y-105453856D01*
X124826614Y-105364712D01*
X124780469Y-105284788D01*
X124780466Y-105284785D01*
X124780465Y-105284783D01*
X124715216Y-105219534D01*
X124715213Y-105219532D01*
X124715212Y-105219531D01*
X124635288Y-105173386D01*
X124635287Y-105173385D01*
X124635286Y-105173385D01*
X124602656Y-105164642D01*
X124546144Y-105149500D01*
X124453856Y-105149500D01*
X124407202Y-105162000D01*
X124364713Y-105173385D01*
X124284783Y-105219534D01*
X124219534Y-105284783D01*
X124173385Y-105364713D01*
X124165068Y-105395756D01*
X124149500Y-105453856D01*
X123115930Y-105453856D01*
X123447401Y-105122386D01*
X123447401Y-105122384D01*
X123453589Y-105116197D01*
X123453593Y-105116192D01*
X124389377Y-104180408D01*
X124389382Y-104180406D01*
X124411006Y-104158781D01*
X124433286Y-104148393D01*
X124457621Y-104137045D01*
X124457626Y-104137045D01*
X124457649Y-104137051D01*
X124501773Y-104146833D01*
X124559924Y-104180406D01*
X124587481Y-104196316D01*
X124689952Y-104223774D01*
X124689955Y-104223774D01*
X124800641Y-104223774D01*
X124800657Y-104223773D01*
X128121465Y-104223773D01*
X128121481Y-104223774D01*
X128126084Y-104223774D01*
X128232170Y-104223774D01*
X128315910Y-104201335D01*
X128315911Y-104201335D01*
X128325275Y-104198825D01*
X128334641Y-104196316D01*
X128426514Y-104143274D01*
X128501528Y-104068260D01*
X128501529Y-104068256D01*
X128506924Y-104062862D01*
X128506928Y-104062856D01*
X129475483Y-103094303D01*
X129899500Y-103094303D01*
X129899500Y-103186591D01*
X129923386Y-103275735D01*
X129969531Y-103355659D01*
X129969532Y-103355660D01*
X129969534Y-103355663D01*
X130034783Y-103420912D01*
X130034785Y-103420913D01*
X130034788Y-103420916D01*
X130114712Y-103467061D01*
X130203856Y-103490947D01*
X130203859Y-103490947D01*
X130296141Y-103490947D01*
X130296144Y-103490947D01*
X130385288Y-103467061D01*
X130465212Y-103420916D01*
X130530469Y-103355659D01*
X130576614Y-103275735D01*
X130600500Y-103186591D01*
X130600500Y-103094303D01*
X130576614Y-103005159D01*
X130530469Y-102925235D01*
X130530467Y-102925233D01*
X130530466Y-102925231D01*
X130528964Y-102923729D01*
X130816498Y-102923729D01*
X130816498Y-103016017D01*
X130829437Y-103064305D01*
X130838481Y-103098061D01*
X130840384Y-103105161D01*
X130886529Y-103185085D01*
X130886530Y-103185086D01*
X130886532Y-103185089D01*
X130951781Y-103250338D01*
X130951783Y-103250339D01*
X130951786Y-103250342D01*
X131031710Y-103296487D01*
X131120854Y-103320373D01*
X131120857Y-103320373D01*
X131213139Y-103320373D01*
X131213142Y-103320373D01*
X131302286Y-103296487D01*
X131382210Y-103250342D01*
X131447467Y-103185085D01*
X131493612Y-103105161D01*
X131517498Y-103016017D01*
X131517498Y-102923729D01*
X131493612Y-102834585D01*
X131447467Y-102754661D01*
X131447464Y-102754658D01*
X131447463Y-102754656D01*
X131382214Y-102689407D01*
X131382211Y-102689405D01*
X131382210Y-102689404D01*
X131302286Y-102643259D01*
X131302285Y-102643258D01*
X131302284Y-102643258D01*
X131269654Y-102634515D01*
X131213142Y-102619373D01*
X131120854Y-102619373D01*
X131074200Y-102631873D01*
X131031711Y-102643258D01*
X130951781Y-102689407D01*
X130886532Y-102754656D01*
X130840383Y-102834586D01*
X130826592Y-102886053D01*
X130816498Y-102923729D01*
X130528964Y-102923729D01*
X130465216Y-102859981D01*
X130465213Y-102859979D01*
X130465212Y-102859978D01*
X130385288Y-102813833D01*
X130385287Y-102813832D01*
X130385286Y-102813832D01*
X130352656Y-102805089D01*
X130296144Y-102789947D01*
X130203856Y-102789947D01*
X130157202Y-102802447D01*
X130114713Y-102813832D01*
X130034783Y-102859981D01*
X129969534Y-102925230D01*
X129969531Y-102925234D01*
X129969531Y-102925235D01*
X129966141Y-102931107D01*
X129923385Y-103005160D01*
X129910915Y-103051703D01*
X129899500Y-103094303D01*
X129475483Y-103094303D01*
X129572400Y-102997386D01*
X129572399Y-102997386D01*
X129991192Y-102578593D01*
X129991202Y-102578586D01*
X130072397Y-102497391D01*
X130072401Y-102497387D01*
X130125443Y-102405514D01*
X130141095Y-102347100D01*
X130152901Y-102303043D01*
X130152901Y-102196957D01*
X130152901Y-102192355D01*
X130152900Y-102192337D01*
X130152900Y-98698034D01*
X130170493Y-98649696D01*
X130174926Y-98644860D01*
X130301057Y-98518729D01*
X134636495Y-98518729D01*
X134636495Y-98611017D01*
X134645880Y-98646043D01*
X134656995Y-98687527D01*
X134660381Y-98700161D01*
X134706526Y-98780085D01*
X134706527Y-98780086D01*
X134706529Y-98780089D01*
X134771778Y-98845338D01*
X134771780Y-98845339D01*
X134771783Y-98845342D01*
X134851707Y-98891487D01*
X134940851Y-98915373D01*
X134940854Y-98915373D01*
X135033136Y-98915373D01*
X135033139Y-98915373D01*
X135122283Y-98891487D01*
X135202207Y-98845342D01*
X135267464Y-98780085D01*
X135313609Y-98700161D01*
X135337495Y-98611017D01*
X135337495Y-98518729D01*
X135313609Y-98429585D01*
X135267464Y-98349661D01*
X135267461Y-98349658D01*
X135267460Y-98349656D01*
X135202211Y-98284407D01*
X135202208Y-98284405D01*
X135202207Y-98284404D01*
X135122283Y-98238259D01*
X135122282Y-98238258D01*
X135122281Y-98238258D01*
X135089651Y-98229515D01*
X135033139Y-98214373D01*
X134940851Y-98214373D01*
X134894197Y-98226873D01*
X134851708Y-98238258D01*
X134771778Y-98284407D01*
X134706529Y-98349656D01*
X134660380Y-98429586D01*
X134651003Y-98464583D01*
X134636495Y-98518729D01*
X130301057Y-98518729D01*
X130359160Y-98460626D01*
X130535380Y-98284407D01*
X130894861Y-97924926D01*
X130941481Y-97903186D01*
X130948035Y-97902900D01*
X134553040Y-97902900D01*
X134553043Y-97902900D01*
X134655514Y-97875443D01*
X134659940Y-97872888D01*
X134666368Y-97869176D01*
X134747387Y-97822401D01*
X134822401Y-97747387D01*
X134875443Y-97655514D01*
X134902900Y-97553043D01*
X134902900Y-97446957D01*
X134875443Y-97344486D01*
X134875442Y-97344485D01*
X134875442Y-97344483D01*
X134822401Y-97252613D01*
X134822397Y-97252608D01*
X134747391Y-97177602D01*
X134747385Y-97177598D01*
X134655516Y-97124557D01*
X134614525Y-97113574D01*
X134553043Y-97097100D01*
X134553040Y-97097100D01*
X130807662Y-97097100D01*
X130807646Y-97097099D01*
X130803043Y-97097099D01*
X130696957Y-97097099D01*
X130606183Y-97121422D01*
X130594487Y-97124556D01*
X130594477Y-97124560D01*
X130558496Y-97145335D01*
X130558494Y-97145336D01*
X130502617Y-97177595D01*
X130502612Y-97177599D01*
X130481465Y-97198747D01*
X130427599Y-97252613D01*
X130427597Y-97252615D01*
X130319382Y-97360830D01*
X130219196Y-97461016D01*
X130172576Y-97482755D01*
X130122889Y-97469441D01*
X130093386Y-97427307D01*
X130076614Y-97364712D01*
X130030469Y-97284788D01*
X130030466Y-97284785D01*
X130030465Y-97284783D01*
X129965216Y-97219534D01*
X129965213Y-97219532D01*
X129965212Y-97219531D01*
X129885288Y-97173386D01*
X129885287Y-97173385D01*
X129885286Y-97173385D01*
X129852656Y-97164642D01*
X129796144Y-97149500D01*
X129703856Y-97149500D01*
X129657202Y-97162000D01*
X129614713Y-97173385D01*
X129534783Y-97219534D01*
X129469534Y-97284783D01*
X129423385Y-97364713D01*
X129409594Y-97416180D01*
X129399500Y-97453856D01*
X129399500Y-97546144D01*
X129409590Y-97583801D01*
X129420747Y-97625442D01*
X129423386Y-97635288D01*
X129469531Y-97715212D01*
X129469532Y-97715213D01*
X129469534Y-97715216D01*
X129534783Y-97780465D01*
X129534785Y-97780466D01*
X129534788Y-97780469D01*
X129614712Y-97826614D01*
X129677304Y-97843385D01*
X129719440Y-97872888D01*
X129732754Y-97922575D01*
X129711015Y-97969196D01*
X129504508Y-98175704D01*
X129504507Y-98175704D01*
X129427602Y-98252608D01*
X129427598Y-98252614D01*
X129374556Y-98344485D01*
X129370105Y-98361095D01*
X129370106Y-98361096D01*
X129347099Y-98446958D01*
X129347099Y-98559098D01*
X129347100Y-98559111D01*
X129347100Y-99775307D01*
X129329507Y-99823645D01*
X129284958Y-99849365D01*
X129234300Y-99840432D01*
X129211549Y-99817685D01*
X129210667Y-99818363D01*
X129207667Y-99814453D01*
X129142416Y-99749202D01*
X129142413Y-99749200D01*
X129142412Y-99749199D01*
X129062488Y-99703054D01*
X129062487Y-99703053D01*
X129062486Y-99703053D01*
X129029856Y-99694310D01*
X128973344Y-99679168D01*
X128881056Y-99679168D01*
X128834402Y-99691668D01*
X128791913Y-99703053D01*
X128711983Y-99749202D01*
X128646734Y-99814451D01*
X128600585Y-99894381D01*
X128597663Y-99905287D01*
X128576700Y-99983524D01*
X128576700Y-100075812D01*
X128600586Y-100164956D01*
X128646731Y-100244880D01*
X128646732Y-100244881D01*
X128646734Y-100244884D01*
X128696312Y-100294462D01*
X128718052Y-100341082D01*
X128704738Y-100390769D01*
X128662601Y-100420274D01*
X128623676Y-100420274D01*
X128565879Y-100404788D01*
X128546144Y-100399500D01*
X128453856Y-100399500D01*
X128407202Y-100412000D01*
X128364713Y-100423385D01*
X128284783Y-100469534D01*
X128219534Y-100534783D01*
X128173385Y-100614713D01*
X128163607Y-100651208D01*
X128149500Y-100703856D01*
X128149500Y-100796144D01*
X128173386Y-100885288D01*
X128219531Y-100965212D01*
X128219532Y-100965213D01*
X128219534Y-100965216D01*
X128284783Y-101030465D01*
X128284785Y-101030466D01*
X128284788Y-101030469D01*
X128364712Y-101076614D01*
X128453856Y-101100500D01*
X128453859Y-101100500D01*
X128546141Y-101100500D01*
X128546144Y-101100500D01*
X128635288Y-101076614D01*
X128715212Y-101030469D01*
X128780469Y-100965212D01*
X128826614Y-100885288D01*
X128850500Y-100796144D01*
X128850500Y-100703856D01*
X128826614Y-100614712D01*
X128780469Y-100534788D01*
X128780466Y-100534785D01*
X128780465Y-100534783D01*
X128730887Y-100485205D01*
X128709147Y-100438585D01*
X128722461Y-100388898D01*
X128764598Y-100359393D01*
X128803522Y-100359393D01*
X128881056Y-100380168D01*
X128881059Y-100380168D01*
X128973341Y-100380168D01*
X128973344Y-100380168D01*
X129062488Y-100356282D01*
X129142412Y-100310137D01*
X129173706Y-100278843D01*
X129207667Y-100244883D01*
X129210667Y-100240973D01*
X129212029Y-100242018D01*
X129246181Y-100213363D01*
X129297620Y-100213363D01*
X129337025Y-100246429D01*
X129347100Y-100284028D01*
X129347100Y-102051964D01*
X129329507Y-102100302D01*
X129325075Y-102105138D01*
X129002614Y-102427600D01*
X129002613Y-102427600D01*
X128034267Y-103395947D01*
X127987647Y-103417687D01*
X127981093Y-103417973D01*
X125799781Y-103417973D01*
X125751443Y-103400380D01*
X125725723Y-103355831D01*
X125727143Y-103323310D01*
X125727930Y-103320373D01*
X125742495Y-103266017D01*
X125742495Y-103173729D01*
X125718609Y-103084585D01*
X125672464Y-103004661D01*
X125672461Y-103004658D01*
X125672460Y-103004656D01*
X125607211Y-102939407D01*
X125607208Y-102939405D01*
X125607207Y-102939404D01*
X125527283Y-102893259D01*
X125527282Y-102893258D01*
X125527281Y-102893258D01*
X125494651Y-102884515D01*
X125438139Y-102869373D01*
X125345851Y-102869373D01*
X125299197Y-102881873D01*
X125256708Y-102893258D01*
X125176778Y-102939407D01*
X125111529Y-103004656D01*
X125111526Y-103004660D01*
X125111526Y-103004661D01*
X125102351Y-103020553D01*
X125065380Y-103084586D01*
X125051719Y-103135572D01*
X125041495Y-103173729D01*
X125041495Y-103266017D01*
X125056060Y-103320373D01*
X125056847Y-103323310D01*
X125056547Y-103326736D01*
X125058267Y-103329715D01*
X125054335Y-103352008D01*
X125052363Y-103374554D01*
X125049931Y-103376985D01*
X125049334Y-103380373D01*
X125031993Y-103394923D01*
X125015990Y-103410927D01*
X125011819Y-103411851D01*
X125009929Y-103413438D01*
X124984209Y-103417973D01*
X124941030Y-103417973D01*
X124892692Y-103400380D01*
X124887856Y-103395947D01*
X124468690Y-102976782D01*
X124468674Y-102976763D01*
X124386767Y-102894856D01*
X124386744Y-102894835D01*
X123915638Y-102423729D01*
X126041495Y-102423729D01*
X126041495Y-102516017D01*
X126056603Y-102572401D01*
X126059657Y-102583801D01*
X126065381Y-102605161D01*
X126111526Y-102685085D01*
X126111527Y-102685086D01*
X126111529Y-102685089D01*
X126176778Y-102750338D01*
X126176780Y-102750339D01*
X126176783Y-102750342D01*
X126256707Y-102796487D01*
X126345851Y-102820373D01*
X126345854Y-102820373D01*
X126438136Y-102820373D01*
X126438139Y-102820373D01*
X126527283Y-102796487D01*
X126607207Y-102750342D01*
X126672464Y-102685085D01*
X126718609Y-102605161D01*
X126742495Y-102516017D01*
X126742495Y-102423729D01*
X126718609Y-102334585D01*
X126672464Y-102254661D01*
X126672461Y-102254658D01*
X126672460Y-102254656D01*
X126607211Y-102189407D01*
X126607208Y-102189405D01*
X126607207Y-102189404D01*
X126527283Y-102143259D01*
X126527282Y-102143258D01*
X126527281Y-102143258D01*
X126494651Y-102134515D01*
X126438139Y-102119373D01*
X126345851Y-102119373D01*
X126299197Y-102131873D01*
X126256708Y-102143258D01*
X126176778Y-102189407D01*
X126111529Y-102254656D01*
X126065380Y-102334586D01*
X126051589Y-102386053D01*
X126041495Y-102423729D01*
X123915638Y-102423729D01*
X123195765Y-101703856D01*
X128149500Y-101703856D01*
X128149500Y-101796144D01*
X128173386Y-101885288D01*
X128219531Y-101965212D01*
X128219532Y-101965213D01*
X128219534Y-101965216D01*
X128284783Y-102030465D01*
X128284785Y-102030466D01*
X128284788Y-102030469D01*
X128364712Y-102076614D01*
X128453856Y-102100500D01*
X128453859Y-102100500D01*
X128546141Y-102100500D01*
X128546144Y-102100500D01*
X128635288Y-102076614D01*
X128715212Y-102030469D01*
X128780469Y-101965212D01*
X128826614Y-101885288D01*
X128850500Y-101796144D01*
X128850500Y-101703856D01*
X128826614Y-101614712D01*
X128780469Y-101534788D01*
X128780466Y-101534785D01*
X128780465Y-101534783D01*
X128715216Y-101469534D01*
X128715213Y-101469532D01*
X128715212Y-101469531D01*
X128635288Y-101423386D01*
X128635287Y-101423385D01*
X128635286Y-101423385D01*
X128602656Y-101414642D01*
X128546144Y-101399500D01*
X128453856Y-101399500D01*
X128407202Y-101412000D01*
X128364713Y-101423385D01*
X128284783Y-101469534D01*
X128219534Y-101534783D01*
X128173385Y-101614713D01*
X128159594Y-101666180D01*
X128149500Y-101703856D01*
X123195765Y-101703856D01*
X121823926Y-100332017D01*
X121802186Y-100285397D01*
X121801900Y-100278843D01*
X121801900Y-97199090D01*
X121819493Y-97150752D01*
X121823915Y-97145927D01*
X122571575Y-96398267D01*
X122618193Y-96376528D01*
X122667880Y-96389842D01*
X122689870Y-96413839D01*
X122719531Y-96465212D01*
X122719532Y-96465213D01*
X122719534Y-96465216D01*
X122784787Y-96530469D01*
X122797569Y-96537848D01*
X122806098Y-96542772D01*
X122839164Y-96582176D01*
X122843700Y-96607898D01*
X122843700Y-96722525D01*
X122848030Y-96732978D01*
X122848032Y-96732982D01*
X122878577Y-96806727D01*
X123193272Y-97121422D01*
X123200849Y-97124560D01*
X123242594Y-97141850D01*
X123242596Y-97141852D01*
X123242597Y-97141852D01*
X123264083Y-97150752D01*
X123277476Y-97156300D01*
X123277477Y-97156300D01*
X123368617Y-97156300D01*
X123551155Y-97156300D01*
X123599493Y-97173893D01*
X123604318Y-97178315D01*
X123752111Y-97326108D01*
X123870226Y-97444223D01*
X123920899Y-97465211D01*
X123920900Y-97465212D01*
X123934788Y-97470964D01*
X123954429Y-97479100D01*
X123954430Y-97479100D01*
X124045570Y-97479100D01*
X124873955Y-97479100D01*
X124922293Y-97496693D01*
X124927129Y-97501126D01*
X125998874Y-98572871D01*
X126020614Y-98619491D01*
X126020900Y-98626045D01*
X126020900Y-99413553D01*
X126027890Y-99430428D01*
X126032039Y-99440444D01*
X126055778Y-99497756D01*
X126819910Y-100261887D01*
X126884356Y-100326333D01*
X126968560Y-100361212D01*
X127179498Y-100361212D01*
X127227836Y-100378805D01*
X127232661Y-100383227D01*
X127269815Y-100420381D01*
X127349739Y-100466526D01*
X127438883Y-100490412D01*
X127438886Y-100490412D01*
X127531168Y-100490412D01*
X127531171Y-100490412D01*
X127620315Y-100466526D01*
X127700239Y-100420381D01*
X127765496Y-100355124D01*
X127811641Y-100275200D01*
X127835527Y-100186056D01*
X127835527Y-100093768D01*
X127811641Y-100004624D01*
X127765496Y-99924700D01*
X127765493Y-99924697D01*
X127765492Y-99924695D01*
X127700243Y-99859446D01*
X127700240Y-99859444D01*
X127700239Y-99859443D01*
X127620315Y-99813298D01*
X127620312Y-99813297D01*
X127620308Y-99813295D01*
X127597319Y-99807135D01*
X127589084Y-99801368D01*
X127579184Y-99799623D01*
X127568630Y-99787045D01*
X127555183Y-99777629D01*
X127551844Y-99767041D01*
X127546119Y-99760218D01*
X127541584Y-99734498D01*
X127541584Y-99709556D01*
X127559177Y-99661218D01*
X127563598Y-99656393D01*
X127821630Y-99398361D01*
X127868248Y-99376623D01*
X127917935Y-99389937D01*
X127939924Y-99413933D01*
X127969531Y-99465212D01*
X127969532Y-99465213D01*
X127969534Y-99465216D01*
X128034783Y-99530465D01*
X128034785Y-99530466D01*
X128034788Y-99530469D01*
X128114712Y-99576614D01*
X128203856Y-99600500D01*
X128203859Y-99600500D01*
X128296141Y-99600500D01*
X128296144Y-99600500D01*
X128385288Y-99576614D01*
X128465212Y-99530469D01*
X128530469Y-99465212D01*
X128576614Y-99385288D01*
X128600500Y-99296144D01*
X128600500Y-99203856D01*
X128576614Y-99114712D01*
X128530469Y-99034788D01*
X128530466Y-99034785D01*
X128530465Y-99034783D01*
X128465216Y-98969534D01*
X128465213Y-98969532D01*
X128465212Y-98969531D01*
X128413934Y-98939925D01*
X128380872Y-98900521D01*
X128380872Y-98849081D01*
X128398360Y-98821630D01*
X128500021Y-98719971D01*
X128534900Y-98635767D01*
X128534900Y-94325200D01*
X128552493Y-94276862D01*
X128597042Y-94251142D01*
X128610100Y-94250000D01*
X130381810Y-94250000D01*
X130430148Y-94267593D01*
G37*
G04 #@! TD.AperFunction*
G04 #@! TA.AperFunction,Conductor*
G36*
X126693193Y-94267593D02*
G01*
X126698029Y-94272026D01*
X127248874Y-94822870D01*
X127270614Y-94869490D01*
X127270900Y-94876044D01*
X127270900Y-98115819D01*
X127265285Y-98131245D01*
X127263855Y-98147599D01*
X127254439Y-98161046D01*
X127253307Y-98164157D01*
X127248875Y-98168993D01*
X127190525Y-98227344D01*
X127143905Y-98249084D01*
X127137350Y-98249370D01*
X127095851Y-98249370D01*
X127049197Y-98261870D01*
X127006708Y-98273255D01*
X126926778Y-98319404D01*
X126861529Y-98384653D01*
X126815380Y-98464583D01*
X126803979Y-98507135D01*
X126791495Y-98553726D01*
X126791495Y-98646014D01*
X126805434Y-98698034D01*
X126811311Y-98719971D01*
X126815381Y-98735158D01*
X126861526Y-98815082D01*
X126861527Y-98815083D01*
X126861529Y-98815086D01*
X126862689Y-98816598D01*
X126863033Y-98817692D01*
X126863991Y-98819350D01*
X126863623Y-98819562D01*
X126878152Y-98865659D01*
X126863742Y-98905248D01*
X126863990Y-98905392D01*
X126863178Y-98906797D01*
X126862688Y-98908145D01*
X126861526Y-98909659D01*
X126815381Y-98989583D01*
X126815381Y-98989585D01*
X126791495Y-99078729D01*
X126791495Y-99171017D01*
X126800294Y-99203856D01*
X126812253Y-99248489D01*
X126815381Y-99260161D01*
X126861526Y-99340085D01*
X126861527Y-99340086D01*
X126861529Y-99340089D01*
X126907702Y-99386262D01*
X126929442Y-99432882D01*
X126918888Y-99478330D01*
X126914158Y-99486156D01*
X126910615Y-99489700D01*
X126880595Y-99541693D01*
X126880192Y-99542362D01*
X126860728Y-99558042D01*
X126841551Y-99574133D01*
X126840755Y-99574133D01*
X126840134Y-99574633D01*
X126815120Y-99574133D01*
X126790111Y-99574133D01*
X126789300Y-99573616D01*
X126788705Y-99573605D01*
X126787150Y-99572247D01*
X126762657Y-99556642D01*
X126646459Y-99440444D01*
X126501125Y-99295109D01*
X126479386Y-99248489D01*
X126479100Y-99241935D01*
X126479100Y-98454428D01*
X126479099Y-98454427D01*
X126476005Y-98446957D01*
X126468809Y-98429585D01*
X126444222Y-98370225D01*
X126444221Y-98370224D01*
X126444221Y-98370223D01*
X125272745Y-97198747D01*
X125251005Y-97152127D01*
X125264319Y-97102440D01*
X125306456Y-97072935D01*
X125325919Y-97070373D01*
X125343136Y-97070373D01*
X125343139Y-97070373D01*
X125432283Y-97046487D01*
X125512207Y-97000342D01*
X125544754Y-96967795D01*
X125577462Y-96935088D01*
X125577462Y-96935087D01*
X125577464Y-96935085D01*
X125607122Y-96883715D01*
X125609756Y-96881505D01*
X125610647Y-96878183D01*
X125629187Y-96865200D01*
X125646527Y-96850651D01*
X125649966Y-96850651D01*
X125652784Y-96848678D01*
X125675332Y-96850651D01*
X125697967Y-96850651D01*
X125701570Y-96852946D01*
X125704028Y-96853162D01*
X125725421Y-96868142D01*
X125825074Y-96967795D01*
X125846814Y-97014415D01*
X125847100Y-97020969D01*
X125847100Y-97303043D01*
X125858204Y-97344483D01*
X125874557Y-97405516D01*
X125927598Y-97497385D01*
X125927602Y-97497391D01*
X126002608Y-97572397D01*
X126002611Y-97572399D01*
X126002613Y-97572401D01*
X126022354Y-97583798D01*
X126094483Y-97625442D01*
X126094485Y-97625442D01*
X126094486Y-97625443D01*
X126196957Y-97652900D01*
X126196960Y-97652900D01*
X126303040Y-97652900D01*
X126303043Y-97652900D01*
X126405514Y-97625443D01*
X126497387Y-97572401D01*
X126572401Y-97497387D01*
X126625443Y-97405514D01*
X126652900Y-97303043D01*
X126652900Y-96882046D01*
X126652901Y-96882033D01*
X126652901Y-96769891D01*
X126627133Y-96673729D01*
X126627131Y-96673721D01*
X126625444Y-96667422D01*
X126625443Y-96667420D01*
X126589498Y-96605161D01*
X126572401Y-96575548D01*
X126572399Y-96575546D01*
X126572397Y-96575543D01*
X126494772Y-96497918D01*
X126494749Y-96497897D01*
X125402760Y-95405909D01*
X125402744Y-95405890D01*
X125323456Y-95326602D01*
X125323450Y-95326598D01*
X125231579Y-95273556D01*
X125216788Y-95269593D01*
X125209923Y-95267754D01*
X125129109Y-95246099D01*
X125129108Y-95246099D01*
X125023022Y-95246099D01*
X125018419Y-95246099D01*
X125018403Y-95246100D01*
X123325200Y-95246100D01*
X123276862Y-95228507D01*
X123251142Y-95183958D01*
X123250000Y-95170900D01*
X123250000Y-94325200D01*
X123267593Y-94276862D01*
X123312142Y-94251142D01*
X123325200Y-94250000D01*
X126644855Y-94250000D01*
X126693193Y-94267593D01*
G37*
G04 #@! TD.AperFunction*
G04 #@! TA.AperFunction,Conductor*
G36*
X124926369Y-96069493D02*
G01*
X124931205Y-96073926D01*
X125148725Y-96291446D01*
X125149971Y-96294119D01*
X125152546Y-96295563D01*
X125160712Y-96317152D01*
X125170465Y-96338066D01*
X125169701Y-96340915D01*
X125170745Y-96343675D01*
X125163125Y-96365457D01*
X125157151Y-96387753D01*
X125154448Y-96390260D01*
X125153760Y-96392230D01*
X125136718Y-96406714D01*
X125133966Y-96409268D01*
X125133516Y-96409534D01*
X125081783Y-96439404D01*
X125079633Y-96441553D01*
X125072908Y-96445550D01*
X125051744Y-96449556D01*
X125031207Y-96456030D01*
X125026533Y-96454329D01*
X125022366Y-96455118D01*
X125010649Y-96448548D01*
X124991615Y-96441620D01*
X124991472Y-96441869D01*
X124990064Y-96441056D01*
X124988720Y-96440567D01*
X124987208Y-96439407D01*
X124987205Y-96439405D01*
X124987204Y-96439404D01*
X124907280Y-96393259D01*
X124907279Y-96393258D01*
X124907278Y-96393258D01*
X124874648Y-96384515D01*
X124818136Y-96369373D01*
X124725848Y-96369373D01*
X124644009Y-96391301D01*
X124636700Y-96393260D01*
X124618527Y-96403752D01*
X124567868Y-96412683D01*
X124527755Y-96391800D01*
X124472400Y-96336445D01*
X124472397Y-96336443D01*
X124472396Y-96336442D01*
X124392472Y-96290297D01*
X124392471Y-96290296D01*
X124392470Y-96290296D01*
X124359840Y-96281553D01*
X124303328Y-96266411D01*
X124211040Y-96266411D01*
X124164386Y-96278911D01*
X124121897Y-96290296D01*
X124061443Y-96325200D01*
X124045189Y-96334585D01*
X124041967Y-96336445D01*
X123976718Y-96401694D01*
X123930569Y-96481624D01*
X123923522Y-96507925D01*
X123906684Y-96570767D01*
X123906684Y-96570769D01*
X123906684Y-96661662D01*
X123903801Y-96669583D01*
X123904901Y-96677940D01*
X123895241Y-96693101D01*
X123889091Y-96710000D01*
X123881789Y-96714215D01*
X123877261Y-96721323D01*
X123860116Y-96726728D01*
X123844542Y-96735720D01*
X123834934Y-96734667D01*
X123828202Y-96736790D01*
X123802705Y-96731137D01*
X123765304Y-96715644D01*
X123765026Y-96715528D01*
X123723568Y-96698160D01*
X123723336Y-96698114D01*
X123723040Y-96698054D01*
X123722661Y-96697977D01*
X123722647Y-96697977D01*
X123677635Y-96697977D01*
X123632435Y-96697794D01*
X123631988Y-96697977D01*
X123631507Y-96697977D01*
X123624732Y-96697977D01*
X123623484Y-96698100D01*
X123449092Y-96698100D01*
X123433664Y-96692484D01*
X123417311Y-96691054D01*
X123403865Y-96681639D01*
X123400754Y-96680507D01*
X123395917Y-96676074D01*
X123323925Y-96604081D01*
X123302186Y-96557461D01*
X123301900Y-96550907D01*
X123301900Y-96448243D01*
X123311975Y-96410643D01*
X123314243Y-96406714D01*
X123326614Y-96385288D01*
X123350500Y-96296144D01*
X123350500Y-96203856D01*
X123335148Y-96146561D01*
X123339632Y-96095319D01*
X123376005Y-96058946D01*
X123407786Y-96051900D01*
X124878031Y-96051900D01*
X124926369Y-96069493D01*
G37*
G04 #@! TD.AperFunction*
G04 #@! TD*
M02*
