G04 #@! TF.GenerationSoftware,KiCad,Pcbnew,9.0.4*
G04 #@! TF.CreationDate,2025-09-23T15:48:17-04:00*
G04 #@! TF.ProjectId,ESC Module,45534320-4d6f-4647-956c-652e6b696361,rev?*
G04 #@! TF.SameCoordinates,Original*
G04 #@! TF.FileFunction,Paste,Top*
G04 #@! TF.FilePolarity,Positive*
%FSLAX46Y46*%
G04 Gerber Fmt 4.6, Leading zero omitted, Abs format (unit mm)*
G04 Created by KiCad (PCBNEW 9.0.4) date 2025-09-23 15:48:17*
%MOMM*%
%LPD*%
G01*
G04 APERTURE LIST*
G04 Aperture macros list*
%AMRoundRect*
0 Rectangle with rounded corners*
0 $1 Rounding radius*
0 $2 $3 $4 $5 $6 $7 $8 $9 X,Y pos of 4 corners*
0 Add a 4 corners polygon primitive as box body*
4,1,4,$2,$3,$4,$5,$6,$7,$8,$9,$2,$3,0*
0 Add four circle primitives for the rounded corners*
1,1,$1+$1,$2,$3*
1,1,$1+$1,$4,$5*
1,1,$1+$1,$6,$7*
1,1,$1+$1,$8,$9*
0 Add four rect primitives between the rounded corners*
20,1,$1+$1,$2,$3,$4,$5,0*
20,1,$1+$1,$4,$5,$6,$7,0*
20,1,$1+$1,$6,$7,$8,$9,0*
20,1,$1+$1,$8,$9,$2,$3,0*%
G04 Aperture macros list end*
%ADD10RoundRect,0.135000X-0.135000X-0.185000X0.135000X-0.185000X0.135000X0.185000X-0.135000X0.185000X0*%
%ADD11RoundRect,0.225000X0.250000X-0.225000X0.250000X0.225000X-0.250000X0.225000X-0.250000X-0.225000X0*%
%ADD12RoundRect,0.150000X0.200000X-0.150000X0.200000X0.150000X-0.200000X0.150000X-0.200000X-0.150000X0*%
%ADD13RoundRect,0.135000X-0.185000X0.135000X-0.185000X-0.135000X0.185000X-0.135000X0.185000X0.135000X0*%
%ADD14RoundRect,0.140000X0.170000X-0.140000X0.170000X0.140000X-0.170000X0.140000X-0.170000X-0.140000X0*%
%ADD15RoundRect,0.207500X-0.207500X0.207500X-0.207500X-0.207500X0.207500X-0.207500X0.207500X0.207500X0*%
%ADD16RoundRect,0.062500X-0.062500X0.375000X-0.062500X-0.375000X0.062500X-0.375000X0.062500X0.375000X0*%
%ADD17RoundRect,0.062500X-0.375000X0.062500X-0.375000X-0.062500X0.375000X-0.062500X0.375000X0.062500X0*%
%ADD18RoundRect,0.135000X0.185000X-0.135000X0.185000X0.135000X-0.185000X0.135000X-0.185000X-0.135000X0*%
%ADD19RoundRect,0.225000X-0.250000X0.225000X-0.250000X-0.225000X0.250000X-0.225000X0.250000X0.225000X0*%
%ADD20RoundRect,0.150000X-0.150000X-0.200000X0.150000X-0.200000X0.150000X0.200000X-0.150000X0.200000X0*%
%ADD21RoundRect,0.135000X0.135000X0.185000X-0.135000X0.185000X-0.135000X-0.185000X0.135000X-0.185000X0*%
%ADD22RoundRect,0.150000X-0.200000X0.150000X-0.200000X-0.150000X0.200000X-0.150000X0.200000X0.150000X0*%
%ADD23RoundRect,0.250000X0.275000X0.275000X-0.275000X0.275000X-0.275000X-0.275000X0.275000X-0.275000X0*%
%ADD24RoundRect,0.062500X0.350000X0.062500X-0.350000X0.062500X-0.350000X-0.062500X0.350000X-0.062500X0*%
%ADD25RoundRect,0.062500X0.062500X0.350000X-0.062500X0.350000X-0.062500X-0.350000X0.062500X-0.350000X0*%
%ADD26RoundRect,0.250000X-0.275000X-0.275000X0.275000X-0.275000X0.275000X0.275000X-0.275000X0.275000X0*%
%ADD27RoundRect,0.062500X-0.350000X-0.062500X0.350000X-0.062500X0.350000X0.062500X-0.350000X0.062500X0*%
%ADD28RoundRect,0.062500X-0.062500X-0.350000X0.062500X-0.350000X0.062500X0.350000X-0.062500X0.350000X0*%
%ADD29RoundRect,0.207500X0.207500X-0.207500X0.207500X0.207500X-0.207500X0.207500X-0.207500X-0.207500X0*%
%ADD30RoundRect,0.062500X0.062500X-0.375000X0.062500X0.375000X-0.062500X0.375000X-0.062500X-0.375000X0*%
%ADD31RoundRect,0.062500X0.375000X-0.062500X0.375000X0.062500X-0.375000X0.062500X-0.375000X-0.062500X0*%
%ADD32RoundRect,0.225000X-0.225000X-0.250000X0.225000X-0.250000X0.225000X0.250000X-0.225000X0.250000X0*%
%ADD33RoundRect,0.150000X0.150000X0.200000X-0.150000X0.200000X-0.150000X-0.200000X0.150000X-0.200000X0*%
%ADD34RoundRect,0.140000X-0.170000X0.140000X-0.170000X-0.140000X0.170000X-0.140000X0.170000X0.140000X0*%
G04 APERTURE END LIST*
D10*
G04 #@! TO.C,R109*
X134230278Y-90234123D03*
X135250278Y-90234123D03*
G04 #@! TD*
D11*
G04 #@! TO.C,C8*
X121665000Y-84275000D03*
X121665000Y-82725000D03*
G04 #@! TD*
D12*
G04 #@! TO.C,D202*
X121765000Y-89875000D03*
X121765000Y-91275000D03*
G04 #@! TD*
D13*
G04 #@! TO.C,R21*
X127454495Y-103959873D03*
X127454495Y-104979873D03*
G04 #@! TD*
D14*
G04 #@! TO.C,C5*
X132767309Y-95970566D03*
X132767309Y-95010566D03*
G04 #@! TD*
D15*
G04 #@! TO.C,U305*
X132956995Y-98784873D03*
X131926995Y-98784873D03*
X130896995Y-98784873D03*
X132956995Y-99814873D03*
X131926995Y-99814873D03*
X130896995Y-99814873D03*
X132956995Y-100844873D03*
X131926995Y-100844873D03*
X130896995Y-100844873D03*
D16*
X133676995Y-97377373D03*
X133176995Y-97377373D03*
X132676995Y-97377373D03*
X132176995Y-97377373D03*
X131676995Y-97377373D03*
X131176995Y-97377373D03*
X130676995Y-97377373D03*
X130176995Y-97377373D03*
D17*
X129489495Y-98064873D03*
X129489495Y-98564873D03*
X129489495Y-99064873D03*
X129489495Y-99564873D03*
X129489495Y-100064873D03*
X129489495Y-100564873D03*
X129489495Y-101064873D03*
X129489495Y-101564873D03*
D16*
X130176995Y-102252373D03*
X130676995Y-102252373D03*
X131176995Y-102252373D03*
X131676995Y-102252373D03*
X132176995Y-102252373D03*
X132676995Y-102252373D03*
X133176995Y-102252373D03*
X133676995Y-102252373D03*
D17*
X134364495Y-101564873D03*
X134364495Y-101064873D03*
X134364495Y-100564873D03*
X134364495Y-100064873D03*
X134364495Y-99564873D03*
X134364495Y-99064873D03*
X134364495Y-98564873D03*
X134364495Y-98064873D03*
G04 #@! TD*
D18*
G04 #@! TO.C,R16*
X125412828Y-104979873D03*
X125412828Y-103959873D03*
G04 #@! TD*
G04 #@! TO.C,R202*
X132734441Y-105019435D03*
X132734441Y-103999435D03*
G04 #@! TD*
D19*
G04 #@! TO.C,C303*
X134858166Y-87276653D03*
X134858166Y-88826653D03*
G04 #@! TD*
D13*
G04 #@! TO.C,R309*
X127846412Y-97581304D03*
X127846412Y-98601304D03*
G04 #@! TD*
D20*
G04 #@! TO.C,D304*
X130240000Y-85815000D03*
X128840000Y-85815000D03*
G04 #@! TD*
D18*
G04 #@! TO.C,R311*
X131825289Y-96000566D03*
X131825289Y-94980566D03*
G04 #@! TD*
D11*
G04 #@! TO.C,C6*
X121825000Y-94265000D03*
X121825000Y-92715000D03*
G04 #@! TD*
D21*
G04 #@! TO.C,R105*
X121984073Y-81470951D03*
X120964073Y-81470951D03*
G04 #@! TD*
D13*
G04 #@! TO.C,R110*
X131221088Y-92608320D03*
X131221088Y-93628320D03*
G04 #@! TD*
G04 #@! TO.C,R22*
X124391995Y-103959873D03*
X124391995Y-104979873D03*
G04 #@! TD*
G04 #@! TO.C,R108*
X132202388Y-92611712D03*
X132202388Y-93631712D03*
G04 #@! TD*
D21*
G04 #@! TO.C,R102*
X122042653Y-85613155D03*
X121022653Y-85613155D03*
G04 #@! TD*
D18*
G04 #@! TO.C,R104*
X125746532Y-84305000D03*
X125746532Y-83285000D03*
G04 #@! TD*
D13*
G04 #@! TO.C,R312*
X134984524Y-103999434D03*
X134984524Y-105019434D03*
G04 #@! TD*
D18*
G04 #@! TO.C,R19*
X131537828Y-104979873D03*
X131537828Y-103959873D03*
G04 #@! TD*
D13*
G04 #@! TO.C,R307*
X128725328Y-94980566D03*
X128725328Y-96000566D03*
G04 #@! TD*
D18*
G04 #@! TO.C,R310*
X127704495Y-96000566D03*
X127704495Y-94980566D03*
G04 #@! TD*
D22*
G04 #@! TO.C,D301*
X134785000Y-85990000D03*
X134785000Y-84590000D03*
G04 #@! TD*
D18*
G04 #@! TO.C,R15*
X129496162Y-104979873D03*
X129496162Y-103959873D03*
G04 #@! TD*
D23*
G04 #@! TO.C,U25*
X126164408Y-88355413D03*
X126164408Y-87055413D03*
X124864408Y-88355413D03*
X124864408Y-87055413D03*
D24*
X127451908Y-88955413D03*
X127451908Y-88455413D03*
X127451908Y-87955413D03*
X127451908Y-87455413D03*
X127451908Y-86955413D03*
X127451908Y-86455413D03*
D25*
X126764408Y-85767913D03*
X126264408Y-85767913D03*
X125764408Y-85767913D03*
X125264408Y-85767913D03*
X124764408Y-85767913D03*
X124264408Y-85767913D03*
D24*
X123576908Y-86455413D03*
X123576908Y-86955413D03*
X123576908Y-87455413D03*
X123576908Y-87955413D03*
X123576908Y-88455413D03*
X123576908Y-88955413D03*
D25*
X124264408Y-89642913D03*
X124764408Y-89642913D03*
X125264408Y-89642913D03*
X125764408Y-89642913D03*
X126264408Y-89642913D03*
X126764408Y-89642913D03*
G04 #@! TD*
D18*
G04 #@! TO.C,R14*
X130516995Y-104979873D03*
X130516995Y-103959873D03*
G04 #@! TD*
D11*
G04 #@! TO.C,C304*
X134703835Y-92960584D03*
X134703835Y-91410584D03*
G04 #@! TD*
D13*
G04 #@! TO.C,R306*
X129906995Y-94980566D03*
X129906995Y-96000566D03*
G04 #@! TD*
D10*
G04 #@! TO.C,R107*
X132604719Y-84569715D03*
X133624719Y-84569715D03*
G04 #@! TD*
D18*
G04 #@! TO.C,R101*
X124745000Y-84305000D03*
X124745000Y-83285000D03*
G04 #@! TD*
D13*
G04 #@! TO.C,R111*
X133501098Y-92399202D03*
X133501098Y-93419202D03*
G04 #@! TD*
G04 #@! TO.C,R112*
X130221339Y-92610016D03*
X130221339Y-93630016D03*
G04 #@! TD*
G04 #@! TO.C,R308*
X124662828Y-94959873D03*
X124662828Y-95979873D03*
G04 #@! TD*
D26*
G04 #@! TO.C,U302*
X130225000Y-88855000D03*
X130225000Y-90155000D03*
X131525000Y-88855000D03*
X131525000Y-90155000D03*
D27*
X128937500Y-88255000D03*
X128937500Y-88755000D03*
X128937500Y-89255000D03*
X128937500Y-89755000D03*
X128937500Y-90255000D03*
X128937500Y-90755000D03*
D28*
X129625000Y-91442500D03*
X130125000Y-91442500D03*
X130625000Y-91442500D03*
X131125000Y-91442500D03*
X131625000Y-91442500D03*
X132125000Y-91442500D03*
D27*
X132812500Y-90755000D03*
X132812500Y-90255000D03*
X132812500Y-89755000D03*
X132812500Y-89255000D03*
X132812500Y-88755000D03*
X132812500Y-88255000D03*
D28*
X132125000Y-87567500D03*
X131625000Y-87567500D03*
X131125000Y-87567500D03*
X130625000Y-87567500D03*
X130125000Y-87567500D03*
X129625000Y-87567500D03*
G04 #@! TD*
D13*
G04 #@! TO.C,R305*
X130856995Y-94980566D03*
X130856995Y-96000566D03*
G04 #@! TD*
G04 #@! TO.C,R304*
X126641995Y-94980566D03*
X126641995Y-96000566D03*
G04 #@! TD*
G04 #@! TO.C,R103*
X123561330Y-90775406D03*
X123561330Y-91795406D03*
G04 #@! TD*
D18*
G04 #@! TO.C,R313*
X133844159Y-105019434D03*
X133844159Y-103999434D03*
G04 #@! TD*
D29*
G04 #@! TO.C,U203*
X123016995Y-100904873D03*
X124046995Y-100904873D03*
X125076995Y-100904873D03*
X123016995Y-99874873D03*
X124046995Y-99874873D03*
X125076995Y-99874873D03*
X123016995Y-98844873D03*
X124046995Y-98844873D03*
X125076995Y-98844873D03*
D30*
X122296995Y-102312373D03*
X122796995Y-102312373D03*
X123296995Y-102312373D03*
X123796995Y-102312373D03*
X124296995Y-102312373D03*
X124796995Y-102312373D03*
X125296995Y-102312373D03*
X125796995Y-102312373D03*
D31*
X126484495Y-101624873D03*
X126484495Y-101124873D03*
X126484495Y-100624873D03*
X126484495Y-100124873D03*
X126484495Y-99624873D03*
X126484495Y-99124873D03*
X126484495Y-98624873D03*
X126484495Y-98124873D03*
D30*
X125796995Y-97437373D03*
X125296995Y-97437373D03*
X124796995Y-97437373D03*
X124296995Y-97437373D03*
X123796995Y-97437373D03*
X123296995Y-97437373D03*
X122796995Y-97437373D03*
X122296995Y-97437373D03*
D31*
X121609495Y-98124873D03*
X121609495Y-98624873D03*
X121609495Y-99124873D03*
X121609495Y-99624873D03*
X121609495Y-100124873D03*
X121609495Y-100624873D03*
X121609495Y-101124873D03*
X121609495Y-101624873D03*
G04 #@! TD*
D32*
G04 #@! TO.C,C302*
X131776654Y-85834836D03*
X133326654Y-85834836D03*
G04 #@! TD*
D18*
G04 #@! TO.C,R17*
X126433662Y-104979873D03*
X126433662Y-103959873D03*
G04 #@! TD*
G04 #@! TO.C,R18*
X128475328Y-104979873D03*
X128475328Y-103959873D03*
G04 #@! TD*
D33*
G04 #@! TO.C,D201*
X123200000Y-92960000D03*
X124600000Y-92960000D03*
G04 #@! TD*
D13*
G04 #@! TO.C,R201*
X120833005Y-103885127D03*
X120833005Y-104905127D03*
G04 #@! TD*
D22*
G04 #@! TO.C,D203*
X123194914Y-84544686D03*
X123194914Y-83144686D03*
G04 #@! TD*
D11*
G04 #@! TO.C,C7*
X121825000Y-88625000D03*
X121825000Y-87075000D03*
G04 #@! TD*
D34*
G04 #@! TO.C,C301*
X123389574Y-103963684D03*
X123389574Y-104923684D03*
G04 #@! TD*
D18*
G04 #@! TO.C,R106*
X126705000Y-84305000D03*
X126705000Y-83285000D03*
G04 #@! TD*
D13*
G04 #@! TO.C,R303*
X125683662Y-94959873D03*
X125683662Y-95979873D03*
G04 #@! TD*
D12*
G04 #@! TO.C,D302*
X134764496Y-94334026D03*
X134764496Y-95734026D03*
G04 #@! TD*
D18*
G04 #@! TO.C,R20*
X127837232Y-101388898D03*
X127837232Y-100368898D03*
G04 #@! TD*
M02*
