G04 #@! TF.GenerationSoftware,KiCad,Pcbnew,9.0.4*
G04 #@! TF.CreationDate,2025-09-23T15:48:17-04:00*
G04 #@! TF.ProjectId,ESC Module,45534320-4d6f-4647-956c-652e6b696361,rev?*
G04 #@! TF.SameCoordinates,Original*
G04 #@! TF.FileFunction,Copper,L2,Inr*
G04 #@! TF.FilePolarity,Positive*
%FSLAX46Y46*%
G04 Gerber Fmt 4.6, Leading zero omitted, Abs format (unit mm)*
G04 Created by KiCad (PCBNEW 9.0.4) date 2025-09-23 15:48:17*
%MOMM*%
%LPD*%
G01*
G04 APERTURE LIST*
G04 #@! TA.AperFunction,Conductor*
%ADD10C,0.200000*%
G04 #@! TD*
G04 #@! TA.AperFunction,ComponentPad*
%ADD11C,1.000000*%
G04 #@! TD*
G04 #@! TA.AperFunction,ViaPad*
%ADD12C,0.350000*%
G04 #@! TD*
G04 #@! TA.AperFunction,ViaPad*
%ADD13C,0.600000*%
G04 #@! TD*
G04 #@! TA.AperFunction,Conductor*
%ADD14C,0.500000*%
G04 #@! TD*
G04 #@! TA.AperFunction,Conductor*
%ADD15C,0.152400*%
G04 #@! TD*
G04 APERTURE END LIST*
G04 #@! TO.N,GND*
D10*
X130000000Y-88250000D02*
X132500000Y-88250000D01*
X132500000Y-90750000D01*
X130000000Y-90750000D01*
X130000000Y-88250000D01*
G04 #@! TA.AperFunction,Conductor*
G36*
X130000000Y-88250000D02*
G01*
X132500000Y-88250000D01*
X132500000Y-90750000D01*
X130000000Y-90750000D01*
X130000000Y-88250000D01*
G37*
G04 #@! TD.AperFunction*
X124250000Y-86500000D02*
X126750000Y-86500000D01*
X126750000Y-88750000D01*
X124250000Y-88750000D01*
X124250000Y-86500000D01*
G04 #@! TA.AperFunction,Conductor*
G36*
X124250000Y-86500000D02*
G01*
X126750000Y-86500000D01*
X126750000Y-88750000D01*
X124250000Y-88750000D01*
X124250000Y-86500000D01*
G37*
G04 #@! TD.AperFunction*
G04 #@! TD*
D11*
G04 #@! TO.N,Net-(R102-Pad2)*
G04 #@! TO.C,U7*
X120000000Y-86500000D03*
G04 #@! TD*
G04 #@! TO.N,Net-(R110-Pad2)*
G04 #@! TO.C,U14*
X136000000Y-87750000D03*
G04 #@! TD*
G04 #@! TO.N,/ESC/VS1*
G04 #@! TO.C,U105*
X120000000Y-92750000D03*
G04 #@! TD*
G04 #@! TO.N,/ESC1/VS2*
G04 #@! TO.C,U108*
X136000000Y-89000000D03*
G04 #@! TD*
G04 #@! TO.N,/ESC/TELEMETRY_TX*
G04 #@! TO.C,U121*
X120000000Y-101750000D03*
G04 #@! TD*
G04 #@! TO.N,Vdrive*
G04 #@! TO.C,U18*
X126000000Y-80750000D03*
G04 #@! TD*
G04 #@! TO.N,/ESC1/NRST*
G04 #@! TO.C,U111*
X136000000Y-98000000D03*
G04 #@! TD*
G04 #@! TO.N,/ESC/VS3*
G04 #@! TO.C,U110*
X120000000Y-82750000D03*
G04 #@! TD*
G04 #@! TO.N,Net-(R112-Pad2)*
G04 #@! TO.C,U16*
X136000000Y-92750000D03*
G04 #@! TD*
G04 #@! TO.N,Net-(R103-Pad2)*
G04 #@! TO.C,U5*
X120000000Y-91500000D03*
G04 #@! TD*
G04 #@! TO.N,Net-(R111-Pad2)*
G04 #@! TO.C,U15*
X136000000Y-95250000D03*
G04 #@! TD*
G04 #@! TO.N,/ESC/SWDIO*
G04 #@! TO.C,U202*
X120000000Y-98000000D03*
G04 #@! TD*
G04 #@! TO.N,GND*
G04 #@! TO.C,U22*
X120000000Y-90250000D03*
G04 #@! TD*
G04 #@! TO.N,GND*
G04 #@! TO.C,U116*
X124750000Y-80750000D03*
G04 #@! TD*
G04 #@! TO.N,GND*
G04 #@! TO.C,U118*
X129000000Y-107000000D03*
G04 #@! TD*
G04 #@! TO.N,/ESC/TELEMETRY_RX*
G04 #@! TO.C,U122*
X120000000Y-103000000D03*
G04 #@! TD*
G04 #@! TO.N,GND*
G04 #@! TO.C,U114*
X136000000Y-91500000D03*
G04 #@! TD*
G04 #@! TO.N,VDD*
G04 #@! TO.C,U103*
X128750000Y-80750000D03*
G04 #@! TD*
G04 #@! TO.N,Net-(R108-Pad2)*
G04 #@! TO.C,U12*
X136000000Y-82750000D03*
G04 #@! TD*
G04 #@! TO.N,Net-(R105-Pad2)*
G04 #@! TO.C,U9*
X120000000Y-81500000D03*
G04 #@! TD*
G04 #@! TO.N,/ESC/VS2*
G04 #@! TO.C,U106*
X120000000Y-87750000D03*
G04 #@! TD*
G04 #@! TO.N,GND*
G04 #@! TO.C,U19*
X131250000Y-80750000D03*
G04 #@! TD*
G04 #@! TO.N,Net-(R109-Pad2)*
G04 #@! TO.C,U13*
X136000000Y-90250000D03*
G04 #@! TD*
G04 #@! TO.N,GND*
G04 #@! TO.C,U20*
X120000000Y-95250000D03*
G04 #@! TD*
G04 #@! TO.N,/ESC/PWM*
G04 #@! TO.C,U3*
X132750000Y-107000000D03*
G04 #@! TD*
G04 #@! TO.N,GND*
G04 #@! TO.C,U113*
X136000000Y-81500000D03*
G04 #@! TD*
G04 #@! TO.N,Net-(R106-Pad2)*
G04 #@! TO.C,U10*
X120000000Y-84000000D03*
G04 #@! TD*
G04 #@! TO.N,GND*
G04 #@! TO.C,U115*
X136000000Y-86500000D03*
G04 #@! TD*
G04 #@! TO.N,Vdrive*
G04 #@! TO.C,U101*
X130000000Y-80750000D03*
G04 #@! TD*
G04 #@! TO.N,Net-(R104-Pad2)*
G04 #@! TO.C,U8*
X120000000Y-89000000D03*
G04 #@! TD*
G04 #@! TO.N,/ESC/SWCLK*
G04 #@! TO.C,U201*
X120000000Y-99250000D03*
G04 #@! TD*
G04 #@! TO.N,/ESC1/TELEMETRY_TX*
G04 #@! TO.C,U119*
X136000000Y-100500000D03*
G04 #@! TD*
G04 #@! TO.N,GND*
G04 #@! TO.C,U117*
X127000000Y-107000000D03*
G04 #@! TD*
G04 #@! TO.N,/ESC1/SWDIO*
G04 #@! TO.C,U304*
X136000000Y-103000000D03*
G04 #@! TD*
G04 #@! TO.N,Net-(R107-Pad2)*
G04 #@! TO.C,U11*
X136000000Y-85250000D03*
G04 #@! TD*
G04 #@! TO.N,+3V3*
G04 #@! TO.C,U102*
X121000000Y-107000000D03*
G04 #@! TD*
G04 #@! TO.N,/ESC1/VS1*
G04 #@! TO.C,U107*
X136000000Y-84000000D03*
G04 #@! TD*
G04 #@! TO.N,VDD*
G04 #@! TO.C,U104*
X127250000Y-80750000D03*
G04 #@! TD*
G04 #@! TO.N,GND*
G04 #@! TO.C,U21*
X120000000Y-85250000D03*
G04 #@! TD*
G04 #@! TO.N,/ESC1/PWM*
G04 #@! TO.C,U4*
X134000000Y-107000000D03*
G04 #@! TD*
G04 #@! TO.N,/ESC1/TELEMETRY_RX*
G04 #@! TO.C,U120*
X136000000Y-99250000D03*
G04 #@! TD*
G04 #@! TO.N,/ESC1/VS3*
G04 #@! TO.C,U109*
X136000000Y-94000000D03*
G04 #@! TD*
G04 #@! TO.N,/ESC1/SWCLK*
G04 #@! TO.C,U303*
X136000000Y-101750000D03*
G04 #@! TD*
G04 #@! TO.N,/ESC/NRST*
G04 #@! TO.C,U112*
X120000000Y-100500000D03*
G04 #@! TD*
G04 #@! TO.N,Net-(R101-Pad2)*
G04 #@! TO.C,U6*
X120000000Y-94000000D03*
G04 #@! TD*
D12*
G04 #@! TO.N,GND*
X131750000Y-88750000D03*
X131750000Y-89500000D03*
X131750000Y-90250000D03*
X124500000Y-88250000D03*
X124500000Y-87500000D03*
X124500000Y-86750000D03*
X125000000Y-86750000D03*
X125000000Y-87500000D03*
X125000000Y-88250000D03*
X126500000Y-88250000D03*
X125500000Y-88250000D03*
X126000000Y-88250000D03*
X126500000Y-87500000D03*
X126000000Y-87500000D03*
X126500000Y-86750000D03*
X126000000Y-86750000D03*
X121500000Y-103250000D03*
X128500000Y-106250000D03*
X126500000Y-106500000D03*
X129250000Y-106250000D03*
X130750000Y-100750000D03*
X131500000Y-98750000D03*
X128580123Y-102397267D03*
X132250000Y-99750000D03*
D13*
X127500000Y-85925000D03*
D12*
X130750000Y-106250000D03*
X124250000Y-106500000D03*
X123750000Y-98750000D03*
D13*
X129278600Y-93000000D03*
D12*
X132250000Y-100750000D03*
X125250000Y-100750000D03*
X130750000Y-88750000D03*
X131250000Y-90250000D03*
X131500000Y-100750000D03*
X130750000Y-98750000D03*
X129547673Y-96952945D03*
X123750000Y-100750000D03*
X124000000Y-94500000D03*
X125250000Y-99750000D03*
X126250000Y-103000000D03*
X124500000Y-100750000D03*
X130750000Y-90250000D03*
X125500000Y-86750000D03*
X131250000Y-88750000D03*
X120500000Y-106000000D03*
X133000000Y-99750000D03*
X123000000Y-100750000D03*
X129906995Y-94980566D03*
X131250000Y-89500000D03*
X131500000Y-99750000D03*
X135000000Y-106250000D03*
X121000000Y-105750000D03*
X123000000Y-99750000D03*
X124500000Y-99750000D03*
X125500000Y-87500000D03*
X131500000Y-106250000D03*
X130000000Y-105750000D03*
X123750000Y-99750000D03*
X125000000Y-106500000D03*
X124500000Y-98750000D03*
X123500000Y-95000000D03*
X135000000Y-105750000D03*
X132250000Y-98750000D03*
X123000000Y-98750000D03*
X130750000Y-99750000D03*
X133000000Y-100750000D03*
X123500000Y-96500000D03*
X130750000Y-89500000D03*
X126500000Y-105500000D03*
X122750000Y-106500000D03*
X135500000Y-96750000D03*
X125250000Y-98750000D03*
X130000000Y-106250000D03*
X131500000Y-105750000D03*
X130750000Y-105750000D03*
X129250000Y-105750000D03*
X125750000Y-106500000D03*
X133500000Y-95500000D03*
X123500000Y-106500000D03*
X128500000Y-105750000D03*
X133000000Y-98750000D03*
G04 #@! TO.N,+3V3*
X134500000Y-97500000D03*
X124141995Y-103219873D03*
X126250000Y-97250000D03*
X129250000Y-102750000D03*
X122250000Y-104000000D03*
G04 #@! TO.N,/ESC/VS1*
X127485027Y-100139912D03*
X123000000Y-96250000D03*
G04 #@! TO.N,/ESC/VS2*
X127500000Y-105625000D03*
G04 #@! TO.N,/ESC/VS3*
X124500000Y-105500000D03*
D13*
G04 #@! TO.N,/ESC1/VS1*
X133500462Y-85750462D03*
D12*
X133000000Y-87500000D03*
X128250000Y-99250000D03*
G04 #@! TO.N,/ESC1/VS2*
X129352387Y-93750000D03*
D13*
G04 #@! TO.N,/ESC1/VS3*
X133491320Y-94365123D03*
X134352400Y-91006523D03*
G04 #@! TO.N,Vdrive*
X129487600Y-85750000D03*
D12*
X134750000Y-84500000D03*
D13*
X122250000Y-90675000D03*
X124000000Y-93750000D03*
X135000000Y-96250000D03*
X123000000Y-82175000D03*
D12*
G04 #@! TO.N,/ESC/COMP*
X125391995Y-103219873D03*
X125500000Y-105500000D03*
G04 #@! TO.N,/ESC1/BOOT0*
X134750000Y-103250000D03*
X134986995Y-98564873D03*
D13*
G04 #@! TO.N,/ESC/HO2*
X122028600Y-86000000D03*
X122471155Y-87850001D03*
G04 #@! TO.N,/ESC/HO3*
X123503663Y-85287256D03*
X122738680Y-81469436D03*
G04 #@! TO.N,/ESC1/HO2*
X133893181Y-88991138D03*
X134230278Y-90234123D03*
D12*
G04 #@! TO.N,/ESC/GATE_CH*
X126125000Y-91875000D03*
X125296995Y-96719873D03*
G04 #@! TO.N,/ESC/GATE_AH*
X125500000Y-90750000D03*
X124257184Y-96616911D03*
G04 #@! TO.N,/ESC/GATE_AL*
X127141995Y-98599870D03*
X126250000Y-92500000D03*
G04 #@! TO.N,/ESC/GATE_BH*
X126000000Y-91000000D03*
X124771992Y-96719873D03*
G04 #@! TO.N,/ESC/GATE_BL*
X128103558Y-88455413D03*
X127141995Y-99124873D03*
G04 #@! TO.N,/ESC/GATE_CL*
X127191084Y-99704912D03*
X128250000Y-87875000D03*
G04 #@! TO.N,/ESC/NRST*
X122641995Y-103219873D03*
G04 #@! TO.N,VDD*
X128000000Y-90500000D03*
G04 #@! TO.N,/ESC1/NRST*
X133500000Y-96469873D03*
G04 #@! TO.N,/ESC1/GATE_AL*
X128717995Y-87477531D03*
X128500000Y-101750000D03*
G04 #@! TO.N,/ESC1/GATE_AH*
X132250000Y-103250000D03*
X130780186Y-86774008D03*
G04 #@! TO.N,/ESC1/SWDIO*
X133355527Y-103035534D03*
G04 #@! TO.N,/ESC1/GATE_BH*
X130267442Y-86661220D03*
X131166998Y-102969873D03*
G04 #@! TO.N,/ESC1/GATE_BL*
X128500000Y-100750000D03*
X127666166Y-89440004D03*
G04 #@! TO.N,/ESC1/GATE_CH*
X129750000Y-86750000D03*
X130250000Y-103140447D03*
G04 #@! TO.N,/ESC1/SWCLK*
X133891995Y-102969873D03*
G04 #@! TO.N,/ESC1/GATE_CL*
X127554896Y-89953080D03*
X128927200Y-100029668D03*
G04 #@! TO.N,Net-(U203-PA2)*
X132750000Y-103500000D03*
X126391995Y-102469873D03*
G04 #@! TO.N,Net-(U305-PA2)*
X129750000Y-97500000D03*
X134250000Y-103500000D03*
D13*
G04 #@! TO.N,Net-(R101-Pad2)*
X124750000Y-82750000D03*
G04 #@! TO.N,Net-(R103-Pad2)*
X123500000Y-92000000D03*
G04 #@! TO.N,Net-(R104-Pad2)*
X125698341Y-82774468D03*
G04 #@! TO.N,Net-(R106-Pad2)*
X126378328Y-82452400D03*
G04 #@! TO.N,Net-(R108-Pad2)*
X132240800Y-93749493D03*
G04 #@! TO.N,Net-(R110-Pad2)*
X131221088Y-93628320D03*
G04 #@! TO.N,Net-(R112-Pad2)*
X130221339Y-93630016D03*
D12*
G04 #@! TO.N,/ESC/TELEMETRY_TX*
X120750000Y-100000000D03*
G04 #@! TO.N,/ESC/TELEMETRY_RX*
X120750000Y-101000000D03*
G04 #@! TD*
D14*
G04 #@! TO.N,GND*
X129318995Y-87228588D02*
X129318995Y-87752749D01*
X127500000Y-85925000D02*
X128015407Y-85925000D01*
X128015407Y-85925000D02*
X129318995Y-87228588D01*
X129000000Y-90750000D02*
X127000000Y-92750000D01*
X127000000Y-92750000D02*
X127000000Y-94750000D01*
X128500000Y-93752444D02*
X128500000Y-95500000D01*
X129000000Y-88071744D02*
X129000000Y-90750000D01*
X129252444Y-93000000D02*
X128500000Y-93752444D01*
X129318995Y-87752749D02*
X129000000Y-88071744D01*
X129278600Y-93000000D02*
X129252444Y-93000000D01*
D15*
G04 #@! TO.N,/ESC/VS2*
X120729600Y-88202400D02*
X120729600Y-95552211D01*
X127125000Y-106000000D02*
X127500000Y-105625000D01*
X120500000Y-96750000D02*
X121750000Y-98000000D01*
X123000000Y-106000000D02*
X127125000Y-106000000D01*
X121750000Y-102895847D02*
X121927200Y-103073047D01*
X121927200Y-103073047D02*
X121927200Y-103426953D01*
X120729600Y-95552211D02*
X120464795Y-95817016D01*
X120464795Y-95817016D02*
X120464795Y-96750000D01*
X121750000Y-104750000D02*
X123000000Y-106000000D01*
X120464795Y-96750000D02*
X120500000Y-96750000D01*
X121750000Y-98000000D02*
X121750000Y-102895847D01*
X120277200Y-87750000D02*
X120729600Y-88202400D01*
X121927200Y-103426953D02*
X121750000Y-103604153D01*
X121750000Y-103604153D02*
X121750000Y-104750000D01*
G04 #@! TO.N,/ESC/VS3*
X121500000Y-96224997D02*
X121500000Y-83972800D01*
X122250000Y-96974997D02*
X121500000Y-96224997D01*
X122250000Y-101973725D02*
X122250000Y-96974997D01*
X124500000Y-105500000D02*
X124500000Y-104223725D01*
X124500000Y-104223725D02*
X122250000Y-101973725D01*
X121500000Y-83972800D02*
X120277200Y-82750000D01*
G04 #@! TO.N,/ESC1/VS1*
X132742729Y-87492729D02*
X132485458Y-87750000D01*
X127750000Y-93182466D02*
X127750000Y-98750000D01*
X132750000Y-87500000D02*
X132742729Y-87492729D01*
X133000000Y-87500000D02*
X132750000Y-87500000D01*
X129500000Y-88250000D02*
X129500000Y-91432466D01*
X130000000Y-87750000D02*
X129500000Y-88250000D01*
X127750000Y-98750000D02*
X128250000Y-99250000D01*
X132485458Y-87750000D02*
X130000000Y-87750000D01*
X129500000Y-91432466D02*
X127750000Y-93182466D01*
D14*
G04 #@! TO.N,Vdrive*
X125527601Y-81250000D02*
X125124201Y-81653400D01*
X122250000Y-91750000D02*
X122250000Y-90675000D01*
X130000000Y-81250000D02*
X130000000Y-82737600D01*
X124375799Y-81653400D02*
X124361199Y-81638801D01*
X123500000Y-89425000D02*
X123500000Y-87500000D01*
X123500000Y-82500000D02*
X123500000Y-82675000D01*
X132750000Y-85994758D02*
X132750000Y-85487600D01*
X133189781Y-88160162D02*
X133750000Y-87599943D01*
X135000000Y-96250000D02*
X135000000Y-94250000D01*
X128237600Y-84500000D02*
X123250000Y-84500000D01*
X133737600Y-84500000D02*
X134750000Y-84500000D01*
X133189781Y-92439781D02*
X133189781Y-88160162D01*
X129750000Y-85487600D02*
X129487600Y-85750000D01*
X123250000Y-84500000D02*
X122750000Y-85000000D01*
X122750000Y-85000000D02*
X122750000Y-86750000D01*
X122750000Y-85000000D02*
X122750000Y-83425000D01*
X125124201Y-81653400D02*
X124375799Y-81653400D01*
X123500000Y-82675000D02*
X123000000Y-82175000D01*
X135000000Y-94250000D02*
X133189781Y-92439781D01*
X132750000Y-85487600D02*
X129750000Y-85487600D01*
X132750000Y-85487600D02*
X133737600Y-84500000D01*
X124000000Y-93500000D02*
X122250000Y-91750000D01*
X133750000Y-87599943D02*
X133750000Y-86994758D01*
X124000000Y-93750000D02*
X124000000Y-93500000D01*
X129487600Y-85750000D02*
X128237600Y-84500000D01*
X133750000Y-86994758D02*
X132750000Y-85994758D01*
X122750000Y-86750000D02*
X123500000Y-87500000D01*
X122250000Y-90675000D02*
X123500000Y-89425000D01*
X124361199Y-81638801D02*
X123500000Y-82500000D01*
X126000000Y-81250000D02*
X125527601Y-81250000D01*
X122750000Y-83425000D02*
X123500000Y-82675000D01*
X130000000Y-82737600D02*
X132750000Y-85487600D01*
D15*
G04 #@! TO.N,/ESC1/BOOT0*
X134624995Y-103124995D02*
X134750000Y-103250000D01*
X134624995Y-98926873D02*
X134624995Y-103124995D01*
X134986995Y-98564873D02*
X134624995Y-98926873D01*
G04 #@! TO.N,/ESC/GATE_CH*
X124868784Y-96186317D02*
X125077792Y-96395326D01*
X125199192Y-96542920D02*
X125199192Y-96622070D01*
X124868784Y-95496148D02*
X124868784Y-96186317D01*
X126125000Y-91875000D02*
X125611600Y-92388400D01*
X125611600Y-94753332D02*
X124868784Y-95496148D01*
X125077792Y-96421520D02*
X125199192Y-96542920D01*
X125077792Y-96395326D02*
X125077792Y-96421520D01*
X125199192Y-96622070D02*
X125296995Y-96719873D01*
X125611600Y-92388400D02*
X125611600Y-94753332D01*
G04 #@! TO.N,/ESC/GATE_AH*
X125000000Y-94500000D02*
X125000000Y-91250000D01*
X125000000Y-94500000D02*
X124257184Y-95242816D01*
X124257184Y-95242816D02*
X124257184Y-96616911D01*
X125000000Y-91250000D02*
X125500000Y-90750000D01*
G04 #@! TO.N,/ESC/GATE_BH*
X124562984Y-96312984D02*
X124771992Y-96521992D01*
X124771992Y-96521992D02*
X124771992Y-96719873D01*
X125305800Y-91694200D02*
X125305800Y-94626666D01*
X126000000Y-91000000D02*
X125305800Y-91694200D01*
X125305800Y-94626666D02*
X124562984Y-95369482D01*
X124562984Y-95369482D02*
X124562984Y-96312984D01*
G04 #@! TO.N,Net-(U305-PA2)*
X132750000Y-97500000D02*
X129750000Y-97500000D01*
X134250000Y-103500000D02*
X134319195Y-103430805D01*
X134319195Y-103430805D02*
X134319195Y-99069195D01*
X134319195Y-99069195D02*
X132750000Y-97500000D01*
G04 #@! TO.N,/ESC/TELEMETRY_TX*
X120750000Y-100000000D02*
X121177200Y-100427200D01*
X120604153Y-101750000D02*
X120277200Y-101750000D01*
X121177200Y-100427200D02*
X121177200Y-101176953D01*
X121177200Y-101176953D02*
X120604153Y-101750000D01*
G04 #@! TD*
G04 #@! TA.AperFunction,Conductor*
G04 #@! TO.N,GND*
G36*
X124744038Y-94267593D02*
G01*
X124769758Y-94312142D01*
X124770900Y-94325200D01*
X124770900Y-94373954D01*
X124753307Y-94422292D01*
X124748874Y-94427128D01*
X124062963Y-95113038D01*
X124038299Y-95172580D01*
X124038299Y-95172582D01*
X124032868Y-95185695D01*
X124028084Y-95197246D01*
X124028084Y-96319181D01*
X124010491Y-96367519D01*
X124006058Y-96372355D01*
X123976718Y-96401694D01*
X123930569Y-96481624D01*
X123924398Y-96504656D01*
X123906684Y-96570767D01*
X123906684Y-96663055D01*
X123930570Y-96752199D01*
X123976715Y-96832123D01*
X123976716Y-96832124D01*
X123976718Y-96832127D01*
X124041967Y-96897376D01*
X124041969Y-96897377D01*
X124041972Y-96897380D01*
X124121896Y-96943525D01*
X124211040Y-96967411D01*
X124211043Y-96967411D01*
X124303325Y-96967411D01*
X124303328Y-96967411D01*
X124392472Y-96943525D01*
X124410645Y-96933032D01*
X124461299Y-96924098D01*
X124501419Y-96944982D01*
X124556775Y-97000338D01*
X124556777Y-97000339D01*
X124556780Y-97000342D01*
X124636704Y-97046487D01*
X124725848Y-97070373D01*
X124725851Y-97070373D01*
X124818133Y-97070373D01*
X124818136Y-97070373D01*
X124907280Y-97046487D01*
X124987204Y-97000342D01*
X124987210Y-97000335D01*
X124988707Y-96999188D01*
X124989796Y-96998844D01*
X124991472Y-96997877D01*
X124991686Y-96998248D01*
X125037764Y-96983713D01*
X125077370Y-96998127D01*
X125077515Y-96997877D01*
X125078934Y-96998696D01*
X125080274Y-96999184D01*
X125081778Y-97000338D01*
X125081780Y-97000339D01*
X125081783Y-97000342D01*
X125161707Y-97046487D01*
X125250851Y-97070373D01*
X125250854Y-97070373D01*
X125343136Y-97070373D01*
X125343139Y-97070373D01*
X125432283Y-97046487D01*
X125512207Y-97000342D01*
X125577464Y-96935085D01*
X125623609Y-96855161D01*
X125647495Y-96766017D01*
X125647495Y-96673729D01*
X125623609Y-96584585D01*
X125577464Y-96504661D01*
X125577461Y-96504658D01*
X125577460Y-96504656D01*
X125512211Y-96439407D01*
X125512208Y-96439405D01*
X125512207Y-96439404D01*
X125432283Y-96393259D01*
X125432280Y-96393258D01*
X125432275Y-96393256D01*
X125371482Y-96376966D01*
X125364530Y-96372952D01*
X125359165Y-96372483D01*
X125337772Y-96357503D01*
X125301113Y-96320844D01*
X125284810Y-96296444D01*
X125281732Y-96289013D01*
X125279354Y-96283273D01*
X125272014Y-96265552D01*
X125196837Y-96190375D01*
X125119909Y-96113446D01*
X125098170Y-96066826D01*
X125097884Y-96060272D01*
X125097884Y-95622192D01*
X125115477Y-95573854D01*
X125119910Y-95569018D01*
X125805821Y-94883107D01*
X125817146Y-94855766D01*
X125840700Y-94798903D01*
X125840700Y-94325200D01*
X125858293Y-94276862D01*
X125902842Y-94251142D01*
X125915900Y-94250000D01*
X127445700Y-94250000D01*
X127494038Y-94267593D01*
X127519758Y-94312142D01*
X127520900Y-94325200D01*
X127520900Y-98301545D01*
X127503307Y-98349883D01*
X127458758Y-98375603D01*
X127408100Y-98366670D01*
X127392526Y-98354719D01*
X127357211Y-98319404D01*
X127357208Y-98319402D01*
X127357207Y-98319401D01*
X127277283Y-98273256D01*
X127277282Y-98273255D01*
X127277281Y-98273255D01*
X127244651Y-98264512D01*
X127188139Y-98249370D01*
X127095851Y-98249370D01*
X127049197Y-98261870D01*
X127006708Y-98273255D01*
X126926778Y-98319404D01*
X126861529Y-98384653D01*
X126815380Y-98464583D01*
X126803979Y-98507135D01*
X126791495Y-98553726D01*
X126791495Y-98646014D01*
X126815381Y-98735158D01*
X126861526Y-98815082D01*
X126861527Y-98815083D01*
X126861529Y-98815086D01*
X126862689Y-98816598D01*
X126863033Y-98817692D01*
X126863991Y-98819350D01*
X126863623Y-98819562D01*
X126878152Y-98865659D01*
X126863742Y-98905248D01*
X126863990Y-98905392D01*
X126863178Y-98906797D01*
X126862688Y-98908145D01*
X126861526Y-98909659D01*
X126815381Y-98989583D01*
X126815381Y-98989585D01*
X126791495Y-99078729D01*
X126791495Y-99171017D01*
X126815381Y-99260161D01*
X126861526Y-99340085D01*
X126861527Y-99340086D01*
X126861529Y-99340089D01*
X126907702Y-99386262D01*
X126929442Y-99432882D01*
X126916128Y-99482569D01*
X126913504Y-99485700D01*
X126913617Y-99485787D01*
X126910619Y-99489694D01*
X126910616Y-99489698D01*
X126910615Y-99489700D01*
X126887079Y-99530465D01*
X126864469Y-99569625D01*
X126856197Y-99600500D01*
X126840584Y-99658768D01*
X126840584Y-99751056D01*
X126855610Y-99807135D01*
X126861359Y-99828592D01*
X126864470Y-99840200D01*
X126910615Y-99920124D01*
X126910616Y-99920125D01*
X126910618Y-99920128D01*
X126975867Y-99985377D01*
X126975869Y-99985378D01*
X126975872Y-99985381D01*
X127055796Y-100031526D01*
X127078790Y-100037687D01*
X127120927Y-100067192D01*
X127134527Y-100110325D01*
X127134527Y-100186056D01*
X127158413Y-100275200D01*
X127204558Y-100355124D01*
X127204559Y-100355125D01*
X127204561Y-100355128D01*
X127269810Y-100420377D01*
X127269812Y-100420378D01*
X127269815Y-100420381D01*
X127349739Y-100466526D01*
X127438883Y-100490412D01*
X127438886Y-100490412D01*
X127531168Y-100490412D01*
X127531171Y-100490412D01*
X127620315Y-100466526D01*
X127700239Y-100420381D01*
X127765496Y-100355124D01*
X127811641Y-100275200D01*
X127835527Y-100186056D01*
X127835527Y-100093768D01*
X127811641Y-100004624D01*
X127765496Y-99924700D01*
X127765493Y-99924697D01*
X127765492Y-99924695D01*
X127700243Y-99859446D01*
X127700240Y-99859444D01*
X127700239Y-99859443D01*
X127620315Y-99813298D01*
X127620312Y-99813297D01*
X127620308Y-99813295D01*
X127597319Y-99807135D01*
X127555183Y-99777629D01*
X127541584Y-99734498D01*
X127541584Y-99658770D01*
X127541584Y-99658768D01*
X127517698Y-99569624D01*
X127471553Y-99489700D01*
X127471550Y-99489697D01*
X127471549Y-99489695D01*
X127425375Y-99443521D01*
X127403635Y-99396901D01*
X127416949Y-99347214D01*
X127419578Y-99344086D01*
X127419462Y-99343997D01*
X127422457Y-99340091D01*
X127422464Y-99340085D01*
X127468609Y-99260161D01*
X127492495Y-99171017D01*
X127492495Y-99078729D01*
X127469146Y-98991590D01*
X127473630Y-98940349D01*
X127510003Y-98903976D01*
X127561247Y-98899492D01*
X127594958Y-98918955D01*
X127877474Y-99201470D01*
X127899214Y-99248091D01*
X127899500Y-99254645D01*
X127899500Y-99296144D01*
X127923386Y-99385288D01*
X127969531Y-99465212D01*
X127969532Y-99465213D01*
X127969534Y-99465216D01*
X128034783Y-99530465D01*
X128034785Y-99530466D01*
X128034788Y-99530469D01*
X128114712Y-99576614D01*
X128203856Y-99600500D01*
X128203859Y-99600500D01*
X128296141Y-99600500D01*
X128296144Y-99600500D01*
X128385288Y-99576614D01*
X128465212Y-99530469D01*
X128530469Y-99465212D01*
X128576614Y-99385288D01*
X128600500Y-99296144D01*
X128600500Y-99203856D01*
X128576614Y-99114712D01*
X128530469Y-99034788D01*
X128530466Y-99034785D01*
X128530465Y-99034783D01*
X128465216Y-98969534D01*
X128465213Y-98969532D01*
X128465212Y-98969531D01*
X128385288Y-98923386D01*
X128385287Y-98923385D01*
X128385286Y-98923385D01*
X128352656Y-98914642D01*
X128296144Y-98899500D01*
X128296141Y-98899500D01*
X128254645Y-98899500D01*
X128206307Y-98881907D01*
X128201470Y-98877474D01*
X128001125Y-98677128D01*
X127979386Y-98630508D01*
X127979100Y-98623954D01*
X127979100Y-97453856D01*
X129399500Y-97453856D01*
X129399500Y-97546144D01*
X129423386Y-97635288D01*
X129469531Y-97715212D01*
X129469532Y-97715213D01*
X129469534Y-97715216D01*
X129534783Y-97780465D01*
X129534785Y-97780466D01*
X129534788Y-97780469D01*
X129614712Y-97826614D01*
X129703856Y-97850500D01*
X129703859Y-97850500D01*
X129796141Y-97850500D01*
X129796144Y-97850500D01*
X129885288Y-97826614D01*
X129965212Y-97780469D01*
X129994555Y-97751125D01*
X130041174Y-97729386D01*
X130047729Y-97729100D01*
X132623955Y-97729100D01*
X132672293Y-97746693D01*
X132677129Y-97751126D01*
X134068069Y-99142065D01*
X134089809Y-99188685D01*
X134090095Y-99195239D01*
X134090095Y-102562087D01*
X134072502Y-102610425D01*
X134027953Y-102636145D01*
X133995433Y-102634725D01*
X133938139Y-102619373D01*
X133845851Y-102619373D01*
X133799197Y-102631873D01*
X133756708Y-102643258D01*
X133707789Y-102671501D01*
X133693896Y-102679524D01*
X133676780Y-102689406D01*
X133637142Y-102729044D01*
X133590521Y-102750783D01*
X133546368Y-102740994D01*
X133490815Y-102708920D01*
X133471923Y-102703858D01*
X133401671Y-102685034D01*
X133309383Y-102685034D01*
X133262729Y-102697534D01*
X133220240Y-102708919D01*
X133157195Y-102745319D01*
X133141024Y-102754656D01*
X133140310Y-102755068D01*
X133075061Y-102820317D01*
X133028912Y-102900247D01*
X133018420Y-102939407D01*
X133005027Y-102989390D01*
X133005027Y-102989392D01*
X133005027Y-103081677D01*
X133009023Y-103096593D01*
X133004538Y-103147837D01*
X132968164Y-103184209D01*
X132916920Y-103188691D01*
X132898789Y-103181181D01*
X132885288Y-103173386D01*
X132885287Y-103173385D01*
X132885286Y-103173385D01*
X132852656Y-103164642D01*
X132796144Y-103149500D01*
X132703856Y-103149500D01*
X132665994Y-103159644D01*
X132614750Y-103155159D01*
X132578378Y-103118785D01*
X132577056Y-103115780D01*
X132576615Y-103114717D01*
X132576614Y-103114712D01*
X132530469Y-103034788D01*
X132530466Y-103034785D01*
X132530465Y-103034783D01*
X132465216Y-102969534D01*
X132465213Y-102969532D01*
X132465212Y-102969531D01*
X132385288Y-102923386D01*
X132385287Y-102923385D01*
X132385286Y-102923385D01*
X132352656Y-102914642D01*
X132296144Y-102899500D01*
X132203856Y-102899500D01*
X132157202Y-102912000D01*
X132114713Y-102923385D01*
X132034783Y-102969534D01*
X131969534Y-103034783D01*
X131923385Y-103114713D01*
X131911182Y-103160258D01*
X131899500Y-103203856D01*
X131899500Y-103296144D01*
X131909123Y-103332056D01*
X131915313Y-103355161D01*
X131923386Y-103385288D01*
X131969531Y-103465212D01*
X131969532Y-103465213D01*
X131969534Y-103465216D01*
X132034783Y-103530465D01*
X132034785Y-103530466D01*
X132034788Y-103530469D01*
X132114712Y-103576614D01*
X132203856Y-103600500D01*
X132203859Y-103600500D01*
X132296141Y-103600500D01*
X132296144Y-103600500D01*
X132334005Y-103590355D01*
X132385247Y-103594839D01*
X132421620Y-103631212D01*
X132422941Y-103634213D01*
X132423385Y-103635285D01*
X132423386Y-103635288D01*
X132469531Y-103715212D01*
X132469532Y-103715213D01*
X132469534Y-103715216D01*
X132534783Y-103780465D01*
X132534785Y-103780466D01*
X132534788Y-103780469D01*
X132614712Y-103826614D01*
X132703856Y-103850500D01*
X132703859Y-103850500D01*
X132796141Y-103850500D01*
X132796144Y-103850500D01*
X132885288Y-103826614D01*
X132965212Y-103780469D01*
X133030469Y-103715212D01*
X133076614Y-103635288D01*
X133100500Y-103546144D01*
X133100500Y-103453856D01*
X133096503Y-103438939D01*
X133100987Y-103387698D01*
X133137360Y-103351325D01*
X133188604Y-103346841D01*
X133206737Y-103354352D01*
X133220239Y-103362148D01*
X133309383Y-103386034D01*
X133309386Y-103386034D01*
X133401668Y-103386034D01*
X133401671Y-103386034D01*
X133490815Y-103362148D01*
X133570739Y-103316003D01*
X133610379Y-103276362D01*
X133656998Y-103254623D01*
X133701151Y-103264411D01*
X133756707Y-103296487D01*
X133845851Y-103320373D01*
X133845861Y-103320373D01*
X133847199Y-103320550D01*
X133847925Y-103320928D01*
X133850612Y-103321648D01*
X133850452Y-103322243D01*
X133892828Y-103344299D01*
X133912516Y-103391822D01*
X133910026Y-103414568D01*
X133899500Y-103453856D01*
X133899500Y-103546144D01*
X133908195Y-103578593D01*
X133923100Y-103634223D01*
X133923386Y-103635288D01*
X133969531Y-103715212D01*
X133969532Y-103715213D01*
X133969534Y-103715216D01*
X134034783Y-103780465D01*
X134034785Y-103780466D01*
X134034788Y-103780469D01*
X134114712Y-103826614D01*
X134203856Y-103850500D01*
X134203859Y-103850500D01*
X134296141Y-103850500D01*
X134296144Y-103850500D01*
X134385288Y-103826614D01*
X134465212Y-103780469D01*
X134530469Y-103715212D01*
X134576614Y-103635288D01*
X134576616Y-103635277D01*
X134577054Y-103634223D01*
X134577524Y-103633708D01*
X134579078Y-103631019D01*
X134579674Y-103631363D01*
X134611802Y-103596294D01*
X134662801Y-103589574D01*
X134665975Y-103590350D01*
X134703856Y-103600500D01*
X134703859Y-103600500D01*
X134796141Y-103600500D01*
X134796144Y-103600500D01*
X134885288Y-103576614D01*
X134965212Y-103530469D01*
X135030469Y-103465212D01*
X135076614Y-103385288D01*
X135100500Y-103296144D01*
X135100500Y-103203856D01*
X135076614Y-103114712D01*
X135030469Y-103034788D01*
X135030466Y-103034785D01*
X135030465Y-103034783D01*
X134965216Y-102969534D01*
X134965213Y-102969532D01*
X134965212Y-102969531D01*
X134891693Y-102927084D01*
X134858630Y-102887679D01*
X134854095Y-102861960D01*
X134854095Y-99052918D01*
X134859710Y-99037490D01*
X134861141Y-99021137D01*
X134870555Y-99007692D01*
X134871688Y-99004580D01*
X134876121Y-98999744D01*
X134938466Y-98937399D01*
X134985086Y-98915659D01*
X134991640Y-98915373D01*
X135033136Y-98915373D01*
X135033139Y-98915373D01*
X135122283Y-98891487D01*
X135202207Y-98845342D01*
X135267464Y-98780085D01*
X135313609Y-98700161D01*
X135337495Y-98611017D01*
X135337495Y-98518729D01*
X135313609Y-98429585D01*
X135267464Y-98349661D01*
X135267461Y-98349658D01*
X135267460Y-98349656D01*
X135202211Y-98284407D01*
X135202208Y-98284405D01*
X135202207Y-98284404D01*
X135122283Y-98238259D01*
X135122282Y-98238258D01*
X135122281Y-98238258D01*
X135089651Y-98229515D01*
X135033139Y-98214373D01*
X134940851Y-98214373D01*
X134894197Y-98226873D01*
X134851708Y-98238258D01*
X134771778Y-98284407D01*
X134706529Y-98349656D01*
X134660380Y-98429586D01*
X134651003Y-98464583D01*
X134636495Y-98518729D01*
X134636495Y-98518731D01*
X134636495Y-98560228D01*
X134618902Y-98608566D01*
X134614479Y-98613391D01*
X134527712Y-98700159D01*
X134454107Y-98773764D01*
X134407487Y-98795503D01*
X134357800Y-98782189D01*
X134347759Y-98773763D01*
X133076099Y-97502101D01*
X133027854Y-97453856D01*
X134149500Y-97453856D01*
X134149500Y-97546144D01*
X134173386Y-97635288D01*
X134219531Y-97715212D01*
X134219532Y-97715213D01*
X134219534Y-97715216D01*
X134284783Y-97780465D01*
X134284785Y-97780466D01*
X134284788Y-97780469D01*
X134364712Y-97826614D01*
X134453856Y-97850500D01*
X134453859Y-97850500D01*
X134546141Y-97850500D01*
X134546144Y-97850500D01*
X134635288Y-97826614D01*
X134715212Y-97780469D01*
X134780469Y-97715212D01*
X134826614Y-97635288D01*
X134850500Y-97546144D01*
X134850500Y-97453856D01*
X134826614Y-97364712D01*
X134780469Y-97284788D01*
X134780466Y-97284785D01*
X134780465Y-97284783D01*
X134715216Y-97219534D01*
X134715213Y-97219532D01*
X134715212Y-97219531D01*
X134635288Y-97173386D01*
X134635287Y-97173385D01*
X134635286Y-97173385D01*
X134602656Y-97164642D01*
X134546144Y-97149500D01*
X134453856Y-97149500D01*
X134407202Y-97162000D01*
X134364713Y-97173385D01*
X134284783Y-97219534D01*
X134219534Y-97284783D01*
X134219531Y-97284787D01*
X134219531Y-97284788D01*
X134209785Y-97301668D01*
X134173385Y-97364713D01*
X134165114Y-97395583D01*
X134149500Y-97453856D01*
X133027854Y-97453856D01*
X132879780Y-97305782D01*
X132879777Y-97305780D01*
X132879775Y-97305778D01*
X132820233Y-97281115D01*
X132820232Y-97281114D01*
X132795573Y-97270900D01*
X132795571Y-97270900D01*
X130047729Y-97270900D01*
X129999391Y-97253307D01*
X129994565Y-97248884D01*
X129965212Y-97219531D01*
X129885288Y-97173386D01*
X129885287Y-97173385D01*
X129885286Y-97173385D01*
X129852656Y-97164642D01*
X129796144Y-97149500D01*
X129703856Y-97149500D01*
X129657202Y-97162000D01*
X129614713Y-97173385D01*
X129534783Y-97219534D01*
X129469534Y-97284783D01*
X129469531Y-97284787D01*
X129469531Y-97284788D01*
X129459785Y-97301668D01*
X129423385Y-97364713D01*
X129415114Y-97395583D01*
X129399500Y-97453856D01*
X127979100Y-97453856D01*
X127979100Y-94325200D01*
X127996693Y-94276862D01*
X128041242Y-94251142D01*
X128054300Y-94250000D01*
X130477232Y-94250000D01*
X130518945Y-94262630D01*
X131250000Y-94750000D01*
X133279265Y-94776724D01*
X133311786Y-94785669D01*
X133311951Y-94785272D01*
X133315135Y-94786591D01*
X133315876Y-94786794D01*
X133316507Y-94787159D01*
X133431695Y-94818023D01*
X133431698Y-94818023D01*
X133550943Y-94818023D01*
X133550945Y-94818023D01*
X133666133Y-94787159D01*
X133666135Y-94787157D01*
X133667978Y-94786664D01*
X133668323Y-94786383D01*
X133670121Y-94786090D01*
X133670895Y-94785883D01*
X133670915Y-94785960D01*
X133694097Y-94782187D01*
X133731338Y-94782678D01*
X133779437Y-94800904D01*
X133804569Y-94845787D01*
X133805529Y-94856288D01*
X133832227Y-96125140D01*
X133815655Y-96173837D01*
X133771657Y-96200488D01*
X133720822Y-96192624D01*
X133719444Y-96191847D01*
X133635288Y-96143259D01*
X133635284Y-96143258D01*
X133546144Y-96119373D01*
X133453856Y-96119373D01*
X133407202Y-96131873D01*
X133364713Y-96143258D01*
X133284783Y-96189407D01*
X133219534Y-96254656D01*
X133173385Y-96334586D01*
X133162030Y-96376966D01*
X133149500Y-96423729D01*
X133149500Y-96516017D01*
X133161859Y-96562142D01*
X133170744Y-96595303D01*
X133173386Y-96605161D01*
X133219531Y-96685085D01*
X133219532Y-96685086D01*
X133219534Y-96685089D01*
X133284783Y-96750338D01*
X133284785Y-96750339D01*
X133284788Y-96750342D01*
X133364712Y-96796487D01*
X133453856Y-96820373D01*
X133453859Y-96820373D01*
X133546141Y-96820373D01*
X133546144Y-96820373D01*
X133635288Y-96796487D01*
X133715212Y-96750342D01*
X133780469Y-96685085D01*
X133826614Y-96605161D01*
X133850500Y-96516017D01*
X133850500Y-96423729D01*
X133826614Y-96334585D01*
X133814577Y-96313737D01*
X133805644Y-96263082D01*
X133831363Y-96218533D01*
X133879700Y-96200938D01*
X133881908Y-96200970D01*
X134474180Y-96218917D01*
X134521960Y-96237966D01*
X134546319Y-96283273D01*
X134547100Y-96294082D01*
X134547100Y-96309625D01*
X134571771Y-96401699D01*
X134577964Y-96424813D01*
X134577964Y-96424814D01*
X134637589Y-96528087D01*
X134721912Y-96612410D01*
X134734882Y-96619898D01*
X134825187Y-96672036D01*
X134940375Y-96702900D01*
X134940378Y-96702900D01*
X135059622Y-96702900D01*
X135059625Y-96702900D01*
X135174813Y-96672036D01*
X135278087Y-96612410D01*
X135362410Y-96528087D01*
X135369379Y-96516017D01*
X135374051Y-96507925D01*
X135413456Y-96474860D01*
X135464895Y-96474860D01*
X135492350Y-96492351D01*
X135499999Y-96500000D01*
X135500000Y-96500000D01*
X135724300Y-96500000D01*
X135772638Y-96517593D01*
X135798358Y-96562142D01*
X135799500Y-96575200D01*
X135799500Y-97326108D01*
X135781907Y-97374446D01*
X135753079Y-97395583D01*
X135690739Y-97421405D01*
X135583798Y-97492862D01*
X135583795Y-97492864D01*
X135492864Y-97583795D01*
X135492862Y-97583798D01*
X135421407Y-97690737D01*
X135372191Y-97809556D01*
X135372190Y-97809559D01*
X135360123Y-97870225D01*
X135347100Y-97935695D01*
X135347100Y-98064305D01*
X135372191Y-98190444D01*
X135421408Y-98309264D01*
X135492860Y-98416199D01*
X135492862Y-98416201D01*
X135492864Y-98416204D01*
X135583795Y-98507135D01*
X135583804Y-98507143D01*
X135666613Y-98562474D01*
X135697030Y-98603957D01*
X135693665Y-98655287D01*
X135666613Y-98687526D01*
X135583804Y-98742856D01*
X135583795Y-98742864D01*
X135492864Y-98833795D01*
X135492862Y-98833798D01*
X135421407Y-98940737D01*
X135372191Y-99059556D01*
X135372190Y-99059559D01*
X135347100Y-99185693D01*
X135347100Y-99314306D01*
X135365208Y-99405342D01*
X135372191Y-99440444D01*
X135421408Y-99559264D01*
X135492860Y-99666199D01*
X135492862Y-99666201D01*
X135492864Y-99666204D01*
X135583795Y-99757135D01*
X135583804Y-99757143D01*
X135666613Y-99812474D01*
X135697030Y-99853957D01*
X135693665Y-99905287D01*
X135666613Y-99937526D01*
X135583804Y-99992856D01*
X135583795Y-99992864D01*
X135492864Y-100083795D01*
X135492862Y-100083798D01*
X135421407Y-100190737D01*
X135372191Y-100309556D01*
X135372190Y-100309559D01*
X135347100Y-100435693D01*
X135347100Y-100564306D01*
X135364046Y-100649500D01*
X135372191Y-100690444D01*
X135380147Y-100709651D01*
X135415973Y-100796144D01*
X135421408Y-100809264D01*
X135492860Y-100916199D01*
X135492862Y-100916201D01*
X135492864Y-100916204D01*
X135583795Y-101007135D01*
X135583804Y-101007143D01*
X135666613Y-101062474D01*
X135697030Y-101103957D01*
X135693665Y-101155287D01*
X135666613Y-101187526D01*
X135583804Y-101242856D01*
X135583795Y-101242864D01*
X135492864Y-101333795D01*
X135492862Y-101333798D01*
X135421407Y-101440737D01*
X135372191Y-101559556D01*
X135372190Y-101559559D01*
X135347100Y-101685693D01*
X135347100Y-101814306D01*
X135369746Y-101928155D01*
X135372191Y-101940444D01*
X135421408Y-102059264D01*
X135492860Y-102166199D01*
X135492862Y-102166201D01*
X135492864Y-102166204D01*
X135583795Y-102257135D01*
X135583804Y-102257143D01*
X135666613Y-102312474D01*
X135697030Y-102353957D01*
X135693665Y-102405287D01*
X135666613Y-102437526D01*
X135583804Y-102492856D01*
X135583795Y-102492864D01*
X135492864Y-102583795D01*
X135492862Y-102583798D01*
X135421407Y-102690737D01*
X135372191Y-102809556D01*
X135372190Y-102809559D01*
X135347100Y-102935693D01*
X135347100Y-103064306D01*
X135371424Y-103186591D01*
X135372191Y-103190444D01*
X135385165Y-103221765D01*
X135416115Y-103296487D01*
X135421408Y-103309264D01*
X135492860Y-103416199D01*
X135492862Y-103416201D01*
X135492864Y-103416204D01*
X135583795Y-103507135D01*
X135583798Y-103507137D01*
X135583801Y-103507140D01*
X135690736Y-103578592D01*
X135743627Y-103600500D01*
X135753077Y-103604414D01*
X135791003Y-103639166D01*
X135799500Y-103673890D01*
X135799500Y-106724300D01*
X135781907Y-106772638D01*
X135737358Y-106798358D01*
X135724300Y-106799500D01*
X134673891Y-106799500D01*
X134625553Y-106781907D01*
X134604415Y-106753078D01*
X134578592Y-106690736D01*
X134507140Y-106583801D01*
X134507137Y-106583798D01*
X134507135Y-106583795D01*
X134416204Y-106492864D01*
X134416201Y-106492862D01*
X134416199Y-106492860D01*
X134309264Y-106421408D01*
X134190444Y-106372191D01*
X134190441Y-106372190D01*
X134190440Y-106372190D01*
X134064307Y-106347100D01*
X134064305Y-106347100D01*
X133935695Y-106347100D01*
X133935693Y-106347100D01*
X133809559Y-106372190D01*
X133809556Y-106372191D01*
X133690737Y-106421407D01*
X133583798Y-106492862D01*
X133583795Y-106492864D01*
X133492864Y-106583795D01*
X133492856Y-106583804D01*
X133437526Y-106666613D01*
X133396043Y-106697030D01*
X133344713Y-106693665D01*
X133312474Y-106666613D01*
X133257143Y-106583804D01*
X133257135Y-106583795D01*
X133166204Y-106492864D01*
X133166201Y-106492862D01*
X133166199Y-106492860D01*
X133059264Y-106421408D01*
X132940444Y-106372191D01*
X132940441Y-106372190D01*
X132940440Y-106372190D01*
X132814307Y-106347100D01*
X132814305Y-106347100D01*
X132685695Y-106347100D01*
X132685693Y-106347100D01*
X132559559Y-106372190D01*
X132559556Y-106372191D01*
X132440737Y-106421407D01*
X132333798Y-106492862D01*
X132333795Y-106492864D01*
X132242864Y-106583795D01*
X132242862Y-106583798D01*
X132171407Y-106690737D01*
X132145585Y-106753078D01*
X132110832Y-106791003D01*
X132076109Y-106799500D01*
X121673891Y-106799500D01*
X121625553Y-106781907D01*
X121604415Y-106753078D01*
X121578592Y-106690736D01*
X121507140Y-106583801D01*
X121507137Y-106583798D01*
X121507135Y-106583795D01*
X121416204Y-106492864D01*
X121416201Y-106492862D01*
X121416199Y-106492860D01*
X121309264Y-106421408D01*
X121190444Y-106372191D01*
X121190441Y-106372190D01*
X121190440Y-106372190D01*
X121064307Y-106347100D01*
X121064305Y-106347100D01*
X120935695Y-106347100D01*
X120935693Y-106347100D01*
X120809559Y-106372190D01*
X120809556Y-106372191D01*
X120690737Y-106421407D01*
X120583798Y-106492862D01*
X120583795Y-106492864D01*
X120492864Y-106583795D01*
X120492862Y-106583798D01*
X120421407Y-106690737D01*
X120395585Y-106753078D01*
X120392123Y-106756855D01*
X120391234Y-106761900D01*
X120375078Y-106775456D01*
X120360832Y-106791003D01*
X120354788Y-106792481D01*
X120351829Y-106794965D01*
X120326109Y-106799500D01*
X120275700Y-106799500D01*
X120227362Y-106781907D01*
X120201642Y-106737358D01*
X120200500Y-106724300D01*
X120200500Y-103673890D01*
X120218093Y-103625552D01*
X120246923Y-103604414D01*
X120309264Y-103578592D01*
X120416199Y-103507140D01*
X120507140Y-103416199D01*
X120578592Y-103309264D01*
X120627809Y-103190444D01*
X120649444Y-103081678D01*
X120652900Y-103064306D01*
X120652900Y-102935693D01*
X120642863Y-102885239D01*
X120627809Y-102809556D01*
X120578592Y-102690736D01*
X120507140Y-102583801D01*
X120507137Y-102583798D01*
X120507135Y-102583795D01*
X120416202Y-102492862D01*
X120381289Y-102469534D01*
X120333384Y-102437524D01*
X120302969Y-102396043D01*
X120306333Y-102344714D01*
X120333383Y-102312475D01*
X120416199Y-102257140D01*
X120507140Y-102166199D01*
X120578592Y-102059264D01*
X120593009Y-102024455D01*
X120627761Y-101986531D01*
X120636120Y-101982807D01*
X120646022Y-101979100D01*
X120649723Y-101979100D01*
X120649724Y-101979100D01*
X120683252Y-101965212D01*
X120733928Y-101944222D01*
X121371422Y-101306727D01*
X121376224Y-101295135D01*
X121410975Y-101257208D01*
X121461975Y-101250493D01*
X121505359Y-101278131D01*
X121520900Y-101323911D01*
X121520900Y-102941418D01*
X121525006Y-102951330D01*
X121525007Y-102951335D01*
X121525008Y-102951335D01*
X121555777Y-103025621D01*
X121555778Y-103025622D01*
X121626749Y-103096593D01*
X121676074Y-103145917D01*
X121683012Y-103160795D01*
X121693565Y-103173372D01*
X121696415Y-103189539D01*
X121697814Y-103192538D01*
X121698100Y-103199092D01*
X121698100Y-103300907D01*
X121680507Y-103349245D01*
X121676074Y-103354081D01*
X121555782Y-103474372D01*
X121555779Y-103474377D01*
X121555778Y-103474378D01*
X121534633Y-103525427D01*
X121532545Y-103530469D01*
X121520900Y-103558581D01*
X121520900Y-104795570D01*
X121555778Y-104879776D01*
X122870223Y-106194221D01*
X122870224Y-106194221D01*
X122870225Y-106194222D01*
X122929766Y-106218884D01*
X122954429Y-106229100D01*
X127170570Y-106229100D01*
X127170571Y-106229100D01*
X127195231Y-106218884D01*
X127195234Y-106218884D01*
X127254773Y-106194223D01*
X127254773Y-106194222D01*
X127254775Y-106194222D01*
X127451471Y-105997525D01*
X127498091Y-105975786D01*
X127504645Y-105975500D01*
X127546141Y-105975500D01*
X127546144Y-105975500D01*
X127635288Y-105951614D01*
X127715212Y-105905469D01*
X127780469Y-105840212D01*
X127826614Y-105760288D01*
X127850500Y-105671144D01*
X127850500Y-105578856D01*
X127826614Y-105489712D01*
X127780469Y-105409788D01*
X127780466Y-105409785D01*
X127780465Y-105409783D01*
X127715216Y-105344534D01*
X127715213Y-105344532D01*
X127715212Y-105344531D01*
X127635288Y-105298386D01*
X127635287Y-105298385D01*
X127635286Y-105298385D01*
X127602656Y-105289642D01*
X127546144Y-105274500D01*
X127453856Y-105274500D01*
X127415461Y-105284788D01*
X127364713Y-105298385D01*
X127284783Y-105344534D01*
X127219534Y-105409783D01*
X127173385Y-105489713D01*
X127159594Y-105541180D01*
X127149500Y-105578856D01*
X127149500Y-105578858D01*
X127149500Y-105620355D01*
X127143884Y-105635782D01*
X127142454Y-105652136D01*
X127133039Y-105665580D01*
X127131907Y-105668693D01*
X127127474Y-105673529D01*
X127052129Y-105748874D01*
X127005509Y-105770614D01*
X126998955Y-105770900D01*
X125878568Y-105770900D01*
X125830230Y-105753307D01*
X125804510Y-105708758D01*
X125813443Y-105658100D01*
X125826614Y-105635288D01*
X125850500Y-105546144D01*
X125850500Y-105453856D01*
X125826614Y-105364712D01*
X125780469Y-105284788D01*
X125780466Y-105284785D01*
X125780465Y-105284783D01*
X125715216Y-105219534D01*
X125715213Y-105219532D01*
X125715212Y-105219531D01*
X125635288Y-105173386D01*
X125635287Y-105173385D01*
X125635286Y-105173385D01*
X125602656Y-105164642D01*
X125546144Y-105149500D01*
X125453856Y-105149500D01*
X125407202Y-105162000D01*
X125364713Y-105173385D01*
X125284783Y-105219534D01*
X125219534Y-105284783D01*
X125173385Y-105364713D01*
X125161309Y-105409783D01*
X125149500Y-105453856D01*
X125149500Y-105546144D01*
X125158265Y-105578856D01*
X125169384Y-105620355D01*
X125173386Y-105635288D01*
X125186557Y-105658100D01*
X125195490Y-105708758D01*
X125169770Y-105753306D01*
X125121433Y-105770900D01*
X124878568Y-105770900D01*
X124830230Y-105753307D01*
X124804510Y-105708758D01*
X124813443Y-105658100D01*
X124826614Y-105635288D01*
X124850500Y-105546144D01*
X124850500Y-105453856D01*
X124826614Y-105364712D01*
X124780469Y-105284788D01*
X124780466Y-105284785D01*
X124780465Y-105284783D01*
X124751126Y-105255444D01*
X124729386Y-105208824D01*
X124729100Y-105202270D01*
X124729100Y-104178155D01*
X124729100Y-104178154D01*
X124711344Y-104135288D01*
X124707731Y-104126564D01*
X124707731Y-104126563D01*
X124700976Y-104110258D01*
X124694222Y-104093951D01*
X124694218Y-104093947D01*
X124694217Y-104093945D01*
X124263831Y-103663560D01*
X124242091Y-103616940D01*
X124255405Y-103567253D01*
X124279402Y-103545263D01*
X124357207Y-103500342D01*
X124422464Y-103435085D01*
X124468609Y-103355161D01*
X124492495Y-103266017D01*
X124492495Y-103173729D01*
X125041495Y-103173729D01*
X125041495Y-103266017D01*
X125053083Y-103309264D01*
X125065091Y-103354081D01*
X125065381Y-103355161D01*
X125111526Y-103435085D01*
X125111527Y-103435086D01*
X125111529Y-103435089D01*
X125176778Y-103500338D01*
X125176780Y-103500339D01*
X125176783Y-103500342D01*
X125256707Y-103546487D01*
X125345851Y-103570373D01*
X125345854Y-103570373D01*
X125438136Y-103570373D01*
X125438139Y-103570373D01*
X125527283Y-103546487D01*
X125607207Y-103500342D01*
X125672464Y-103435085D01*
X125718609Y-103355161D01*
X125742495Y-103266017D01*
X125742495Y-103173729D01*
X125718609Y-103084585D01*
X125672464Y-103004661D01*
X125672461Y-103004658D01*
X125672460Y-103004656D01*
X125607211Y-102939407D01*
X125607208Y-102939405D01*
X125607207Y-102939404D01*
X125527283Y-102893259D01*
X125527282Y-102893258D01*
X125527281Y-102893258D01*
X125494651Y-102884515D01*
X125438139Y-102869373D01*
X125345851Y-102869373D01*
X125299197Y-102881873D01*
X125256708Y-102893258D01*
X125176778Y-102939407D01*
X125111529Y-103004656D01*
X125111526Y-103004660D01*
X125111526Y-103004661D01*
X125101780Y-103021541D01*
X125065380Y-103084586D01*
X125051589Y-103136053D01*
X125041495Y-103173729D01*
X124492495Y-103173729D01*
X124468609Y-103084585D01*
X124422464Y-103004661D01*
X124422461Y-103004658D01*
X124422460Y-103004656D01*
X124357211Y-102939407D01*
X124357208Y-102939405D01*
X124357207Y-102939404D01*
X124277283Y-102893259D01*
X124277282Y-102893258D01*
X124277281Y-102893258D01*
X124244651Y-102884515D01*
X124188139Y-102869373D01*
X124095851Y-102869373D01*
X124049197Y-102881873D01*
X124006708Y-102893258D01*
X123926778Y-102939407D01*
X123861528Y-103004658D01*
X123861525Y-103004660D01*
X123816605Y-103082462D01*
X123777199Y-103115526D01*
X123725760Y-103115525D01*
X123698307Y-103098035D01*
X123024001Y-102423729D01*
X126041495Y-102423729D01*
X126041495Y-102516017D01*
X126056637Y-102572529D01*
X126059657Y-102583801D01*
X126065381Y-102605161D01*
X126111526Y-102685085D01*
X126111527Y-102685086D01*
X126111529Y-102685089D01*
X126176778Y-102750338D01*
X126176780Y-102750339D01*
X126176783Y-102750342D01*
X126256707Y-102796487D01*
X126345851Y-102820373D01*
X126345854Y-102820373D01*
X126438136Y-102820373D01*
X126438139Y-102820373D01*
X126527283Y-102796487D01*
X126607207Y-102750342D01*
X126653693Y-102703856D01*
X128899500Y-102703856D01*
X128899500Y-102796144D01*
X128914642Y-102852656D01*
X128919121Y-102869373D01*
X128923386Y-102885288D01*
X128969531Y-102965212D01*
X128969532Y-102965213D01*
X128969534Y-102965216D01*
X129034783Y-103030465D01*
X129034785Y-103030466D01*
X129034788Y-103030469D01*
X129114712Y-103076614D01*
X129203856Y-103100500D01*
X129203859Y-103100500D01*
X129296141Y-103100500D01*
X129296144Y-103100500D01*
X129319272Y-103094303D01*
X129899500Y-103094303D01*
X129899500Y-103186591D01*
X129923386Y-103275735D01*
X129969531Y-103355659D01*
X129969532Y-103355660D01*
X129969534Y-103355663D01*
X130034783Y-103420912D01*
X130034785Y-103420913D01*
X130034788Y-103420916D01*
X130114712Y-103467061D01*
X130203856Y-103490947D01*
X130203859Y-103490947D01*
X130296141Y-103490947D01*
X130296144Y-103490947D01*
X130385288Y-103467061D01*
X130465212Y-103420916D01*
X130530469Y-103355659D01*
X130576614Y-103275735D01*
X130600500Y-103186591D01*
X130600500Y-103094303D01*
X130576614Y-103005159D01*
X130530469Y-102925235D01*
X130530467Y-102925233D01*
X130530466Y-102925231D01*
X130528964Y-102923729D01*
X130816498Y-102923729D01*
X130816498Y-103016017D01*
X130821528Y-103034788D01*
X130838474Y-103098035D01*
X130840384Y-103105161D01*
X130886529Y-103185085D01*
X130886530Y-103185086D01*
X130886532Y-103185089D01*
X130951781Y-103250338D01*
X130951783Y-103250339D01*
X130951786Y-103250342D01*
X131031710Y-103296487D01*
X131120854Y-103320373D01*
X131120857Y-103320373D01*
X131213139Y-103320373D01*
X131213142Y-103320373D01*
X131302286Y-103296487D01*
X131382210Y-103250342D01*
X131447467Y-103185085D01*
X131493612Y-103105161D01*
X131517498Y-103016017D01*
X131517498Y-102923729D01*
X131493612Y-102834585D01*
X131447467Y-102754661D01*
X131447464Y-102754658D01*
X131447463Y-102754656D01*
X131382214Y-102689407D01*
X131382211Y-102689405D01*
X131382210Y-102689404D01*
X131302286Y-102643259D01*
X131302285Y-102643258D01*
X131302284Y-102643258D01*
X131269654Y-102634515D01*
X131213142Y-102619373D01*
X131120854Y-102619373D01*
X131074200Y-102631873D01*
X131031711Y-102643258D01*
X130951781Y-102689407D01*
X130886532Y-102754656D01*
X130840383Y-102834586D01*
X130826799Y-102885286D01*
X130816498Y-102923729D01*
X130528964Y-102923729D01*
X130465216Y-102859981D01*
X130465213Y-102859979D01*
X130465212Y-102859978D01*
X130385288Y-102813833D01*
X130385287Y-102813832D01*
X130385286Y-102813832D01*
X130352656Y-102805089D01*
X130296144Y-102789947D01*
X130203856Y-102789947D01*
X130162792Y-102800950D01*
X130114713Y-102813832D01*
X130034783Y-102859981D01*
X129969534Y-102925230D01*
X129923385Y-103005160D01*
X129916604Y-103030469D01*
X129899500Y-103094303D01*
X129319272Y-103094303D01*
X129385288Y-103076614D01*
X129465212Y-103030469D01*
X129530469Y-102965212D01*
X129576614Y-102885288D01*
X129600500Y-102796144D01*
X129600500Y-102703856D01*
X129576614Y-102614712D01*
X129530469Y-102534788D01*
X129530466Y-102534785D01*
X129530465Y-102534783D01*
X129465216Y-102469534D01*
X129465213Y-102469532D01*
X129465212Y-102469531D01*
X129385288Y-102423386D01*
X129385287Y-102423385D01*
X129385286Y-102423385D01*
X129352656Y-102414642D01*
X129296144Y-102399500D01*
X129203856Y-102399500D01*
X129157202Y-102412000D01*
X129114713Y-102423385D01*
X129034783Y-102469534D01*
X128969534Y-102534783D01*
X128923385Y-102614713D01*
X128917643Y-102636145D01*
X128899500Y-102703856D01*
X126653693Y-102703856D01*
X126672464Y-102685085D01*
X126718609Y-102605161D01*
X126742495Y-102516017D01*
X126742495Y-102423729D01*
X126718609Y-102334585D01*
X126672464Y-102254661D01*
X126672461Y-102254658D01*
X126672460Y-102254656D01*
X126607211Y-102189407D01*
X126607208Y-102189405D01*
X126607207Y-102189404D01*
X126527283Y-102143259D01*
X126527282Y-102143258D01*
X126527281Y-102143258D01*
X126493892Y-102134312D01*
X126438139Y-102119373D01*
X126345851Y-102119373D01*
X126299197Y-102131873D01*
X126256708Y-102143258D01*
X126176778Y-102189407D01*
X126111529Y-102254656D01*
X126111526Y-102254660D01*
X126111526Y-102254661D01*
X126110095Y-102257140D01*
X126065380Y-102334586D01*
X126051589Y-102386053D01*
X126041495Y-102423729D01*
X123024001Y-102423729D01*
X122501126Y-101900854D01*
X122494188Y-101885977D01*
X122483635Y-101873400D01*
X122480784Y-101857232D01*
X122479386Y-101854234D01*
X122479100Y-101847680D01*
X122479100Y-101703856D01*
X128149500Y-101703856D01*
X128149500Y-101796144D01*
X128163309Y-101847680D01*
X128170200Y-101873400D01*
X128173386Y-101885288D01*
X128219531Y-101965212D01*
X128219532Y-101965213D01*
X128219534Y-101965216D01*
X128284783Y-102030465D01*
X128284785Y-102030466D01*
X128284788Y-102030469D01*
X128364712Y-102076614D01*
X128453856Y-102100500D01*
X128453859Y-102100500D01*
X128546141Y-102100500D01*
X128546144Y-102100500D01*
X128635288Y-102076614D01*
X128715212Y-102030469D01*
X128780469Y-101965212D01*
X128826614Y-101885288D01*
X128850500Y-101796144D01*
X128850500Y-101703856D01*
X128826614Y-101614712D01*
X128780469Y-101534788D01*
X128780466Y-101534785D01*
X128780465Y-101534783D01*
X128715216Y-101469534D01*
X128715213Y-101469532D01*
X128715212Y-101469531D01*
X128635288Y-101423386D01*
X128635287Y-101423385D01*
X128635286Y-101423385D01*
X128602656Y-101414642D01*
X128546144Y-101399500D01*
X128453856Y-101399500D01*
X128407202Y-101412000D01*
X128364713Y-101423385D01*
X128284783Y-101469534D01*
X128219534Y-101534783D01*
X128173385Y-101614713D01*
X128159594Y-101666180D01*
X128149500Y-101703856D01*
X122479100Y-101703856D01*
X122479100Y-100703856D01*
X128149500Y-100703856D01*
X128149500Y-100796144D01*
X128173386Y-100885288D01*
X128219531Y-100965212D01*
X128219532Y-100965213D01*
X128219534Y-100965216D01*
X128284783Y-101030465D01*
X128284785Y-101030466D01*
X128284788Y-101030469D01*
X128364712Y-101076614D01*
X128453856Y-101100500D01*
X128453859Y-101100500D01*
X128546141Y-101100500D01*
X128546144Y-101100500D01*
X128635288Y-101076614D01*
X128715212Y-101030469D01*
X128780469Y-100965212D01*
X128826614Y-100885288D01*
X128850500Y-100796144D01*
X128850500Y-100703856D01*
X128826614Y-100614712D01*
X128780469Y-100534788D01*
X128780466Y-100534785D01*
X128780465Y-100534783D01*
X128730887Y-100485205D01*
X128709147Y-100438585D01*
X128722461Y-100388898D01*
X128764598Y-100359393D01*
X128803522Y-100359393D01*
X128881056Y-100380168D01*
X128881059Y-100380168D01*
X128973341Y-100380168D01*
X128973344Y-100380168D01*
X129062488Y-100356282D01*
X129142412Y-100310137D01*
X129207669Y-100244880D01*
X129253814Y-100164956D01*
X129277700Y-100075812D01*
X129277700Y-99983524D01*
X129253814Y-99894380D01*
X129207669Y-99814456D01*
X129207666Y-99814453D01*
X129207665Y-99814451D01*
X129142416Y-99749202D01*
X129142413Y-99749200D01*
X129142412Y-99749199D01*
X129062488Y-99703054D01*
X129062487Y-99703053D01*
X129062486Y-99703053D01*
X129029856Y-99694310D01*
X128973344Y-99679168D01*
X128881056Y-99679168D01*
X128834402Y-99691668D01*
X128791913Y-99703053D01*
X128711983Y-99749202D01*
X128646734Y-99814451D01*
X128600585Y-99894381D01*
X128593344Y-99921408D01*
X128576700Y-99983524D01*
X128576700Y-100075812D01*
X128600586Y-100164956D01*
X128646731Y-100244880D01*
X128646732Y-100244881D01*
X128646734Y-100244884D01*
X128696312Y-100294462D01*
X128718052Y-100341082D01*
X128704738Y-100390769D01*
X128662601Y-100420274D01*
X128623676Y-100420274D01*
X128570580Y-100406047D01*
X128546144Y-100399500D01*
X128453856Y-100399500D01*
X128411803Y-100410768D01*
X128364713Y-100423385D01*
X128284783Y-100469534D01*
X128219534Y-100534783D01*
X128173385Y-100614713D01*
X128159951Y-100664852D01*
X128149500Y-100703856D01*
X122479100Y-100703856D01*
X122479100Y-97203856D01*
X125899500Y-97203856D01*
X125899500Y-97296144D01*
X125907529Y-97326108D01*
X125920992Y-97376356D01*
X125923386Y-97385288D01*
X125969531Y-97465212D01*
X125969532Y-97465213D01*
X125969534Y-97465216D01*
X126034783Y-97530465D01*
X126034785Y-97530466D01*
X126034788Y-97530469D01*
X126114712Y-97576614D01*
X126203856Y-97600500D01*
X126203859Y-97600500D01*
X126296141Y-97600500D01*
X126296144Y-97600500D01*
X126385288Y-97576614D01*
X126465212Y-97530469D01*
X126530469Y-97465212D01*
X126576614Y-97385288D01*
X126600500Y-97296144D01*
X126600500Y-97203856D01*
X126576614Y-97114712D01*
X126530469Y-97034788D01*
X126530466Y-97034785D01*
X126530465Y-97034783D01*
X126465216Y-96969534D01*
X126465213Y-96969532D01*
X126465212Y-96969531D01*
X126385288Y-96923386D01*
X126385287Y-96923385D01*
X126385286Y-96923385D01*
X126352656Y-96914642D01*
X126296144Y-96899500D01*
X126203856Y-96899500D01*
X126157202Y-96912000D01*
X126114713Y-96923385D01*
X126079831Y-96943525D01*
X126039614Y-96966745D01*
X126034783Y-96969534D01*
X125969534Y-97034783D01*
X125923385Y-97114713D01*
X125909594Y-97166180D01*
X125899500Y-97203856D01*
X122479100Y-97203856D01*
X122479100Y-96929427D01*
X122479099Y-96929424D01*
X122458534Y-96879774D01*
X122444221Y-96845220D01*
X121802857Y-96203856D01*
X122649500Y-96203856D01*
X122649500Y-96296144D01*
X122664019Y-96350330D01*
X122670080Y-96372952D01*
X122673386Y-96385288D01*
X122719531Y-96465212D01*
X122719532Y-96465213D01*
X122719534Y-96465216D01*
X122784783Y-96530465D01*
X122784785Y-96530466D01*
X122784788Y-96530469D01*
X122864712Y-96576614D01*
X122953856Y-96600500D01*
X122953859Y-96600500D01*
X123046141Y-96600500D01*
X123046144Y-96600500D01*
X123135288Y-96576614D01*
X123215212Y-96530469D01*
X123280469Y-96465212D01*
X123326614Y-96385288D01*
X123350500Y-96296144D01*
X123350500Y-96203856D01*
X123326614Y-96114712D01*
X123280469Y-96034788D01*
X123280466Y-96034785D01*
X123280465Y-96034783D01*
X123215216Y-95969534D01*
X123215213Y-95969532D01*
X123215212Y-95969531D01*
X123135288Y-95923386D01*
X123135287Y-95923385D01*
X123135286Y-95923385D01*
X123092466Y-95911912D01*
X123046144Y-95899500D01*
X122953856Y-95899500D01*
X122907534Y-95911912D01*
X122864713Y-95923385D01*
X122784783Y-95969534D01*
X122719534Y-96034783D01*
X122673385Y-96114713D01*
X122665737Y-96143258D01*
X122649500Y-96203856D01*
X121802857Y-96203856D01*
X121751126Y-96152125D01*
X121729386Y-96105505D01*
X121729100Y-96098951D01*
X121729100Y-95575200D01*
X121746693Y-95526862D01*
X121791242Y-95501142D01*
X121804300Y-95500000D01*
X123250000Y-95500000D01*
X123250000Y-94325200D01*
X123267593Y-94276862D01*
X123312142Y-94251142D01*
X123325200Y-94250000D01*
X124695700Y-94250000D01*
X124744038Y-94267593D01*
G37*
G04 #@! TD.AperFunction*
G04 #@! TD*
M02*
