M48
; DRILL file {KiCad 9.0.4} date 2025-09-23T15:48:31-0400
; FORMAT={-:-/ absolute / metric / decimal}
; #@! TF.CreationDate,2025-09-23T15:48:31-04:00
; #@! TF.GenerationSoftware,Kicad,Pcbnew,9.0.4
; #@! TF.FileFunction,MixedPlating,1,4
FMAT,2
METRIC
; #@! TA.AperFunction,Plated,PTH,ViaDrill
T1C0.200
; #@! TA.AperFunction,Plated,PTH,ViaDrill
T2C0.300
; #@! TA.AperFunction,Plated,PTH,ComponentDrill
T3C0.500
%
G90
G05
T1
X120.5Y-106.0
X120.75Y-100.0
X120.75Y-101.0
X121.0Y-105.75
X121.5Y-103.25
X122.25Y-104.0
X122.642Y-103.22
X122.75Y-106.5
X123.0Y-96.25
X123.0Y-98.75
X123.0Y-99.75
X123.0Y-100.75
X123.5Y-95.0
X123.5Y-96.5
X123.5Y-106.5
X123.75Y-98.75
X123.75Y-99.75
X123.75Y-100.75
X124.0Y-94.5
X124.142Y-103.22
X124.25Y-106.5
X124.257Y-96.617
X124.5Y-86.75
X124.5Y-87.5
X124.5Y-88.25
X124.5Y-98.75
X124.5Y-99.75
X124.5Y-100.75
X124.5Y-105.5
X124.772Y-96.72
X125.0Y-86.75
X125.0Y-87.5
X125.0Y-88.25
X125.0Y-106.5
X125.25Y-98.75
X125.25Y-99.75
X125.25Y-100.75
X125.297Y-96.72
X125.392Y-103.22
X125.5Y-86.75
X125.5Y-87.5
X125.5Y-88.25
X125.5Y-90.75
X125.5Y-105.5
X125.75Y-106.5
X126.0Y-86.75
X126.0Y-87.5
X126.0Y-88.25
X126.0Y-91.0
X126.125Y-91.875
X126.25Y-92.5
X126.25Y-97.25
X126.25Y-103.0
X126.392Y-102.47
X126.5Y-86.75
X126.5Y-87.5
X126.5Y-88.25
X126.5Y-105.5
X126.5Y-106.5
X127.142Y-98.6
X127.142Y-99.125
X127.191Y-99.705
X127.485Y-100.14
X127.5Y-105.625
X127.555Y-89.953
X127.666Y-89.44
X128.0Y-90.5
X128.104Y-88.455
X128.25Y-87.875
X128.25Y-99.25
X128.5Y-100.75
X128.5Y-101.75
X128.5Y-105.75
X128.5Y-106.25
X128.58Y-102.397
X128.718Y-87.478
X128.927Y-100.03
X129.25Y-102.75
X129.25Y-105.75
X129.25Y-106.25
X129.352Y-93.75
X129.548Y-96.953
X129.75Y-86.75
X129.75Y-97.5
X129.907Y-94.981
X130.0Y-105.75
X130.0Y-106.25
X130.25Y-103.14
X130.267Y-86.661
X130.75Y-88.75
X130.75Y-89.5
X130.75Y-90.25
X130.75Y-98.75
X130.75Y-99.75
X130.75Y-100.75
X130.75Y-105.75
X130.75Y-106.25
X130.78Y-86.774
X131.167Y-102.97
X131.25Y-88.75
X131.25Y-89.5
X131.25Y-90.25
X131.5Y-98.75
X131.5Y-99.75
X131.5Y-100.75
X131.5Y-105.75
X131.5Y-106.25
X131.75Y-88.75
X131.75Y-89.5
X131.75Y-90.25
X132.25Y-98.75
X132.25Y-99.75
X132.25Y-100.75
X132.25Y-103.25
X132.75Y-103.5
X133.0Y-87.5
X133.0Y-98.75
X133.0Y-99.75
X133.0Y-100.75
X133.356Y-103.036
X133.5Y-95.5
X133.5Y-96.47
X133.892Y-102.97
X134.25Y-103.5
X134.5Y-97.5
X134.75Y-84.5
X134.75Y-103.25
X134.987Y-98.565
X135.0Y-105.75
X135.0Y-106.25
X135.5Y-96.75
T2
X122.029Y-86.0
X122.25Y-90.675
X122.471Y-87.85
X122.739Y-81.469
X123.0Y-82.175
X123.5Y-92.0
X123.504Y-85.287
X124.0Y-93.75
X124.75Y-82.75
X125.698Y-82.774
X126.378Y-82.452
X127.5Y-85.925
X129.279Y-93.0
X129.488Y-85.75
X130.221Y-93.63
X131.221Y-93.628
X132.241Y-93.749
X133.491Y-94.365
X133.5Y-85.75
X133.893Y-88.991
X134.23Y-90.234
X134.352Y-91.007
X135.0Y-96.25
T3
X120.0Y-81.5
X120.0Y-82.75
X120.0Y-84.0
X120.0Y-85.25
X120.0Y-86.5
X120.0Y-87.75
X120.0Y-89.0
X120.0Y-90.25
X120.0Y-91.5
X120.0Y-92.75
X120.0Y-94.0
X120.0Y-95.25
X120.0Y-98.0
X120.0Y-99.25
X120.0Y-100.5
X120.0Y-101.75
X120.0Y-103.0
X121.0Y-107.0
X124.75Y-80.75
X126.0Y-80.75
X127.0Y-107.0
X127.25Y-80.75
X128.75Y-80.75
X129.0Y-107.0
X130.0Y-80.75
X131.25Y-80.75
X132.75Y-107.0
X134.0Y-107.0
X136.0Y-81.5
X136.0Y-82.75
X136.0Y-84.0
X136.0Y-85.25
X136.0Y-86.5
X136.0Y-87.75
X136.0Y-89.0
X136.0Y-90.25
X136.0Y-91.5
X136.0Y-92.75
X136.0Y-94.0
X136.0Y-95.25
X136.0Y-98.0
X136.0Y-99.25
X136.0Y-100.5
X136.0Y-101.75
X136.0Y-103.0
M30
