G04 #@! TF.GenerationSoftware,KiCad,Pcbnew,9.0.4*
G04 #@! TF.CreationDate,2025-09-23T15:48:17-04:00*
G04 #@! TF.ProjectId,ESC Module,45534320-4d6f-4647-956c-652e6b696361,rev?*
G04 #@! TF.SameCoordinates,Original*
G04 #@! TF.FileFunction,Legend,Top*
G04 #@! TF.FilePolarity,Positive*
%FSLAX46Y46*%
G04 Gerber Fmt 4.6, Leading zero omitted, Abs format (unit mm)*
G04 Created by KiCad (PCBNEW 9.0.4) date 2025-09-23 15:48:17*
%MOMM*%
%LPD*%
G01*
G04 APERTURE LIST*
%ADD10C,0.250000*%
%ADD11C,0.120000*%
G04 APERTURE END LIST*
D10*
G36*
X129351788Y-83330000D02*
G01*
X129351788Y-82325673D01*
X130094347Y-82325673D01*
X130094347Y-82493712D01*
X129553960Y-82493712D01*
X129553960Y-82716461D01*
X130056734Y-82716461D01*
X130056734Y-82884501D01*
X129553960Y-82884501D01*
X129553960Y-83161960D01*
X130113459Y-83161960D01*
X130113459Y-83330000D01*
X129351788Y-83330000D01*
G37*
G36*
X130233565Y-83009553D02*
G01*
X130430303Y-82990013D01*
X130447458Y-83052095D01*
X130471712Y-83098410D01*
X130502355Y-83132224D01*
X130540971Y-83156595D01*
X130588988Y-83172033D01*
X130648900Y-83177592D01*
X130712934Y-83172326D01*
X130760761Y-83158212D01*
X130796118Y-83136864D01*
X130824413Y-83107092D01*
X130840365Y-83075725D01*
X130845638Y-83041610D01*
X130840322Y-83008917D01*
X130824816Y-82982076D01*
X130798772Y-82960653D01*
X130752032Y-82939333D01*
X130590160Y-82894881D01*
X130482611Y-82861872D01*
X130409346Y-82828170D01*
X130361976Y-82794680D01*
X130321013Y-82749916D01*
X130292606Y-82701782D01*
X130275583Y-82649430D01*
X130269774Y-82591592D01*
X130274563Y-82541472D01*
X130288870Y-82493691D01*
X130313128Y-82447428D01*
X130345781Y-82406753D01*
X130387050Y-82372755D01*
X130438180Y-82345151D01*
X130493696Y-82326325D01*
X130558828Y-82314312D01*
X130635223Y-82310041D01*
X130730839Y-82316181D01*
X130807903Y-82333071D01*
X130869747Y-82359002D01*
X130919094Y-82393145D01*
X130960822Y-82437783D01*
X130991162Y-82488752D01*
X131010734Y-82547213D01*
X131019173Y-82614856D01*
X130816939Y-82622672D01*
X130803908Y-82573265D01*
X130785126Y-82537315D01*
X130761252Y-82511847D01*
X130730872Y-82494234D01*
X130689317Y-82482488D01*
X130633208Y-82478080D01*
X130575385Y-82482668D01*
X130530270Y-82495182D01*
X130495211Y-82514412D01*
X130477205Y-82531888D01*
X130466702Y-82552306D01*
X130463093Y-82576693D01*
X130470412Y-82609382D01*
X130493135Y-82637693D01*
X130521909Y-82655373D01*
X130579076Y-82677694D01*
X130678942Y-82705287D01*
X130816097Y-82744167D01*
X130897173Y-82778011D01*
X130941329Y-82806224D01*
X130977964Y-82840069D01*
X131007815Y-82879921D01*
X131029409Y-82924673D01*
X131042997Y-82977353D01*
X131047810Y-83039656D01*
X131042527Y-83095732D01*
X131026743Y-83149248D01*
X131000000Y-83201100D01*
X130964002Y-83246677D01*
X130919313Y-83283801D01*
X130864750Y-83312964D01*
X130805321Y-83332394D01*
X130733440Y-83344997D01*
X130646824Y-83349539D01*
X130550973Y-83343247D01*
X130472294Y-83325790D01*
X130407821Y-83298712D01*
X130355137Y-83262711D01*
X130310775Y-83216138D01*
X130275636Y-83159641D01*
X130249649Y-83091537D01*
X130233565Y-83009553D01*
G37*
G36*
X131858574Y-82958750D02*
G01*
X132054640Y-83021277D01*
X132026665Y-83102292D01*
X131992113Y-83168710D01*
X131951461Y-83222657D01*
X131904675Y-83265764D01*
X131850612Y-83299752D01*
X131789156Y-83324624D01*
X131719023Y-83340179D01*
X131638633Y-83345631D01*
X131559729Y-83339888D01*
X131488605Y-83323246D01*
X131424006Y-83296144D01*
X131364929Y-83258425D01*
X131310676Y-83209344D01*
X131265949Y-83153093D01*
X131230575Y-83088995D01*
X131204457Y-83015914D01*
X131188034Y-82932389D01*
X131182266Y-82836690D01*
X131188171Y-82734866D01*
X131204889Y-82646957D01*
X131231295Y-82570979D01*
X131266794Y-82505240D01*
X131311348Y-82448405D01*
X131365777Y-82398960D01*
X131425971Y-82360728D01*
X131492743Y-82333072D01*
X131567243Y-82315975D01*
X131650907Y-82310041D01*
X131741625Y-82317357D01*
X131820300Y-82338265D01*
X131889039Y-82371958D01*
X131949433Y-82418668D01*
X131989417Y-82465165D01*
X132023748Y-82525696D01*
X132051892Y-82603133D01*
X131851735Y-82650027D01*
X131835166Y-82600823D01*
X131810518Y-82560316D01*
X131777608Y-82527112D01*
X131737958Y-82502332D01*
X131692789Y-82487233D01*
X131640648Y-82481988D01*
X131586514Y-82487215D01*
X131539192Y-82502292D01*
X131497298Y-82527024D01*
X131459909Y-82562161D01*
X131432141Y-82603408D01*
X131410464Y-82658057D01*
X131395978Y-82729465D01*
X131390605Y-82821669D01*
X131396019Y-82920171D01*
X131410490Y-82995205D01*
X131431892Y-83051468D01*
X131458932Y-83092901D01*
X131495877Y-83128414D01*
X131537123Y-83153315D01*
X131583562Y-83168448D01*
X131636557Y-83173684D01*
X131688314Y-83167799D01*
X131734054Y-83150621D01*
X131775226Y-83121844D01*
X131808304Y-83083661D01*
X131836359Y-83030581D01*
X131858574Y-82958750D01*
G37*
G36*
X132872304Y-83330000D02*
G01*
X132514366Y-82325673D01*
X132733635Y-82325673D01*
X132987098Y-83068171D01*
X133232318Y-82325673D01*
X133446824Y-82325673D01*
X133088154Y-83330000D01*
X132872304Y-83330000D01*
G37*
G36*
X133902798Y-82332592D02*
G01*
X133963026Y-82352328D01*
X134014774Y-82384386D01*
X134059446Y-82429659D01*
X134090899Y-82478180D01*
X134117450Y-82540242D01*
X134138286Y-82618649D01*
X134152094Y-82716670D01*
X134157144Y-82837972D01*
X134152084Y-82958779D01*
X134138227Y-83056713D01*
X134117279Y-83135342D01*
X134090528Y-83197847D01*
X134058775Y-83246957D01*
X134014509Y-83291529D01*
X133963027Y-83323164D01*
X133902895Y-83342684D01*
X133831934Y-83349539D01*
X133761319Y-83342280D01*
X133699659Y-83321295D01*
X133645036Y-83286676D01*
X133596240Y-83237065D01*
X133568092Y-83193100D01*
X133543893Y-83134643D01*
X133524578Y-83058318D01*
X133511589Y-82960203D01*
X133506866Y-82837972D01*
X133707615Y-82837972D01*
X133713163Y-83000266D01*
X133725383Y-83079834D01*
X133739997Y-83122997D01*
X133755045Y-83150830D01*
X133770141Y-83167517D01*
X133799071Y-83183862D01*
X133831934Y-83189316D01*
X133864874Y-83183786D01*
X133894094Y-83167151D01*
X133916892Y-83138913D01*
X133936531Y-83087650D01*
X133950277Y-83001199D01*
X133956315Y-82837972D01*
X133950765Y-82675632D01*
X133938546Y-82596111D01*
X133916442Y-82537287D01*
X133893789Y-82508061D01*
X133864824Y-82491435D01*
X133831934Y-82485896D01*
X133799037Y-82491421D01*
X133769774Y-82508061D01*
X133747025Y-82536292D01*
X133727398Y-82587562D01*
X133713642Y-82674611D01*
X133707615Y-82837972D01*
X133506866Y-82837972D01*
X133506786Y-82835896D01*
X133511836Y-82715732D01*
X133525676Y-82618210D01*
X133546612Y-82539807D01*
X133573368Y-82477386D01*
X133605155Y-82428255D01*
X133649421Y-82383680D01*
X133700894Y-82352045D01*
X133761006Y-82332526D01*
X133831934Y-82325673D01*
X133902798Y-82332592D01*
G37*
D11*
G04 #@! TO.C,R109*
X134586637Y-89854123D02*
X134893919Y-89854123D01*
X134586637Y-90614123D02*
X134893919Y-90614123D01*
G04 #@! TO.C,C8*
X121155000Y-83640580D02*
X121155000Y-83359420D01*
X122175000Y-83640580D02*
X122175000Y-83359420D01*
G04 #@! TO.C,D202*
X121165000Y-91275000D02*
X121165000Y-89315000D01*
X122365000Y-89315000D02*
X121165000Y-89315000D01*
X122365000Y-91275000D02*
X122365000Y-89315000D01*
G04 #@! TO.C,R21*
X127074495Y-104316232D02*
X127074495Y-104623514D01*
X127834495Y-104316232D02*
X127834495Y-104623514D01*
G04 #@! TO.C,C5*
X132407309Y-95598402D02*
X132407309Y-95382730D01*
X133127309Y-95598402D02*
X133127309Y-95382730D01*
G04 #@! TO.C,U305*
X129316995Y-97204873D02*
X129791995Y-97204873D01*
X129316995Y-97679873D02*
X129316995Y-97204873D01*
X129316995Y-101949873D02*
X129316995Y-102424873D01*
X129316995Y-102424873D02*
X129791995Y-102424873D01*
X134061995Y-97204873D02*
X134296995Y-97204873D01*
X134536995Y-97679873D02*
X134536995Y-97504873D01*
X134536995Y-101949873D02*
X134536995Y-102424873D01*
X134536995Y-102424873D02*
X134061995Y-102424873D01*
X134866995Y-97444873D02*
X134536995Y-97204873D01*
X134866995Y-96964873D01*
X134866995Y-97444873D01*
G36*
X134866995Y-97444873D02*
G01*
X134536995Y-97204873D01*
X134866995Y-96964873D01*
X134866995Y-97444873D01*
G37*
G04 #@! TO.C,R16*
X125032828Y-104623514D02*
X125032828Y-104316232D01*
X125792828Y-104623514D02*
X125792828Y-104316232D01*
G04 #@! TO.C,R202*
X132354441Y-104663076D02*
X132354441Y-104355794D01*
X133114441Y-104663076D02*
X133114441Y-104355794D01*
G04 #@! TO.C,C303*
X134348166Y-87911073D02*
X134348166Y-88192233D01*
X135368166Y-87911073D02*
X135368166Y-88192233D01*
G04 #@! TO.C,R309*
X127466412Y-97937663D02*
X127466412Y-98244945D01*
X128226412Y-97937663D02*
X128226412Y-98244945D01*
G04 #@! TO.C,D304*
X128840000Y-85215000D02*
X130800000Y-85215000D01*
X128840000Y-86415000D02*
X130800000Y-86415000D01*
X130800000Y-86415000D02*
X130800000Y-85215000D01*
G04 #@! TO.C,R311*
X131445289Y-95644207D02*
X131445289Y-95336925D01*
X132205289Y-95644207D02*
X132205289Y-95336925D01*
G04 #@! TO.C,C6*
X121315000Y-93630580D02*
X121315000Y-93349420D01*
X122335000Y-93630580D02*
X122335000Y-93349420D01*
G04 #@! TO.C,R105*
X121627714Y-81090951D02*
X121320432Y-81090951D01*
X121627714Y-81850951D02*
X121320432Y-81850951D01*
G04 #@! TO.C,R110*
X130841088Y-92964679D02*
X130841088Y-93271961D01*
X131601088Y-92964679D02*
X131601088Y-93271961D01*
G04 #@! TO.C,R22*
X124011995Y-104316232D02*
X124011995Y-104623514D01*
X124771995Y-104316232D02*
X124771995Y-104623514D01*
G04 #@! TO.C,R108*
X131822388Y-92968071D02*
X131822388Y-93275353D01*
X132582388Y-92968071D02*
X132582388Y-93275353D01*
G04 #@! TO.C,R102*
X121686294Y-85233155D02*
X121379012Y-85233155D01*
X121686294Y-85993155D02*
X121379012Y-85993155D01*
G04 #@! TO.C,R104*
X125366532Y-83948641D02*
X125366532Y-83641359D01*
X126126532Y-83948641D02*
X126126532Y-83641359D01*
G04 #@! TO.C,R312*
X134604524Y-104355793D02*
X134604524Y-104663075D01*
X135364524Y-104355793D02*
X135364524Y-104663075D01*
G04 #@! TO.C,R19*
X131157828Y-104623514D02*
X131157828Y-104316232D01*
X131917828Y-104623514D02*
X131917828Y-104316232D01*
G04 #@! TO.C,R307*
X128345328Y-95336925D02*
X128345328Y-95644207D01*
X129105328Y-95336925D02*
X129105328Y-95644207D01*
G04 #@! TO.C,R310*
X127324495Y-95644207D02*
X127324495Y-95336925D01*
X128084495Y-95644207D02*
X128084495Y-95336925D01*
G04 #@! TO.C,D301*
X134185000Y-84590000D02*
X134185000Y-86550000D01*
X134185000Y-86550000D02*
X135385000Y-86550000D01*
X135385000Y-84590000D02*
X135385000Y-86550000D01*
G04 #@! TO.C,R15*
X129116162Y-104623514D02*
X129116162Y-104316232D01*
X129876162Y-104623514D02*
X129876162Y-104316232D01*
G04 #@! TO.C,U25*
X123404408Y-85595413D02*
X123404408Y-86070413D01*
X123404408Y-89815413D02*
X123404408Y-89340413D01*
X123879408Y-85595413D02*
X123404408Y-85595413D01*
X123879408Y-89815413D02*
X123404408Y-89815413D01*
X127149408Y-85595413D02*
X127624408Y-85595413D01*
X127149408Y-89815413D02*
X127324408Y-89815413D01*
X127624408Y-85595413D02*
X127624408Y-86070413D01*
X127624408Y-89340413D02*
X127624408Y-89575413D01*
X127864408Y-90145413D02*
X127384408Y-90145413D01*
X127624408Y-89815413D01*
X127864408Y-90145413D01*
G36*
X127864408Y-90145413D02*
G01*
X127384408Y-90145413D01*
X127624408Y-89815413D01*
X127864408Y-90145413D01*
G37*
G04 #@! TO.C,R14*
X130136995Y-104623514D02*
X130136995Y-104316232D01*
X130896995Y-104623514D02*
X130896995Y-104316232D01*
G04 #@! TO.C,C304*
X134193835Y-92326164D02*
X134193835Y-92045004D01*
X135213835Y-92326164D02*
X135213835Y-92045004D01*
G04 #@! TO.C,R306*
X129526995Y-95336925D02*
X129526995Y-95644207D01*
X130286995Y-95336925D02*
X130286995Y-95644207D01*
G04 #@! TO.C,R107*
X132961078Y-84189715D02*
X133268360Y-84189715D01*
X132961078Y-84949715D02*
X133268360Y-84949715D01*
G04 #@! TO.C,R101*
X124365000Y-83948641D02*
X124365000Y-83641359D01*
X125125000Y-83948641D02*
X125125000Y-83641359D01*
G04 #@! TO.C,R111*
X133121098Y-92755561D02*
X133121098Y-93062843D01*
X133881098Y-92755561D02*
X133881098Y-93062843D01*
G04 #@! TO.C,R112*
X129841339Y-92966375D02*
X129841339Y-93273657D01*
X130601339Y-92966375D02*
X130601339Y-93273657D01*
G04 #@! TO.C,R308*
X124282828Y-95316232D02*
X124282828Y-95623514D01*
X125042828Y-95316232D02*
X125042828Y-95623514D01*
G04 #@! TO.C,U302*
X128765000Y-87870000D02*
X128765000Y-87635000D01*
X128765000Y-91615000D02*
X128765000Y-91140000D01*
X129240000Y-87395000D02*
X129065000Y-87395000D01*
X129240000Y-91615000D02*
X128765000Y-91615000D01*
X132510000Y-87395000D02*
X132985000Y-87395000D01*
X132510000Y-91615000D02*
X132985000Y-91615000D01*
X132985000Y-87395000D02*
X132985000Y-87870000D01*
X132985000Y-91615000D02*
X132985000Y-91140000D01*
X128765000Y-87395000D02*
X128525000Y-87065000D01*
X129005000Y-87065000D01*
X128765000Y-87395000D01*
G36*
X128765000Y-87395000D02*
G01*
X128525000Y-87065000D01*
X129005000Y-87065000D01*
X128765000Y-87395000D01*
G37*
G04 #@! TO.C,R305*
X130476995Y-95336925D02*
X130476995Y-95644207D01*
X131236995Y-95336925D02*
X131236995Y-95644207D01*
G04 #@! TO.C,R304*
X126261995Y-95336925D02*
X126261995Y-95644207D01*
X127021995Y-95336925D02*
X127021995Y-95644207D01*
G04 #@! TO.C,R103*
X123181330Y-91131765D02*
X123181330Y-91439047D01*
X123941330Y-91131765D02*
X123941330Y-91439047D01*
G04 #@! TO.C,R313*
X133464159Y-104663075D02*
X133464159Y-104355793D01*
X134224159Y-104663075D02*
X134224159Y-104355793D01*
G04 #@! TO.C,U203*
X121436995Y-97264873D02*
X121911995Y-97264873D01*
X121436995Y-97739873D02*
X121436995Y-97264873D01*
X121436995Y-102009873D02*
X121436995Y-102184873D01*
X121911995Y-102484873D02*
X121676995Y-102484873D01*
X126656995Y-97264873D02*
X126181995Y-97264873D01*
X126656995Y-97739873D02*
X126656995Y-97264873D01*
X126656995Y-102009873D02*
X126656995Y-102484873D01*
X126656995Y-102484873D02*
X126181995Y-102484873D01*
X121436995Y-102484873D02*
X121106995Y-102724873D01*
X121106995Y-102244873D01*
X121436995Y-102484873D01*
G36*
X121436995Y-102484873D02*
G01*
X121106995Y-102724873D01*
X121106995Y-102244873D01*
X121436995Y-102484873D01*
G37*
G04 #@! TO.C,C302*
X132411074Y-85324836D02*
X132692234Y-85324836D01*
X132411074Y-86344836D02*
X132692234Y-86344836D01*
G04 #@! TO.C,R17*
X126053662Y-104623514D02*
X126053662Y-104316232D01*
X126813662Y-104623514D02*
X126813662Y-104316232D01*
G04 #@! TO.C,R18*
X128095328Y-104623514D02*
X128095328Y-104316232D01*
X128855328Y-104623514D02*
X128855328Y-104316232D01*
G04 #@! TO.C,D201*
X122640000Y-92360000D02*
X122640000Y-93560000D01*
X124600000Y-92360000D02*
X122640000Y-92360000D01*
X124600000Y-93560000D02*
X122640000Y-93560000D01*
G04 #@! TO.C,R201*
X120453005Y-104241486D02*
X120453005Y-104548768D01*
X121213005Y-104241486D02*
X121213005Y-104548768D01*
G04 #@! TO.C,D203*
X122594914Y-83144686D02*
X122594914Y-85104686D01*
X122594914Y-85104686D02*
X123794914Y-85104686D01*
X123794914Y-83144686D02*
X123794914Y-85104686D01*
G04 #@! TO.C,C7*
X121315000Y-87990580D02*
X121315000Y-87709420D01*
X122335000Y-87990580D02*
X122335000Y-87709420D01*
G04 #@! TO.C,C301*
X123029574Y-104335848D02*
X123029574Y-104551520D01*
X123749574Y-104335848D02*
X123749574Y-104551520D01*
G04 #@! TO.C,R106*
X126325000Y-83948641D02*
X126325000Y-83641359D01*
X127085000Y-83948641D02*
X127085000Y-83641359D01*
G04 #@! TO.C,R303*
X125303662Y-95316232D02*
X125303662Y-95623514D01*
X126063662Y-95316232D02*
X126063662Y-95623514D01*
G04 #@! TO.C,D302*
X134164496Y-95734026D02*
X134164496Y-93774026D01*
X135364496Y-93774026D02*
X134164496Y-93774026D01*
X135364496Y-95734026D02*
X135364496Y-93774026D01*
G04 #@! TO.C,R20*
X127457232Y-101032539D02*
X127457232Y-100725257D01*
X128217232Y-101032539D02*
X128217232Y-100725257D01*
G04 #@! TD*
M02*
